<svg width="64" height="64" viewBox="0 0 64 64" fill="none" xmlns="http://www.w3.org/2000/svg">
<path d="M59 23.0585H56V22.0585C55.9971 21.2098 55.7779 20.3759 55.3631 19.6355C54.9483 18.8951 54.3516 18.2726 53.6294 17.8269L55.9478 11.7738C56.0604 11.4708 56.0984 11.1452 56.0587 10.8244C56.019 10.5037 55.9026 10.1972 55.7194 9.93088C55.5362 9.66457 55.2917 9.44627 55.0063 9.29442C54.721 9.14257 54.4033 9.06164 54.0801 9.05847H27.9702C27.4398 9.05847 26.9311 9.26918 26.556 9.64426C26.1809 10.0193 25.9702 10.528 25.9702 11.0585C25.9702 11.5889 26.1809 12.0976 26.556 12.4727C26.9311 12.8478 27.4398 13.0585 27.9702 13.0585H51.1724L45.0444 29.0585H14.9199C14.6548 29.0581 14.4007 28.9527 14.2132 28.7652C14.0257 28.5777 13.9203 28.3236 13.9199 28.0585V26.9486C13.9199 26.4182 13.7092 25.9095 13.3341 25.5344C12.9591 25.1593 12.4504 24.9486 11.9199 24.9486C11.3895 24.9486 10.8808 25.1593 10.5057 25.5344C10.1306 25.9095 9.91992 26.4182 9.91992 26.9486V28.0585C9.92148 29.3841 10.4488 30.6549 11.3861 31.5923C12.3235 32.5296 13.5943 33.0569 14.9199 33.0585H16V38.0585C16.0016 39.3841 16.5288 40.6549 17.4662 41.5923C18.4035 42.5296 19.6744 43.0569 21 43.0585H34V47.4085C33.1566 47.7039 32.3906 48.1854 31.7588 48.8172C31.1269 49.4491 30.6454 50.2151 30.35 51.0585H12V48.0585C11.9995 46.7325 11.4726 45.461 10.535 44.5235C9.59743 43.5859 8.32594 43.059 7 43.0585H2C1.47005 43.06 0.962244 43.2712 0.587509 43.646C0.212773 44.0207 0.00155911 44.5285 0 45.0585L0 61.0585C0.00155911 61.5884 0.212773 62.0962 0.587509 62.471C0.962244 62.8457 1.47005 63.0569 2 63.0585H7C8.32594 63.058 9.59743 62.5311 10.535 61.5935C11.4726 60.6559 11.9995 59.3844 12 58.0585V55.0585H30.35C30.6872 56.0138 31.2611 56.8681 32.0179 57.5416C32.7747 58.2152 33.6898 58.6859 34.6779 58.91C35.6659 59.1341 36.6946 59.1042 37.6679 58.823C38.6412 58.5419 39.5275 58.0187 40.2439 57.3023C40.9602 56.5859 41.4834 55.6997 41.7646 54.7264C42.0457 53.7531 42.0756 52.7244 41.8515 51.7363C41.6275 50.7483 41.1567 49.8332 40.4832 49.0764C39.8096 48.3195 38.9553 47.7457 38 47.4085V43.0585H51C52.3256 43.0569 53.5965 42.5296 54.5338 41.5923C55.4712 40.6549 55.9984 39.3841 56 38.0585V37.0585H59C60.3259 37.058 61.5974 36.5311 62.535 35.5935C63.4726 34.6559 63.9995 33.3844 64 32.0585V28.0585C63.9995 26.7325 63.4726 25.461 62.535 24.5235C61.5974 23.5859 60.3259 23.059 59 23.0585ZM8 58.0585C7.99921 58.3234 7.8936 58.5773 7.70623 58.7647C7.51887 58.9521 7.26497 59.0577 7 59.0585H4V47.0585H7C7.26497 47.0593 7.51887 47.1649 7.70623 47.3522C7.8936 47.5396 7.99921 47.7935 8 48.0585V58.0585ZM36 55.0585C35.6044 55.0585 35.2178 54.9412 34.8889 54.7214C34.56 54.5016 34.3036 54.1893 34.1522 53.8238C34.0009 53.4584 33.9613 53.0563 34.0384 52.6683C34.1156 52.2803 34.3061 51.924 34.5858 51.6443C34.8655 51.3646 35.2219 51.1741 35.6098 51.0969C35.9978 51.0197 36.3999 51.0593 36.7654 51.2107C37.1308 51.3621 37.4432 51.6184 37.6629 51.9473C37.8827 52.2762 38 52.6629 38 53.0585C37.9984 53.5884 37.7872 54.0962 37.4125 54.471C37.0378 54.8457 36.53 55.0569 36 55.0585ZM52 38.0585C51.9997 38.3236 51.8942 38.5777 51.7067 38.7652C51.5193 38.9527 51.2651 39.0581 51 39.0585H21C20.7349 39.0581 20.4807 38.9527 20.2933 38.7652C20.1058 38.5777 20.0003 38.3236 20 38.0585V33.0585H46.4199C46.8247 33.0585 47.2199 32.9357 47.5534 32.7063C47.8868 32.477 48.1429 32.1518 48.2876 31.7738L52 22.0811V38.0585ZM60 32.0585C59.9992 32.3234 59.8936 32.5773 59.7062 32.7647C59.5189 32.9521 59.265 33.0577 59 33.0585H56V27.0585H59C59.265 27.0593 59.5189 27.1649 59.7062 27.3522C59.8936 27.5396 59.9992 27.7935 60 28.0585V32.0585Z" fill="#AA824E"/>
<path d="M18.5471 17.5184C18.2672 17.7983 18.0766 18.1549 17.9994 18.5431C17.9222 18.9313 17.9618 19.3336 18.1133 19.6993C18.2647 20.065 18.5212 20.3775 18.8503 20.5974C19.1794 20.8173 19.5663 20.9346 19.9621 20.9346C20.3579 20.9346 20.7448 20.8173 21.0739 20.5974C21.403 20.3775 21.6595 20.065 21.8109 19.6993C21.9624 19.3336 22.002 18.9313 21.9248 18.5431C21.8476 18.1549 21.657 17.7983 21.3771 17.5184C21.0015 17.1439 20.4926 16.9336 19.9621 16.9336C19.4316 16.9336 18.9228 17.1439 18.5471 17.5184Z" fill="#AA824E"/>
<path d="M23.913 11.6957C24.0457 11.1821 23.9689 10.6369 23.6996 10.1799C23.4303 9.72292 22.9906 9.39157 22.4771 9.25871C20.7903 8.8206 19.0183 8.83082 17.3367 9.28837C15.6551 9.74591 14.1223 10.6349 12.89 11.8673C11.6577 13.0996 10.7689 14.6325 10.3115 16.3142C9.85406 17.9958 9.84398 19.7678 10.2822 21.4545C10.348 21.7088 10.4632 21.9475 10.6213 22.1573C10.7794 22.367 10.9772 22.5435 11.2035 22.6768C11.4298 22.81 11.6802 22.8974 11.9402 22.9339C12.2003 22.9704 12.465 22.9553 12.7193 22.8895C12.9735 22.8238 13.2123 22.7085 13.422 22.5504C13.6317 22.3924 13.8083 22.1945 13.9415 21.9682C14.0748 21.7419 14.1621 21.4916 14.1987 21.2315C14.2352 20.9715 14.2201 20.7068 14.1543 20.4525C13.8905 19.4398 13.896 18.3757 14.1705 17.3658C14.4449 16.3559 14.9786 15.4352 15.7186 14.6953C16.4587 13.9553 17.3794 13.4217 18.3893 13.1475C19.3993 12.8732 20.4634 12.8678 21.4761 13.1317C21.7304 13.1975 21.9952 13.2126 22.2553 13.1761C22.5154 13.1395 22.7658 13.052 22.9921 12.9187C23.2184 12.7853 23.4163 12.6087 23.5743 12.3988C23.7323 12.189 23.8474 11.9501 23.913 11.6957Z" fill="#AA824E"/>
<path d="M4.48104 25.019C4.78648 25.0176 5.08758 24.9466 5.36143 24.8114C5.63529 24.6761 5.87469 24.4802 6.06141 24.2384C6.24814 23.9967 6.37727 23.7156 6.43899 23.4165C6.5007 23.1173 6.49337 22.8081 6.41756 22.5122C5.79474 20.1438 5.80343 17.6535 6.44274 15.2896C7.08206 12.9256 8.32969 10.7704 10.0613 9.03876C11.793 7.30712 13.9481 6.05948 16.3121 5.42015C18.6761 4.78082 21.1663 4.77212 23.5347 5.39493C23.789 5.46203 24.0541 5.47832 24.3147 5.44287C24.5753 5.40741 24.8264 5.3209 25.0535 5.18829C25.2807 5.05568 25.4794 4.87957 25.6384 4.67005C25.7974 4.46053 25.9135 4.22171 25.9801 3.96726C26.0467 3.71281 26.0624 3.44773 26.0264 3.18719C25.9904 2.92664 25.9034 2.67576 25.7703 2.44889C25.6373 2.22202 25.4607 2.02363 25.2509 1.86506C25.041 1.7065 24.802 1.59088 24.5474 1.52482C21.5036 0.725527 18.3034 0.737538 15.2657 1.55966C12.2279 2.38177 9.45849 3.98532 7.2332 6.21061C5.0079 8.43591 3.40436 11.2053 2.58224 14.2431C1.76012 17.2808 1.74811 20.481 2.5474 23.5248C2.65936 23.9525 2.9098 24.3311 3.25963 24.6014C3.60945 24.8717 4.03895 25.0186 4.48104 25.019Z" fill="#AA824E"/>
</svg>
