<svg width="64" height="64" viewBox="0 0 64 64" fill="none" xmlns="http://www.w3.org/2000/svg">
<path d="M64 32.0412C64.0026 28.1889 61.7649 24.8567 58.2515 23.3961C57.889 22.6997 52.9947 13.2542 52.9947 13.2542C51.3292 10.0876 48.2288 8.19702 44.7009 8.19702H19.2969C15.7717 8.19702 12.6724 10.0856 11.006 13.2488C9.97825 15.2 5.54764 23.6258 5.54764 23.6258C2.12131 25.1483 0.00812429 28.3911 0.00549952 32.1798L0 50.1786C0 53.2799 2.52315 55.8031 5.62451 55.8031H13.1348C16.2362 55.8031 18.7594 53.2799 18.7594 50.1786V47.6788H45.235V50.1786C45.235 53.2799 47.7582 55.8031 50.8595 55.8031H58.3699C61.4712 55.8031 63.9944 53.2799 63.9944 50.1786L64 32.0412ZM60.2472 36.4309H50.3292C51.0311 34.3961 52.844 32.6812 55.6256 32.6812H60.2498L60.2472 36.4309ZM59.3522 28.9316H55.6256C52.9532 28.9316 50.5214 29.9705 48.7783 31.8569C47.1934 33.5722 46.2724 35.9167 46.2516 38.2893C46.2472 38.7893 46.4428 39.2704 46.7949 39.6255C47.1469 39.9807 47.6263 40.1805 48.1264 40.1805H59.9227C59.1482 42.3619 57.0642 43.929 54.6213 43.929H42.5019V34.5548C42.5019 31.4535 39.9787 28.9303 36.8774 28.9303H27.1282C24.0269 28.9303 21.5037 31.4535 21.5037 34.5548V43.929H9.37543C7.87793 43.929 6.46656 43.3419 5.40128 42.2759C4.79833 41.6726 4.34924 40.9583 4.07289 40.1805H15.8792C16.3793 40.1805 16.8586 39.9806 17.2107 39.6255C17.5627 39.2704 17.7583 38.7893 17.7539 38.2891C17.7331 35.9166 16.812 33.5722 15.2272 31.8569C13.4841 29.9705 11.0523 28.9316 8.37976 28.9316H4.76558C5.37528 28.0665 6.2387 27.3781 7.29686 26.9562C12.8116 24.7579 22.0489 23.4456 32.0067 23.4456C35.8585 23.4456 49.3584 24.2535 56.4733 26.7274C57.7097 27.1572 58.6973 27.9314 59.3522 28.9316ZM38.7522 43.9291H25.2534V34.555C25.2534 33.5212 26.0945 32.6801 27.1282 32.6801H36.8774C37.9112 32.6801 38.7522 33.5212 38.7522 34.555V43.9291ZM8.37989 32.6812C11.1615 32.6812 12.9744 34.3961 13.6763 36.4309H3.75217L3.7548 32.6812H8.37989ZM14.3237 14.9962C15.3445 13.0581 17.1572 11.9466 19.2971 11.9466H44.7011C46.8424 11.9466 48.6557 13.0593 49.6761 14.9995C49.6761 14.9995 53.1513 21.6187 53.3336 21.9776C45.0104 20.1253 34.1739 19.6959 32.0068 19.6959C24.0274 19.6959 16.4336 20.5266 10.6493 21.9796C10.6492 21.9796 13.2963 16.9465 14.3237 14.9962ZM15.0097 50.1786C15.0097 51.2124 14.1686 52.0534 13.1348 52.0534H5.62451C4.59072 52.0534 3.74967 51.2124 3.74967 50.1786V45.7965C5.3659 47.0172 7.32086 47.6788 9.37543 47.6788H15.0098L15.0097 50.1786ZM58.3699 52.0534H50.8595C49.8257 52.0534 48.9847 51.2124 48.9847 50.1786V47.6788H54.6213C56.7293 47.6788 58.6768 46.9785 60.2447 45.799V50.1786C60.2447 51.2124 59.4037 52.0534 58.3699 52.0534Z" fill="#AA824E"/>
</svg>
