<svg width="17" height="16" viewBox="0 0 17 16" fill="none" xmlns="http://www.w3.org/2000/svg">
<g clip-path="url(#clip0_144_4070)">
<path d="M2.91 15C2.64479 15 2.39043 14.8946 2.2029 14.7071C2.01536 14.5196 1.91 14.2652 1.91 14V10C1.91 9.73478 2.01536 9.48043 2.2029 9.29289C2.39043 9.10536 2.64479 9 2.91 9H3.91C4.17522 9 4.42957 9.10536 4.61711 9.29289C4.80465 9.48043 4.91 9.73478 4.91 10V14C4.91 14.2652 4.80465 14.5196 4.61711 14.7071C4.42957 14.8946 4.17522 15 3.91 15H2.91ZM8.41 15C8.14479 15 7.89043 14.8946 7.7029 14.7071C7.51536 14.5196 7.41 14.2652 7.41 14V5C7.41 4.73478 7.51536 4.48043 7.7029 4.29289C7.89043 4.10536 8.14479 4 8.41 4H9.41C9.67522 4 9.92957 4.10536 10.1171 4.29289C10.3046 4.48043 10.41 4.73478 10.41 5V14C10.41 14.2652 10.3046 14.5196 10.1171 14.7071C9.92957 14.8946 9.67522 15 9.41 15H8.41ZM12.91 14C12.91 14.2652 13.0154 14.5196 13.2029 14.7071C13.3904 14.8946 13.6448 15 13.91 15H14.91C15.1752 15 15.4296 14.8946 15.6171 14.7071C15.8046 14.5196 15.91 14.2652 15.91 14V2C15.91 1.73478 15.8046 1.48043 15.6171 1.29289C15.4296 1.10536 15.1752 1 14.91 1H13.91C13.6448 1 13.3904 1.10536 13.2029 1.29289C13.0154 1.48043 12.91 1.73478 12.91 2V14Z" fill="#262626"/>
</g>
<defs>
<clipPath id="clip0_144_4070">
<rect width="16" height="16" fill="white" transform="translate(0.910004)"/>
</clipPath>
</defs>
</svg>
