<svg width="64" height="64" viewBox="0 0 64 64" fill="none" xmlns="http://www.w3.org/2000/svg">
<path d="M56 28.3607C56 26.6923 55.3053 25.0992 54.0827 23.9639L49.2425 19.4694C48.6406 18.9106 48.2496 18.2097 48.073 17.4664L41.6461 11.4985C40.8918 11.3774 40.1639 11.0393 39.562 10.4804L34.7218 5.98595C33.1871 4.56085 30.8129 4.56085 29.2782 5.98595L24.438 10.4804C23.8361 11.0393 23.1082 11.3774 22.3539 11.4985L15.927 17.4664C15.7504 18.2097 15.3594 18.9106 14.7575 19.4694L9.91729 23.9639C8.69469 25.0992 8 26.6923 8 28.3607V34.7705C8 36.9797 6.20914 38.7705 4 38.7705V27.4436C4 24.6629 5.15782 22.0078 7.19549 20.1156L26.5564 2.13765C29.6258 -0.712551 34.3742 -0.71255 37.4436 2.13765L56.8045 20.1156C58.8422 22.0078 60 24.6629 60 27.4436V38.7705C57.7909 38.7705 56 36.9797 56 34.7705V28.3607Z" fill="#AA824E"/>
<path d="M56 47.5902C56 45.381 57.7909 43.5902 60 43.5902V54C60 55.3559 59.7301 56.6488 59.2412 57.8279C58.9836 58.4491 58.6652 59.0386 58.2934 59.5892C57.9525 60.0941 57.5667 60.5661 57.1418 60.9997C57.0949 61.0475 57.0475 61.0949 56.9997 61.1418C56.5661 61.5667 56.0941 61.9525 55.5892 62.2934C55.0386 62.6652 54.4491 62.9836 53.8279 63.2412C52.6488 63.7301 51.3559 64 50 64H37C37 61.7909 38.7909 60 41 60H50C50.8209 60 51.5938 59.8374 52.2957 59.5463C53.4469 59.0689 54.6934 59.169 55.7133 59.7133C55.169 58.6934 55.0689 57.4469 55.5463 56.2957C55.8374 55.5938 56 54.8209 56 54V47.5902Z" fill="#AA824E"/>
<path d="M23 60C25.2091 60 27 61.7909 27 64H14C12.6441 64 11.3512 63.7301 10.1721 63.2412C9.55095 62.9836 8.96135 62.6652 8.41078 62.2934C7.90592 61.9525 7.43387 61.5667 7.00034 61.1418C6.9525 61.0949 6.90513 61.0475 6.85824 60.9997C6.43328 60.5661 6.04749 60.0941 5.70658 59.5892C5.3348 59.0386 5.0164 58.4491 4.7588 57.8279C4.26986 56.6488 4 55.3559 4 54V43.5902C6.20914 43.5902 8 45.381 8 47.5902V54C8 54.8209 8.16264 55.5938 8.45371 56.2957C8.93109 57.4469 8.83102 58.6934 8.28672 59.7133C9.3066 59.169 10.5531 59.0689 11.7043 59.5463C12.4062 59.8374 13.1791 60 14 60H23Z" fill="#AA824E"/>
</svg>
