<svg width="64" height="64" viewBox="0 0 64 64" fill="none" xmlns="http://www.w3.org/2000/svg">
<path d="M40.7578 13.9279C40.7578 14.9644 41.5981 15.8047 42.6346 15.8047C43.671 15.8047 44.5113 14.9644 44.5113 13.9279C44.5113 13.4604 44.5975 13.322 44.8531 12.9115C45.2152 12.3302 45.7625 11.4516 45.7625 9.91057C45.7625 8.36964 45.2152 7.49108 44.8531 6.90979C44.5974 6.49928 44.5113 6.36103 44.5113 5.89334C44.5113 5.42591 44.5975 5.28778 44.853 4.8774C45.2152 4.29611 45.7625 3.41767 45.7625 1.87674C45.7625 0.84028 44.9222 0 43.8857 0C42.8493 0 42.009 0.84028 42.009 1.87674C42.009 2.34417 41.9228 2.4823 41.6673 2.89268C41.3051 3.47397 40.7578 4.35254 40.7578 5.89334C40.7578 7.4344 41.3051 8.31284 41.6673 8.89425C41.9229 9.30476 42.009 9.44301 42.009 9.91057C42.009 10.3781 41.9228 10.5165 41.6672 10.9269C41.3051 11.5083 40.7578 12.3869 40.7578 13.9279Z" fill="#AA824E"/>
<path d="M32 13.9279C32 14.9644 32.8403 15.8047 33.8767 15.8047C34.9132 15.8047 35.7535 14.9644 35.7535 13.9279C35.7535 13.4604 35.8396 13.322 36.0953 12.9115C36.4574 12.3302 37.0046 11.4516 37.0046 9.91057C37.0046 8.36964 36.4574 7.49108 36.0953 6.90979C35.8396 6.49928 35.7535 6.36103 35.7535 5.89334C35.7535 5.42591 35.8396 5.28778 36.0952 4.8774C36.4574 4.29611 37.0046 3.41767 37.0046 1.87674C37.0046 0.84028 36.1644 0 35.1279 0C34.0914 0 33.2512 0.84028 33.2512 1.87674C33.2512 2.34417 33.165 2.4823 32.9095 2.89268C32.5473 3.47397 32 4.35254 32 5.89334C32 7.4344 32.5473 8.31284 32.9095 8.89425C33.1651 9.30476 33.2512 9.44301 33.2512 9.91057C33.2512 10.3781 33.165 10.5165 32.9093 10.9269C32.5473 11.5083 32 12.3869 32 13.9279Z" fill="#AA824E"/>
<path d="M23.2427 13.9279C23.2427 14.9644 24.083 15.8047 25.1194 15.8047C26.1559 15.8047 26.9962 14.9644 26.9962 13.9279C26.9962 13.4604 27.0822 13.322 27.338 12.9115C27.7002 12.3302 28.2473 11.4516 28.2473 9.91057C28.2473 8.36964 27.7001 7.49108 27.338 6.90979C27.0824 6.49928 26.9962 6.36103 26.9962 5.89334C26.9962 5.42591 27.0822 5.28778 27.3379 4.8774C27.7001 4.29611 28.2473 3.41767 28.2473 1.87674C28.2473 0.84028 27.407 0 26.3706 0C25.3341 0 24.4938 0.84028 24.4938 1.87674C24.4938 2.34417 24.4076 2.4823 24.1521 2.89268C23.7899 3.47397 23.2427 4.35254 23.2427 5.89334C23.2427 7.4344 23.7899 8.31284 24.152 8.89425C24.4076 9.30476 24.4938 9.44301 24.4938 9.91057C24.4938 10.3781 24.4076 10.5165 24.152 10.9269C23.7899 11.5083 23.2427 12.3869 23.2427 13.9279Z" fill="#AA824E"/>
<path d="M58.9295 60.2197H58.3039V24.2005C58.3039 21.096 55.7782 18.5703 52.6737 18.5703H51.3087C49.8704 18.5703 48.557 19.1131 47.5607 20.0036C46.5645 19.1131 45.2511 18.5703 43.8127 18.5703H42.4477C41.0068 18.5703 39.6912 19.1151 38.6942 20.0085C37.6974 19.1151 36.3817 18.5703 34.9408 18.5703H33.5756C32.1305 18.5703 30.8113 19.1181 29.8134 20.0162C28.8176 19.1272 27.5054 18.5855 26.0685 18.5855H24.7034C23.1631 18.5855 21.7657 19.2078 20.7481 20.2135C19.6242 19.193 18.1328 18.5703 16.4988 18.5703C13.5289 18.5703 11.0401 20.6691 10.4375 23.4614H9.50804C6.02719 23.4614 3.19531 26.2932 3.19531 29.7741V45.4486C3.19531 48.9295 6.02719 51.7614 9.50804 51.7614H10.4375C10.9022 53.9145 12.4889 55.6541 14.5524 56.3382V60.2456H13.9268C12.8903 60.2456 12.05 61.0859 12.05 62.1223C12.05 63.1588 12.8903 63.9991 13.9268 63.9991H18.9314C19.9679 63.9991 20.8082 63.1588 20.8082 62.1223C20.8082 61.0859 19.9679 60.2456 18.9314 60.2456H18.3058V56.388C19.2169 56.116 20.0427 55.6447 20.7316 55.0236C21.7505 56.0388 23.1548 56.6674 24.7034 56.6674H26.0685C27.5136 56.6674 28.8328 56.1198 29.8308 55.2216C30.8266 56.1105 32.1388 56.6523 33.5755 56.6523H34.9406C36.3816 56.6523 37.6973 56.1076 38.6941 55.2141C39.691 56.1075 41.0066 56.6523 42.4476 56.6523H43.8126C45.251 56.6523 46.5643 56.1095 47.5606 55.2189C48.5568 56.1095 49.8702 56.6523 51.3086 56.6523H52.6736C53.3315 56.6523 53.9629 56.5378 54.5503 56.3295V60.2194H53.9248C52.8883 60.2194 52.048 61.0597 52.048 62.0962C52.048 63.1327 52.8883 63.9729 53.9248 63.9729H58.9294C59.9659 63.9729 60.8061 63.1327 60.8061 62.0962C60.8063 61.06 59.966 60.2197 58.9295 60.2197ZM16.4989 52.8992C15.1497 52.8992 14.052 51.8015 14.052 50.4523V45.4487C14.052 44.4123 13.2117 43.572 12.1753 43.572C11.1388 43.572 10.2985 44.4123 10.2985 45.4487V48.008H9.50817C8.09699 48.008 6.94892 46.8599 6.94892 45.4487V29.7742C6.94892 28.363 8.09699 27.215 9.50817 27.215H10.2985V29.7742C10.2985 30.8107 11.1388 31.6509 12.1753 31.6509C13.2117 31.6509 14.052 30.8107 14.052 29.7742V24.7708C14.052 23.4216 15.1497 22.3239 16.4989 22.3239C17.9185 22.3239 19.0733 23.4787 19.0733 24.8983V50.3248C19.0733 51.7442 17.9185 52.8992 16.4989 52.8992ZM27.9454 51.0374C27.9454 52.0723 27.1035 52.9142 26.0687 52.9142H24.7035C23.6687 52.9142 22.8268 52.0723 22.8268 51.0374V24.2157C22.8268 23.1808 23.6687 22.3389 24.7035 22.3389H26.0687C27.1035 22.3389 27.9454 23.1808 27.9454 24.2157V51.0374ZM34.9408 52.899H33.5756C32.5407 52.899 31.6989 52.0571 31.6989 51.0223V24.2005C31.6989 23.1657 32.5407 22.3238 33.5756 22.3238H34.9408C35.9756 22.3238 36.8175 23.1657 36.8175 24.2005V51.0224C36.8175 52.0571 35.9756 52.899 34.9408 52.899ZM43.8129 52.899H42.4479C41.413 52.899 40.5711 52.0571 40.5711 51.0223V24.2005C40.5711 23.1657 41.413 22.3238 42.4479 22.3238H43.8129C44.7983 22.3238 45.6072 23.0878 45.6822 24.0543C45.681 24.1031 45.681 51.1199 45.6822 51.1686C45.607 52.1351 44.7983 52.899 43.8129 52.899ZM52.6737 52.899H51.3087C50.3233 52.899 49.5145 52.1351 49.4393 51.1686C49.4406 51.1198 49.4406 24.1029 49.4393 24.0543C49.5144 23.0878 50.3233 22.3238 51.3087 22.3238H52.6737C53.7084 22.3238 54.5505 23.1657 54.5505 24.2005V51.0224C54.5505 52.0571 53.7084 52.899 52.6737 52.899Z" fill="#AA824E"/>
</svg>
