<svg style="display: none;" aria-hidden="true" xmlns="http://www.w3.org/2000/svg" xmlns:xlink="http://www.w3.org/1999/xlink"><symbol viewBox="0 0 64 64" id="camera"><path d="M59 23.058h-3v-1a4.992 4.992 0 0 0-2.37-4.231l2.318-6.053a2.015 2.015 0 0 0-1.868-2.716H27.97a2 2 0 0 0 0 4h23.202l-6.128 16H14.92a1.001 1.001 0 0 1-1-1v-1.11a2 2 0 0 0-4 0v1.11a5.006 5.006 0 0 0 5 5H16v5a5.006 5.006 0 0 0 5 5h13v4.35a5.952 5.952 0 0 0-3.65 3.65H12v-3a5.002 5.002 0 0 0-5-5H2a2.005 2.005 0 0 0-2 2v16a2.006 2.006 0 0 0 2 2h5a5.002 5.002 0 0 0 5-5v-3h18.35a5.996 5.996 0 1 0 7.65-7.65v-4.35h13a5.006 5.006 0 0 0 5-5v-1h3a5.002 5.002 0 0 0 5-5v-4a5.002 5.002 0 0 0-5-5Zm-51 35a1.003 1.003 0 0 1-1 1H4v-12h3a1.003 1.003 0 0 1 1 1v10Zm28-3a2 2 0 1 1 0-3.999 2 2 0 0 1 0 4Zm16-17a1.001 1.001 0 0 1-1 1H21a1.001 1.001 0 0 1-1-1v-5h26.42a2 2 0 0 0 1.868-1.284L52 22.08V38.06Zm8-6a1.003 1.003 0 0 1-1 1h-3v-6h3a1.003 1.003 0 0 1 1 1v4Z"/><path d="M18.547 17.518a2.001 2.001 0 1 0 2.83 2.83 2.001 2.001 0 0 0-2.83-2.83Z"/><path d="M23.913 11.696a2 2 0 0 0-1.436-2.437 10.002 10.002 0 0 0-12.195 12.195 2 2 0 1 0 3.872-1.002 6 6 0 0 1 7.322-7.32 2 2 0 0 0 2.437-1.436Z"/><path d="M4.481 25.019a2.01 2.01 0 0 0 1.937-2.507A14.014 14.014 0 0 1 23.535 5.395a2 2 0 1 0 1.012-3.87 18.015 18.015 0 0 0-22 22 2 2 0 0 0 1.934 1.494Z"/></symbol><symbol viewBox="0 0 64 64" id="car"><path d="M64 32.041c.003-3.852-2.235-7.184-5.748-8.645-.363-.696-5.257-10.142-5.257-10.142-1.666-3.166-4.766-5.057-8.294-5.057H19.297c-3.525 0-6.625 1.889-8.291 5.052C9.978 15.2 5.548 23.626 5.548 23.626 2.12 25.148.008 28.39.005 32.18L0 50.179a5.63 5.63 0 0 0 5.625 5.624h7.51a5.631 5.631 0 0 0 5.624-5.624v-2.5h26.476v2.5a5.63 5.63 0 0 0 5.624 5.624h7.51a5.63 5.63 0 0 0 5.625-5.624L64 32.04Zm-3.753 4.39H50.33c.702-2.035 2.515-3.75 5.297-3.75h4.624l-.003 3.75Zm-.895-7.5h-3.726c-2.673 0-5.105 1.04-6.848 2.926-1.585 1.715-2.506 4.06-2.526 6.432a1.874 1.874 0 0 0 1.874 1.892h11.797a5.634 5.634 0 0 1-5.302 3.748h-12.12v-9.374a5.63 5.63 0 0 0-5.624-5.625h-9.749a5.63 5.63 0 0 0-5.624 5.625v9.374H9.375a5.585 5.585 0 0 1-3.974-1.653 5.625 5.625 0 0 1-1.328-2.096h11.806a1.875 1.875 0 0 0 1.875-1.89c-.02-2.373-.942-4.718-2.527-6.433-1.743-1.886-4.175-2.925-6.847-2.925H4.766a5.611 5.611 0 0 1 2.53-1.976c5.516-2.198 14.753-3.51 24.71-3.51 3.852 0 17.352.807 24.467 3.281 1.237.43 2.224 1.204 2.88 2.205Zm-20.6 14.998H25.253v-9.374c0-1.034.841-1.875 1.875-1.875h9.75c1.033 0 1.874.841 1.874 1.875v9.374ZM8.38 32.681c2.781 0 4.594 1.715 5.296 3.75H3.752l.003-3.75H8.38Zm5.944-17.685c1.02-1.938 2.833-3.05 4.973-3.05h25.404c2.141 0 3.955 1.113 4.975 3.053 0 0 3.475 6.62 3.658 6.979-8.324-1.853-19.16-2.282-21.327-2.282-7.98 0-15.573.83-21.358 2.284 0 0 2.647-5.034 3.675-6.984Zm.686 35.183a1.877 1.877 0 0 1-1.875 1.874h-7.51A1.877 1.877 0 0 1 3.75 50.18v-4.383a9.29 9.29 0 0 0 5.625 1.883h5.635v2.5Zm43.36 1.874h-7.51a1.877 1.877 0 0 1-1.875-1.874v-2.5h5.636c2.108 0 4.056-.7 5.624-1.88v4.38a1.877 1.877 0 0 1-1.875 1.874Z"/></symbol><symbol viewBox="0 0 17 16" id="chart"><g clip-path="url(#cclip0_144_4070)"><path d="M2.91 15a1 1 0 0 1-1-1v-4a1 1 0 0 1 1-1h1a1 1 0 0 1 1 1v4a1 1 0 0 1-1 1h-1Zm5.5 0a1 1 0 0 1-1-1V5a1 1 0 0 1 1-1h1a1 1 0 0 1 1 1v9a1 1 0 0 1-1 1h-1Zm4.5-1a1 1 0 0 0 1 1h1a1 1 0 0 0 1-1V2a1 1 0 0 0-1-1h-1a1 1 0 0 0-1 1v12Z"/></g><defs><clipPath id="cclip0_144_4070"><rect width="16" height="16" transform="translate(0.910004)"/></clipPath></defs></symbol><symbol viewBox="0 0 17 16" id="close"><g clip-path="url(#dclip0_2177_1275)"><path d="m9.489 8 6.47-6.47a.75.75 0 1 0-1.06-1.06l-6.47 6.47L1.958.47a.75.75 0 1 0-1.06 1.06L7.367 8l-6.47 6.47a.75.75 0 1 0 1.06 1.06l6.47-6.47 6.47 6.47a.748.748 0 0 0 1.06 0 .75.75 0 0 0 0-1.06L9.49 8Z"/></g><defs><clipPath id="dclip0_2177_1275"><rect width="16" height="16" transform="translate(0.428467)"/></clipPath></defs></symbol><symbol viewBox="0 0 24 24" id="down"><path d="M3.845 2.4 19.83 18.382V7.214a1.023 1.023 0 1 1 2.046 0v13.638a1.027 1.027 0 0 1-1.023 1.023H7.214a1.023 1.023 0 0 1 0-2.046h11.168L2.4 3.845A1.023 1.023 0 0 1 3.845 2.4Z"/></symbol><symbol viewBox="0 0 64 64" id="eco"><path d="M56 28.36a6 6 0 0 0-1.917-4.396l-4.84-4.495a3.98 3.98 0 0 1-1.17-2.003l-6.427-5.968a3.981 3.981 0 0 1-2.084-1.018l-4.84-4.494a4 4 0 0 0-5.444 0l-4.84 4.494a3.981 3.981 0 0 1-2.084 1.018l-6.427 5.968a3.98 3.98 0 0 1-1.17 2.003l-4.84 4.495A6 6 0 0 0 8 28.36v6.41a4 4 0 0 1-4 4V27.444a10 10 0 0 1 3.195-7.328L26.556 2.138a8 8 0 0 1 10.888 0l19.36 17.978A10 10 0 0 1 60 27.444V38.77a4 4 0 0 1-4-4v-6.41Z"/><path d="M56 47.59a4 4 0 0 1 4-4V54a9.971 9.971 0 0 1-3 7.142 10.054 10.054 0 0 1-3.172 2.1A9.971 9.971 0 0 1 50 64H37a4 4 0 0 1 4-4h9a5.97 5.97 0 0 0 2.296-.454 3.992 3.992 0 0 1 3.417.167 3.992 3.992 0 0 1-.167-3.417A5.97 5.97 0 0 0 56 54v-6.41Z"/><path d="M23 60a4 4 0 0 1 4 4H14a9.971 9.971 0 0 1-7.142-3 10.05 10.05 0 0 1-2.1-3.172A9.97 9.97 0 0 1 4 54V43.59a4 4 0 0 1 4 4V54c0 .82.163 1.594.454 2.296a3.992 3.992 0 0 1-.167 3.417 3.992 3.992 0 0 1 3.417-.167A5.97 5.97 0 0 0 14 60h9Z"/></symbol><symbol viewBox="0 0 64 64" id="heating"><path d="M40.758 13.928a1.877 1.877 0 0 0 3.753 0c0-.468.086-.606.342-1.017.362-.58.91-1.46.91-3 0-1.541-.548-2.42-.91-3.001-.256-.41-.342-.549-.342-1.017 0-.467.086-.605.342-1.016.362-.58.91-1.46.91-3a1.877 1.877 0 0 0-3.754 0c0 .467-.086.605-.342 1.016-.362.581-.91 1.46-.91 3 0 1.541.548 2.42.91 3.001.256.41.342.549.342 1.017 0 .467-.086.606-.342 1.016-.362.581-.91 1.46-.91 3Z"/><path d="M32 13.928a1.877 1.877 0 0 0 3.754 0c0-.468.086-.606.341-1.017.362-.58.91-1.46.91-3 0-1.541-.548-2.42-.91-3.001-.255-.41-.341-.549-.341-1.017 0-.467.086-.605.341-1.016.362-.58.91-1.46.91-3a1.877 1.877 0 1 0-3.754 0c0 .467-.086.605-.341 1.016-.363.581-.91 1.46-.91 3 0 1.541.547 2.42.91 3.001.255.41.341.549.341 1.017 0 .467-.086.606-.342 1.016-.362.581-.909 1.46-.909 3Z"/><path d="M23.243 13.928a1.877 1.877 0 0 0 3.753 0c0-.468.086-.606.342-1.017.362-.58.91-1.46.91-3 0-1.541-.548-2.42-.91-3.001-.256-.41-.342-.549-.342-1.017 0-.467.086-.605.342-1.016.362-.58.91-1.46.91-3a1.877 1.877 0 0 0-3.754 0c0 .467-.086.605-.342 1.016-.362.581-.91 1.46-.91 3 0 1.541.548 2.42.91 3.001.256.41.342.549.342 1.017 0 .467-.086.606-.342 1.016-.362.581-.91 1.46-.91 3Z"/><path d="M58.93 60.22h-.626V24.2a5.637 5.637 0 0 0-5.63-5.63h-1.365a5.607 5.607 0 0 0-3.748 1.434 5.607 5.607 0 0 0-3.748-1.434h-1.365c-1.441 0-2.757.545-3.754 1.439a5.607 5.607 0 0 0-3.753-1.439h-1.365a5.607 5.607 0 0 0-3.763 1.446 5.606 5.606 0 0 0-3.744-1.43h-1.366c-1.54 0-2.937.622-3.955 1.628a6.303 6.303 0 0 0-4.25-1.644 6.211 6.211 0 0 0-6.06 4.891h-.93a6.32 6.32 0 0 0-6.313 6.313V45.45a6.32 6.32 0 0 0 6.313 6.312h.93a6.223 6.223 0 0 0 4.114 4.577v3.908h-.625a1.877 1.877 0 0 0 0 3.753h5.004a1.877 1.877 0 0 0 0-3.753h-.625v-3.858a6.326 6.326 0 0 0 2.426-1.364 5.612 5.612 0 0 0 3.971 1.643h1.366a5.607 5.607 0 0 0 3.762-1.445 5.607 5.607 0 0 0 3.744 1.43h1.366a5.607 5.607 0 0 0 3.753-1.438 5.607 5.607 0 0 0 3.754 1.438h1.365a5.607 5.607 0 0 0 3.748-1.433 5.607 5.607 0 0 0 3.748 1.433h1.365c.657 0 1.289-.114 1.876-.322v3.89h-.625a1.877 1.877 0 0 0 0 3.753h5.004a1.877 1.877 0 0 0 0-3.753ZM16.498 52.9a2.45 2.45 0 0 1-2.447-2.448V45.45a1.877 1.877 0 0 0-3.753 0v2.559h-.79a2.562 2.562 0 0 1-2.56-2.56V29.775a2.562 2.562 0 0 1 2.56-2.559h.79v2.56a1.877 1.877 0 0 0 3.753 0V24.77a2.45 2.45 0 0 1 2.447-2.447 2.577 2.577 0 0 1 2.574 2.574v25.427a2.577 2.577 0 0 1-2.574 2.574Zm11.446-1.863a1.879 1.879 0 0 1-1.876 1.877h-1.366a1.879 1.879 0 0 1-1.876-1.877V24.216c0-1.035.842-1.877 1.876-1.877h1.366c1.035 0 1.876.842 1.876 1.877v26.821Zm6.996 1.862h-1.365a1.879 1.879 0 0 1-1.877-1.877V24.201c0-1.035.842-1.877 1.877-1.877h1.365c1.035 0 1.877.842 1.877 1.877v26.821A1.879 1.879 0 0 1 34.94 52.9Zm8.872 0h-1.365a1.879 1.879 0 0 1-1.877-1.877V24.201c0-1.035.842-1.877 1.877-1.877h1.365c.985 0 1.794.764 1.87 1.73-.002.05-.002 27.066 0 27.115a1.878 1.878 0 0 1-1.87 1.73Zm8.86 0H51.31a1.878 1.878 0 0 1-1.87-1.73c.002-.05.002-27.066 0-27.115a1.878 1.878 0 0 1 1.87-1.73h1.365c1.034 0 1.877.842 1.877 1.877v26.821a1.879 1.879 0 0 1-1.877 1.877Z"/></symbol><symbol viewBox="0 0 24 24" id="left"><path d="m17.16 24-12-12 12-12 1.68 1.68L8.52 12l10.32 10.32L17.16 24Z"/></symbol><symbol viewBox="0 0 24 24" id="phone"><g clip-path="url(#iclip0_2179_3982)"><path d="M16.77 24.06c1.328 0 2.623-.26 3.835-.832a.77.77 0 0 0-.656-1.393c-5.067 2.392-11.962-1.687-15.7-7.013C2.957 12.981-.9 6.613 3.718 1.985a1.446 1.446 0 0 1 2.044 0l1.649 1.652c.274.274.424.638.424 1.025 0 .387-.15.752-.424 1.026l-.14.143-2.732-2.737a.767.767 0 0 0-1.087 0c-.3.3-.3.788 0 1.088L6.75 7.488a.77.77 0 0 0 1.129-.045c.173-.204.375-.421.619-.666a2.974 2.974 0 0 0 .874-2.114c0-.8-.31-1.55-.875-2.114L6.85.897a2.983 2.983 0 0 0-4.219 0c-3.633 3.641-3.495 9.317.362 14.812 3.246 4.624 8.75 8.35 13.778 8.351Z"/><path d="M21.862 22.309c.17 0 .339-.056.48-.169.272-.218.536-.456.786-.706a3 3 0 0 0 0-4.228l-1.65-1.652a2.96 2.96 0 0 0-2.11-.876c-.797 0-1.546.31-2.108.876-1.29 1.293-2.47 2.047-4.045 1.528-2.065-.677-5.566-4.184-6.243-6.254-.23-.704-.217-1.364.041-2.018a.769.769 0 1 0-1.43-.566c-.39.989-.413 2.02-.071 3.065.833 2.548 4.682 6.403 7.224 7.237 2.474.815 4.3-.588 5.61-1.903.547-.548 1.5-.547 2.046 0l1.65 1.651a1.456 1.456 0 0 1 0 2.052 8.651 8.651 0 0 1-.144.14l-2.792-2.798c-.3-.3-.788-.3-1.087 0-.3.301-.3.79 0 1.09l3.3 3.306a.769.769 0 0 0 .543.225Z"/></g><defs><clipPath id="iclip0_2179_3982"><rect width="24" height="24" transform="matrix(-1 0 0 1 24 0)"/></clipPath></defs></symbol><symbol viewBox="0 0 64 64" id="plant"><path d="M62.118 60.234H57.97V55.6h.665a1.883 1.883 0 0 0 0-3.765h-5.169v-3.256h3.428a1.882 1.882 0 0 0 1.882-1.883V39.36c0-1.039-.843-1.882-1.882-1.882h-24.26c-1.04 0-1.883.843-1.883 1.882v7.336c0 1.04.844 1.883 1.883 1.883h3.427v3.256h-5.169a1.883 1.883 0 0 0 0 3.765h.665v4.635H16.436V42.24c7.137-.924 12.67-7.044 12.67-14.431 0-6.478-9.517-21.9-12.99-26.973a1.883 1.883 0 0 0-3.128 0C9.334 6.388 0 21.2 0 27.808c0 7.387 5.532 13.507 12.67 14.431v17.995H1.883a1.883 1.883 0 0 0 0 3.765h60.236a1.883 1.883 0 0 0 0-3.765ZM14.553 5.33c4.014 6.298 10.788 17.884 10.788 22.479 0 5.307-3.852 9.732-8.905 10.622v-4.553l5.778-5.778a1.881 1.881 0 1 0-2.661-2.662l-3.117 3.116v-8.208a1.882 1.882 0 1 0-3.765 0v8.21l-3.119-3.118a1.881 1.881 0 1 0-2.661 2.662l5.78 5.778v4.553c-5.054-.89-8.906-5.315-8.906-10.622 0-4.592 6.774-16.18 10.788-22.48Zm20.769 54.905V55.6h18.884v4.635H35.322Zm-.806-18.992h20.495v3.571H34.516v-3.571Zm15.186 7.336v3.256h-9.876v-3.256h9.876Z"/><path d="M39.396 30.57a1.882 1.882 0 1 0 2.809 2.509c1.44-1.613 3.677-1.615 5.119 0a1.882 1.882 0 0 0 2.807-2.508c-2.935-3.287-7.789-3.298-10.735 0Z"/><path d="M53.01 27.294a1.882 1.882 0 0 0 .15-2.658c-4.615-5.166-12.177-5.165-16.79 0a1.882 1.882 0 1 0 2.807 2.508c3.114-3.486 8.06-3.488 11.175 0a1.882 1.882 0 0 0 2.658.15Z"/><path d="M33.269 21.63a1.882 1.882 0 0 0 2.658-.15c4.91-5.497 12.762-5.499 17.675 0a1.882 1.882 0 0 0 2.807-2.508c-6.41-7.177-16.88-7.176-23.29 0a1.882 1.882 0 0 0 .15 2.658Z"/></symbol><symbol viewBox="0 0 24 24" id="right"><path d="m6.84 24 12-12-12-12-1.68 1.68L15.48 12 5.16 22.32 6.84 24Z"/></symbol><symbol viewBox="0 0 32 32" id="tg"><g clip-path="url(#lclip0_2177_2949)"><path d="M27.314 4.686A15.895 15.895 0 0 0 16 0 15.896 15.896 0 0 0 4.686 4.686 15.895 15.895 0 0 0 0 16c0 2.72.693 5.395 2.006 7.76L.035 30.81a.938.938 0 0 0 1.155 1.155l7.05-1.97A15.99 15.99 0 0 0 16 32c4.274 0 8.292-1.664 11.314-4.686A15.895 15.895 0 0 0 32 16c0-4.274-1.665-8.292-4.686-11.314ZM16 30.125a14.11 14.11 0 0 1-7.158-1.947.937.937 0 0 0-.729-.095L2.29 29.71l1.628-5.824a.937.937 0 0 0-.095-.729A14.112 14.112 0 0 1 1.875 16c0-3.773 1.47-7.32 4.137-9.988A14.032 14.032 0 0 1 16 1.875c7.788 0 14.125 6.336 14.125 14.125 0 7.788-6.337 14.125-14.125 14.125Z"/><path d="M22.906 17.199a3.022 3.022 0 0 0-2.152-.889 3.02 3.02 0 0 0-2.151.889l-.435.434a.57.57 0 0 1-.405.167.57.57 0 0 1-.406-.167l-2.992-2.992a.57.57 0 0 1-.167-.405c0-.155.06-.299.166-.406l.435-.435a3.046 3.046 0 0 0 0-4.303l-.87-.87a3.022 3.022 0 0 0-2.15-.888c-.815 0-1.58.315-2.153.889l-.648.648c-1.37 1.37-1.868 3.412-1.4 5.747.439 2.198 1.695 4.423 3.537 6.265 2.321 2.32 5.278 3.707 7.908 3.707 1.658 0 3.077-.543 4.104-1.57l.649-.648a3.047 3.047 0 0 0 0-4.304l-.87-.869Zm-.456 3.847-.649.648c-.667.668-1.628 1.02-2.777 1.02-2.145 0-4.606-1.18-6.583-3.157-1.583-1.583-2.657-3.468-3.025-5.306-.34-1.702-.025-3.141.888-4.054l.648-.649a1.16 1.16 0 0 1 .826-.339c.314 0 .607.12.826.34l.87.869a1.17 1.17 0 0 1 0 1.652l-.435.434a2.431 2.431 0 0 0-.715 1.732c0 .655.254 1.27.715 1.731l2.992 2.992a2.432 2.432 0 0 0 1.732.716c.655 0 1.27-.254 1.731-.716l.435-.434c.219-.219.512-.34.826-.34.313 0 .606.121.825.34l.87.87a1.17 1.17 0 0 1 0 1.651Z"/></g><defs><clipPath id="lclip0_2177_2949"><rect width="32" height="32"/></clipPath></defs></symbol><symbol viewBox="0 0 32 32" id="ws"><g clip-path="url(#mclip0_2177_2342)"><path d="M31.51 3.44c-.39-.48-.977-.744-1.65-.744-.364 0-.75.076-1.146.226L1.622 13.187c-1.44.546-1.634 1.368-1.621 1.81.012.438.25 1.241 1.7 1.705l5.746 2.106 3.028 6.931c.304.959.94 1.631 1.752 1.85.187.05.378.075.57.075.66 0 1.335-.29 1.918-.838l2.509-2.357 6.12 4.213c.552.407 1.152.622 1.737.622 1.187 0 2.134-.869 2.412-2.214l4.43-21.43c.183-.88.036-1.669-.413-2.22ZM9.35 18.482l7.82-4.192-5.45 4.998a.937.937 0 0 0-.302.69l-.002.028-.018 3.161-2.047-4.685Zm4.081 6.977a1.77 1.77 0 0 1-.173.144l.023-3.848 2.362 1.626-2.212 2.078ZM30.088 5.28l-4.431 21.43c-.045.216-.19.718-.576.718-.18 0-.404-.092-.63-.261a.87.87 0 0 0-.03-.021l-6.747-4.645a.028.028 0 0 1-.003-.002l-3.816-2.626 10.08-9.245a.938.938 0 0 0-1.078-1.517L8.073 17.04l-5.746-2.105a.525.525 0 0 0-.012-.005L29.379 4.676a1.38 1.38 0 0 1 .48-.105c.047 0 .158.005.197.053.05.06.112.268.032.657Z"/></g><defs><clipPath id="mclip0_2177_2342"><rect width="32" height="32"/></clipPath></defs></symbol></svg>