<svg width="24" height="24" viewBox="0 0 24 24" fill="none" xmlns="http://www.w3.org/2000/svg">
<g clip-path="url(#clip0_2179_3982)">
<path d="M16.7703 24.0602C18.098 24.0602 19.3929 23.8004 20.6045 23.2282C20.9883 23.0471 21.1527 22.5888 20.972 22.2039C20.7915 21.819 20.3335 21.6542 19.9494 21.8351C14.8817 24.2273 7.98682 20.1482 4.24906 14.8222C2.95706 12.9808 -0.900628 6.61295 3.7175 1.98508C4.2811 1.42038 5.19883 1.42038 5.76207 1.98508L7.41076 3.63699C7.68451 3.9109 7.8352 4.27452 7.8352 4.662C7.8352 5.04947 7.68451 5.41402 7.41076 5.68829C7.36279 5.73673 7.31573 5.78388 7.2705 5.83066L4.5391 3.09357C4.23899 2.79232 3.75284 2.79287 3.45236 3.09357C3.15225 3.39426 3.15225 3.88173 3.45236 4.18242L6.75048 7.48752C6.90209 7.6398 7.11102 7.72071 7.32452 7.71282C7.53894 7.70401 7.73999 7.60641 7.87897 7.44294C8.05164 7.2393 8.25433 7.02171 8.49787 6.77734C9.06147 6.21263 9.37202 5.46153 9.37202 4.66292C9.37202 3.86375 9.06147 3.1132 8.49713 2.54886L6.84881 0.897321C5.68535 -0.267857 3.79368 -0.267857 2.63022 0.897321C-1.00317 4.53816 -0.864556 10.2138 2.99203 15.7087C6.23778 20.3326 11.7412 24.0598 16.7703 24.0602Z" fill="white"/>
<path d="M21.8619 22.3086C22.0312 22.3086 22.2006 22.2526 22.3418 22.14C22.6141 21.9219 22.8783 21.6837 23.128 21.434C24.2906 20.2692 24.2906 18.3724 23.1284 17.2056L21.4781 15.5536C20.9148 14.9889 20.1657 14.6778 19.3687 14.6778C18.5714 14.6778 17.8224 14.9889 17.2595 15.554C15.97 16.8469 14.7892 17.6006 13.2154 17.0825C11.1499 16.4047 7.6495 12.8982 6.97182 10.8284C6.74129 10.1244 6.75502 9.4643 7.01339 8.81044C7.16958 8.41507 6.97603 7.96742 6.58144 7.81111C6.18648 7.65517 5.74025 7.84909 5.58406 8.24408C5.19367 9.23277 5.1695 10.2638 5.51173 11.3088C6.34541 13.8566 10.1943 17.7117 12.7364 18.5463C15.2103 19.3613 17.0352 17.9579 18.3464 16.6429C18.8928 16.0954 19.846 16.0958 20.3917 16.6434L22.0417 18.2944C22.6053 18.8604 22.6053 19.7808 22.0413 20.3463C21.9943 20.3934 21.9459 20.4402 21.8976 20.4864L19.1056 17.6884C18.8054 17.3877 18.3184 17.3877 18.0188 17.6884C17.7191 17.9891 17.7187 18.4771 18.0188 18.7773L21.3186 22.0837C21.4676 22.2323 21.6645 22.3086 21.8619 22.3086Z" fill="white"/>
</g>
<defs>
<clipPath id="clip0_2179_3982">
<rect width="24" height="24" fill="white" transform="matrix(-1 0 0 1 24 0)"/>
</clipPath>
</defs>
</svg>
