<svg width="64" height="64" viewBox="0 0 64 64" fill="none" xmlns="http://www.w3.org/2000/svg">
<path d="M62.1177 60.2344H57.9702V55.5986H58.6353C59.6743 55.5986 60.5176 54.7554 60.5176 53.7163C60.5176 52.6772 59.6743 51.834 58.6353 51.834H53.4663V48.5776H56.8936C57.9326 48.5776 58.7759 47.7358 58.7759 46.6953V39.3594C58.7759 38.3203 57.9326 37.4766 56.8936 37.4766H32.6338C31.5947 37.4766 30.7515 38.3203 30.7515 39.3594V46.6953C30.7515 47.7358 31.5947 48.5776 32.6338 48.5776H36.061V51.834H30.8921C29.853 51.834 29.0098 52.6772 29.0098 53.7163C29.0098 54.7554 29.853 55.5986 30.8921 55.5986H31.5571V60.2344H16.4355V42.2393C23.5732 41.3145 29.106 35.1953 29.106 27.8076C29.106 21.3296 19.5889 5.90772 16.1167 0.834962C15.374 -0.276367 13.7358 -0.280273 12.9883 0.834962C9.3335 6.38818 0 21.2002 0 27.8076C0 35.1953 5.53174 41.3145 12.6709 42.2393V60.2344H1.88232C0.843262 60.2344 0 61.0776 0 62.1167C0 63.1558 0.843262 63.999 1.88232 63.999H62.1177C63.1567 63.999 64 63.1558 64 62.1167C64 61.0776 63.1567 60.2344 62.1177 60.2344ZM14.5532 5.32861C18.5674 11.627 25.3413 23.2134 25.3413 27.8076C25.3413 33.1147 21.4888 37.5396 16.4355 38.4302V33.8765L22.2144 28.0986C22.9497 27.3647 22.9507 26.1724 22.2153 25.437C21.48 24.7017 20.2881 24.7017 19.5527 25.437L16.4355 28.5532V20.3447C16.4355 19.3042 15.5923 18.4624 14.5532 18.4624C13.5127 18.4624 12.6709 19.3042 12.6709 20.3447V28.5542L9.55225 25.437C8.81689 24.7017 7.62598 24.7017 6.89062 25.437C6.15527 26.1724 6.15527 27.3647 6.89062 28.0986L12.6709 33.8774V38.4302C7.61719 37.5396 3.76465 33.1147 3.76465 27.8076C3.76465 23.2158 10.5386 11.6284 14.5532 5.32861ZM35.3218 60.2344V55.5986H54.2056V60.2344H35.3218ZM34.5161 41.2417H55.0112V44.813H34.5161V41.2417ZM49.7017 48.5776V51.834H39.8257V48.5776H49.7017Z" fill="#AA824E"/>
<path d="M39.3964 30.5707C38.704 31.3461 38.7709 32.5361 39.5463 33.2285C40.3212 33.9208 41.5117 33.8539 42.2045 33.0786C43.6445 31.4662 45.8818 31.4643 47.3237 33.0786C48.0161 33.8539 49.206 33.9208 49.9814 33.2285C50.7568 32.5361 50.8242 31.3461 50.1313 30.5707C47.1957 27.2841 42.3422 27.2729 39.3964 30.5707Z" fill="#AA824E"/>
<path d="M53.0102 27.294C53.7856 26.6016 53.8525 25.4117 53.1601 24.6363C48.5454 19.4698 40.9829 19.4713 36.3691 24.6363C35.6767 25.4117 35.7436 26.6016 36.519 27.294C37.2944 27.9869 38.4843 27.9195 39.1767 27.1441C42.291 23.6583 47.2368 23.6563 50.3525 27.1441C51.0449 27.92 52.2353 27.9864 53.0102 27.294Z" fill="#AA824E"/>
<path d="M33.269 21.6301C34.0444 22.3225 35.2343 22.2556 35.9267 21.4802C40.8364 15.9832 48.6894 15.9812 53.6015 21.4802C54.2944 22.2556 55.4843 22.3225 56.2592 21.6301C57.0346 20.9377 57.1015 19.7478 56.4091 18.9724C49.9985 11.7952 39.5288 11.7961 33.1191 18.9724C32.4267 19.7478 32.4936 20.9377 33.269 21.6301Z" fill="#AA824E"/>
</svg>
