<svg width="280" height="358" viewBox="0 0 280 358" fill="none" xmlns="http://www.w3.org/2000/svg">
<g clip-path="url(#clip0_134_2312)">
<path d="M149.059 319.991H145.144V326.254H125.867C125.867 324.71 125.762 323.214 125.867 321.737C126.03 320.01 125.379 319.521 123.694 319.521C113.768 319.521 103.842 319.521 93.9166 319.406C63.2235 319.144 32.5208 318.872 1.80847 318.591C1.24374 318.591 0.679007 318.543 -0.0292969 318.514V0H279.999V318.543C278.344 318.543 276.707 318.543 275.08 318.543L214.041 317.651C207.207 317.555 200.382 317.469 193.548 317.287C191.911 317.287 191.308 317.699 191.241 319.425C190.61 335.586 179.057 350.836 163.665 355.545C159.712 356.753 155.51 357.118 151.433 357.914C149.518 358.288 149.03 357.386 149.049 355.66C149.049 350.183 149.049 344.707 149.049 339.231L149.059 319.991ZM140.014 26.7491V209.293H145.269C145.364 207.768 145.518 206.416 145.527 205.044C145.527 195.031 145.527 185.009 145.527 174.996C145.527 173.126 146.188 172.694 147.93 172.713C153.927 172.757 159.811 174.36 165.005 177.365C175.477 183.426 181.756 192.48 183.479 204.526C183.967 207.979 183.766 208.008 187.193 208.132H187.843L268.303 208.976C268.982 208.976 269.672 208.919 270.294 208.88V18.8749H145.087V26.7491H140.014ZM270.323 215.249L182.56 214.29C182.005 210.06 181.852 205.946 180.885 202.023C178.013 190.303 170.902 181.959 159.751 177.278C156.035 175.546 151.942 174.784 147.853 175.063V215.489H123.742C123.943 212.515 124.249 209.734 124.307 207.029C124.402 202.56 124.355 198.091 124.307 193.602C124.307 188.059 124.173 182.505 124.192 176.962C124.192 175.14 123.493 174.43 121.732 174.756C119.406 175.197 116.946 175.341 114.783 176.156C104.369 180.069 96.6829 187.004 92.8159 197.573C91.562 201.006 91.1983 204.824 90.7963 208.506C90.5666 210.645 91.0547 212.87 91.227 215.115L84.747 214.827C84.6726 215.143 84.6151 215.463 84.5747 215.786C84.4981 229.252 84.4152 242.72 84.3258 256.192C84.3258 257.737 85.0341 258.111 86.422 258.197C90.9204 258.418 95.3197 259.6 99.3247 261.665C103.33 263.729 106.848 266.628 109.643 270.166C112.149 273.211 114.003 276.741 115.089 280.534C116.055 283.411 116.716 286.381 117.061 289.396C117.272 291.995 116.956 292.225 114.304 292.273C105.096 292.273 95.8916 292.273 86.69 292.273H83.9717C83.9717 297.702 84.0578 302.881 83.9717 308.041C83.9717 310.007 84.4694 310.63 86.4794 310.63C97.1997 310.63 107.91 310.765 118.621 310.851C120.976 310.851 123.33 310.851 125.752 310.851L126.058 307.772H145.029C145.125 308.923 145.202 309.902 145.297 311.072H151.165V313.613C151.165 326.791 151.165 339.969 151.165 353.147C151.165 355.583 151.49 355.9 153.73 355.641C166.499 354.173 176.491 348.112 183.402 337.226C187.029 331.719 189.02 325.293 189.145 318.696C189.145 315.349 189.145 311.983 189.145 308.492L270.39 309.671L270.323 215.249ZM130.05 209.36V26.6819H125.733V18.5392H9.59023V20.8027C9.59023 70.0808 9.59023 119.356 9.59023 168.627C9.59023 171.428 9.59024 171.447 12.4043 171.505L82.4976 172.243H84.6321V208.315C87.9631 208.833 88.0779 208.708 88.5852 205.821C88.9777 203.558 89.4084 201.294 89.9922 199.107C93.5721 185.459 108.178 172.166 124.718 172.799C126.01 172.847 126.47 173.241 126.46 174.574C126.365 184.731 126.336 194.887 126.288 205.044V209.379L130.05 209.36ZM78.0755 290.058H109.346C115.395 290.058 115.376 290.058 114.132 284.092C111.05 269.706 97.1519 259.741 84.3641 260.365C82.4498 260.46 80.5355 260.192 78.4297 260.086V207.806L9.75295 207.058V309.681C10.3655 309.738 10.8537 309.815 11.3419 309.815L44.7757 310.16C55.1322 310.266 65.4888 310.352 75.8358 310.525C77.4821 310.525 78.1904 310.151 78.0851 308.377C77.9607 306.372 78.0851 304.348 78.0851 302.334C78.0755 298.229 78.0755 294.144 78.0755 290.058ZM9.7051 200.862L78.4871 201.62V178.41L9.7051 177.643V200.862ZM163.943 14.7988H247.561V12.5257C247.561 9.64846 247.561 9.64846 244.613 9.64846H167.81C163.33 9.64846 163.33 9.64846 163.694 14.1466C163.764 14.3689 163.847 14.5867 163.943 14.7988ZM22.2248 14.5686H107.202V9.61968H22.2248V14.5686Z" fill="#4F4F4F"/>
<path d="M81.6816 90.4756C81.3574 90.4756 81.1211 90.5381 80.9727 90.6631C80.8867 90.7334 80.8223 90.8193 80.7793 90.9209C80.7402 91.0225 80.7207 91.1299 80.7207 91.2432C80.7207 91.4189 80.7617 91.5635 80.8438 91.6768C80.9258 91.79 81.043 91.874 81.1953 91.9287C81.2617 91.9521 81.3398 91.9697 81.4297 91.9814C81.5195 91.9893 81.625 91.9932 81.7461 91.9932H82.6777V90.4756H81.6816ZM79.2852 91.3018C79.2852 91.1377 79.3027 90.9775 79.3379 90.8213C79.377 90.6611 79.4355 90.5107 79.5137 90.3701C79.5918 90.2295 79.6895 90.1006 79.8066 89.9834C79.9277 89.8623 80.0703 89.7588 80.2344 89.6729C80.3984 89.5869 80.5879 89.5205 80.8027 89.4736C81.0215 89.4268 81.2754 89.4033 81.5645 89.4033H84.0547V95.0811H82.6777V93.0654H81.582L80.5039 95.0811H79.0039L80.252 92.8018V92.7783C79.9316 92.6377 79.6895 92.4424 79.5254 92.1924C79.3652 91.9385 79.2852 91.6416 79.2852 91.3018Z" fill="#564E44"/>
<path d="M76.4961 95.0811V92.7373H74.2051V95.0811H72.8164V89.4033H74.2051V91.5596H76.4961V89.4033H77.8848V95.0811H76.4961Z" fill="#564E44"/>
<path d="M68.9141 93.1064L67.4492 95.0811H65.8555L68.0996 92.1865L65.9902 89.4033H67.625L68.9492 91.2783L70.2969 89.4033H71.9375L69.7695 92.1807L71.9961 95.0811H70.373L68.9141 93.1064Z" fill="#564E44"/>
<path d="M59.6914 89.4033H61.1797L62.0293 91.46C62.3496 92.2412 62.5762 92.8193 62.709 93.1943H62.7324C62.8301 92.9014 63.0371 92.3584 63.3535 91.5654L64.2324 89.4033H65.7383L62.082 97.8057H60.7109L62.0117 94.7646L59.6914 89.4033Z" fill="#564E44"/>
<path d="M53.3984 95.0811V87.2412H54.834V90.8096H54.8574L57.8164 87.2412H59.5977L56.3281 91.126L59.8672 95.0811H58.0273L54.8574 91.542H54.834V95.0811H53.3984Z" fill="#564E44"/>
<path d="M220.318 80.6162C219.994 80.6162 219.758 80.6787 219.609 80.8037C219.523 80.874 219.459 80.96 219.416 81.0615C219.377 81.1631 219.357 81.2705 219.357 81.3838C219.357 81.5596 219.398 81.7041 219.48 81.8174C219.562 81.9307 219.68 82.0146 219.832 82.0693C219.898 82.0928 219.977 82.1104 220.066 82.1221C220.156 82.1299 220.262 82.1338 220.383 82.1338H221.314V80.6162H220.318ZM217.922 81.4424C217.922 81.2783 217.939 81.1182 217.975 80.9619C218.014 80.8018 218.072 80.6514 218.15 80.5107C218.229 80.3701 218.326 80.2412 218.443 80.124C218.564 80.0029 218.707 79.8994 218.871 79.8135C219.035 79.7275 219.225 79.6611 219.439 79.6143C219.658 79.5674 219.912 79.5439 220.201 79.5439H222.691V85.2217H221.314V83.2061H220.219L219.141 85.2217H217.641L218.889 82.9424V82.9189C218.568 82.7783 218.326 82.583 218.162 82.333C218.002 82.0791 217.922 81.7822 217.922 81.4424Z" fill="#564E44"/>
<path d="M215.332 84.6182H215.309C215.23 84.7002 215.137 84.7842 215.027 84.8701C214.918 84.9561 214.793 85.0381 214.652 85.1162C214.512 85.1904 214.355 85.251 214.184 85.2979C214.012 85.3447 213.826 85.3682 213.627 85.3682C213.357 85.3682 213.105 85.3252 212.871 85.2393C212.637 85.1572 212.436 85.0381 212.268 84.8818C212.1 84.7217 211.967 84.5303 211.869 84.3076C211.775 84.0811 211.729 83.8291 211.729 83.5518C211.729 83.2471 211.783 82.9736 211.893 82.7314C212.006 82.4893 212.162 82.2842 212.361 82.1162C212.561 81.9482 212.799 81.8213 213.076 81.7354C213.354 81.6455 213.66 81.6006 213.996 81.6006C214.242 81.6006 214.469 81.6162 214.676 81.6475C214.883 81.6787 215.064 81.7158 215.221 81.7588V81.5303C215.221 81.3975 215.197 81.2705 215.15 81.1494C215.107 81.0244 215.035 80.915 214.934 80.8213C214.836 80.7236 214.707 80.6475 214.547 80.5928C214.387 80.5342 214.191 80.5049 213.961 80.5049C213.68 80.5049 213.398 80.5361 213.117 80.5986C212.836 80.6611 212.531 80.7549 212.203 80.8799V79.7959C212.488 79.6709 212.791 79.5752 213.111 79.5088C213.432 79.4424 213.768 79.4072 214.119 79.4033C214.533 79.4033 214.895 79.4541 215.203 79.5557C215.516 79.6572 215.775 79.7979 215.982 79.9775C216.193 80.1533 216.35 80.3623 216.451 80.6045C216.557 80.8467 216.609 81.1104 216.609 81.3955V83.5342C216.609 83.9092 216.613 84.2314 216.621 84.501C216.629 84.7705 216.637 85.0107 216.645 85.2217H215.391L215.332 84.6182ZM215.221 82.8018C215.088 82.7705 214.936 82.7432 214.764 82.7197C214.592 82.6924 214.418 82.6787 214.242 82.6787C213.902 82.6787 213.633 82.7471 213.434 82.8838C213.238 83.0166 213.141 83.2217 213.141 83.499C213.141 83.6279 213.162 83.7412 213.205 83.8389C213.252 83.9326 213.312 84.0107 213.387 84.0732C213.465 84.1357 213.555 84.1826 213.656 84.2139C213.758 84.2451 213.865 84.2607 213.979 84.2607C214.119 84.2607 214.252 84.2432 214.377 84.208C214.502 84.1689 214.617 84.1221 214.723 84.0674C214.828 84.0088 214.922 83.9443 215.004 83.874C215.09 83.8037 215.162 83.7354 215.221 83.6689V82.8018Z" fill="#564E44"/>
<path d="M210.463 79.5439V85.2217H209.074V80.6982H208.072C207.971 81.4365 207.857 82.0635 207.732 82.5791C207.607 83.0947 207.473 83.5244 207.328 83.8682C207.188 84.2119 207.039 84.4814 206.883 84.6768C206.727 84.8721 206.568 85.0166 206.408 85.1104C206.248 85.2002 206.086 85.2588 205.922 85.2861C205.762 85.3135 205.594 85.3271 205.418 85.3271C205.348 85.3271 205.273 85.3232 205.195 85.3154C205.117 85.3115 205.039 85.3018 204.961 85.2861V84.0498C205.078 84.0693 205.182 84.0791 205.271 84.0791C205.412 84.0791 205.531 84.0635 205.629 84.0322C205.727 83.9971 205.82 83.9307 205.91 83.833C206 83.7354 206.088 83.5889 206.174 83.3936C206.264 83.1943 206.352 82.9268 206.438 82.5908C206.527 82.2549 206.615 81.8389 206.701 81.3428C206.791 80.8428 206.883 80.2432 206.977 79.5439H210.463Z" fill="#564E44"/>
<path d="M204.082 79.5439V85.2217H202.693V83.5752C202.693 82.8291 202.711 82.1553 202.746 81.5537H202.723C202.484 81.9639 202.121 82.5029 201.633 83.1709L200.109 85.2217H198.832V79.5439H200.221V81.1904C200.221 82.0029 200.203 82.6768 200.168 83.2119H200.191C200.418 82.8213 200.781 82.2822 201.281 81.5947L202.805 79.5439H204.082Z" fill="#564E44"/>
<path d="M191.596 81.6826H191.572L188.52 85.2217H186.68L190.102 81.2666L186.949 77.3818H188.73L191.572 80.9502H191.596V77.3818H193.031V80.9502H193.055L195.896 77.3818H197.678L194.525 81.2666L197.947 85.2217H196.107L193.055 81.6826H193.031V85.2217H191.596V81.6826Z" fill="#564E44"/>
<path d="M224.615 100.731H224.592C224.514 100.813 224.42 100.897 224.311 100.983C224.201 101.069 224.076 101.151 223.936 101.229C223.795 101.303 223.639 101.364 223.467 101.411C223.295 101.458 223.109 101.481 222.91 101.481C222.641 101.481 222.389 101.438 222.154 101.352C221.92 101.27 221.719 101.151 221.551 100.995C221.383 100.834 221.25 100.643 221.152 100.42C221.059 100.194 221.012 99.9419 221.012 99.6646C221.012 99.3599 221.066 99.0864 221.176 98.8442C221.289 98.6021 221.445 98.397 221.645 98.229C221.844 98.061 222.082 97.9341 222.359 97.8481C222.637 97.7583 222.943 97.7134 223.279 97.7134C223.525 97.7134 223.752 97.729 223.959 97.7603C224.166 97.7915 224.348 97.8286 224.504 97.8716V97.6431C224.504 97.5103 224.48 97.3833 224.434 97.2622C224.391 97.1372 224.318 97.0278 224.217 96.9341C224.119 96.8364 223.99 96.7603 223.83 96.7056C223.67 96.647 223.475 96.6177 223.244 96.6177C222.963 96.6177 222.682 96.6489 222.4 96.7114C222.119 96.7739 221.814 96.8677 221.486 96.9927V95.9087C221.771 95.7837 222.074 95.688 222.395 95.6216C222.715 95.5552 223.051 95.52 223.402 95.5161C223.816 95.5161 224.178 95.5669 224.486 95.6685C224.799 95.77 225.059 95.9106 225.266 96.0903C225.477 96.2661 225.633 96.4751 225.734 96.7173C225.84 96.9595 225.893 97.2231 225.893 97.5083V99.647C225.893 100.022 225.896 100.344 225.904 100.614C225.912 100.883 225.92 101.124 225.928 101.334H224.674L224.615 100.731ZM224.504 98.9146C224.371 98.8833 224.219 98.856 224.047 98.8325C223.875 98.8052 223.701 98.7915 223.525 98.7915C223.186 98.7915 222.916 98.8599 222.717 98.9966C222.521 99.1294 222.424 99.3345 222.424 99.6118C222.424 99.7407 222.445 99.854 222.488 99.9517C222.535 100.045 222.596 100.124 222.67 100.186C222.748 100.249 222.838 100.295 222.939 100.327C223.041 100.358 223.148 100.374 223.262 100.374C223.402 100.374 223.535 100.356 223.66 100.321C223.785 100.282 223.9 100.235 224.006 100.18C224.111 100.122 224.205 100.057 224.287 99.9868C224.373 99.9165 224.445 99.8481 224.504 99.7817V98.9146Z" fill="#564E44"/>
<path d="M217.191 96.8286H215.381V95.6567H220.391V96.8286H218.58V101.334H217.191V96.8286Z" fill="#564E44"/>
<path d="M213.4 100.731H213.377C213.299 100.813 213.205 100.897 213.096 100.983C212.986 101.069 212.861 101.151 212.721 101.229C212.58 101.303 212.424 101.364 212.252 101.411C212.08 101.458 211.895 101.481 211.695 101.481C211.426 101.481 211.174 101.438 210.939 101.352C210.705 101.27 210.504 101.151 210.336 100.995C210.168 100.834 210.035 100.643 209.938 100.42C209.844 100.194 209.797 99.9419 209.797 99.6646C209.797 99.3599 209.852 99.0864 209.961 98.8442C210.074 98.6021 210.23 98.397 210.43 98.229C210.629 98.061 210.867 97.9341 211.145 97.8481C211.422 97.7583 211.729 97.7134 212.064 97.7134C212.311 97.7134 212.537 97.729 212.744 97.7603C212.951 97.7915 213.133 97.8286 213.289 97.8716V97.6431C213.289 97.5103 213.266 97.3833 213.219 97.2622C213.176 97.1372 213.104 97.0278 213.002 96.9341C212.904 96.8364 212.775 96.7603 212.615 96.7056C212.455 96.647 212.26 96.6177 212.029 96.6177C211.748 96.6177 211.467 96.6489 211.186 96.7114C210.904 96.7739 210.6 96.8677 210.271 96.9927V95.9087C210.557 95.7837 210.859 95.688 211.18 95.6216C211.5 95.5552 211.836 95.52 212.188 95.5161C212.602 95.5161 212.963 95.5669 213.271 95.6685C213.584 95.77 213.844 95.9106 214.051 96.0903C214.262 96.2661 214.418 96.4751 214.52 96.7173C214.625 96.9595 214.678 97.2231 214.678 97.5083V99.647C214.678 100.022 214.682 100.344 214.689 100.614C214.697 100.883 214.705 101.124 214.713 101.334H213.459L213.4 100.731ZM213.289 98.9146C213.156 98.8833 213.004 98.856 212.832 98.8325C212.66 98.8052 212.486 98.7915 212.311 98.7915C211.971 98.7915 211.701 98.8599 211.502 98.9966C211.307 99.1294 211.209 99.3345 211.209 99.6118C211.209 99.7407 211.23 99.854 211.273 99.9517C211.32 100.045 211.381 100.124 211.455 100.186C211.533 100.249 211.623 100.295 211.725 100.327C211.826 100.358 211.934 100.374 212.047 100.374C212.188 100.374 212.32 100.356 212.445 100.321C212.57 100.282 212.686 100.235 212.791 100.18C212.896 100.122 212.99 100.057 213.072 99.9868C213.158 99.9165 213.23 99.8481 213.289 99.7817V98.9146Z" fill="#564E44"/>
<path d="M207.143 101.334V98.9907H204.852V101.334H203.463V95.6567H204.852V97.813H207.143V95.6567H208.531V101.334H207.143Z" fill="#564E44"/>
<path d="M198.787 99.4536C199.01 98.6646 199.289 97.7759 199.625 96.7876L200.018 95.6567H201.934V101.334H200.598V99.2954C200.598 98.7954 200.621 98.106 200.668 97.2271H200.621C200.508 97.5825 200.361 98.0181 200.182 98.5337C200.006 99.0454 199.797 99.645 199.555 100.333L199.203 101.334H198.33L197.973 100.327C197.73 99.647 197.521 99.0532 197.346 98.5454C197.174 98.0337 197.029 97.5942 196.912 97.2271H196.865C196.912 98.0552 196.936 98.7446 196.936 99.2954V101.334H195.6V95.6567H197.516L197.908 96.7876C198.271 97.8579 198.551 98.7466 198.746 99.4536H198.787Z" fill="#564E44"/>
<path d="M192.934 98.4985C192.934 98.1978 192.898 97.9321 192.828 97.7017C192.758 97.4712 192.66 97.2778 192.535 97.1216C192.41 96.9653 192.26 96.8481 192.084 96.77C191.908 96.6919 191.717 96.6528 191.51 96.6528C191.307 96.6528 191.117 96.6919 190.941 96.77C190.77 96.8481 190.621 96.9653 190.496 97.1216C190.371 97.2778 190.273 97.4712 190.203 97.7017C190.133 97.9321 190.098 98.1978 190.098 98.4985C190.098 98.7993 190.133 99.0649 190.203 99.2954C190.273 99.5259 190.371 99.7192 190.496 99.8755C190.625 100.028 190.775 100.145 190.947 100.227C191.123 100.305 191.314 100.344 191.521 100.344C191.729 100.344 191.918 100.305 192.09 100.227C192.262 100.145 192.41 100.028 192.535 99.8755C192.66 99.7192 192.758 99.5259 192.828 99.2954C192.898 99.0649 192.934 98.7993 192.934 98.4985ZM194.369 98.4985C194.369 98.9438 194.303 99.3501 194.17 99.7173C194.037 100.084 193.846 100.399 193.596 100.661C193.35 100.922 193.051 101.125 192.699 101.27C192.348 101.411 191.955 101.481 191.521 101.481C191.076 101.481 190.676 101.411 190.32 101.27C189.969 101.125 189.67 100.922 189.424 100.661C189.178 100.399 188.988 100.084 188.855 99.7173C188.727 99.3501 188.662 98.9438 188.662 98.4985C188.662 98.0532 188.729 97.647 188.861 97.2798C188.994 96.9126 189.184 96.5981 189.43 96.3364C189.68 96.0747 189.98 95.8735 190.332 95.7329C190.684 95.5884 191.076 95.5161 191.51 95.5161C191.955 95.5161 192.354 95.5884 192.705 95.7329C193.061 95.8735 193.361 96.0747 193.607 96.3364C193.854 96.5981 194.041 96.9126 194.17 97.2798C194.303 97.647 194.369 98.0532 194.369 98.4985Z" fill="#564E44"/>
<path d="M183.236 95.6567H184.625V98.1235H184.654L186.611 95.6567H188.275L185.955 98.4575L188.398 101.334H186.723L184.648 98.856H184.625V101.334H183.236V95.6567Z" fill="#564E44"/>
<path d="M59.7677 242.436H61.256L62.1056 244.493C62.4259 245.274 62.6525 245.852 62.7853 246.227H62.8087C62.9064 245.934 63.1134 245.391 63.4298 244.598L64.3087 242.436H65.8146L62.1583 250.838H60.7872L62.088 247.797L59.7677 242.436Z" fill="#564E44"/>
<path d="M56.2169 249.573L58.4435 240.274H59.6622L57.4357 249.573H56.2169Z" fill="#564E44"/>
<path d="M53.9025 241.34C53.5118 241.34 53.1505 241.405 52.8185 241.534C52.4904 241.663 52.2072 241.85 51.9689 242.096C51.7345 242.342 51.5509 242.647 51.4181 243.01C51.2853 243.37 51.2189 243.782 51.2189 244.247C51.2189 244.708 51.2794 245.114 51.4005 245.465C51.5216 245.813 51.6954 246.104 51.922 246.338C52.1486 246.573 52.424 246.75 52.7482 246.872C53.0763 246.989 53.4474 247.047 53.8615 247.047C54.1583 247.047 54.4611 247.024 54.7697 246.977C55.0782 246.93 55.3673 246.862 55.6368 246.772V248.008C55.3634 248.086 55.0685 248.147 54.7521 248.19C54.4357 248.237 54.1075 248.26 53.7677 248.26C53.1036 248.26 52.5197 248.167 52.0157 247.979C51.5118 247.788 51.09 247.52 50.7501 247.176C50.4142 246.829 50.1603 246.415 49.9884 245.934C49.8204 245.45 49.7365 244.917 49.7365 244.334C49.7365 243.737 49.8263 243.182 50.006 242.67C50.1896 242.159 50.4513 241.715 50.7911 241.34C51.1349 240.965 51.5626 240.67 52.0743 240.456C52.59 240.241 53.172 240.131 53.8204 240.127C54.1525 240.127 54.4669 240.151 54.7638 240.198C55.0607 240.241 55.3282 240.303 55.5665 240.385V241.604C55.254 241.506 54.963 241.438 54.6935 241.399C54.424 241.36 54.1603 241.34 53.9025 241.34Z" fill="#564E44"/>
</g>
<defs>
<clipPath id="clip0_134_2312">
<rect width="280" height="358" fill="white"/>
</clipPath>
</defs>
</svg>
