<svg width="358" height="340" viewBox="0 0 358 340" fill="none" xmlns="http://www.w3.org/2000/svg">
<g clip-path="url(#clip0_134_2347)">
<path d="M3.09364 339.486C3.02829 338.12 3.02829 336.751 3.09364 335.385C3.27323 333.55 2.68456 332.701 0.868673 332.984C0.564236 332.971 0.262516 332.918 -0.0292969 332.826V314.179L3.06371 313.875V104.573C3.06371 101.426 3.06371 101.426 0.0106137 101.059V82.2653H2.51495H141.999C145.172 82.2653 145.062 82.2653 145.362 79.0142C146.838 63.2302 157.225 48.7467 172.301 45.4536C174.406 44.9921 176.471 44.279 178.557 43.7336C178.989 43.7054 179.422 43.7443 179.844 43.849V48.044C179.844 58.71 179.844 69.376 179.844 80.042C179.844 81.5627 180.123 82.4227 181.839 82.4017C183.695 82.4017 185.551 82.6219 187.636 82.7687V0H358.001V340.01C298.934 337.305 239.848 340.01 180.762 339.182C121.675 338.353 62.5292 339.308 3.09364 339.486ZM336.499 314.043C338.495 314.043 340.171 313.928 341.827 314.043C343.483 314.158 344.252 313.644 344.242 311.62C344.189 251.589 344.189 191.561 344.242 131.536C344.242 129.701 343.813 129.103 341.997 129.114C322.242 129.177 302.486 129.177 282.731 129.114C280.965 129.114 280.426 129.628 280.446 131.505C280.556 142.307 280.516 153.11 280.626 163.912C280.626 165.936 279.967 166.439 278.171 166.377C274.48 166.251 270.778 166.377 267.086 166.314C265.26 166.261 264.512 166.765 264.323 168.831C264.084 171.501 263.527 174.13 262.666 176.654C257.877 190.383 248.698 198.353 234.65 199.78C233.043 199.948 232.654 199.339 232.654 197.798C232.734 194.651 232.724 191.589 232.724 188.474C232.724 181.835 232.724 175.197 232.724 168.547C232.724 167.195 232.535 165.936 230.908 166.45C230.439 166.607 230.06 167.876 230.06 168.642C230.014 218.983 229.99 269.324 229.99 319.664C229.99 320.409 230.06 321.154 230.11 322.066H334.324C335.871 322.129 336.509 321.321 336.469 319.738C336.419 318.028 336.499 316.203 336.499 314.043ZM12.5921 167.006V313.896C12.9711 313.991 13.3602 314.033 13.7495 314.022C15.5455 313.634 16.214 314.379 16.0244 316.277C15.9047 317.462 16.0942 318.679 16.0244 319.874C15.9047 321.542 16.5831 322.118 18.1296 322.108C22.9587 322.108 27.7977 322.192 32.6368 322.192H123.691V169.879C123.75 169.39 123.733 168.894 123.641 168.411C123.511 168.044 123.112 167.562 122.803 167.53C122.493 167.499 122.094 167.981 121.935 168.338C121.842 168.746 121.825 169.17 121.885 169.586C121.885 179.123 121.885 188.656 121.885 198.186C121.86 198.73 121.807 199.273 121.725 199.811C117.161 200.225 112.582 199.211 108.565 196.896C98.3182 191.348 92.6909 182.276 90.9648 170.425C90.466 167.016 90.5557 167.006 87.343 167.006H12.5921ZM146.369 92.3021H90.4959V125.401C89.9879 125.506 89.475 125.583 88.9594 125.632C86.7743 125.705 84.5593 125.548 82.4142 125.842C78.9003 126.313 75.525 127.578 72.5198 129.549C69.5146 131.521 66.9506 134.152 65.0036 137.263C61.9205 141.898 59.8452 146.995 60.1246 152.816C60.1246 153.309 60.9128 154.158 61.3219 154.158C69.5034 154.106 77.6849 153.949 85.8664 153.833C87.6523 153.833 89.4283 153.833 91.0347 153.833C91.4837 158.196 92.0324 162.16 92.2619 166.135C92.5397 173.454 94.981 180.5 99.2461 186.293C104.065 192.69 110.221 196.78 118.044 197.829C119.63 198.039 120.418 197.609 120.388 195.732C120.239 185.496 120.149 175.27 120.049 165.045C120.049 163.01 120.049 160.986 120.049 158.836H191.737C191.737 160.262 191.737 161.458 191.737 162.643C191.307 169.231 192.671 175.812 195.668 181.615C200.387 190.393 207.222 196.172 216.89 197.756C219.394 198.165 219.574 197.902 219.574 195.291C219.574 185.335 219.557 175.378 219.524 165.422C219.524 163.325 219.524 161.227 219.524 158.773C224.513 158.773 229.112 158.773 233.662 158.846C234.101 158.846 234.879 159.895 234.879 160.44C234.879 162.874 234.58 165.307 234.57 167.782C234.57 176.885 234.57 185.999 234.57 195.113C234.57 197.598 234.929 197.882 237.324 197.504C244.799 196.368 251.539 192.158 256.061 185.8C261.27 178.804 263.185 170.76 262.846 161.993C262.746 159.413 263.474 158.846 265.969 158.909C268.114 158.993 270.269 158.909 272.404 159.088C274.15 159.224 274.559 158.469 274.559 156.759C274.51 140.524 274.559 124.248 274.559 108.044C274.559 100.933 274.559 100.975 267.785 101.825C266.468 101.993 266.079 102.601 266.089 103.922C266.089 112.47 266.089 121.007 266.218 129.554C266.218 131.117 265.799 131.746 264.432 131.453C261.299 130.771 257.967 130.498 255.113 129.145C245.425 124.531 240.147 116.277 238.451 105.338C237.942 101.951 237.453 101.384 234.53 101.217C233.991 101.217 233.452 101.217 232.914 101.217C227.406 101.217 221.938 101.217 216.391 101.374C214.775 101.374 214.266 100.839 214.346 99.2029C214.455 97.1054 214.346 95.0079 214.346 92.774H178.587C178.427 90.6765 178.178 88.7677 178.178 86.8904C178.178 74.8086 178.178 62.7687 178.178 50.666C178.178 46.4709 178.028 46.387 174.057 47.0792H173.857C158.692 50.2255 148.914 64.0168 147.267 78.4268C146.759 82.8946 146.669 87.5092 146.369 92.3021ZM130.316 165.81V322.192H179.504C190.32 322.192 201.136 322.192 211.951 322.192C213.448 322.192 214.066 321.751 213.947 320.157C213.827 318.563 213.697 316.791 213.637 315.102C213.587 313.749 214.076 313.005 215.543 313.141C217.279 313.267 219.035 313.141 220.781 313.141C223.585 313.141 223.595 313.141 223.595 310.142C223.595 274.77 223.595 239.392 223.595 204.006C223.595 199.633 223.475 195.26 223.485 190.886C223.485 183.265 223.525 175.644 223.605 168.023C223.605 166.439 223.166 165.737 221.609 166.46V200.199C221.387 200.33 221.136 200.398 220.881 200.399C217.888 199.801 214.715 199.549 211.901 198.469C198.551 193.424 191.797 182.916 190.16 168.464C190.171 168.117 190.115 167.772 189.995 167.449C189.875 167.126 189.694 166.832 189.462 166.584C189.231 166.337 188.954 166.142 188.649 166.011C188.343 165.879 188.016 165.815 187.686 165.821C186.813 165.747 185.937 165.726 185.062 165.758H130.316V165.81ZM336.499 19.0561V10.9491C335.711 10.9491 335.182 10.8652 334.653 10.8652H256.83C248.638 10.8652 240.437 10.9282 232.235 10.8652C230.439 10.8652 229.811 11.4421 230 13.2879C230.13 14.5464 230 15.8364 230.05 17.1054C230.15 18.5527 229.671 19.0981 228.234 19.0771C224.074 18.9932 219.903 19.0037 215.743 19.0771C214.166 19.0771 213.587 18.4059 213.567 16.8013C213.567 14.9345 214.026 12.2181 213.089 11.4106C211.921 10.4143 209.537 10.9491 207.671 10.9282C204.129 10.9282 200.587 10.9282 196.945 10.9282V82.4646H230V94.1584C232.515 94.1584 234.779 94.2528 237.044 94.1584C238.97 94.0535 239.539 94.8401 239.668 96.8432C239.968 101.112 240.018 105.537 241.185 109.575C244.108 119.675 250.584 126.303 260.461 128.967C263.804 129.869 264.253 129.481 264.253 125.967V97.3361C264.253 94.5569 264.253 94.5569 266.987 94.5569H336.12C336.32 90.4352 336.509 86.5967 336.699 82.6744C338.694 82.6744 340.56 82.6114 342.416 82.6744C343.703 82.7373 344.192 82.3178 344.192 80.8915C344.192 60.9089 344.192 40.9229 344.192 20.9334C344.192 19.4127 343.653 18.9512 342.296 19.0142C340.49 19.1086 338.674 19.0561 336.499 19.0561ZM15.6253 92.344C15.6253 94.8296 15.6253 97.0844 15.6253 99.3288C15.6253 100.577 15.4158 101.426 13.979 101.238C12.7019 101.07 12.4126 101.793 12.4126 103.01C12.4724 115.651 12.509 128.289 12.5223 140.923C12.5223 142.811 12.3627 144.698 12.3228 146.586C12.2828 148.474 12.3228 150.225 12.3228 152.04V159.717H85.2777V156.864C83.5332 156.559 81.7748 156.349 80.0096 156.235C74.0231 156.151 68.0367 156.235 62.0502 156.235C60.853 156.235 59.2166 156.612 58.5781 155.952C57.9395 155.291 58.2189 153.561 58.3785 152.334C58.7776 149.303 58.8774 146.104 59.9051 143.293C63.7863 132.805 70.7905 125.873 81.7058 123.985C84.1003 123.566 84.5493 123.031 84.5493 120.524C84.5493 111.841 84.5493 103.157 84.5493 94.473C84.5493 93.7913 84.4695 93.1201 84.4296 92.3755L15.6253 92.344ZM344.152 122.014C344.152 115.49 344.152 109.166 344.082 102.832C344.082 102.433 343.154 101.783 342.625 101.699C340.151 101.531 337.637 101.5 335.182 101.5C317.602 101.5 300.012 101.584 282.432 101.563C280.775 101.563 280.386 102.223 280.436 103.818C280.506 108.894 280.436 113.97 280.436 119.056C280.436 120.01 280.516 120.975 280.556 122.014H344.152ZM256.75 326.628C256.241 330.551 256.271 330.593 259.673 330.593H331.171C334.344 330.593 334.713 330.026 333.745 326.628H256.75ZM101.601 326.628H35.2808C34.4826 330.026 34.8318 330.54 37.8749 330.54H98.9368C102.09 330.572 102.249 330.341 101.601 326.628ZM210.085 326.628H149.093C148.495 330.425 148.564 330.53 151.937 330.53H207.312C210.524 330.572 210.624 330.425 210.085 326.628Z" fill="#4F4F4F"/>
<path d="M301.221 243.395C300.896 243.395 300.66 243.457 300.512 243.582C300.426 243.652 300.361 243.738 300.318 243.84C300.279 243.941 300.26 244.049 300.26 244.162C300.26 244.338 300.301 244.482 300.383 244.596C300.465 244.709 300.582 244.793 300.734 244.848C300.801 244.871 300.879 244.889 300.969 244.9C301.059 244.908 301.164 244.912 301.285 244.912H302.217V243.395H301.221ZM298.824 244.221C298.824 244.057 298.842 243.896 298.877 243.74C298.916 243.58 298.975 243.43 299.053 243.289C299.131 243.148 299.229 243.02 299.346 242.902C299.467 242.781 299.609 242.678 299.773 242.592C299.938 242.506 300.127 242.439 300.342 242.393C300.561 242.346 300.814 242.322 301.104 242.322H303.594V248H302.217V245.984H301.121L300.043 248H298.543L299.791 245.721V245.697C299.471 245.557 299.229 245.361 299.064 245.111C298.904 244.857 298.824 244.561 298.824 244.221Z" fill="#564E44"/>
<path d="M296.035 248V245.656H293.744V248H292.355V242.322H293.744V244.479H296.035V242.322H297.424V248H296.035Z" fill="#564E44"/>
<path d="M288.453 246.025L286.988 248H285.395L287.639 245.105L285.529 242.322H287.164L288.488 244.197L289.836 242.322H291.477L289.309 245.1L291.535 248H289.912L288.453 246.025Z" fill="#564E44"/>
<path d="M279.23 242.322H280.719L281.568 244.379C281.889 245.16 282.115 245.738 282.248 246.113H282.271C282.369 245.82 282.576 245.277 282.893 244.484L283.771 242.322H285.277L281.621 250.725H280.25L281.551 247.684L279.23 242.322Z" fill="#564E44"/>
<path d="M272.938 248V240.16H274.373V243.729H274.396L277.355 240.16H279.137L275.867 244.045L279.406 248H277.566L274.396 244.461H274.373V248H272.938Z" fill="#564E44"/>
<path d="M78.7558 235.395C78.4316 235.395 78.1953 235.457 78.0468 235.582C77.9609 235.652 77.8964 235.738 77.8535 235.84C77.8144 235.941 77.7949 236.049 77.7949 236.162C77.7949 236.338 77.8359 236.482 77.9179 236.596C77.9999 236.709 78.1171 236.793 78.2695 236.848C78.3359 236.871 78.414 236.889 78.5038 236.9C78.5937 236.908 78.6992 236.912 78.8203 236.912H79.7519V235.395H78.7558ZM76.3593 236.221C76.3593 236.057 76.3769 235.896 76.412 235.74C76.4511 235.58 76.5097 235.43 76.5878 235.289C76.666 235.148 76.7636 235.02 76.8808 234.902C77.0019 234.781 77.1445 234.678 77.3085 234.592C77.4726 234.506 77.662 234.439 77.8769 234.393C78.0956 234.346 78.3495 234.322 78.6386 234.322H81.1288V240H79.7519V237.984H78.6562L77.5781 240H76.0781L77.3261 237.721V237.697C77.0058 237.557 76.7636 237.361 76.5995 237.111C76.4394 236.857 76.3593 236.561 76.3593 236.221Z" fill="#564E44"/>
<path d="M73.7695 239.396H73.746C73.6679 239.479 73.5742 239.562 73.4648 239.648C73.3554 239.734 73.2304 239.816 73.0898 239.895C72.9492 239.969 72.7929 240.029 72.621 240.076C72.4492 240.123 72.2636 240.146 72.0644 240.146C71.7949 240.146 71.5429 240.104 71.3085 240.018C71.0742 239.936 70.873 239.816 70.705 239.66C70.537 239.5 70.4042 239.309 70.3066 239.086C70.2128 238.859 70.166 238.607 70.166 238.33C70.166 238.025 70.2206 237.752 70.33 237.51C70.4433 237.268 70.5995 237.062 70.7988 236.895C70.998 236.727 71.2363 236.6 71.5136 236.514C71.791 236.424 72.0976 236.379 72.4335 236.379C72.6796 236.379 72.9062 236.395 73.1132 236.426C73.3203 236.457 73.5019 236.494 73.6581 236.537V236.309C73.6581 236.176 73.6347 236.049 73.5878 235.928C73.5449 235.803 73.4726 235.693 73.371 235.6C73.2734 235.502 73.1445 235.426 72.9843 235.371C72.8242 235.312 72.6288 235.283 72.3984 235.283C72.1171 235.283 71.8359 235.314 71.5546 235.377C71.2734 235.439 70.9687 235.533 70.6406 235.658V234.574C70.9257 234.449 71.2285 234.354 71.5488 234.287C71.8691 234.221 72.205 234.186 72.5566 234.182C72.9706 234.182 73.332 234.232 73.6406 234.334C73.9531 234.436 74.2128 234.576 74.4199 234.756C74.6308 234.932 74.787 235.141 74.8886 235.383C74.9941 235.625 75.0468 235.889 75.0468 236.174V238.312C75.0468 238.688 75.0507 239.01 75.0585 239.279C75.0663 239.549 75.0742 239.789 75.082 240H73.8281L73.7695 239.396ZM73.6581 237.58C73.5253 237.549 73.373 237.521 73.2011 237.498C73.0292 237.471 72.8554 237.457 72.6796 237.457C72.3398 237.457 72.0703 237.525 71.871 237.662C71.6757 237.795 71.5781 238 71.5781 238.277C71.5781 238.406 71.5995 238.52 71.6425 238.617C71.6894 238.711 71.7499 238.789 71.8242 238.852C71.9023 238.914 71.9921 238.961 72.0937 238.992C72.1953 239.023 72.3027 239.039 72.416 239.039C72.5566 239.039 72.6894 239.021 72.8144 238.986C72.9394 238.947 73.0546 238.9 73.1601 238.846C73.2656 238.787 73.3593 238.723 73.4413 238.652C73.5273 238.582 73.5995 238.514 73.6581 238.447V237.58Z" fill="#564E44"/>
<path d="M68.9003 234.322V240H67.5117V235.477H66.5097C66.4081 236.215 66.2949 236.842 66.1699 237.357C66.0449 237.873 65.9101 238.303 65.7656 238.646C65.6249 238.99 65.4765 239.26 65.3203 239.455C65.164 239.65 65.0058 239.795 64.8456 239.889C64.6855 239.979 64.5234 240.037 64.3593 240.064C64.1992 240.092 64.0312 240.105 63.8554 240.105C63.7851 240.105 63.7109 240.102 63.6328 240.094C63.5546 240.09 63.4765 240.08 63.3984 240.064V238.828C63.5156 238.848 63.6191 238.857 63.7089 238.857C63.8495 238.857 63.9687 238.842 64.0663 238.811C64.164 238.775 64.2578 238.709 64.3476 238.611C64.4374 238.514 64.5253 238.367 64.6113 238.172C64.7011 237.973 64.789 237.705 64.8749 237.369C64.9648 237.033 65.0527 236.617 65.1386 236.121C65.2285 235.621 65.3203 235.021 65.414 234.322H68.9003Z" fill="#564E44"/>
<path d="M62.5195 234.322V240H61.1308V238.354C61.1308 237.607 61.1484 236.934 61.1835 236.332H61.1601C60.9218 236.742 60.5585 237.281 60.0703 237.949L58.5468 240H57.2695V234.322H58.6581V235.969C58.6581 236.781 58.6406 237.455 58.6054 237.99H58.6288C58.8554 237.6 59.2187 237.061 59.7187 236.373L61.2421 234.322H62.5195Z" fill="#564E44"/>
<path d="M50.0331 236.461H50.0097L46.957 240H45.1171L48.539 236.045L45.3867 232.16H47.1679L50.0097 235.729H50.0331V232.16H51.4687V235.729H51.4921L54.3339 232.16H56.1152L52.9628 236.045L56.3847 240H54.5449L51.4921 236.461H51.4687V240H50.0331V236.461Z" fill="#564E44"/>
<path d="M83.1406 257.016H83.1171C83.039 257.098 82.9453 257.182 82.8359 257.268C82.7265 257.354 82.6015 257.436 82.4609 257.514C82.3203 257.588 82.164 257.648 81.9921 257.695C81.8203 257.742 81.6347 257.766 81.4355 257.766C81.166 257.766 80.914 257.723 80.6796 257.637C80.4453 257.555 80.2441 257.436 80.0761 257.279C79.9081 257.119 79.7753 256.928 79.6777 256.705C79.5839 256.479 79.537 256.227 79.537 255.949C79.537 255.645 79.5917 255.371 79.7011 255.129C79.8144 254.887 79.9706 254.682 80.1699 254.514C80.3691 254.346 80.6074 254.219 80.8847 254.133C81.162 254.043 81.4687 253.998 81.8046 253.998C82.0507 253.998 82.2773 254.014 82.4843 254.045C82.6913 254.076 82.873 254.113 83.0292 254.156V253.928C83.0292 253.795 83.0058 253.668 82.9589 253.547C82.916 253.422 82.8437 253.312 82.7421 253.219C82.6445 253.121 82.5156 253.045 82.3554 252.99C82.1953 252.932 81.9999 252.902 81.7695 252.902C81.4882 252.902 81.207 252.934 80.9257 252.996C80.6445 253.059 80.3398 253.152 80.0117 253.277V252.193C80.2968 252.068 80.5995 251.973 80.9199 251.906C81.2402 251.84 81.5761 251.805 81.9277 251.801C82.3417 251.801 82.7031 251.852 83.0117 251.953C83.3242 252.055 83.5839 252.195 83.791 252.375C84.0019 252.551 84.1581 252.76 84.2597 253.002C84.3652 253.244 84.4179 253.508 84.4179 253.793V255.932C84.4179 256.307 84.4218 256.629 84.4296 256.898C84.4374 257.168 84.4453 257.408 84.4531 257.619H83.1992L83.1406 257.016ZM83.0292 255.199C82.8964 255.168 82.7441 255.141 82.5722 255.117C82.4003 255.09 82.2265 255.076 82.0507 255.076C81.7109 255.076 81.4413 255.145 81.2421 255.281C81.0468 255.414 80.9492 255.619 80.9492 255.896C80.9492 256.025 80.9706 256.139 81.0136 256.236C81.0605 256.33 81.121 256.408 81.1953 256.471C81.2734 256.533 81.3632 256.58 81.4648 256.611C81.5663 256.643 81.6738 256.658 81.787 256.658C81.9277 256.658 82.0605 256.641 82.1855 256.605C82.3105 256.566 82.4257 256.52 82.5312 256.465C82.6367 256.406 82.7304 256.342 82.8124 256.271C82.8984 256.201 82.9706 256.133 83.0292 256.066V255.199Z" fill="#564E44"/>
<path d="M75.7167 253.113H73.9062V251.941H78.916V253.113H77.1054V257.619H75.7167V253.113Z" fill="#564E44"/>
<path d="M71.9257 257.016H71.9023C71.8242 257.098 71.7304 257.182 71.621 257.268C71.5117 257.354 71.3867 257.436 71.246 257.514C71.1054 257.588 70.9492 257.648 70.7773 257.695C70.6054 257.742 70.4199 257.766 70.2206 257.766C69.9511 257.766 69.6992 257.723 69.4648 257.637C69.2304 257.555 69.0292 257.436 68.8613 257.279C68.6933 257.119 68.5605 256.928 68.4628 256.705C68.3691 256.479 68.3222 256.227 68.3222 255.949C68.3222 255.645 68.3769 255.371 68.4863 255.129C68.5995 254.887 68.7558 254.682 68.955 254.514C69.1542 254.346 69.3925 254.219 69.6699 254.133C69.9472 254.043 70.2538 253.998 70.5898 253.998C70.8359 253.998 71.0624 254.014 71.2695 254.045C71.4765 254.076 71.6581 254.113 71.8144 254.156V253.928C71.8144 253.795 71.791 253.668 71.7441 253.547C71.7011 253.422 71.6288 253.312 71.5273 253.219C71.4296 253.121 71.3007 253.045 71.1406 252.99C70.9804 252.932 70.7851 252.902 70.5546 252.902C70.2734 252.902 69.9921 252.934 69.7109 252.996C69.4296 253.059 69.1249 253.152 68.7968 253.277V252.193C69.082 252.068 69.3847 251.973 69.705 251.906C70.0253 251.84 70.3613 251.805 70.7128 251.801C71.1269 251.801 71.4882 251.852 71.7968 251.953C72.1093 252.055 72.3691 252.195 72.5761 252.375C72.787 252.551 72.9433 252.76 73.0449 253.002C73.1503 253.244 73.2031 253.508 73.2031 253.793V255.932C73.2031 256.307 73.207 256.629 73.2148 256.898C73.2226 257.168 73.2304 257.408 73.2382 257.619H71.9843L71.9257 257.016ZM71.8144 255.199C71.6816 255.168 71.5292 255.141 71.3574 255.117C71.1855 255.09 71.0117 255.076 70.8359 255.076C70.496 255.076 70.2265 255.145 70.0273 255.281C69.832 255.414 69.7343 255.619 69.7343 255.896C69.7343 256.025 69.7558 256.139 69.7988 256.236C69.8456 256.33 69.9062 256.408 69.9804 256.471C70.0585 256.533 70.1484 256.58 70.2499 256.611C70.3515 256.643 70.4589 256.658 70.5722 256.658C70.7128 256.658 70.8456 256.641 70.9706 256.605C71.0956 256.566 71.2109 256.52 71.3163 256.465C71.4218 256.406 71.5156 256.342 71.5976 256.271C71.6835 256.201 71.7558 256.133 71.8144 256.066V255.199Z" fill="#564E44"/>
<path d="M65.6679 257.619V255.275H63.3769V257.619H61.9882V251.941H63.3769V254.098H65.6679V251.941H67.0566V257.619H65.6679Z" fill="#564E44"/>
<path d="M57.3124 255.738C57.5351 254.949 57.8144 254.061 58.1503 253.072L58.5429 251.941H60.4589V257.619H59.123V255.58C59.123 255.08 59.1464 254.391 59.1933 253.512H59.1464C59.0331 253.867 58.8867 254.303 58.707 254.818C58.5312 255.33 58.3222 255.93 58.08 256.617L57.7285 257.619H56.8554L56.498 256.611C56.2558 255.932 56.0468 255.338 55.871 254.83C55.6992 254.318 55.5546 253.879 55.4374 253.512H55.3906C55.4374 254.34 55.4609 255.029 55.4609 255.58V257.619H54.1249V251.941H56.041L56.4335 253.072C56.7968 254.143 57.0761 255.031 57.2714 255.738H57.3124Z" fill="#564E44"/>
<path d="M51.4589 254.783C51.4589 254.482 51.4238 254.217 51.3535 253.986C51.2831 253.756 51.1855 253.562 51.0605 253.406C50.9355 253.25 50.7851 253.133 50.6093 253.055C50.4335 252.977 50.2421 252.938 50.0351 252.938C49.832 252.938 49.6425 252.977 49.4667 253.055C49.2949 253.133 49.1464 253.25 49.0214 253.406C48.8964 253.562 48.7988 253.756 48.7285 253.986C48.6581 254.217 48.623 254.482 48.623 254.783C48.623 255.084 48.6581 255.35 48.7285 255.58C48.7988 255.811 48.8964 256.004 49.0214 256.16C49.1503 256.312 49.3007 256.43 49.4726 256.512C49.6484 256.59 49.8398 256.629 50.0468 256.629C50.2538 256.629 50.4433 256.59 50.6152 256.512C50.787 256.43 50.9355 256.312 51.0605 256.16C51.1855 256.004 51.2831 255.811 51.3535 255.58C51.4238 255.35 51.4589 255.084 51.4589 254.783ZM52.8945 254.783C52.8945 255.229 52.8281 255.635 52.6953 256.002C52.5624 256.369 52.371 256.684 52.121 256.945C51.8749 257.207 51.5761 257.41 51.2245 257.555C50.873 257.695 50.4804 257.766 50.0468 257.766C49.6015 257.766 49.2011 257.695 48.8456 257.555C48.4941 257.41 48.1953 257.207 47.9492 256.945C47.7031 256.684 47.5136 256.369 47.3808 256.002C47.2519 255.635 47.1874 255.229 47.1874 254.783C47.1874 254.338 47.2538 253.932 47.3867 253.564C47.5195 253.197 47.7089 252.883 47.955 252.621C48.205 252.359 48.5058 252.158 48.8574 252.018C49.2089 251.873 49.6015 251.801 50.0351 251.801C50.4804 251.801 50.8788 251.873 51.2304 252.018C51.5859 252.158 51.8867 252.359 52.1328 252.621C52.3788 252.883 52.5663 253.197 52.6953 253.564C52.8281 253.932 52.8945 254.338 52.8945 254.783Z" fill="#564E44"/>
<path d="M41.7617 251.941H43.1503V254.408H43.1796L45.1367 251.941H46.8007L44.4804 254.742L46.9238 257.619H45.248L43.1738 255.141H43.1503V257.619H41.7617V251.941Z" fill="#564E44"/>
<path d="M190.756 235.395C190.432 235.395 190.195 235.457 190.047 235.582C189.961 235.652 189.896 235.738 189.853 235.84C189.814 235.941 189.795 236.049 189.795 236.162C189.795 236.338 189.836 236.482 189.918 236.596C190 236.709 190.117 236.793 190.269 236.848C190.336 236.871 190.414 236.889 190.504 236.9C190.594 236.908 190.699 236.912 190.82 236.912H191.752V235.395H190.756ZM188.359 236.221C188.359 236.057 188.377 235.896 188.412 235.74C188.451 235.58 188.51 235.43 188.588 235.289C188.666 235.148 188.764 235.02 188.881 234.902C189.002 234.781 189.144 234.678 189.309 234.592C189.473 234.506 189.662 234.439 189.877 234.393C190.096 234.346 190.35 234.322 190.639 234.322H193.129V240H191.752V237.984H190.656L189.578 240H188.078L189.326 237.721V237.697C189.006 237.557 188.764 237.361 188.6 237.111C188.439 236.857 188.359 236.561 188.359 236.221Z" fill="#564E44"/>
<path d="M185.769 239.396H185.746C185.668 239.479 185.574 239.562 185.465 239.648C185.355 239.734 185.23 239.816 185.09 239.895C184.949 239.969 184.793 240.029 184.621 240.076C184.449 240.123 184.264 240.146 184.064 240.146C183.795 240.146 183.543 240.104 183.309 240.018C183.074 239.936 182.873 239.816 182.705 239.66C182.537 239.5 182.404 239.309 182.307 239.086C182.213 238.859 182.166 238.607 182.166 238.33C182.166 238.025 182.221 237.752 182.33 237.51C182.443 237.268 182.6 237.062 182.799 236.895C182.998 236.727 183.236 236.6 183.514 236.514C183.791 236.424 184.098 236.379 184.434 236.379C184.68 236.379 184.906 236.395 185.113 236.426C185.32 236.457 185.502 236.494 185.658 236.537V236.309C185.658 236.176 185.635 236.049 185.588 235.928C185.545 235.803 185.473 235.693 185.371 235.6C185.273 235.502 185.144 235.426 184.984 235.371C184.824 235.312 184.629 235.283 184.398 235.283C184.117 235.283 183.836 235.314 183.555 235.377C183.273 235.439 182.969 235.533 182.641 235.658V234.574C182.926 234.449 183.228 234.354 183.549 234.287C183.869 234.221 184.205 234.186 184.557 234.182C184.971 234.182 185.332 234.232 185.641 234.334C185.953 234.436 186.213 234.576 186.42 234.756C186.631 234.932 186.787 235.141 186.889 235.383C186.994 235.625 187.047 235.889 187.047 236.174V238.312C187.047 238.688 187.051 239.01 187.059 239.279C187.066 239.549 187.074 239.789 187.082 240H185.828L185.769 239.396ZM185.658 237.58C185.525 237.549 185.373 237.521 185.201 237.498C185.029 237.471 184.855 237.457 184.68 237.457C184.34 237.457 184.07 237.525 183.871 237.662C183.676 237.795 183.578 238 183.578 238.277C183.578 238.406 183.6 238.52 183.643 238.617C183.689 238.711 183.75 238.789 183.824 238.852C183.902 238.914 183.992 238.961 184.094 238.992C184.195 239.023 184.303 239.039 184.416 239.039C184.557 239.039 184.689 239.021 184.814 238.986C184.939 238.947 185.055 238.9 185.16 238.846C185.266 238.787 185.359 238.723 185.441 238.652C185.527 238.582 185.6 238.514 185.658 238.447V237.58Z" fill="#564E44"/>
<path d="M180.9 234.322V240H179.512V235.477H178.51C178.408 236.215 178.295 236.842 178.17 237.357C178.045 237.873 177.91 238.303 177.766 238.646C177.625 238.99 177.477 239.26 177.32 239.455C177.164 239.65 177.006 239.795 176.846 239.889C176.685 239.979 176.523 240.037 176.359 240.064C176.199 240.092 176.031 240.105 175.855 240.105C175.785 240.105 175.711 240.102 175.633 240.094C175.555 240.09 175.477 240.08 175.398 240.064V238.828C175.516 238.848 175.619 238.857 175.709 238.857C175.85 238.857 175.969 238.842 176.066 238.811C176.164 238.775 176.258 238.709 176.348 238.611C176.437 238.514 176.525 238.367 176.611 238.172C176.701 237.973 176.789 237.705 176.875 237.369C176.965 237.033 177.053 236.617 177.139 236.121C177.228 235.621 177.32 235.021 177.414 234.322H180.9Z" fill="#564E44"/>
<path d="M174.519 234.322V240H173.131V238.354C173.131 237.607 173.148 236.934 173.184 236.332H173.16C172.922 236.742 172.559 237.281 172.07 237.949L170.547 240H169.269V234.322H170.658V235.969C170.658 236.781 170.641 237.455 170.605 237.99H170.629C170.855 237.6 171.219 237.061 171.719 236.373L173.242 234.322H174.519Z" fill="#564E44"/>
<path d="M162.033 236.461H162.01L158.957 240H157.117L160.539 236.045L157.387 232.16H159.168L162.01 235.729H162.033V232.16H163.469V235.729H163.492L166.334 232.16H168.115L164.963 236.045L168.385 240H166.545L163.492 236.461H163.469V240H162.033V236.461Z" fill="#564E44"/>
<path d="M195.141 257.016H195.117C195.039 257.098 194.945 257.182 194.836 257.268C194.727 257.354 194.602 257.436 194.461 257.514C194.32 257.588 194.164 257.648 193.992 257.695C193.82 257.742 193.635 257.766 193.435 257.766C193.166 257.766 192.914 257.723 192.68 257.637C192.445 257.555 192.244 257.436 192.076 257.279C191.908 257.119 191.775 256.928 191.678 256.705C191.584 256.479 191.537 256.227 191.537 255.949C191.537 255.645 191.592 255.371 191.701 255.129C191.814 254.887 191.971 254.682 192.17 254.514C192.369 254.346 192.607 254.219 192.885 254.133C193.162 254.043 193.469 253.998 193.805 253.998C194.051 253.998 194.277 254.014 194.484 254.045C194.691 254.076 194.873 254.113 195.029 254.156V253.928C195.029 253.795 195.006 253.668 194.959 253.547C194.916 253.422 194.844 253.312 194.742 253.219C194.644 253.121 194.516 253.045 194.355 252.99C194.195 252.932 194 252.902 193.769 252.902C193.488 252.902 193.207 252.934 192.926 252.996C192.644 253.059 192.34 253.152 192.012 253.277V252.193C192.297 252.068 192.6 251.973 192.92 251.906C193.24 251.84 193.576 251.805 193.928 251.801C194.342 251.801 194.703 251.852 195.012 251.953C195.324 252.055 195.584 252.195 195.791 252.375C196.002 252.551 196.158 252.76 196.26 253.002C196.365 253.244 196.418 253.508 196.418 253.793V255.932C196.418 256.307 196.422 256.629 196.43 256.898C196.437 257.168 196.445 257.408 196.453 257.619H195.199L195.141 257.016ZM195.029 255.199C194.896 255.168 194.744 255.141 194.572 255.117C194.4 255.09 194.227 255.076 194.051 255.076C193.711 255.076 193.441 255.145 193.242 255.281C193.047 255.414 192.949 255.619 192.949 255.896C192.949 256.025 192.971 256.139 193.014 256.236C193.06 256.33 193.121 256.408 193.195 256.471C193.273 256.533 193.363 256.58 193.465 256.611C193.566 256.643 193.674 256.658 193.787 256.658C193.928 256.658 194.06 256.641 194.185 256.605C194.31 256.566 194.426 256.52 194.531 256.465C194.637 256.406 194.73 256.342 194.812 256.271C194.898 256.201 194.971 256.133 195.029 256.066V255.199Z" fill="#564E44"/>
<path d="M187.717 253.113H185.906V251.941H190.916V253.113H189.105V257.619H187.717V253.113Z" fill="#564E44"/>
<path d="M183.926 257.016H183.902C183.824 257.098 183.73 257.182 183.621 257.268C183.512 257.354 183.387 257.436 183.246 257.514C183.105 257.588 182.949 257.648 182.777 257.695C182.605 257.742 182.42 257.766 182.221 257.766C181.951 257.766 181.699 257.723 181.465 257.637C181.23 257.555 181.029 257.436 180.861 257.279C180.693 257.119 180.56 256.928 180.463 256.705C180.369 256.479 180.322 256.227 180.322 255.949C180.322 255.645 180.377 255.371 180.486 255.129C180.6 254.887 180.756 254.682 180.955 254.514C181.154 254.346 181.393 254.219 181.67 254.133C181.947 254.043 182.254 253.998 182.59 253.998C182.836 253.998 183.062 254.014 183.269 254.045C183.477 254.076 183.658 254.113 183.814 254.156V253.928C183.814 253.795 183.791 253.668 183.744 253.547C183.701 253.422 183.629 253.312 183.527 253.219C183.43 253.121 183.301 253.045 183.141 252.99C182.98 252.932 182.785 252.902 182.555 252.902C182.273 252.902 181.992 252.934 181.711 252.996C181.43 253.059 181.125 253.152 180.797 253.277V252.193C181.082 252.068 181.385 251.973 181.705 251.906C182.025 251.84 182.361 251.805 182.713 251.801C183.127 251.801 183.488 251.852 183.797 251.953C184.109 252.055 184.369 252.195 184.576 252.375C184.787 252.551 184.943 252.76 185.045 253.002C185.15 253.244 185.203 253.508 185.203 253.793V255.932C185.203 256.307 185.207 256.629 185.215 256.898C185.223 257.168 185.23 257.408 185.238 257.619H183.984L183.926 257.016ZM183.814 255.199C183.682 255.168 183.529 255.141 183.357 255.117C183.185 255.09 183.012 255.076 182.836 255.076C182.496 255.076 182.227 255.145 182.027 255.281C181.832 255.414 181.734 255.619 181.734 255.896C181.734 256.025 181.756 256.139 181.799 256.236C181.846 256.33 181.906 256.408 181.98 256.471C182.059 256.533 182.148 256.58 182.25 256.611C182.352 256.643 182.459 256.658 182.572 256.658C182.713 256.658 182.846 256.641 182.971 256.605C183.096 256.566 183.211 256.52 183.316 256.465C183.422 256.406 183.516 256.342 183.598 256.271C183.684 256.201 183.756 256.133 183.814 256.066V255.199Z" fill="#564E44"/>
<path d="M177.668 257.619V255.275H175.377V257.619H173.988V251.941H175.377V254.098H177.668V251.941H179.057V257.619H177.668Z" fill="#564E44"/>
<path d="M169.312 255.738C169.535 254.949 169.814 254.061 170.15 253.072L170.543 251.941H172.459V257.619H171.123V255.58C171.123 255.08 171.146 254.391 171.193 253.512H171.146C171.033 253.867 170.887 254.303 170.707 254.818C170.531 255.33 170.322 255.93 170.08 256.617L169.728 257.619H168.855L168.498 256.611C168.256 255.932 168.047 255.338 167.871 254.83C167.699 254.318 167.555 253.879 167.437 253.512H167.391C167.437 254.34 167.461 255.029 167.461 255.58V257.619H166.125V251.941H168.041L168.434 253.072C168.797 254.143 169.076 255.031 169.271 255.738H169.312Z" fill="#564E44"/>
<path d="M163.459 254.783C163.459 254.482 163.424 254.217 163.353 253.986C163.283 253.756 163.185 253.562 163.06 253.406C162.935 253.25 162.785 253.133 162.609 253.055C162.434 252.977 162.242 252.938 162.035 252.938C161.832 252.938 161.643 252.977 161.467 253.055C161.295 253.133 161.146 253.25 161.021 253.406C160.896 253.562 160.799 253.756 160.728 253.986C160.658 254.217 160.623 254.482 160.623 254.783C160.623 255.084 160.658 255.35 160.728 255.58C160.799 255.811 160.896 256.004 161.021 256.16C161.15 256.312 161.301 256.43 161.473 256.512C161.648 256.59 161.84 256.629 162.047 256.629C162.254 256.629 162.443 256.59 162.615 256.512C162.787 256.43 162.935 256.312 163.06 256.16C163.185 256.004 163.283 255.811 163.353 255.58C163.424 255.35 163.459 255.084 163.459 254.783ZM164.894 254.783C164.894 255.229 164.828 255.635 164.695 256.002C164.562 256.369 164.371 256.684 164.121 256.945C163.875 257.207 163.576 257.41 163.225 257.555C162.873 257.695 162.48 257.766 162.047 257.766C161.602 257.766 161.201 257.695 160.846 257.555C160.494 257.41 160.195 257.207 159.949 256.945C159.703 256.684 159.514 256.369 159.381 256.002C159.252 255.635 159.187 255.229 159.187 254.783C159.187 254.338 159.254 253.932 159.387 253.564C159.519 253.197 159.709 252.883 159.955 252.621C160.205 252.359 160.506 252.158 160.857 252.018C161.209 251.873 161.602 251.801 162.035 251.801C162.48 251.801 162.879 251.873 163.23 252.018C163.586 252.158 163.887 252.359 164.133 252.621C164.379 252.883 164.566 253.197 164.695 253.564C164.828 253.932 164.894 254.338 164.894 254.783Z" fill="#564E44"/>
<path d="M153.762 251.941H155.15V254.408H155.18L157.137 251.941H158.801L156.48 254.742L158.924 257.619H157.248L155.174 255.141H155.15V257.619H153.762V251.941Z" fill="#564E44"/>
<path d="M272.617 46.3223H274.105L274.955 48.3789C275.275 49.1602 275.502 49.7383 275.635 50.1133H275.658C275.756 49.8203 275.963 49.2773 276.279 48.4844L277.158 46.3223H278.664L275.008 54.7246H273.637L274.938 51.6836L272.617 46.3223Z" fill="#564E44"/>
<path d="M269.066 53.459L271.293 44.1602H272.512L270.285 53.459H269.066Z" fill="#564E44"/>
<path d="M266.752 45.2266C266.361 45.2266 266 45.291 265.668 45.4199C265.34 45.5488 265.057 45.7363 264.818 45.9824C264.584 46.2285 264.4 46.5332 264.268 46.8965C264.135 47.2559 264.068 47.668 264.068 48.1328C264.068 48.5938 264.129 49 264.25 49.3516C264.371 49.6992 264.545 49.9902 264.771 50.2246C264.998 50.459 265.273 50.6367 265.598 50.7578C265.926 50.875 266.297 50.9336 266.711 50.9336C267.008 50.9336 267.311 50.9102 267.619 50.8633C267.928 50.8164 268.217 50.748 268.486 50.6582V51.8945C268.213 51.9727 267.918 52.0332 267.602 52.0762C267.285 52.123 266.957 52.1465 266.617 52.1465C265.953 52.1465 265.369 52.0527 264.865 51.8652C264.361 51.6738 263.939 51.4062 263.6 51.0625C263.264 50.7148 263.01 50.3008 262.838 49.8203C262.67 49.3359 262.586 48.8027 262.586 48.2207C262.586 47.623 262.676 47.0684 262.855 46.5566C263.039 46.0449 263.301 45.6016 263.641 45.2266C263.984 44.8516 264.412 44.5566 264.924 44.3418C265.439 44.127 266.021 44.0176 266.67 44.0137C267.002 44.0137 267.316 44.0371 267.613 44.084C267.91 44.127 268.178 44.1895 268.416 44.2715V45.4902C268.104 45.3926 267.812 45.3242 267.543 45.2852C267.273 45.2461 267.01 45.2266 266.752 45.2266Z" fill="#564E44"/>
<path d="M78.9141 111.443V117.121H77.5254V115.475C77.5254 114.729 77.543 114.055 77.5781 113.453H77.5547C77.3164 113.863 76.9531 114.402 76.4648 115.07L74.9414 117.121H73.6641V111.443H75.0527V113.09C75.0527 113.902 75.0352 114.576 75 115.111H75.0234C75.25 114.721 75.6133 114.182 76.1133 113.494L77.6367 111.443H78.9141ZM76.3535 109.768C76.584 109.768 76.7695 109.676 76.9102 109.492C77.0547 109.309 77.1387 109.045 77.1621 108.701H78.457C78.4453 109.002 78.3887 109.281 78.2871 109.539C78.1855 109.793 78.0449 110.014 77.8652 110.201C77.6855 110.385 77.4688 110.529 77.2148 110.635C76.9609 110.74 76.6719 110.793 76.3477 110.793C76.0273 110.793 75.7402 110.74 75.4863 110.635C75.2363 110.529 75.0234 110.385 74.8477 110.201C74.6719 110.014 74.5352 109.793 74.4375 109.539C74.3438 109.281 74.291 109.002 74.2793 108.701H75.5625C75.5938 109.045 75.6758 109.309 75.8086 109.492C75.9414 109.676 76.123 109.768 76.3535 109.768Z" fill="#564E44"/>
<path d="M66.8027 111.443V113.477C67.0801 113.445 67.3438 113.43 67.5938 113.43C68.0391 113.43 68.4238 113.477 68.748 113.57C69.0762 113.664 69.3438 113.795 69.5508 113.963C69.7617 114.127 69.916 114.322 70.0137 114.549C70.1152 114.771 70.166 115.012 70.166 115.27C70.166 115.602 70.0938 115.893 69.9492 116.143C69.8047 116.389 69.6035 116.596 69.3457 116.764C69.0879 116.932 68.7832 117.057 68.4316 117.139C68.084 117.225 67.7051 117.268 67.2949 117.268C66.9395 117.268 66.6074 117.248 66.2988 117.209C65.9902 117.174 65.6953 117.119 65.4141 117.045V111.443H66.8027ZM67.3711 116.131C67.5742 116.131 67.7578 116.115 67.9219 116.084C68.0898 116.053 68.2324 116.004 68.3496 115.938C68.4707 115.867 68.5645 115.781 68.6309 115.68C68.6973 115.578 68.7305 115.457 68.7305 115.316C68.7305 115.09 68.6289 114.908 68.4258 114.771C68.2266 114.635 67.9062 114.566 67.4648 114.566C67.2617 114.566 67.041 114.582 66.8027 114.613V116.096C66.9785 116.119 67.168 116.131 67.3711 116.131ZM70.7461 111.443H72.1348V117.121H70.7461V111.443Z" fill="#564E44"/>
<path d="M62.4961 117.121V114.777H60.2051V117.121H58.8164V111.443H60.2051V113.6H62.4961V111.443H63.8848V117.121H62.4961Z" fill="#564E44"/>
<path d="M55.8984 117.121V114.777H53.6074V117.121H52.2188V111.443H53.6074V113.6H55.8984V111.443H57.2871V117.121H55.8984Z" fill="#564E44"/>
<path d="M48.9902 116.148C49.2598 116.148 49.541 116.121 49.834 116.066C50.127 116.012 50.4238 115.934 50.7246 115.832V116.939C50.5449 117.018 50.2695 117.092 49.8984 117.162C49.5273 117.232 49.1426 117.268 48.7441 117.268C48.3418 117.268 47.959 117.217 47.5957 117.115C47.2363 117.01 46.9219 116.842 46.6523 116.611C46.3828 116.381 46.168 116.082 46.0078 115.715C45.8516 115.348 45.7734 114.902 45.7734 114.379C45.7734 113.863 45.8477 113.412 45.9961 113.025C46.1445 112.639 46.3438 112.318 46.5938 112.064C46.8438 111.811 47.1289 111.621 47.4492 111.496C47.7734 111.367 48.1074 111.303 48.4512 111.303C48.8105 111.303 49.1406 111.357 49.4414 111.467C49.7461 111.576 50.0078 111.748 50.2266 111.982C50.4492 112.217 50.6211 112.52 50.7422 112.891C50.8672 113.258 50.9297 113.693 50.9297 114.197C50.9258 114.393 50.9199 114.559 50.9121 114.695H47.1914C47.2109 114.957 47.2695 115.182 47.3672 115.369C47.4648 115.553 47.5918 115.703 47.748 115.82C47.9082 115.934 48.0938 116.018 48.3047 116.072C48.5156 116.123 48.7441 116.148 48.9902 116.148ZM48.4336 112.387C48.2578 112.387 48.1016 112.42 47.9648 112.486C47.8281 112.549 47.709 112.637 47.6074 112.75C47.5098 112.859 47.4316 112.988 47.373 113.137C47.3145 113.285 47.2754 113.443 47.2559 113.611H49.4883C49.4883 113.443 49.4648 113.285 49.418 113.137C49.375 112.988 49.3086 112.859 49.2188 112.75C49.1328 112.637 49.0234 112.549 48.8906 112.486C48.7617 112.42 48.6094 112.387 48.4336 112.387Z" fill="#564E44"/>
<path d="M43.4004 114.285C43.4004 113.984 43.3652 113.719 43.2949 113.488C43.2246 113.258 43.127 113.064 43.002 112.908C42.877 112.752 42.7266 112.635 42.5508 112.557C42.375 112.479 42.1836 112.439 41.9766 112.439C41.7734 112.439 41.584 112.479 41.4082 112.557C41.2363 112.635 41.0879 112.752 40.9629 112.908C40.8379 113.064 40.7402 113.258 40.6699 113.488C40.5996 113.719 40.5645 113.984 40.5645 114.285C40.5645 114.586 40.5996 114.852 40.6699 115.082C40.7402 115.312 40.8379 115.506 40.9629 115.662C41.0918 115.814 41.2422 115.932 41.4141 116.014C41.5898 116.092 41.7812 116.131 41.9883 116.131C42.1953 116.131 42.3848 116.092 42.5566 116.014C42.7285 115.932 42.877 115.814 43.002 115.662C43.127 115.506 43.2246 115.312 43.2949 115.082C43.3652 114.852 43.4004 114.586 43.4004 114.285ZM44.8359 114.285C44.8359 114.73 44.7695 115.137 44.6367 115.504C44.5039 115.871 44.3125 116.186 44.0625 116.447C43.8164 116.709 43.5176 116.912 43.166 117.057C42.8145 117.197 42.4219 117.268 41.9883 117.268C41.543 117.268 41.1426 117.197 40.7871 117.057C40.4355 116.912 40.1367 116.709 39.8906 116.447C39.6445 116.186 39.4551 115.871 39.3223 115.504C39.1934 115.137 39.1289 114.73 39.1289 114.285C39.1289 113.84 39.1953 113.434 39.3281 113.066C39.4609 112.699 39.6504 112.385 39.8965 112.123C40.1465 111.861 40.4473 111.66 40.7988 111.52C41.1504 111.375 41.543 111.303 41.9766 111.303C42.4219 111.303 42.8203 111.375 43.1719 111.52C43.5273 111.66 43.8281 111.861 44.0742 112.123C44.3203 112.385 44.5078 112.699 44.6367 113.066C44.7695 113.434 44.8359 113.84 44.8359 114.285Z" fill="#564E44"/>
<path d="M35.4844 112.416C35.2422 112.42 35.0117 112.48 34.793 112.598C34.5742 112.711 34.3809 112.865 34.2129 113.061V115.592C34.2715 115.658 34.3418 115.725 34.4238 115.791C34.5059 115.857 34.5977 115.918 34.6992 115.973C34.8008 116.027 34.9121 116.072 35.0332 116.107C35.1582 116.143 35.2871 116.16 35.4199 116.16C35.6348 116.16 35.8262 116.115 35.9941 116.025C36.1621 115.932 36.3008 115.801 36.4102 115.633C36.5234 115.465 36.6094 115.266 36.668 115.035C36.7266 114.801 36.7559 114.541 36.7559 114.256C36.7559 113.951 36.7246 113.684 36.6621 113.453C36.6035 113.223 36.5176 113.031 36.4043 112.879C36.2949 112.727 36.1621 112.611 36.0059 112.533C35.8496 112.455 35.6758 112.416 35.4844 112.416ZM35.666 117.268C35.3613 117.268 35.084 117.213 34.834 117.104C34.5879 116.99 34.3828 116.852 34.2188 116.688H34.1953C34.1992 116.766 34.2031 116.877 34.207 117.021C34.2109 117.162 34.2129 117.316 34.2129 117.484V119.846H32.8242V111.443H34.043L34.1016 112.082H34.125C34.2969 111.855 34.5176 111.67 34.7871 111.525C35.0566 111.377 35.3691 111.303 35.7246 111.303C36.0332 111.303 36.3359 111.361 36.6328 111.479C36.9336 111.592 37.1992 111.768 37.4297 112.006C37.6602 112.244 37.8438 112.545 37.9805 112.908C38.1211 113.271 38.1914 113.703 38.1914 114.203C38.1914 114.73 38.1172 115.188 37.9688 115.574C37.8203 115.957 37.625 116.275 37.3828 116.529C37.1406 116.779 36.8711 116.965 36.5742 117.086C36.2812 117.207 35.9785 117.268 35.666 117.268Z" fill="#564E44"/>
<path d="M28.7402 112.615H26.9297V111.443H31.9395V112.615H30.1289V117.121H28.7402V112.615Z" fill="#564E44"/>
<path d="M26.3672 116.998C26.1914 117.072 25.9766 117.135 25.7227 117.186C25.4688 117.24 25.2012 117.268 24.9199 117.268C24.5098 117.268 24.127 117.209 23.7715 117.092C23.416 116.975 23.1055 116.797 22.8398 116.559C22.5742 116.32 22.3652 116.02 22.2129 115.656C22.0605 115.289 21.9844 114.861 21.9844 114.373C21.9844 113.826 22.0723 113.357 22.248 112.967C22.4238 112.576 22.6504 112.26 22.9277 112.018C23.209 111.771 23.5234 111.592 23.8711 111.479C24.2227 111.361 24.5684 111.303 24.9082 111.303C25.1621 111.303 25.4062 111.326 25.6406 111.373C25.875 111.416 26.0879 111.477 26.2793 111.555V112.686C26.1074 112.611 25.9238 112.553 25.7285 112.51C25.5371 112.463 25.3301 112.439 25.1074 112.439C24.8848 112.439 24.6719 112.475 24.4688 112.545C24.2656 112.611 24.0859 112.719 23.9297 112.867C23.7734 113.016 23.6484 113.213 23.5547 113.459C23.4648 113.701 23.4199 113.994 23.4199 114.338C23.4199 114.588 23.4551 114.824 23.5254 115.047C23.5957 115.266 23.6973 115.453 23.8301 115.609C23.9668 115.766 24.1387 115.893 24.3457 115.99C24.5566 116.084 24.8047 116.131 25.0898 116.131C25.3438 116.131 25.5742 116.105 25.7812 116.055C25.9883 116.004 26.1836 115.941 26.3672 115.867V116.998Z" fill="#564E44"/>
<path d="M20.6543 111.367C20.6543 111.707 20.5781 112.02 20.4258 112.305C20.2734 112.586 20.0215 112.82 19.6699 113.008V113.031C19.8652 113.098 20.043 113.184 20.2031 113.289C20.3672 113.391 20.5059 113.514 20.6191 113.658C20.7363 113.799 20.8262 113.959 20.8887 114.139C20.9551 114.318 20.9883 114.52 20.9883 114.742C20.9883 114.934 20.957 115.139 20.8945 115.357C20.8359 115.576 20.7305 115.789 20.5781 115.996C20.4258 116.199 20.2227 116.387 19.9688 116.559C19.7148 116.73 19.3945 116.867 19.0078 116.969C18.9102 116.992 18.8027 117.014 18.6855 117.033C18.5723 117.053 18.4453 117.07 18.3047 117.086C18.1641 117.098 18.0078 117.107 17.8359 117.115C17.6641 117.119 17.4707 117.121 17.2559 117.121H14.9766V109.281H17.7012C18.2832 109.281 18.752 109.34 19.1074 109.457C19.373 109.543 19.6035 109.656 19.7988 109.797C19.9941 109.934 20.1543 110.088 20.2793 110.26C20.4082 110.428 20.502 110.607 20.5605 110.799C20.623 110.986 20.6543 111.176 20.6543 111.367ZM16.4121 113.711V115.92H17.3496C17.5996 115.92 17.8145 115.914 17.9941 115.902C18.1738 115.887 18.3281 115.863 18.457 115.832C18.6562 115.789 18.8223 115.732 18.9551 115.662C19.0879 115.588 19.1953 115.506 19.2773 115.416C19.3594 115.322 19.418 115.221 19.4531 115.111C19.4883 114.998 19.5059 114.879 19.5059 114.754C19.5059 114.535 19.4453 114.344 19.3242 114.18C19.2031 114.016 19.0137 113.893 18.7559 113.811C18.6426 113.775 18.5098 113.75 18.3574 113.734C18.2051 113.719 18.0098 113.711 17.7715 113.711H16.4121ZM17.707 112.51C18.0977 112.51 18.3887 112.471 18.5801 112.393C18.7949 112.303 18.9473 112.18 19.0371 112.023C19.1309 111.863 19.1777 111.684 19.1777 111.484C19.1777 111.277 19.125 111.094 19.0195 110.934C18.9141 110.77 18.7344 110.648 18.4805 110.57C18.375 110.539 18.252 110.518 18.1113 110.506C17.9707 110.49 17.7969 110.482 17.5898 110.482H16.4121V112.51H17.707Z" fill="#564E44"/>
<path d="M59.5273 129.375C59.5273 128.836 59.3887 128.413 59.1113 128.104C58.834 127.792 58.4551 127.594 57.9746 127.512V131.256C58.4551 131.17 58.834 130.971 59.1113 130.659C59.3887 130.346 59.5273 129.918 59.5273 129.375ZM56.5859 134.948V132.352C56.1172 132.305 55.6973 132.202 55.3262 132.042C54.9551 131.881 54.6406 131.672 54.3828 131.415C54.1289 131.157 53.9336 130.856 53.7969 130.512C53.6641 130.168 53.5977 129.79 53.5977 129.375C53.5977 128.965 53.666 128.59 53.8027 128.25C53.9395 127.911 54.1367 127.614 54.3945 127.36C54.6523 127.102 54.9648 126.893 55.332 126.733C55.7031 126.569 56.1211 126.461 56.5859 126.411V123.739H57.9746V126.411C58.4395 126.461 58.8555 126.569 59.2227 126.733C59.5938 126.893 59.9082 127.102 60.166 127.36C60.4238 127.614 60.6211 127.911 60.7578 128.25C60.8945 128.59 60.9629 128.965 60.9629 129.375C60.9629 129.79 60.8945 130.168 60.7578 130.512C60.625 130.856 60.4297 131.157 60.1719 131.415C59.918 131.672 59.6055 131.881 59.2344 132.042C58.8633 132.202 58.4434 132.305 57.9746 132.352V134.948H56.5859ZM55.0332 129.375C55.0332 129.918 55.1719 130.346 55.4492 130.659C55.7266 130.971 56.1055 131.17 56.5859 131.256V127.512C56.1055 127.594 55.7266 127.792 55.4492 128.104C55.1719 128.413 55.0332 128.836 55.0332 129.375Z" fill="#564E44"/>
<path d="M51.0547 131.62H51.0312C50.9531 131.702 50.8594 131.786 50.75 131.872C50.6406 131.958 50.5156 132.04 50.375 132.118C50.2344 132.192 50.0781 132.252 49.9062 132.299C49.7344 132.346 49.5488 132.37 49.3496 132.37C49.0801 132.37 48.8281 132.327 48.5938 132.241C48.3594 132.159 48.1582 132.04 47.9902 131.883C47.8223 131.723 47.6895 131.532 47.5918 131.309C47.498 131.083 47.4512 130.831 47.4512 130.553C47.4512 130.249 47.5059 129.975 47.6152 129.733C47.7285 129.491 47.8848 129.286 48.084 129.118C48.2832 128.95 48.5215 128.823 48.7988 128.737C49.0762 128.647 49.3828 128.602 49.7188 128.602C49.9648 128.602 50.1914 128.618 50.3984 128.649C50.6055 128.68 50.7871 128.717 50.9434 128.76V128.532C50.9434 128.399 50.9199 128.272 50.873 128.151C50.8301 128.026 50.7578 127.917 50.6562 127.823C50.5586 127.725 50.4297 127.649 50.2695 127.594C50.1094 127.536 49.9141 127.506 49.6836 127.506C49.4023 127.506 49.1211 127.538 48.8398 127.6C48.5586 127.663 48.2539 127.756 47.9258 127.881V126.797C48.2109 126.672 48.5137 126.577 48.834 126.51C49.1543 126.444 49.4902 126.409 49.8418 126.405C50.2559 126.405 50.6172 126.456 50.9258 126.557C51.2383 126.659 51.498 126.799 51.7051 126.979C51.916 127.155 52.0723 127.364 52.1738 127.606C52.2793 127.848 52.332 128.112 52.332 128.397V130.536C52.332 130.911 52.3359 131.233 52.3438 131.502C52.3516 131.772 52.3594 132.012 52.3672 132.223H51.1133L51.0547 131.62ZM50.9434 129.803C50.8105 129.772 50.6582 129.745 50.4863 129.721C50.3145 129.694 50.1406 129.68 49.9648 129.68C49.625 129.68 49.3555 129.749 49.1562 129.885C48.9609 130.018 48.8633 130.223 48.8633 130.5C48.8633 130.629 48.8848 130.743 48.9277 130.84C48.9746 130.934 49.0352 131.012 49.1094 131.075C49.1875 131.137 49.2773 131.184 49.3789 131.215C49.4805 131.247 49.5879 131.262 49.7012 131.262C49.8418 131.262 49.9746 131.245 50.0996 131.209C50.2246 131.17 50.3398 131.124 50.4453 131.069C50.5508 131.01 50.6445 130.946 50.7266 130.875C50.8125 130.805 50.8848 130.737 50.9434 130.67V129.803Z" fill="#564E44"/>
<path d="M41.7266 126.545H43.1152V129.012H43.1445L45.1016 126.545H46.7656L44.4453 129.346L46.8887 132.223H45.2129L43.1387 129.745H43.1152V132.223H41.7266V126.545Z" fill="#564E44"/>
<path d="M40.1973 132.223H32.9492V126.545H34.3379V131.045H35.8789V126.545H37.2676V131.045H38.8086V126.545H40.1973V132.223Z" fill="#564E44"/>
</g>
<defs>
<clipPath id="clip0_134_2347">
<rect width="358" height="340" fill="white"/>
</clipPath>
</defs>
</svg>
