<svg width="374" height="340" viewBox="0 0 374 340" fill="none" xmlns="http://www.w3.org/2000/svg">
<g clip-path="url(#clip0_134_2414)">
<path d="M372.836 1.04228V91.336L370.813 91.6698V140.11C373.302 139.998 373.332 141.486 373.342 143.216C373.41 178.22 373.508 213.218 373.636 248.209C373.737 277.886 373.875 307.582 374.051 337.299C374.051 339.272 373.727 340.091 371.46 340.041C361.555 339.828 351.66 339.828 341.755 339.747C340.743 339.747 339.65 339.96 339.509 338.321C339.509 338.017 338.143 337.633 337.404 337.623C327.438 337.491 317.473 337.441 307.497 337.319C294.256 337.178 281.012 336.999 267.764 336.783C266.105 336.783 265.012 337.046 265.114 338.918H220.13C220.181 337.127 219.442 336.641 217.864 336.621C194.512 336.439 171.157 336.206 147.799 335.923C146.14 335.923 144.855 336.044 144.986 338.23C141.051 338.23 137.236 338.23 133.412 338.23C122.748 338.135 112.08 338.034 101.409 337.926C100.398 337.926 99.1128 338.382 98.8497 336.621C98.8497 336.388 97.6457 336.196 96.9982 336.186C79.7037 335.964 62.4126 335.754 45.1248 335.559C38.8519 335.488 32.5789 335.458 26.306 335.417C25.2335 335.417 23.9991 335.093 23.6855 336.722C23.6855 336.965 23.0379 337.259 22.6737 337.259C16.2793 337.259 9.88496 337.259 3.268 337.259C3.20062 336.035 3.20062 334.809 3.268 333.586C3.49059 331.755 2.82282 330.966 0.96117 331.229C0.618988 331.22 0.279211 331.169 -0.0505981 331.077C-0.0505981 325.907 -0.0505985 320.768 0.0202253 315.639C0.0202253 315.234 1.0927 314.566 1.69976 314.516C4.472 314.293 4.48212 314.354 4.49224 311.551C4.67436 254.107 4.85648 196.663 5.0386 139.219C5.09256 122.628 5.15326 106.036 5.22071 89.4441C5.22071 86.3382 5.22071 86.3382 1.83129 85.9436V82.949C1.83129 79.0439 1.9527 75.1387 1.90211 71.2336C1.90211 69.7869 2.34729 69.3013 3.81435 69.3114C20.4073 69.4598 37.0003 69.5778 53.5933 69.6655C57.4988 69.6655 61.4042 69.8071 65.3096 69.8375L195.828 70.7682C197.77 70.7682 199.713 70.7682 201.777 70.7682C203.254 62.1688 207.038 55.0667 213.706 49.6339C217.651 46.4269 222.812 43.9482 226.221 43.7256C218.577 45.945 211.954 50.7745 207.503 57.3734C202.849 64.2023 201.716 71.871 202.445 80.0859C201.433 80.0859 200.795 80.1972 200.128 80.1871C178.159 80.0252 156.197 79.8532 134.241 79.6711C131.206 79.6711 131.206 79.6711 131.317 82.7062C131.499 89.1203 131.702 95.5244 131.884 101.928C131.884 102.546 131.884 103.163 131.884 104.083C129.86 104.083 127.837 104.164 125.813 104.002C125.49 104.002 125.034 102.849 125.024 102.222C124.852 95.8785 124.771 89.5352 124.65 83.1918C124.569 79.0439 125.055 79.4384 120.744 79.4182C89.5819 79.1956 58.4161 78.9865 27.2469 78.791C25.021 78.791 22.785 78.791 20.5591 78.6493C19.1426 78.5785 18.5356 79.0338 18.5356 80.5412C18.6368 82.2712 18.5356 84.0113 18.5356 85.8121C18.1811 85.9456 17.8154 86.0472 17.4429 86.1156C14.0029 86.3483 14.0029 86.3382 13.9927 89.8791C13.9927 105.914 13.9927 121.95 13.841 137.975C13.841 139.998 14.4784 140.525 16.4513 140.535C43.1485 140.649 69.8525 140.811 96.5631 141.02C105.274 141.081 113.996 141.162 122.707 141.354C124.731 141.354 125.388 140.909 125.267 138.805C125.065 135.426 125.267 132.016 125.267 128.506H131.489C131.742 134.93 132.005 141.354 132.279 147.971H90.0979V169.955C86.4859 169.955 82.884 169.955 79.2821 169.955C58.2306 169.773 37.1757 169.574 16.1175 169.358C14.3165 169.358 13.9118 169.985 13.9118 171.654C13.8039 218.509 13.6454 265.354 13.4363 312.189C13.4363 314.991 15.1259 314.445 16.856 314.607V320.383C17.7993 320.322 18.7457 320.322 19.689 320.383C21.3382 320.626 23.2808 319.544 24.5758 321.527C24.758 321.8 25.5876 321.638 26.1947 321.648C48.4536 321.803 70.6922 321.955 92.9106 322.103C102.118 322.174 111.315 322.306 120.522 322.417C121.351 322.417 122.171 322.417 123.243 322.417C123.243 321.527 123.375 320.798 123.385 320.07C123.507 273.532 123.641 226.964 123.79 180.365C123.79 178.261 123.334 177.431 121.088 177.016C115.206 175.991 109.773 173.204 105.509 169.024C101.245 164.843 98.3515 159.467 97.2107 153.606C97.0463 152.907 97.0708 152.177 97.2815 151.491C97.4512 151.881 97.5899 152.284 97.6963 152.695C98.6603 158.528 101.374 163.931 105.477 168.187C109.58 172.444 114.88 175.353 120.674 176.531C122.039 176.805 123.429 176.944 124.822 176.946C151.128 177.148 177.414 177.327 203.679 177.482H206.38V184.28C205.652 184.28 204.974 184.381 204.296 184.371C180.459 184.203 156.615 184.014 132.764 183.805C131.004 183.805 130.356 184.129 130.356 186.051C130.356 230.882 130.322 275.707 130.255 320.525C130.255 321.082 130.306 321.638 130.346 322.548L237.856 323.429C237.917 322.579 238.008 321.972 238.008 321.405C238.13 277.417 238.244 233.428 238.352 189.44C238.352 187.922 238.555 186.304 235.793 186.769V214.237C223.773 215.592 208.819 205.253 206.907 191.069C207.058 191.524 207.23 191.969 207.362 192.424C208.92 198.148 212.166 203.27 216.678 207.121C221.19 210.972 226.758 213.374 232.656 214.014C234.406 214.196 235.013 213.791 235.003 211.991C235.003 203.695 235.115 195.399 235.145 187.103C235.145 185.363 234.841 183.623 234.963 181.903C234.998 181.477 235.13 181.065 235.349 180.699C235.569 180.332 235.869 180.021 236.228 179.788C238.373 178.999 240.659 177.977 242.855 178.048C249.618 178.456 256.316 176.535 261.835 172.605C265.215 170.233 268.047 167.165 270.141 163.606C272.235 160.048 273.543 156.083 273.977 151.977C274.23 150.095 273.592 149.508 271.73 149.589C269.161 149.721 266.571 149.64 264.001 149.589C256.473 149.448 248.956 149.245 241.438 149.144C239.89 149.144 239.131 148.669 239.111 147.02C239.111 144.733 238.899 142.447 238.757 139.786C240.781 139.907 242.622 140.009 244.453 140.14C244.696 140.14 245.101 140.383 245.121 140.535C245.344 142.983 247.195 142.275 248.571 142.285C283.295 142.582 318.032 142.862 352.783 143.125H354.918C358.449 138.805 357.336 134.019 357.367 129.406C357.458 116.375 357.367 103.335 357.367 90.304C357.367 89.6869 357.306 89.0698 357.245 88.0682C355.394 88.0682 353.613 88.1592 351.852 88.0075C351.316 88.0075 350.406 87.2588 350.395 86.8339C350.294 81.9778 350.325 77.1115 350.325 72.0227C352.257 72.0227 353.856 71.9114 355.383 72.0227C356.911 72.134 357.518 71.4663 357.498 69.8678C357.37 61.228 357.289 52.5847 357.255 43.9381C357.255 35.9963 357.306 28.0444 357.316 20.1026C357.316 19.273 357.245 18.4535 357.184 17.3508H350.841V10.1576L257.394 9.44946C257.262 11.8775 257.151 14.1336 257.029 16.5313C255.067 16.5313 253.266 16.6224 251.485 16.5313C249.907 16.42 249.461 16.9967 249.461 18.5547C249.573 26.0817 249.583 33.6188 249.644 41.1458C249.714 50.3421 249.846 59.5485 249.826 68.7448C249.826 70.6468 250.352 71.4056 252.305 71.1931C253.727 71.1217 255.152 71.1217 256.574 71.1931V87.2184H246.102C246.102 88.1694 246.102 88.8978 246.102 89.6363C246.244 95.838 246.345 102.04 246.558 108.241C246.608 109.789 246.183 110.265 244.585 110.265C239.374 110.214 239.394 110.265 239.313 104.994C239.202 97.6085 239.01 90.2231 238.959 82.8377C238.959 81.1077 238.555 80.1264 236.642 80.3793C235.024 80.5817 234.518 79.9139 234.518 78.2548C234.518 67.1767 234.396 56.0987 234.305 45.0206C234.305 44.4035 234.244 43.7863 234.194 43.0478L231.745 42.8151V42.5319L234.973 42.2385C234.973 43.2501 234.973 43.9685 234.973 44.7171C234.922 52.5881 234.852 60.4692 234.862 68.3503C234.862 69.2102 235.216 70.7581 235.62 70.8289C237.185 71.0819 238.781 71.0819 240.345 70.8289C240.578 70.8289 240.74 69.3316 240.73 68.5324C240.649 55.6333 240.517 42.7342 240.416 29.8452C240.366 23.9875 240.366 18.1298 240.315 12.2721C240.315 9.42922 240.315 9.43934 237.543 9.237C237.067 9.237 236.602 9.10548 236.035 9.01443V-0.0908203L372.836 1.04228ZM355.93 317.5V149.984H353.006C332.447 149.802 311.874 149.62 291.288 149.438C286.411 149.438 281.535 149.438 276.658 149.438C275.201 149.438 274.634 149.893 274.493 151.461C272.935 165.625 263.262 175.914 249.3 178.281C247.829 178.461 246.35 178.559 244.868 178.574V316.802H254.986V323.459L348.422 324.238V317.5H355.93ZM48.7976 162.711V163.176C59.6741 163.176 70.5405 163.176 81.417 163.176C83.1066 163.176 83.5821 162.66 83.4911 161.021C83.2989 157.197 83.228 153.363 83.1876 149.529C83.1876 148.304 82.7626 147.819 81.4777 147.809C59.5965 147.627 37.712 147.421 15.824 147.192C14.3064 147.192 13.932 147.758 13.9624 149.164C14.0332 152.857 14.0838 156.56 13.9624 160.242C13.8713 162.195 14.5087 162.721 16.421 162.711C27.2165 162.691 38.0222 162.731 48.8279 162.731L48.7976 162.711ZM24.0699 329.59C24.8996 329.59 25.446 329.691 25.9923 329.691L85.1504 330.349C89.1165 330.349 93.0928 330.46 97.0589 330.409C97.7266 330.409 98.87 329.914 98.9509 329.489C99.1118 328.044 99.1423 326.588 99.042 325.138H24.0699V329.59ZM265.407 331.138L339.448 331.957V326.99H265.437L265.407 331.138ZM219.594 326.079H145.482V330.359C149.124 330.359 152.564 330.359 156.075 330.359L216.296 330.956C220.343 330.956 220.343 330.956 219.968 326.909C219.938 326.818 219.857 326.696 219.624 326.079H219.594ZM365.248 116.021H365.036C365.036 108.565 365.036 101.099 365.036 93.6426C365.036 92.9749 364.914 91.771 364.682 91.7204C363.271 91.433 361.824 91.3614 360.392 91.508C360.058 91.508 359.724 93.0053 359.714 93.8045C359.667 108.103 359.643 122.395 359.643 136.68C359.643 140.98 359.309 140.079 363.174 140.282C365.026 140.383 365.349 139.614 365.329 137.975C365.208 130.661 365.248 123.336 365.248 116.021Z" fill="#4F4F4F"/>
<path d="M79.2207 237.395C78.8965 237.395 78.6602 237.457 78.5117 237.582C78.4258 237.652 78.3613 237.738 78.3184 237.84C78.2793 237.941 78.2598 238.049 78.2598 238.162C78.2598 238.338 78.3008 238.482 78.3828 238.596C78.4648 238.709 78.582 238.793 78.7344 238.848C78.8008 238.871 78.8789 238.889 78.9688 238.9C79.0586 238.908 79.1641 238.912 79.2852 238.912H80.2168V237.395H79.2207ZM76.8242 238.221C76.8242 238.057 76.8418 237.896 76.877 237.74C76.916 237.58 76.9746 237.43 77.0527 237.289C77.1309 237.148 77.2285 237.02 77.3457 236.902C77.4668 236.781 77.6094 236.678 77.7734 236.592C77.9375 236.506 78.127 236.439 78.3418 236.393C78.5605 236.346 78.8145 236.322 79.1035 236.322H81.5938V242H80.2168V239.984H79.1211L78.043 242H76.543L77.791 239.721V239.697C77.4707 239.557 77.2285 239.361 77.0645 239.111C76.9043 238.857 76.8242 238.561 76.8242 238.221Z" fill="#564E44"/>
<path d="M74.0352 242V239.656H71.7441V242H70.3555V236.322H71.7441V238.479H74.0352V236.322H75.4238V242H74.0352Z" fill="#564E44"/>
<path d="M66.4531 240.025L64.9883 242H63.3945L65.6387 239.105L63.5293 236.322H65.1641L66.4883 238.197L67.8359 236.322H69.4766L67.3086 239.1L69.5352 242H67.9121L66.4531 240.025Z" fill="#564E44"/>
<path d="M57.2305 236.322H58.7188L59.5684 238.379C59.8887 239.16 60.1152 239.738 60.248 240.113H60.2715C60.3691 239.82 60.5762 239.277 60.8926 238.484L61.7715 236.322H63.2773L59.6211 244.725H58.25L59.5508 241.684L57.2305 236.322Z" fill="#564E44"/>
<path d="M50.9375 242V234.16H52.373V237.729H52.3965L55.3555 234.16H57.1367L53.8672 238.045L57.4062 242H55.5664L52.3965 238.461H52.373V242H50.9375Z" fill="#564E44"/>
<path d="M316.756 230.314C316.432 230.314 316.195 230.377 316.047 230.502C315.961 230.572 315.897 230.658 315.854 230.76C315.814 230.861 315.795 230.969 315.795 231.082C315.795 231.258 315.836 231.402 315.918 231.516C316 231.629 316.117 231.713 316.27 231.768C316.336 231.791 316.414 231.809 316.504 231.82C316.594 231.828 316.699 231.832 316.82 231.832H317.752V230.314H316.756ZM314.359 231.141C314.359 230.977 314.377 230.816 314.412 230.66C314.451 230.5 314.51 230.35 314.588 230.209C314.666 230.068 314.764 229.939 314.881 229.822C315.002 229.701 315.145 229.598 315.309 229.512C315.473 229.426 315.662 229.359 315.877 229.312C316.096 229.266 316.35 229.242 316.639 229.242H319.129V234.92H317.752V232.904H316.656L315.578 234.92H314.078L315.326 232.641V232.617C315.006 232.477 314.764 232.281 314.6 232.031C314.439 231.777 314.359 231.48 314.359 231.141Z" fill="#564E44"/>
<path d="M311.77 234.316H311.746C311.668 234.398 311.574 234.482 311.465 234.568C311.355 234.654 311.23 234.736 311.09 234.814C310.949 234.889 310.793 234.949 310.621 234.996C310.449 235.043 310.264 235.066 310.064 235.066C309.795 235.066 309.543 235.023 309.309 234.938C309.074 234.855 308.873 234.736 308.705 234.58C308.537 234.42 308.404 234.229 308.307 234.006C308.213 233.779 308.166 233.527 308.166 233.25C308.166 232.945 308.221 232.672 308.33 232.43C308.443 232.188 308.6 231.982 308.799 231.814C308.998 231.646 309.236 231.52 309.514 231.434C309.791 231.344 310.098 231.299 310.434 231.299C310.68 231.299 310.906 231.314 311.113 231.346C311.32 231.377 311.502 231.414 311.658 231.457V231.229C311.658 231.096 311.635 230.969 311.588 230.848C311.545 230.723 311.473 230.613 311.371 230.52C311.273 230.422 311.145 230.346 310.984 230.291C310.824 230.232 310.629 230.203 310.398 230.203C310.117 230.203 309.836 230.234 309.555 230.297C309.273 230.359 308.969 230.453 308.641 230.578V229.494C308.926 229.369 309.229 229.273 309.549 229.207C309.869 229.141 310.205 229.105 310.557 229.102C310.971 229.102 311.332 229.152 311.641 229.254C311.953 229.355 312.213 229.496 312.42 229.676C312.631 229.852 312.787 230.061 312.889 230.303C312.994 230.545 313.047 230.809 313.047 231.094V233.232C313.047 233.607 313.051 233.93 313.059 234.199C313.066 234.469 313.074 234.709 313.082 234.92H311.828L311.77 234.316ZM311.658 232.5C311.525 232.469 311.373 232.441 311.201 232.418C311.029 232.391 310.855 232.377 310.68 232.377C310.34 232.377 310.07 232.445 309.871 232.582C309.676 232.715 309.578 232.92 309.578 233.197C309.578 233.326 309.6 233.439 309.643 233.537C309.689 233.631 309.75 233.709 309.824 233.771C309.902 233.834 309.992 233.881 310.094 233.912C310.195 233.943 310.303 233.959 310.416 233.959C310.557 233.959 310.689 233.941 310.814 233.906C310.939 233.867 311.055 233.82 311.16 233.766C311.266 233.707 311.359 233.643 311.441 233.572C311.527 233.502 311.6 233.434 311.658 233.367V232.5Z" fill="#564E44"/>
<path d="M306.9 229.242V234.92H305.512V230.396H304.51C304.408 231.135 304.295 231.762 304.17 232.277C304.045 232.793 303.91 233.223 303.766 233.566C303.625 233.91 303.477 234.18 303.32 234.375C303.164 234.57 303.006 234.715 302.846 234.809C302.686 234.898 302.523 234.957 302.359 234.984C302.199 235.012 302.031 235.025 301.855 235.025C301.785 235.025 301.711 235.021 301.633 235.014C301.555 235.01 301.477 235 301.398 234.984V233.748C301.516 233.768 301.619 233.777 301.709 233.777C301.85 233.777 301.969 233.762 302.066 233.73C302.164 233.695 302.258 233.629 302.348 233.531C302.438 233.434 302.525 233.287 302.611 233.092C302.701 232.893 302.789 232.625 302.875 232.289C302.965 231.953 303.053 231.537 303.139 231.041C303.229 230.541 303.32 229.941 303.414 229.242H306.9Z" fill="#564E44"/>
<path d="M300.52 229.242V234.92H299.131V233.273C299.131 232.527 299.148 231.854 299.184 231.252H299.16C298.922 231.662 298.559 232.201 298.07 232.869L296.547 234.92H295.27V229.242H296.658V230.889C296.658 231.701 296.641 232.375 296.605 232.91H296.629C296.855 232.52 297.219 231.98 297.719 231.293L299.242 229.242H300.52Z" fill="#564E44"/>
<path d="M288.033 231.381H288.01L284.957 234.92H283.117L286.539 230.965L283.387 227.08H285.168L288.01 230.648H288.033V227.08H289.469V230.648H289.492L292.334 227.08H294.115L290.963 230.965L294.385 234.92H292.545L289.492 231.381H289.469V234.92H288.033V231.381Z" fill="#564E44"/>
<path d="M321.141 251.312H321.117C321.039 251.395 320.945 251.479 320.836 251.564C320.727 251.65 320.602 251.732 320.461 251.811C320.32 251.885 320.164 251.945 319.992 251.992C319.82 252.039 319.635 252.062 319.436 252.062C319.166 252.062 318.914 252.02 318.68 251.934C318.445 251.852 318.244 251.732 318.076 251.576C317.908 251.416 317.775 251.225 317.678 251.002C317.584 250.775 317.537 250.523 317.537 250.246C317.537 249.941 317.592 249.668 317.701 249.426C317.814 249.184 317.971 248.979 318.17 248.811C318.369 248.643 318.607 248.516 318.885 248.43C319.162 248.34 319.469 248.295 319.805 248.295C320.051 248.295 320.277 248.311 320.484 248.342C320.691 248.373 320.873 248.41 321.029 248.453V248.225C321.029 248.092 321.006 247.965 320.959 247.844C320.916 247.719 320.844 247.609 320.742 247.516C320.645 247.418 320.516 247.342 320.355 247.287C320.195 247.229 320 247.199 319.77 247.199C319.488 247.199 319.207 247.23 318.926 247.293C318.645 247.355 318.34 247.449 318.012 247.574V246.49C318.297 246.365 318.6 246.27 318.92 246.203C319.24 246.137 319.576 246.102 319.928 246.098C320.342 246.098 320.703 246.148 321.012 246.25C321.324 246.352 321.584 246.492 321.791 246.672C322.002 246.848 322.158 247.057 322.26 247.299C322.365 247.541 322.418 247.805 322.418 248.09V250.229C322.418 250.604 322.422 250.926 322.43 251.195C322.438 251.465 322.445 251.705 322.453 251.916H321.199L321.141 251.312ZM321.029 249.496C320.897 249.465 320.744 249.438 320.572 249.414C320.4 249.387 320.227 249.373 320.051 249.373C319.711 249.373 319.441 249.441 319.242 249.578C319.047 249.711 318.949 249.916 318.949 250.193C318.949 250.322 318.971 250.436 319.014 250.533C319.061 250.627 319.121 250.705 319.195 250.768C319.273 250.83 319.363 250.877 319.465 250.908C319.566 250.939 319.674 250.955 319.787 250.955C319.928 250.955 320.061 250.938 320.186 250.902C320.311 250.863 320.426 250.816 320.531 250.762C320.637 250.703 320.73 250.639 320.813 250.568C320.898 250.498 320.971 250.43 321.029 250.363V249.496Z" fill="#564E44"/>
<path d="M313.717 247.41H311.906V246.238H316.916V247.41H315.105V251.916H313.717V247.41Z" fill="#564E44"/>
<path d="M309.926 251.312H309.902C309.824 251.395 309.73 251.479 309.621 251.564C309.512 251.65 309.387 251.732 309.246 251.811C309.105 251.885 308.949 251.945 308.777 251.992C308.605 252.039 308.42 252.062 308.221 252.062C307.951 252.062 307.699 252.02 307.465 251.934C307.23 251.852 307.029 251.732 306.861 251.576C306.693 251.416 306.561 251.225 306.463 251.002C306.369 250.775 306.322 250.523 306.322 250.246C306.322 249.941 306.377 249.668 306.486 249.426C306.6 249.184 306.756 248.979 306.955 248.811C307.154 248.643 307.393 248.516 307.67 248.43C307.947 248.34 308.254 248.295 308.59 248.295C308.836 248.295 309.063 248.311 309.27 248.342C309.477 248.373 309.658 248.41 309.814 248.453V248.225C309.814 248.092 309.791 247.965 309.744 247.844C309.701 247.719 309.629 247.609 309.527 247.516C309.43 247.418 309.301 247.342 309.141 247.287C308.98 247.229 308.785 247.199 308.555 247.199C308.273 247.199 307.992 247.23 307.711 247.293C307.43 247.355 307.125 247.449 306.797 247.574V246.49C307.082 246.365 307.385 246.27 307.705 246.203C308.025 246.137 308.361 246.102 308.713 246.098C309.127 246.098 309.488 246.148 309.797 246.25C310.109 246.352 310.369 246.492 310.576 246.672C310.787 246.848 310.943 247.057 311.045 247.299C311.15 247.541 311.203 247.805 311.203 248.09V250.229C311.203 250.604 311.207 250.926 311.215 251.195C311.223 251.465 311.23 251.705 311.238 251.916H309.984L309.926 251.312ZM309.814 249.496C309.682 249.465 309.529 249.438 309.357 249.414C309.186 249.387 309.012 249.373 308.836 249.373C308.496 249.373 308.227 249.441 308.027 249.578C307.832 249.711 307.734 249.916 307.734 250.193C307.734 250.322 307.756 250.436 307.799 250.533C307.846 250.627 307.906 250.705 307.98 250.768C308.059 250.83 308.148 250.877 308.25 250.908C308.352 250.939 308.459 250.955 308.572 250.955C308.713 250.955 308.846 250.938 308.971 250.902C309.096 250.863 309.211 250.816 309.316 250.762C309.422 250.703 309.516 250.639 309.598 250.568C309.684 250.498 309.756 250.43 309.814 250.363V249.496Z" fill="#564E44"/>
<path d="M303.668 251.916V249.572H301.377V251.916H299.988V246.238H301.377V248.395H303.668V246.238H305.057V251.916H303.668Z" fill="#564E44"/>
<path d="M295.313 250.035C295.535 249.246 295.814 248.357 296.15 247.369L296.543 246.238H298.459V251.916H297.123V249.877C297.123 249.377 297.147 248.688 297.193 247.809H297.147C297.033 248.164 296.887 248.6 296.707 249.115C296.531 249.627 296.322 250.227 296.08 250.914L295.729 251.916H294.855L294.498 250.908C294.256 250.229 294.047 249.635 293.871 249.127C293.699 248.615 293.555 248.176 293.438 247.809H293.391C293.438 248.637 293.461 249.326 293.461 249.877V251.916H292.125V246.238H294.041L294.434 247.369C294.797 248.439 295.076 249.328 295.272 250.035H295.313Z" fill="#564E44"/>
<path d="M289.459 249.08C289.459 248.779 289.424 248.514 289.354 248.283C289.283 248.053 289.186 247.859 289.061 247.703C288.936 247.547 288.785 247.43 288.609 247.352C288.434 247.273 288.242 247.234 288.035 247.234C287.832 247.234 287.643 247.273 287.467 247.352C287.295 247.43 287.147 247.547 287.022 247.703C286.897 247.859 286.799 248.053 286.729 248.283C286.658 248.514 286.623 248.779 286.623 249.08C286.623 249.381 286.658 249.646 286.729 249.877C286.799 250.107 286.897 250.301 287.022 250.457C287.15 250.609 287.301 250.727 287.473 250.809C287.648 250.887 287.84 250.926 288.047 250.926C288.254 250.926 288.443 250.887 288.615 250.809C288.787 250.727 288.936 250.609 289.061 250.457C289.186 250.301 289.283 250.107 289.354 249.877C289.424 249.646 289.459 249.381 289.459 249.08ZM290.895 249.08C290.895 249.525 290.828 249.932 290.695 250.299C290.563 250.666 290.371 250.98 290.121 251.242C289.875 251.504 289.576 251.707 289.225 251.852C288.873 251.992 288.48 252.062 288.047 252.062C287.602 252.062 287.201 251.992 286.846 251.852C286.494 251.707 286.195 251.504 285.949 251.242C285.703 250.98 285.514 250.666 285.381 250.299C285.252 249.932 285.188 249.525 285.188 249.08C285.188 248.635 285.254 248.229 285.387 247.861C285.52 247.494 285.709 247.18 285.955 246.918C286.205 246.656 286.506 246.455 286.857 246.314C287.209 246.17 287.602 246.098 288.035 246.098C288.48 246.098 288.879 246.17 289.23 246.314C289.586 246.455 289.887 246.656 290.133 246.918C290.379 247.18 290.566 247.494 290.695 247.861C290.828 248.229 290.895 248.635 290.895 249.08Z" fill="#564E44"/>
<path d="M279.762 246.238H281.15V248.705H281.18L283.137 246.238H284.801L282.48 249.039L284.924 251.916H283.248L281.174 249.438H281.15V251.916H279.762V246.238Z" fill="#564E44"/>
<path d="M321.756 58.2148C321.432 58.2148 321.195 58.2773 321.047 58.4023C320.961 58.4727 320.896 58.5586 320.853 58.6602C320.814 58.7617 320.795 58.8691 320.795 58.9824C320.795 59.1582 320.836 59.3027 320.918 59.416C321 59.5293 321.117 59.6133 321.269 59.668C321.336 59.6914 321.414 59.709 321.504 59.7207C321.594 59.7285 321.699 59.7324 321.82 59.7324H322.752V58.2148H321.756ZM319.359 59.041C319.359 58.877 319.377 58.7168 319.412 58.5605C319.451 58.4004 319.51 58.25 319.588 58.1094C319.666 57.9688 319.764 57.8398 319.881 57.7227C320.002 57.6016 320.144 57.498 320.309 57.4121C320.473 57.3262 320.662 57.2598 320.877 57.2129C321.096 57.166 321.35 57.1426 321.639 57.1426H324.129V62.8203H322.752V60.8047H321.656L320.578 62.8203H319.078L320.326 60.541V60.5176C320.006 60.377 319.764 60.1816 319.6 59.9316C319.439 59.6777 319.359 59.3809 319.359 59.041Z" fill="#564E44"/>
<path d="M316.769 62.2168H316.746C316.668 62.2988 316.574 62.3828 316.465 62.4688C316.355 62.5547 316.23 62.6367 316.09 62.7148C315.949 62.7891 315.793 62.8496 315.621 62.8965C315.449 62.9434 315.264 62.9668 315.064 62.9668C314.795 62.9668 314.543 62.9238 314.309 62.8379C314.074 62.7559 313.873 62.6367 313.705 62.4805C313.537 62.3203 313.404 62.1289 313.307 61.9062C313.213 61.6797 313.166 61.4277 313.166 61.1504C313.166 60.8457 313.221 60.5723 313.33 60.3301C313.443 60.0879 313.6 59.8828 313.799 59.7148C313.998 59.5469 314.236 59.4199 314.514 59.334C314.791 59.2441 315.098 59.1992 315.434 59.1992C315.68 59.1992 315.906 59.2148 316.113 59.2461C316.32 59.2773 316.502 59.3145 316.658 59.3574V59.1289C316.658 58.9961 316.635 58.8691 316.588 58.748C316.545 58.623 316.473 58.5137 316.371 58.4199C316.273 58.3223 316.144 58.2461 315.984 58.1914C315.824 58.1328 315.629 58.1035 315.398 58.1035C315.117 58.1035 314.836 58.1348 314.555 58.1973C314.273 58.2598 313.969 58.3535 313.641 58.4785V57.3945C313.926 57.2695 314.228 57.1738 314.549 57.1074C314.869 57.041 315.205 57.0059 315.557 57.002C315.971 57.002 316.332 57.0527 316.641 57.1543C316.953 57.2559 317.213 57.3965 317.42 57.5762C317.631 57.752 317.787 57.9609 317.889 58.2031C317.994 58.4453 318.047 58.709 318.047 58.9941V61.1328C318.047 61.5078 318.051 61.8301 318.059 62.0996C318.066 62.3691 318.074 62.6094 318.082 62.8203H316.828L316.769 62.2168ZM316.658 60.4004C316.525 60.3691 316.373 60.3418 316.201 60.3184C316.029 60.291 315.855 60.2773 315.68 60.2773C315.34 60.2773 315.07 60.3457 314.871 60.4824C314.676 60.6152 314.578 60.8203 314.578 61.0977C314.578 61.2266 314.6 61.3398 314.643 61.4375C314.689 61.5312 314.75 61.6094 314.824 61.6719C314.902 61.7344 314.992 61.7812 315.094 61.8125C315.195 61.8438 315.303 61.8594 315.416 61.8594C315.557 61.8594 315.689 61.8418 315.814 61.8066C315.939 61.7676 316.055 61.7207 316.16 61.666C316.266 61.6074 316.359 61.543 316.441 61.4727C316.527 61.4023 316.6 61.334 316.658 61.2676V60.4004Z" fill="#564E44"/>
<path d="M311.9 57.1426V62.8203H310.512V58.2969H309.51C309.408 59.0352 309.295 59.6621 309.17 60.1777C309.045 60.6934 308.91 61.123 308.766 61.4668C308.625 61.8105 308.476 62.0801 308.32 62.2754C308.164 62.4707 308.006 62.6152 307.846 62.709C307.685 62.7988 307.523 62.8574 307.359 62.8848C307.199 62.9121 307.031 62.9258 306.855 62.9258C306.785 62.9258 306.711 62.9219 306.633 62.9141C306.555 62.9102 306.476 62.9004 306.398 62.8848V61.6484C306.516 61.668 306.619 61.6777 306.709 61.6777C306.85 61.6777 306.969 61.6621 307.066 61.6309C307.164 61.5957 307.258 61.5293 307.348 61.4316C307.437 61.334 307.525 61.1875 307.611 60.9922C307.701 60.793 307.789 60.5254 307.875 60.1895C307.965 59.8535 308.053 59.4375 308.139 58.9414C308.228 58.4414 308.32 57.8418 308.414 57.1426H311.9Z" fill="#564E44"/>
<path d="M305.519 57.1426V62.8203H304.131V61.1738C304.131 60.4277 304.148 59.7539 304.184 59.1523H304.16C303.922 59.5625 303.559 60.1016 303.07 60.7695L301.547 62.8203H300.269V57.1426H301.658V58.7891C301.658 59.6016 301.641 60.2754 301.605 60.8105H301.629C301.855 60.4199 302.219 59.8809 302.719 59.1934L304.242 57.1426H305.519Z" fill="#564E44"/>
<path d="M293.033 59.2812H293.01L289.957 62.8203H288.117L291.539 58.8652L288.387 54.9805H290.168L293.01 58.5488H293.033V54.9805H294.469V58.5488H294.492L297.334 54.9805H299.115L295.963 58.8652L299.385 62.8203H297.545L294.492 59.2812H294.469V62.8203H293.033V59.2812Z" fill="#564E44"/>
<path d="M326.141 79.2134H326.117C326.039 79.2954 325.945 79.3794 325.836 79.4653C325.727 79.5513 325.602 79.6333 325.461 79.7114C325.32 79.7856 325.164 79.8462 324.992 79.8931C324.82 79.9399 324.635 79.9634 324.436 79.9634C324.166 79.9634 323.914 79.9204 323.68 79.8345C323.445 79.7524 323.244 79.6333 323.076 79.4771C322.908 79.3169 322.775 79.1255 322.678 78.9028C322.584 78.6763 322.537 78.4243 322.537 78.147C322.537 77.8423 322.592 77.5688 322.701 77.3267C322.814 77.0845 322.971 76.8794 323.17 76.7114C323.369 76.5435 323.607 76.4165 323.885 76.3306C324.162 76.2407 324.469 76.1958 324.805 76.1958C325.051 76.1958 325.277 76.2114 325.484 76.2427C325.691 76.2739 325.873 76.311 326.029 76.354V76.1255C326.029 75.9927 326.006 75.8657 325.959 75.7446C325.916 75.6196 325.844 75.5103 325.742 75.4165C325.645 75.3188 325.516 75.2427 325.355 75.188C325.195 75.1294 325 75.1001 324.77 75.1001C324.488 75.1001 324.207 75.1313 323.926 75.1938C323.645 75.2563 323.34 75.3501 323.012 75.4751V74.3911C323.297 74.2661 323.6 74.1704 323.92 74.104C324.24 74.0376 324.576 74.0024 324.928 73.9985C325.342 73.9985 325.703 74.0493 326.012 74.1509C326.324 74.2524 326.584 74.3931 326.791 74.5728C327.002 74.7485 327.158 74.9575 327.26 75.1997C327.365 75.4419 327.418 75.7056 327.418 75.9907V78.1294C327.418 78.5044 327.422 78.8267 327.43 79.0962C327.438 79.3657 327.445 79.606 327.453 79.8169H326.199L326.141 79.2134ZM326.029 77.397C325.896 77.3657 325.744 77.3384 325.572 77.3149C325.4 77.2876 325.227 77.2739 325.051 77.2739C324.711 77.2739 324.441 77.3423 324.242 77.479C324.047 77.6118 323.949 77.8169 323.949 78.0942C323.949 78.2231 323.971 78.3364 324.014 78.4341C324.061 78.5278 324.121 78.606 324.195 78.6685C324.273 78.731 324.363 78.7778 324.465 78.8091C324.566 78.8403 324.674 78.856 324.787 78.856C324.928 78.856 325.061 78.8384 325.186 78.8032C325.311 78.7642 325.426 78.7173 325.531 78.6626C325.637 78.604 325.73 78.5396 325.812 78.4692C325.898 78.3989 325.971 78.3306 326.029 78.2642V77.397Z" fill="#564E44"/>
<path d="M318.717 75.311H316.906V74.1392H321.916V75.311H320.105V79.8169H318.717V75.311Z" fill="#564E44"/>
<path d="M314.926 79.2134H314.902C314.824 79.2954 314.73 79.3794 314.621 79.4653C314.512 79.5513 314.387 79.6333 314.246 79.7114C314.105 79.7856 313.949 79.8462 313.777 79.8931C313.605 79.9399 313.42 79.9634 313.221 79.9634C312.951 79.9634 312.699 79.9204 312.465 79.8345C312.23 79.7524 312.029 79.6333 311.861 79.4771C311.693 79.3169 311.561 79.1255 311.463 78.9028C311.369 78.6763 311.322 78.4243 311.322 78.147C311.322 77.8423 311.377 77.5688 311.486 77.3267C311.6 77.0845 311.756 76.8794 311.955 76.7114C312.154 76.5435 312.393 76.4165 312.67 76.3306C312.947 76.2407 313.254 76.1958 313.59 76.1958C313.836 76.1958 314.062 76.2114 314.27 76.2427C314.477 76.2739 314.658 76.311 314.814 76.354V76.1255C314.814 75.9927 314.791 75.8657 314.744 75.7446C314.701 75.6196 314.629 75.5103 314.527 75.4165C314.43 75.3188 314.301 75.2427 314.141 75.188C313.98 75.1294 313.785 75.1001 313.555 75.1001C313.273 75.1001 312.992 75.1313 312.711 75.1938C312.43 75.2563 312.125 75.3501 311.797 75.4751V74.3911C312.082 74.2661 312.385 74.1704 312.705 74.104C313.025 74.0376 313.361 74.0024 313.713 73.9985C314.127 73.9985 314.488 74.0493 314.797 74.1509C315.109 74.2524 315.369 74.3931 315.576 74.5728C315.787 74.7485 315.943 74.9575 316.045 75.1997C316.15 75.4419 316.203 75.7056 316.203 75.9907V78.1294C316.203 78.5044 316.207 78.8267 316.215 79.0962C316.223 79.3657 316.23 79.606 316.238 79.8169H314.984L314.926 79.2134ZM314.814 77.397C314.682 77.3657 314.529 77.3384 314.357 77.3149C314.186 77.2876 314.012 77.2739 313.836 77.2739C313.496 77.2739 313.227 77.3423 313.027 77.479C312.832 77.6118 312.734 77.8169 312.734 78.0942C312.734 78.2231 312.756 78.3364 312.799 78.4341C312.846 78.5278 312.906 78.606 312.98 78.6685C313.059 78.731 313.148 78.7778 313.25 78.8091C313.352 78.8403 313.459 78.856 313.572 78.856C313.713 78.856 313.846 78.8384 313.971 78.8032C314.096 78.7642 314.211 78.7173 314.316 78.6626C314.422 78.604 314.516 78.5396 314.598 78.4692C314.684 78.3989 314.756 78.3306 314.814 78.2642V77.397Z" fill="#564E44"/>
<path d="M308.668 79.8169V77.4731H306.377V79.8169H304.988V74.1392H306.377V76.2954H308.668V74.1392H310.057V79.8169H308.668Z" fill="#564E44"/>
<path d="M300.312 77.936C300.535 77.147 300.814 76.2583 301.15 75.27L301.543 74.1392H303.459V79.8169H302.123V77.7778C302.123 77.2778 302.146 76.5884 302.193 75.7095H302.146C302.033 76.0649 301.887 76.5005 301.707 77.0161C301.531 77.5278 301.322 78.1274 301.08 78.8149L300.729 79.8169H299.855L299.498 78.8091C299.256 78.1294 299.047 77.5356 298.871 77.0278C298.699 76.5161 298.555 76.0767 298.438 75.7095H298.391C298.438 76.5376 298.461 77.2271 298.461 77.7778V79.8169H297.125V74.1392H299.041L299.434 75.27C299.797 76.3403 300.076 77.229 300.271 77.936H300.312Z" fill="#564E44"/>
<path d="M294.459 76.981C294.459 76.6802 294.424 76.4146 294.354 76.1841C294.283 75.9536 294.186 75.7603 294.061 75.604C293.936 75.4478 293.785 75.3306 293.609 75.2524C293.434 75.1743 293.242 75.1353 293.035 75.1353C292.832 75.1353 292.643 75.1743 292.467 75.2524C292.295 75.3306 292.146 75.4478 292.021 75.604C291.896 75.7603 291.799 75.9536 291.729 76.1841C291.658 76.4146 291.623 76.6802 291.623 76.981C291.623 77.2817 291.658 77.5474 291.729 77.7778C291.799 78.0083 291.896 78.2017 292.021 78.3579C292.15 78.5103 292.301 78.6274 292.473 78.7095C292.648 78.7876 292.84 78.8267 293.047 78.8267C293.254 78.8267 293.443 78.7876 293.615 78.7095C293.787 78.6274 293.936 78.5103 294.061 78.3579C294.186 78.2017 294.283 78.0083 294.354 77.7778C294.424 77.5474 294.459 77.2817 294.459 76.981ZM295.895 76.981C295.895 77.4263 295.828 77.8325 295.695 78.1997C295.562 78.5669 295.371 78.8813 295.121 79.1431C294.875 79.4048 294.576 79.6079 294.225 79.7524C293.873 79.8931 293.48 79.9634 293.047 79.9634C292.602 79.9634 292.201 79.8931 291.846 79.7524C291.494 79.6079 291.195 79.4048 290.949 79.1431C290.703 78.8813 290.514 78.5669 290.381 78.1997C290.252 77.8325 290.188 77.4263 290.188 76.981C290.188 76.5356 290.254 76.1294 290.387 75.7622C290.52 75.395 290.709 75.0806 290.955 74.8188C291.205 74.5571 291.506 74.356 291.857 74.2153C292.209 74.0708 292.602 73.9985 293.035 73.9985C293.48 73.9985 293.879 74.0708 294.23 74.2153C294.586 74.356 294.887 74.5571 295.133 74.8188C295.379 75.0806 295.566 75.395 295.695 75.7622C295.828 76.1294 295.895 76.5356 295.895 76.981Z" fill="#564E44"/>
<path d="M284.762 74.1392H286.15V76.606H286.18L288.137 74.1392H289.801L287.48 76.9399L289.924 79.8169H288.248L286.174 77.3384H286.15V79.8169H284.762V74.1392Z" fill="#564E44"/>
<path d="M196.756 230.314C196.432 230.314 196.195 230.377 196.047 230.502C195.961 230.572 195.896 230.658 195.853 230.76C195.814 230.861 195.795 230.969 195.795 231.082C195.795 231.258 195.836 231.402 195.918 231.516C196 231.629 196.117 231.713 196.269 231.768C196.336 231.791 196.414 231.809 196.504 231.82C196.594 231.828 196.699 231.832 196.82 231.832H197.752V230.314H196.756ZM194.359 231.141C194.359 230.977 194.377 230.816 194.412 230.66C194.451 230.5 194.51 230.35 194.588 230.209C194.666 230.068 194.764 229.939 194.881 229.822C195.002 229.701 195.144 229.598 195.309 229.512C195.473 229.426 195.662 229.359 195.877 229.312C196.096 229.266 196.35 229.242 196.639 229.242H199.129V234.92H197.752V232.904H196.656L195.578 234.92H194.078L195.326 232.641V232.617C195.006 232.477 194.764 232.281 194.6 232.031C194.439 231.777 194.359 231.48 194.359 231.141Z" fill="#564E44"/>
<path d="M191.769 234.316H191.746C191.668 234.398 191.574 234.482 191.465 234.568C191.355 234.654 191.23 234.736 191.09 234.814C190.949 234.889 190.793 234.949 190.621 234.996C190.449 235.043 190.264 235.066 190.064 235.066C189.795 235.066 189.543 235.023 189.309 234.938C189.074 234.855 188.873 234.736 188.705 234.58C188.537 234.42 188.404 234.229 188.307 234.006C188.213 233.779 188.166 233.527 188.166 233.25C188.166 232.945 188.221 232.672 188.33 232.43C188.443 232.188 188.6 231.982 188.799 231.814C188.998 231.646 189.236 231.52 189.514 231.434C189.791 231.344 190.098 231.299 190.434 231.299C190.68 231.299 190.906 231.314 191.113 231.346C191.32 231.377 191.502 231.414 191.658 231.457V231.229C191.658 231.096 191.635 230.969 191.588 230.848C191.545 230.723 191.473 230.613 191.371 230.52C191.273 230.422 191.144 230.346 190.984 230.291C190.824 230.232 190.629 230.203 190.398 230.203C190.117 230.203 189.836 230.234 189.555 230.297C189.273 230.359 188.969 230.453 188.641 230.578V229.494C188.926 229.369 189.228 229.273 189.549 229.207C189.869 229.141 190.205 229.105 190.557 229.102C190.971 229.102 191.332 229.152 191.641 229.254C191.953 229.355 192.213 229.496 192.42 229.676C192.631 229.852 192.787 230.061 192.889 230.303C192.994 230.545 193.047 230.809 193.047 231.094V233.232C193.047 233.607 193.051 233.93 193.059 234.199C193.066 234.469 193.074 234.709 193.082 234.92H191.828L191.769 234.316ZM191.658 232.5C191.525 232.469 191.373 232.441 191.201 232.418C191.029 232.391 190.855 232.377 190.68 232.377C190.34 232.377 190.07 232.445 189.871 232.582C189.676 232.715 189.578 232.92 189.578 233.197C189.578 233.326 189.6 233.439 189.643 233.537C189.689 233.631 189.75 233.709 189.824 233.771C189.902 233.834 189.992 233.881 190.094 233.912C190.195 233.943 190.303 233.959 190.416 233.959C190.557 233.959 190.689 233.941 190.814 233.906C190.939 233.867 191.055 233.82 191.16 233.766C191.266 233.707 191.359 233.643 191.441 233.572C191.527 233.502 191.6 233.434 191.658 233.367V232.5Z" fill="#564E44"/>
<path d="M186.9 229.242V234.92H185.512V230.396H184.51C184.408 231.135 184.295 231.762 184.17 232.277C184.045 232.793 183.91 233.223 183.766 233.566C183.625 233.91 183.476 234.18 183.32 234.375C183.164 234.57 183.006 234.715 182.846 234.809C182.685 234.898 182.523 234.957 182.359 234.984C182.199 235.012 182.031 235.025 181.855 235.025C181.785 235.025 181.711 235.021 181.633 235.014C181.555 235.01 181.476 235 181.398 234.984V233.748C181.516 233.768 181.619 233.777 181.709 233.777C181.85 233.777 181.969 233.762 182.066 233.73C182.164 233.695 182.258 233.629 182.348 233.531C182.437 233.434 182.525 233.287 182.611 233.092C182.701 232.893 182.789 232.625 182.875 232.289C182.965 231.953 183.053 231.537 183.139 231.041C183.228 230.541 183.32 229.941 183.414 229.242H186.9Z" fill="#564E44"/>
<path d="M180.519 229.242V234.92H179.131V233.273C179.131 232.527 179.148 231.854 179.184 231.252H179.16C178.922 231.662 178.559 232.201 178.07 232.869L176.547 234.92H175.269V229.242H176.658V230.889C176.658 231.701 176.641 232.375 176.605 232.91H176.629C176.855 232.52 177.219 231.98 177.719 231.293L179.242 229.242H180.519Z" fill="#564E44"/>
<path d="M168.033 231.381H168.01L164.957 234.92H163.117L166.539 230.965L163.387 227.08H165.168L168.01 230.648H168.033V227.08H169.469V230.648H169.492L172.334 227.08H174.115L170.963 230.965L174.385 234.92H172.545L169.492 231.381H169.469V234.92H168.033V231.381Z" fill="#564E44"/>
<path d="M201.141 251.313H201.117C201.039 251.395 200.945 251.479 200.836 251.565C200.727 251.651 200.602 251.733 200.461 251.811C200.32 251.885 200.164 251.946 199.992 251.993C199.82 252.04 199.635 252.063 199.436 252.063C199.166 252.063 198.914 252.02 198.68 251.934C198.445 251.852 198.244 251.733 198.076 251.577C197.908 251.417 197.775 251.225 197.678 251.002C197.584 250.776 197.537 250.524 197.537 250.247C197.537 249.942 197.592 249.668 197.701 249.426C197.814 249.184 197.971 248.979 198.17 248.811C198.369 248.643 198.607 248.516 198.885 248.43C199.162 248.34 199.469 248.295 199.805 248.295C200.051 248.295 200.277 248.311 200.484 248.342C200.691 248.374 200.873 248.411 201.029 248.454V248.225C201.029 248.092 201.006 247.965 200.959 247.844C200.916 247.719 200.844 247.61 200.742 247.516C200.645 247.418 200.516 247.342 200.355 247.288C200.195 247.229 200 247.2 199.77 247.2C199.488 247.2 199.207 247.231 198.926 247.293C198.645 247.356 198.34 247.45 198.012 247.575V246.491C198.297 246.366 198.6 246.27 198.92 246.204C199.24 246.137 199.576 246.102 199.928 246.098C200.342 246.098 200.703 246.149 201.012 246.25C201.324 246.352 201.584 246.493 201.791 246.672C202.002 246.848 202.158 247.057 202.26 247.299C202.365 247.542 202.418 247.805 202.418 248.09V250.229C202.418 250.604 202.422 250.926 202.43 251.196C202.438 251.465 202.445 251.706 202.453 251.917H201.199L201.141 251.313ZM201.029 249.497C200.896 249.465 200.744 249.438 200.572 249.415C200.4 249.387 200.227 249.374 200.051 249.374C199.711 249.374 199.441 249.442 199.242 249.579C199.047 249.711 198.949 249.917 198.949 250.194C198.949 250.323 198.971 250.436 199.014 250.534C199.061 250.627 199.121 250.706 199.195 250.768C199.273 250.831 199.363 250.877 199.465 250.909C199.566 250.94 199.674 250.956 199.787 250.956C199.928 250.956 200.061 250.938 200.186 250.903C200.311 250.864 200.426 250.817 200.531 250.762C200.637 250.704 200.73 250.639 200.812 250.569C200.898 250.499 200.971 250.43 201.029 250.364V249.497Z" fill="#564E44"/>
<path d="M193.717 247.411H191.906V246.239H196.916V247.411H195.105V251.917H193.717V247.411Z" fill="#564E44"/>
<path d="M189.926 251.313H189.902C189.824 251.395 189.73 251.479 189.621 251.565C189.512 251.651 189.387 251.733 189.246 251.811C189.105 251.885 188.949 251.946 188.777 251.993C188.605 252.04 188.42 252.063 188.221 252.063C187.951 252.063 187.699 252.02 187.465 251.934C187.23 251.852 187.029 251.733 186.861 251.577C186.693 251.417 186.561 251.225 186.463 251.002C186.369 250.776 186.322 250.524 186.322 250.247C186.322 249.942 186.377 249.668 186.486 249.426C186.6 249.184 186.756 248.979 186.955 248.811C187.154 248.643 187.393 248.516 187.67 248.43C187.947 248.34 188.254 248.295 188.59 248.295C188.836 248.295 189.062 248.311 189.27 248.342C189.477 248.374 189.658 248.411 189.814 248.454V248.225C189.814 248.092 189.791 247.965 189.744 247.844C189.701 247.719 189.629 247.61 189.527 247.516C189.43 247.418 189.301 247.342 189.141 247.288C188.98 247.229 188.785 247.2 188.555 247.2C188.273 247.2 187.992 247.231 187.711 247.293C187.43 247.356 187.125 247.45 186.797 247.575V246.491C187.082 246.366 187.385 246.27 187.705 246.204C188.025 246.137 188.361 246.102 188.713 246.098C189.127 246.098 189.488 246.149 189.797 246.25C190.109 246.352 190.369 246.493 190.576 246.672C190.787 246.848 190.943 247.057 191.045 247.299C191.15 247.542 191.203 247.805 191.203 248.09V250.229C191.203 250.604 191.207 250.926 191.215 251.196C191.223 251.465 191.23 251.706 191.238 251.917H189.984L189.926 251.313ZM189.814 249.497C189.682 249.465 189.529 249.438 189.357 249.415C189.186 249.387 189.012 249.374 188.836 249.374C188.496 249.374 188.227 249.442 188.027 249.579C187.832 249.711 187.734 249.917 187.734 250.194C187.734 250.323 187.756 250.436 187.799 250.534C187.846 250.627 187.906 250.706 187.98 250.768C188.059 250.831 188.148 250.877 188.25 250.909C188.352 250.94 188.459 250.956 188.572 250.956C188.713 250.956 188.846 250.938 188.971 250.903C189.096 250.864 189.211 250.817 189.316 250.762C189.422 250.704 189.516 250.639 189.598 250.569C189.684 250.499 189.756 250.43 189.814 250.364V249.497Z" fill="#564E44"/>
<path d="M183.668 251.917V249.573H181.377V251.917H179.988V246.239H181.377V248.395H183.668V246.239H185.057V251.917H183.668Z" fill="#564E44"/>
<path d="M175.312 250.036C175.535 249.247 175.814 248.358 176.15 247.37L176.543 246.239H178.459V251.917H177.123V249.877C177.123 249.377 177.146 248.688 177.193 247.809H177.146C177.033 248.165 176.887 248.6 176.707 249.116C176.531 249.627 176.322 250.227 176.08 250.915L175.729 251.917H174.855L174.498 250.909C174.256 250.229 174.047 249.635 173.871 249.127C173.699 248.616 173.555 248.176 173.438 247.809H173.391C173.438 248.637 173.461 249.327 173.461 249.877V251.917H172.125V246.239H174.041L174.434 247.37C174.797 248.44 175.076 249.329 175.271 250.036H175.312Z" fill="#564E44"/>
<path d="M169.459 249.081C169.459 248.78 169.424 248.514 169.354 248.284C169.283 248.053 169.186 247.86 169.061 247.704C168.936 247.547 168.785 247.43 168.609 247.352C168.434 247.274 168.242 247.235 168.035 247.235C167.832 247.235 167.643 247.274 167.467 247.352C167.295 247.43 167.146 247.547 167.021 247.704C166.896 247.86 166.799 248.053 166.729 248.284C166.658 248.514 166.623 248.78 166.623 249.081C166.623 249.381 166.658 249.647 166.729 249.877C166.799 250.108 166.896 250.301 167.021 250.458C167.15 250.61 167.301 250.727 167.473 250.809C167.648 250.887 167.84 250.926 168.047 250.926C168.254 250.926 168.443 250.887 168.615 250.809C168.787 250.727 168.936 250.61 169.061 250.458C169.186 250.301 169.283 250.108 169.354 249.877C169.424 249.647 169.459 249.381 169.459 249.081ZM170.895 249.081C170.895 249.526 170.828 249.932 170.695 250.299C170.562 250.667 170.371 250.981 170.121 251.243C169.875 251.504 169.576 251.708 169.225 251.852C168.873 251.993 168.48 252.063 168.047 252.063C167.602 252.063 167.201 251.993 166.846 251.852C166.494 251.708 166.195 251.504 165.949 251.243C165.703 250.981 165.514 250.667 165.381 250.299C165.252 249.932 165.188 249.526 165.188 249.081C165.188 248.635 165.254 248.229 165.387 247.862C165.52 247.495 165.709 247.18 165.955 246.918C166.205 246.657 166.506 246.456 166.857 246.315C167.209 246.17 167.602 246.098 168.035 246.098C168.48 246.098 168.879 246.17 169.23 246.315C169.586 246.456 169.887 246.657 170.133 246.918C170.379 247.18 170.566 247.495 170.695 247.862C170.828 248.229 170.895 248.635 170.895 249.081Z" fill="#564E44"/>
<path d="M159.762 246.239H161.15V248.706H161.18L163.137 246.239H164.801L162.48 249.04L164.924 251.917H163.248L161.174 249.438H161.15V251.917H159.762V246.239Z" fill="#564E44"/>
<path d="M67.498 102.619H68.9863L69.8359 104.675C70.1562 105.457 70.3828 106.035 70.5156 106.41H70.5391C70.6367 106.117 70.8438 105.574 71.1602 104.781L72.0391 102.619H73.5449L69.8887 111.021H68.5176L69.8184 107.98L67.498 102.619Z" fill="#564E44"/>
<path d="M63.9473 109.755L66.1738 100.457H67.3926L65.166 109.755H63.9473Z" fill="#564E44"/>
<path d="M61.6328 101.523C61.2422 101.523 60.8809 101.587 60.5488 101.716C60.2207 101.845 59.9375 102.033 59.6992 102.279C59.4648 102.525 59.2812 102.83 59.1484 103.193C59.0156 103.552 58.9492 103.964 58.9492 104.429C58.9492 104.89 59.0098 105.296 59.1309 105.648C59.252 105.996 59.4258 106.287 59.6523 106.521C59.8789 106.755 60.1543 106.933 60.4785 107.054C60.8066 107.171 61.1777 107.23 61.5918 107.23C61.8887 107.23 62.1914 107.207 62.5 107.16C62.8086 107.113 63.0977 107.044 63.3672 106.955V108.191C63.0938 108.269 62.7988 108.33 62.4824 108.373C62.166 108.419 61.8379 108.443 61.498 108.443C60.834 108.443 60.25 108.349 59.7461 108.162C59.2422 107.97 58.8203 107.703 58.4805 107.359C58.1445 107.011 57.8906 106.597 57.7188 106.117C57.5508 105.632 57.4668 105.099 57.4668 104.517C57.4668 103.919 57.5566 103.365 57.7363 102.853C57.9199 102.341 58.1816 101.898 58.5215 101.523C58.8652 101.148 59.293 100.853 59.8047 100.638C60.3203 100.423 60.9023 100.314 61.5508 100.31C61.8828 100.31 62.1973 100.333 62.4941 100.38C62.791 100.423 63.0586 100.486 63.2969 100.568V101.787C62.9844 101.689 62.6934 101.621 62.4238 101.582C62.1543 101.542 61.8906 101.523 61.6328 101.523Z" fill="#564E44"/>
</g>
<defs>
<clipPath id="clip0_134_2414">
<rect width="374" height="340" fill="white"/>
</clipPath>
</defs>
</svg>
