<svg width="225" height="300" viewBox="0 0 225 300" fill="none" xmlns="http://www.w3.org/2000/svg">
<path fill-rule="evenodd" clip-rule="evenodd" d="M128.002 29.8066L128.012 29.8068L128.006 30.3067L127.992 29.8069L128.002 29.8066ZM309.23 43.1121C309.354 42.6275 309.353 42.6275 309.353 42.6274L309.352 42.6272L309.006 42.5393C308.778 42.4816 308.443 42.3968 308.014 42.2883C307.155 42.0712 305.919 41.7591 304.406 41.3792C301.381 40.6194 297.253 39.5883 292.84 38.5028C284.022 36.3336 274.048 33.9424 269.485 33.0712C268.305 32.8458 265.2 32.6314 260.728 32.4245C256.236 32.2165 250.319 32.0147 243.478 31.8213C229.794 31.4347 212.403 31.0819 195.297 30.7835C178.192 30.485 161.37 30.2409 148.826 30.0713C142.553 29.9865 137.35 29.9204 133.715 29.8754C131.897 29.853 130.471 29.8358 129.5 29.8242L128.014 29.8068C128.013 29.8068 128.012 29.8068 128.006 30.3067C127.992 29.8069 127.992 29.8069 127.992 29.8069L127.98 29.8073L127.947 29.8083L127.818 29.8126C127.704 29.8166 127.538 29.8228 127.326 29.8318C126.901 29.8497 126.29 29.8786 125.544 29.9229C124.053 30.0114 122.021 30.1613 119.858 30.4068C117.696 30.652 115.395 30.9938 113.369 31.468C111.365 31.9372 109.561 32.5507 108.444 33.3737C107.867 33.78 106.793 34.7342 105.383 36.0594C103.958 37.3988 102.161 39.1435 100.13 41.1489C96.0679 45.1601 91.0588 50.2221 86.1866 55.1875C81.314 60.1533 76.577 65.0239 73.0582 68.653C71.2988 70.4675 69.8439 71.9718 68.8288 73.0224C68.3212 73.5477 67.9236 73.9596 67.6529 74.2402L67.2387 74.6697C67.2384 74.67 67.2383 74.6702 67.5983 75.0171L67.2387 74.6697L67.2197 74.6895L64.5365 78.1476C64.4115 78.016 64.2594 77.86 64.0821 77.6856C63.5313 77.144 62.735 76.422 61.7506 75.6993C59.7928 74.2619 57.0356 72.7808 53.9578 72.7808C50.9628 72.7808 45.766 73.7733 41.1187 75.19C38.7897 75.8999 36.5757 76.7232 34.8269 77.5946C33.9527 78.0301 33.1833 78.4833 32.5705 78.9475C31.9646 79.4065 31.4755 79.9031 31.2092 80.437C30.8433 81.1705 30.4384 81.9039 30.0346 82.6352C29.9668 82.7579 29.8991 82.8806 29.8316 83.0031C29.3651 83.8503 28.9092 84.6943 28.5479 85.5023C27.845 87.0741 27.4042 88.7092 28.1964 90.0327C28.8903 91.1921 30.0269 92.324 31.2538 93.2185C32.4778 94.1108 33.8438 94.8047 35.0226 95.041C35.4286 95.1224 35.8293 95.1758 36.1876 95.2236C36.3222 95.2415 36.4508 95.2587 36.5714 95.2762C37.0348 95.3435 37.391 95.4174 37.6715 95.5472C37.9325 95.6679 38.1264 95.8366 38.2663 96.1169C38.4145 96.4141 38.5182 96.8701 38.5182 97.5893C38.5182 98.2294 38.2367 99.1612 37.6498 100.305C37.07 101.434 36.2177 102.721 35.1379 104.058C32.9784 106.73 29.9365 109.565 26.4195 111.702C18.9461 116.11 16.0415 121.434 15.1451 125.702L15.1441 125.707C14.6883 127.991 15.0338 129.61 15.6572 131.172C15.8795 131.729 16.141 132.288 16.4079 132.858C16.5059 133.067 16.6046 133.278 16.7024 133.491C17.0704 134.292 17.4391 135.152 17.7546 136.152C18.0669 137.199 18.6295 140.436 19.3012 144.887C19.9703 149.322 20.7412 154.914 21.4716 160.622C22.9348 172.057 24.2281 183.902 24.2281 187.878C24.2281 191.947 25.4292 199.483 26.6716 206.495C27.094 208.879 27.521 211.202 27.9096 213.316C28.6713 217.46 29.2852 220.8 29.427 222.22C29.548 223.434 30.1203 224.528 30.9132 225.504C31.7055 226.48 32.7379 227.364 33.8231 228.162C34.9096 228.962 36.0684 229.69 37.1191 230.347L37.217 230.408C38.2377 231.046 39.1368 231.609 39.7954 232.116L39.8025 232.122L39.8097 232.127C40.847 232.87 42.1938 233.669 43.5745 234.488C44.2351 234.88 44.9035 235.276 45.5495 235.673C47.5905 236.928 49.4012 238.185 50.3097 239.399C50.4073 239.53 50.506 239.663 50.6053 239.797C50.991 240.317 51.3843 240.847 51.7484 241.271C51.9781 241.538 52.2132 241.783 52.4448 241.965C52.6612 242.135 52.9515 242.313 53.2812 242.313C53.6778 242.313 53.9552 242.066 54.1183 241.759C54.27 241.473 54.3567 241.084 54.4045 240.616C54.5012 239.667 54.4558 238.187 54.2388 236.012C53.8123 231.737 54.5612 220.395 56.1308 209.354C56.9143 203.843 57.899 198.431 59.036 194.037C59.6047 191.839 60.209 189.906 60.8413 188.347C61.4784 186.777 62.1262 185.631 62.7625 184.969L62.7687 184.962C65.5919 181.915 67.9961 179.014 69.7243 176.319C71.4442 173.638 72.5259 171.112 72.6439 168.816C72.665 168.604 72.6861 168.391 72.7075 168.175C73.123 163.969 73.612 159.02 75.6492 153.097L75.6508 153.093C76.2064 151.422 76.4555 149.934 76.6001 148.675C76.66 148.153 76.7022 147.667 76.7403 147.229C76.748 147.141 76.7555 147.054 76.7629 146.97C76.8079 146.461 76.8504 146.031 76.9139 145.669C77.0449 144.92 77.2372 144.633 77.5126 144.509C77.6711 144.438 77.9131 144.393 78.2951 144.422C78.6766 144.45 79.1668 144.548 79.7994 144.733C82.2045 145.436 84.5562 147.949 86.3797 151.148C88.191 154.325 89.4071 158.051 89.6173 161.001C89.7238 162.496 89.6969 163.45 89.6508 164.2C89.6396 164.382 89.6268 164.556 89.6143 164.726C89.5762 165.247 89.5409 165.728 89.5622 166.275C89.6196 167.742 90.0787 169.708 91.8077 174.8C92.0772 175.593 92.3202 176.302 92.54 176.943C93.7393 180.442 94.2525 181.939 94.657 184.326C94.9778 186.22 95.2271 188.656 95.6751 193.031C95.9027 195.255 96.1817 197.979 96.5473 201.388C97.4766 210.051 98.2465 224.248 98.9949 238.049C99.117 240.3 99.2385 242.54 99.36 244.743C99.793 252.597 100.226 259.989 100.687 265.744C100.917 268.621 101.155 271.095 101.403 273.016C101.649 274.912 101.912 276.333 102.212 277.057C103.296 279.665 104.601 282.662 105.853 285.173C106.479 286.428 107.096 287.57 107.67 288.485C108.216 289.354 108.754 290.073 109.255 290.468C109.854 291.17 110.708 291.733 111.388 292.114C111.74 292.312 112.056 292.467 112.285 292.573C112.4 292.626 112.493 292.667 112.558 292.695C112.591 292.709 112.616 292.719 112.634 292.727L112.655 292.735L112.661 292.738L112.663 292.739C112.663 292.739 112.664 292.739 112.85 292.275L112.664 292.739L112.735 292.768L112.812 292.773L112.85 292.275C112.812 292.773 112.812 292.773 112.813 292.774L112.817 292.774L114.083 292.871C114.913 292.935 116.131 293.028 117.684 293.146C120.789 293.384 125.235 293.723 130.594 294.13C141.311 294.944 155.683 296.029 170.298 297.114C199.509 299.283 229.744 301.457 233.666 301.457C237.572 301.457 293.982 300.371 351.411 298.743C380.127 297.929 409.103 296.98 431.902 295.962C443.301 295.453 453.16 294.928 460.671 294.393C464.426 294.126 467.598 293.856 470.084 293.585C472.56 293.315 474.385 293.04 475.429 292.757L475.431 292.757C483.298 290.596 491.496 289.406 498.289 288.484C498.85 288.408 499.401 288.333 499.941 288.26C502.672 287.892 505.137 287.56 507.199 287.213C509.649 286.801 511.603 286.358 512.763 285.777C517.189 283.558 522.023 279.144 525.317 273.202C526.22 271.616 526.99 269.185 527.641 266.394C528.295 263.59 528.839 260.379 529.273 257.209C530.141 250.875 530.577 244.665 530.577 242.138C530.577 241.071 530.698 238.56 530.863 235.143C530.888 234.617 530.914 234.069 530.942 233.501C531.145 229.261 531.388 223.954 531.551 218.441C531.713 212.93 531.795 207.209 531.673 202.143C531.551 197.088 531.226 192.65 530.565 189.721C527.961 178.195 522.755 162.965 520.786 158.798L520.781 158.789C519.694 156.61 516.714 150.906 513.409 144.986C510.11 139.078 506.465 132.911 504.055 129.837C501.638 126.753 497.109 122.546 492.389 118.794C487.676 115.046 482.702 111.696 479.382 110.365C477.136 109.464 475.882 108.589 474.658 107.735C474.139 107.372 473.624 107.014 473.042 106.658C471.093 105.469 468.581 104.477 463.015 103.821L462.782 103.794C457.395 103.158 453.783 102.732 449.377 102.678C444.909 102.624 439.636 102.951 430.863 103.82C416.654 105.227 409.189 103.918 404.773 103.145C403.767 102.968 402.918 102.819 402.185 102.737C400.462 102.448 398.732 101.941 397.348 101.47C397.473 101.466 397.601 101.46 397.732 101.453C399.749 101.342 402.379 100.898 404.746 99.5425C407.086 98.2019 408.422 96.5757 408.699 94.847C408.979 93.1015 408.155 91.4219 406.555 90.0478C405.823 89.4184 405.036 88.6574 404.186 87.8353L404.145 87.7954C403.283 86.9622 402.361 86.072 401.39 85.2216C399.454 83.5269 397.274 81.9471 394.892 81.2647L394.886 81.2631C392.435 80.5929 389.902 80.5287 387.791 81.1577C385.672 81.7892 383.95 83.1332 383.237 85.2773C382.591 87.2215 381.836 89.2763 381.241 90.8469C380.945 91.6318 380.688 92.2948 380.506 92.7615C380.486 92.8121 380.467 92.8604 380.449 92.9063L309.443 42.6504L309.353 42.6274L309.23 43.1121ZM380.681 93.6826L381.145 93.8679L380.91 94.4574L309.017 43.5739L308.76 43.5086C308.533 43.451 308.198 43.3662 307.769 43.2577C306.911 43.0408 305.674 42.7288 304.163 42.3491C301.139 41.5896 297.012 40.5588 292.602 39.4739C283.774 37.3023 273.829 34.9186 269.298 34.0535C268.204 33.8447 265.186 33.6318 260.682 33.4234C256.199 33.2159 250.289 33.0142 243.449 32.8209C229.771 32.4344 212.384 32.0818 195.28 31.7833C178.176 31.4849 161.356 31.2408 148.812 31.0712C142.54 30.9864 137.337 30.9203 133.702 30.8754C131.885 30.8529 130.459 30.8357 129.488 30.8242L128.011 30.8068L127.979 30.8078L127.853 30.812C127.742 30.8159 127.578 30.822 127.368 30.8309C126.948 30.8486 126.343 30.8773 125.604 30.9211C124.124 31.009 122.111 31.1575 119.97 31.4004C117.828 31.6435 115.57 31.9799 113.597 32.4417C111.605 32.9079 109.974 33.487 109.033 34.1816L109.024 34.1888C108.517 34.5441 107.495 35.4465 106.068 36.7881C104.651 38.1193 102.862 39.8574 100.833 41.8605C96.7761 45.8661 91.7714 50.9237 86.9004 55.8879C82.0297 60.8518 77.2941 65.7209 73.7761 69.3491C72.0172 71.1632 70.5627 72.667 69.5479 73.7172C69.0406 74.2424 68.6431 74.6541 68.3726 74.9345L67.9769 75.3448L64.5835 79.7184L64.1852 79.2466L64.1831 79.2441L64.1743 79.2339C64.1686 79.2272 64.1606 79.218 64.1505 79.2064C64.1462 79.2015 64.1416 79.1962 64.1366 79.1905C64.1025 79.1518 64.0509 79.0939 63.9827 79.0195C63.8461 78.8708 63.6431 78.6566 63.3809 78.3986C62.8558 77.8822 62.0959 77.1934 61.1588 76.5054C59.2734 75.1212 56.7259 73.7808 53.9578 73.7808C51.1068 73.7808 46.0191 74.7416 41.4103 76.1465C39.1113 76.8473 36.9544 77.6518 35.2728 78.4896C34.4318 78.9087 33.7211 79.3305 33.1743 79.7446C32.6207 80.164 32.2708 80.549 32.1041 80.8834C31.728 81.6372 31.3117 82.3912 30.9084 83.1215C30.841 83.2435 30.774 83.3649 30.7076 83.4855C30.2403 84.3339 29.8031 85.1449 29.4607 85.9105C28.7563 87.4858 28.5475 88.6722 29.0544 89.5191C29.6596 90.5301 30.6881 91.5686 31.8429 92.4104C33.0006 93.2544 34.2328 93.8628 35.2192 94.0605C35.5909 94.1351 35.9405 94.1816 36.2878 94.2279C36.4302 94.2469 36.5721 94.2658 36.7151 94.2866C37.1855 94.3549 37.6682 94.4438 38.0914 94.6396C38.5341 94.8444 38.9085 95.1641 39.1611 95.6705C39.4053 96.1601 39.5182 96.7893 39.5182 97.5893C39.5182 98.4685 39.1501 99.5715 38.5394 100.761C37.9216 101.965 37.0282 103.309 35.9158 104.686C33.6913 107.439 30.5634 110.355 26.9364 112.558L26.9307 112.562C19.685 116.834 16.9605 121.927 16.1243 125.905C15.7147 127.96 16.0188 129.38 16.586 130.801C16.7967 131.329 17.0399 131.849 17.3021 132.409C17.4026 132.624 17.5059 132.844 17.6112 133.074C17.9871 133.892 18.3757 134.796 18.7095 135.855L18.7117 135.862C19.0491 136.99 19.6227 140.316 20.29 144.738C20.9605 149.182 21.7324 154.781 22.4635 160.495C23.9233 171.903 25.2281 183.824 25.2281 187.878C25.2281 191.84 26.4087 199.28 27.6562 206.321C28.0701 208.657 28.4916 210.95 28.8776 213.05C29.6474 217.238 30.2761 220.659 30.422 222.121C30.5175 223.078 30.9736 223.992 31.6896 224.874C32.4061 225.756 33.363 226.582 34.4159 227.357C35.4675 228.131 36.5956 228.84 37.6492 229.499L37.7741 229.577C38.7674 230.198 39.7008 230.782 40.3987 231.319C41.4002 232.035 42.679 232.794 44.0327 233.596C44.7027 233.994 45.3911 234.402 46.0732 234.821C48.0919 236.063 50.0702 237.41 51.1104 238.8C51.2153 238.941 51.319 239.08 51.4213 239.218C51.8043 239.734 52.1685 240.225 52.5067 240.619C52.7202 240.867 52.9063 241.056 53.0629 241.179C53.1416 241.241 53.1978 241.274 53.2339 241.292C53.2342 241.292 53.2346 241.291 53.2349 241.29C53.2955 241.176 53.3661 240.941 53.4096 240.514C53.4956 239.672 53.4597 238.276 53.2437 236.111C52.8041 231.704 53.5709 220.257 55.1408 209.214C55.9271 203.683 56.918 198.23 58.0679 193.786C58.6428 191.565 59.2598 189.586 59.9147 187.971C60.5639 186.371 61.2681 185.083 62.0378 184.28C64.8429 181.252 67.201 178.402 68.8825 175.78C70.5695 173.149 71.5439 170.796 71.6458 168.754L71.6464 168.741L71.6476 168.729C71.6695 168.51 71.6914 168.288 71.7135 168.064C72.1288 163.858 72.6274 158.809 74.7028 152.774C75.2292 151.191 75.4671 149.776 75.6066 148.561C75.6648 148.054 75.7057 147.584 75.7437 147.146C75.7515 147.056 75.7592 146.969 75.7668 146.882C75.8115 146.376 75.857 145.907 75.9288 145.496C76.0684 144.699 76.3362 143.941 77.1029 143.597C77.4653 143.434 77.8898 143.389 78.3688 143.424C78.8483 143.46 79.4136 143.578 80.08 143.773C82.8714 144.589 85.3913 147.394 87.2485 150.652C89.118 153.932 90.3919 157.802 90.6147 160.93C90.7247 162.473 90.6975 163.472 90.6489 164.262C90.636 164.472 90.6221 164.662 90.609 164.84C90.5723 165.343 90.5425 165.75 90.5615 166.236C90.6123 167.536 91.0194 169.369 92.7546 174.478C93.0214 175.264 93.263 175.968 93.4825 176.608C94.6817 180.105 95.224 181.686 95.643 184.159C95.9693 186.086 96.2238 188.571 96.6757 192.984C96.903 195.204 97.1802 197.912 97.5416 201.281C98.474 209.973 99.2456 224.203 99.9938 238C100.116 240.249 100.237 242.488 100.358 244.688C100.792 252.543 101.224 259.923 101.684 265.664C101.914 268.535 102.15 270.991 102.395 272.888C102.644 274.809 102.895 276.094 103.136 276.673C104.217 279.274 105.511 282.246 106.748 284.727C107.367 285.968 107.968 287.077 108.517 287.953C109.077 288.847 109.55 289.44 109.903 289.705L109.95 289.74L109.987 289.785C110.469 290.365 111.217 290.871 111.877 291.242C112.202 291.424 112.494 291.568 112.705 291.665C112.81 291.714 112.895 291.751 112.952 291.775C112.958 291.778 112.963 291.78 112.968 291.783L112.97 291.783L114.16 291.874C114.989 291.937 116.207 292.031 117.76 292.149C120.865 292.387 125.311 292.726 130.669 293.133C141.387 293.947 155.758 295.032 170.372 296.117C199.621 298.289 229.793 300.457 233.666 300.457C237.555 300.457 293.95 299.372 351.383 297.744C380.097 296.93 409.067 295.98 431.858 294.963C443.254 294.455 453.102 293.929 460.6 293.395C464.349 293.129 467.507 292.86 469.976 292.591C472.453 292.32 474.206 292.052 475.166 291.793M388.077 82.116C386.19 82.6782 384.772 83.8302 384.186 85.5928C383.534 87.5554 382.773 89.6244 382.177 91.2008C381.878 91.9895 381.621 92.6558 381.437 93.1251C381.346 93.3598 381.273 93.5453 381.223 93.6722L381.165 93.8174L381.145 93.8679L380.681 93.6826M388.077 82.116C389.971 81.5515 392.309 81.5956 394.62 82.227L388.077 82.116Z" fill="#564E44" fill-opacity="0.22"/>
<path fill-rule="evenodd" clip-rule="evenodd" d="M18.4077 138.372C18.4077 138.372 18.4078 138.372 18.8682 138.567L19.3286 138.762L19.3227 138.776L19.3047 138.819C19.2888 138.857 19.2651 138.914 19.2346 138.988C19.1734 139.137 19.0846 139.355 18.9745 139.631C18.7542 140.185 18.449 140.972 18.1099 141.906C17.4306 143.777 16.6193 146.226 16.0799 148.56C15.8165 149.701 15.5322 152.214 15.255 155.425C14.9792 158.621 14.7133 162.469 14.4814 166.253C14.0172 173.829 13.6908 181.116 13.6908 182.386C13.6908 182.985 13.7152 184.079 13.7466 185.492C13.8483 190.068 14.0244 197.988 13.6898 203.254C13.2541 210.112 13.2552 225.765 13.6887 230.456C13.7591 231.217 13.8403 232.169 13.9318 233.239C14.1257 235.508 14.3654 238.313 14.6434 240.975C14.8478 242.932 15.0719 244.801 15.3121 246.312C15.4322 247.068 15.5554 247.727 15.6807 248.261C15.8085 248.804 15.9307 249.181 16.0385 249.393C16.4908 250.283 17.3629 250.765 18.5021 251.13C18.9784 251.283 19.4772 251.408 19.9924 251.537C20.0912 251.561 20.1906 251.586 20.2906 251.611C20.9017 251.766 21.5298 251.934 22.1083 252.161C22.5889 252.35 23.3797 252.506 24.3897 252.613C25.3886 252.718 26.5647 252.771 27.7936 252.771C30.2584 252.771 32.8913 252.557 34.6957 252.139L34.7016 252.138C35.7439 251.91 37.253 251.845 38.8952 251.865C40.5483 251.885 42.3756 251.993 44.0737 252.128C45.7727 252.263 47.3476 252.425 48.4975 252.552C49.0726 252.616 49.5418 252.672 49.8674 252.712C49.8967 252.715 49.9248 252.719 49.9517 252.722L53.5442 240.457L54.5039 240.738L50.6716 253.822L50.2475 253.767L50.2396 253.766L50.2151 253.763L50.1185 253.75C50.0821 253.746 50.0384 253.74 49.9876 253.734C49.9196 253.725 49.839 253.716 49.7466 253.704C49.424 253.665 48.9582 253.61 48.387 253.546C47.2441 253.419 45.6801 253.259 43.9946 253.125C42.308 252.991 40.5051 252.885 38.8829 252.865C37.2514 252.845 35.8412 252.913 34.9181 253.114C33.0106 253.555 30.2952 253.771 27.7936 253.771C26.5387 253.771 25.3265 253.717 24.285 253.607C23.2548 253.499 22.3533 253.332 21.7421 253.092C21.2288 252.89 20.656 252.735 20.0455 252.581C19.9504 252.557 19.8542 252.533 19.7573 252.509C19.2426 252.38 18.707 252.246 18.1971 252.082C16.9889 251.695 15.7866 251.104 15.147 249.846C14.9819 249.521 14.838 249.045 14.7073 248.489C14.5742 247.923 14.4466 247.237 14.3245 246.469C14.0802 244.932 13.8539 243.042 13.6488 241.079C13.3699 238.408 13.1283 235.581 12.934 233.307C12.8429 232.242 12.7622 231.298 12.6929 230.548C12.253 225.788 12.2541 210.08 12.6918 203.19C13.0231 197.976 12.8498 190.172 12.7479 185.582C12.7158 184.139 12.6908 183.013 12.6908 182.386C12.6908 181.079 13.0196 173.759 13.4833 166.192C13.7154 162.404 13.9819 158.547 14.2587 155.339C14.5343 152.146 14.8231 149.558 15.1056 148.335C15.658 145.944 16.4844 143.453 17.1699 141.565C17.5131 140.619 17.8221 139.822 18.0454 139.261C18.157 138.981 18.2473 138.759 18.3099 138.607C18.3411 138.531 18.3655 138.473 18.382 138.433L18.401 138.388L18.4077 138.372Z" fill="#564E44" fill-opacity="0.22"/>
<path fill-rule="evenodd" clip-rule="evenodd" d="M29.0911 222.261C29.0911 222.261 29.0911 222.261 29.5848 222.34C30.0785 222.419 30.0785 222.419 30.0785 222.419L29.9887 222.976C29.9308 223.334 29.8467 223.853 29.7419 224.495C29.5323 225.777 29.2403 227.55 28.9101 229.511C28.2501 233.431 27.4364 238.11 26.8253 241.127C26.2068 244.18 25.0761 247.275 24.1056 249.597C23.6195 250.761 23.1717 251.735 22.8451 252.419C22.6818 252.761 22.5487 253.031 22.4562 253.216C22.4099 253.308 22.3738 253.379 22.3491 253.427L22.3207 253.483L22.3133 253.497L22.3113 253.501L22.3107 253.502C22.3107 253.502 22.3105 253.502 21.8672 253.271L21.4238 253.04L21.4258 253.036L21.4323 253.024L21.4588 252.972C21.4823 252.926 21.5172 252.857 21.5621 252.768C21.6521 252.588 21.7824 252.324 21.9427 251.988C22.2635 251.316 22.7043 250.358 23.1829 249.212C24.1418 246.917 25.2452 243.89 25.8452 240.928C26.4527 237.93 27.2638 233.266 27.9239 229.345C28.2538 227.386 28.5456 225.615 28.755 224.333C28.8596 223.693 28.9437 223.174 29.0016 222.816L29.0911 222.261Z" fill="#564E44" fill-opacity="0.22"/>
<path fill-rule="evenodd" clip-rule="evenodd" d="M119.371 101.623C119.371 101.623 119.371 101.623 119.624 101.192C119.877 100.76 119.877 100.761 119.878 100.761L120.365 101.048C120.684 101.235 121.153 101.512 121.753 101.866C122.954 102.574 124.68 103.594 126.781 104.84C130.983 107.332 136.688 110.73 142.697 114.352C154.703 121.588 167.957 129.739 172.841 133.337L172.847 133.341C177.696 137.022 185.139 142.277 192.394 147.045C199.661 151.822 206.699 156.082 210.755 157.798C214.851 159.53 218.005 160.71 221.473 161.514C224.941 162.318 228.741 162.75 234.125 162.966C244.712 163.4 295.228 164.701 317.875 162.967C323.234 162.557 328.698 162.049 334.22 161.535C352.016 159.88 370.422 158.168 387.935 159.496C403.185 160.652 419.832 160.651 432.972 160.651C439.561 160.651 445.268 160.651 449.475 160.796C451.381 160.864 453.235 160.951 455.018 161.035C459.022 161.224 462.671 161.397 465.774 161.285C468.012 161.204 469.927 160.976 471.456 160.512C472.984 160.05 474.083 159.366 474.751 158.406C475.458 157.392 476.196 155.574 476.868 153.235C477.536 150.91 478.126 148.118 478.555 145.194C479.416 139.326 479.62 133.005 478.565 128.872C477.502 124.708 474.884 119.386 472.51 115.076C471.326 112.927 470.209 111.042 469.388 109.694C468.978 109.02 468.642 108.48 468.409 108.109C468.292 107.924 468.201 107.781 468.139 107.685L468.069 107.575L468.051 107.548L468.047 107.541L468.046 107.539L468.465 107.267C468.885 106.995 468.885 106.996 468.885 106.996L468.887 106.998L468.91 107.034L468.982 107.146C469.045 107.244 469.137 107.389 469.255 107.577C469.491 107.951 469.829 108.495 470.243 109.174C471.069 110.531 472.193 112.429 473.385 114.593C475.763 118.908 478.437 124.327 479.534 128.625C480.639 132.954 480.411 139.436 479.544 145.339C479.11 148.3 478.511 151.136 477.829 153.511C477.151 155.87 476.377 157.822 475.572 158.978C474.729 160.188 473.397 160.969 471.746 161.469C470.096 161.969 468.082 162.202 465.811 162.284C462.664 162.397 458.946 162.222 454.919 162.032C453.145 161.948 451.312 161.862 449.44 161.796C445.294 161.652 439.625 161.652 433.063 161.652C419.899 161.651 403.138 161.651 387.859 160.493C370.439 159.172 352.152 160.873 334.373 162.526C328.836 163.041 323.348 163.551 317.951 163.964C295.237 165.703 244.665 164.399 234.084 163.965C228.668 163.748 224.8 163.312 221.247 162.488C217.695 161.665 214.478 160.458 210.366 158.719C206.213 156.963 199.103 152.652 191.845 147.881C184.575 143.103 177.115 137.836 172.245 134.14C167.406 130.575 154.203 122.454 142.181 115.208C136.175 111.588 130.472 108.192 126.271 105.7C124.17 104.454 122.445 103.435 121.245 102.727C120.645 102.373 120.176 102.097 119.858 101.909L119.371 101.623Z" fill="#564E44" fill-opacity="0.22"/>
<path fill-rule="evenodd" clip-rule="evenodd" d="M133.938 39.2116C139.99 38.9377 146.42 38.8281 150.204 38.8281C157.77 38.8281 237.223 41.4547 243.281 41.8934C244.859 42.0077 248.982 42.0918 254.349 42.2014C259.217 42.3007 265.11 42.421 271.054 42.6036C277.289 42.7952 283.571 43.0553 288.756 43.4322C291.348 43.6207 293.671 43.8387 295.58 44.0927C297.473 44.3447 298.994 44.6365 299.965 44.983C303.694 46.2072 308.591 48.9139 312.528 51.2928C314.505 52.4867 316.25 53.6049 317.502 54.4246C318.128 54.8345 318.631 55.1699 318.977 55.403C319.15 55.5196 319.284 55.6106 319.376 55.6726L319.479 55.7434L319.506 55.7616L319.513 55.7663L319.514 55.7675C319.515 55.7676 319.515 55.768 319.232 56.1791L319.514 55.7675L319.518 55.7699L379.916 97.9377L378.133 97.8235L378.165 97.3245C378.133 97.8235 378.133 97.8235 378.133 97.8235L377.668 97.7942C377.363 97.775 376.914 97.7471 376.336 97.7116C375.179 97.6407 373.506 97.5398 371.44 97.4202C367.309 97.1809 361.611 96.8664 355.339 96.5655C342.79 95.9636 327.966 95.4175 318.812 95.6358C309.617 95.8552 291.303 95.1976 274.04 94.4866C269.653 94.3059 265.334 94.1218 261.249 93.9476C249.24 93.4357 239.249 93.0097 235.474 93.0097C231.752 93.0097 216.557 93.3049 198.439 93.6568C191.894 93.7839 184.967 93.9185 178.061 94.0492C152.068 94.5412 126.347 94.98 122.544 94.7597C119.649 94.5871 115.351 94.8974 111.194 95.1978C110.142 95.2739 109.098 95.3493 108.089 95.416C105.608 95.58 103.33 95.6915 101.666 95.6219C100.841 95.5873 100.128 95.507 99.608 95.3495C99.3495 95.2712 99.0992 95.1624 98.905 94.9993C98.6976 94.8251 98.543 94.576 98.543 94.2606C98.543 92.0314 99.8431 76.8918 102.442 65.9132C103.745 60.4115 105.804 54.4249 107.534 49.8214C108.399 47.5179 109.184 45.5572 109.752 44.172C110.036 43.4794 110.266 42.9305 110.425 42.5545C110.505 42.3665 110.567 42.2217 110.609 42.1237L110.657 42.0123L110.673 41.9746C110.673 41.9745 110.673 41.9739 111.132 42.1732L110.673 41.9746L110.811 41.6563L111.157 41.6739L111.159 41.674L111.167 41.6743L111.201 41.6758C111.232 41.677 111.278 41.6786 111.34 41.6803C111.462 41.6836 111.644 41.6869 111.877 41.6869C112.343 41.6869 113.014 41.6735 113.824 41.6196C115.447 41.5117 117.622 41.2422 119.843 40.5987C121.028 40.2555 123.056 39.979 125.509 39.7535C127.975 39.5268 130.911 39.3486 133.938 39.2116ZM111.457 42.6832C111.425 42.7576 111.388 42.8448 111.346 42.9444C111.188 43.3172 110.959 43.8626 110.677 44.5515C110.112 45.9294 109.331 47.8807 108.47 50.1731C106.746 54.7615 104.703 60.7025 103.415 66.1435C100.845 76.9987 99.5552 91.97 99.5431 94.2292C99.5446 94.2305 99.5463 94.2319 99.5481 94.2335C99.5947 94.2726 99.6994 94.3323 99.898 94.3924C100.292 94.512 100.902 94.5889 101.708 94.6227C103.31 94.6898 105.538 94.5825 108.023 94.4182C109.01 94.3529 110.037 94.2786 111.079 94.2033C115.242 93.9021 119.634 93.5844 122.602 93.7614C126.357 93.9787 152.012 93.5421 178.042 93.0494C184.938 92.9188 191.858 92.7844 198.398 92.6574C216.525 92.3053 231.741 92.0097 235.474 92.0097C239.272 92.0097 249.302 92.4373 261.324 92.9499C265.402 93.1237 269.71 93.3074 274.081 93.4874C291.357 94.199 309.634 94.8545 318.788 94.6361C327.983 94.4168 342.841 94.9649 355.387 95.5667C361.663 95.8677 367.365 96.1824 371.498 96.4218C373.565 96.5416 375.239 96.6425 376.397 96.7135C376.404 96.7139 376.411 96.7143 376.418 96.7147L318.948 56.5918L318.946 56.5905L318.945 56.5899L318.914 56.5686L318.813 56.4992C318.723 56.4382 318.59 56.3482 318.419 56.2327C318.075 56.0016 317.576 55.6685 316.954 55.2611C315.71 54.4463 313.975 53.3348 312.011 52.1487C308.072 49.7688 303.258 47.1153 299.647 45.9311L299.635 45.927C298.771 45.618 297.339 45.3357 295.448 45.084C293.567 44.8336 291.265 44.6173 288.683 44.4296C283.52 44.0542 277.254 43.7946 271.023 43.6031C265.132 43.4221 259.261 43.3021 254.392 43.2025C248.981 43.0918 244.806 43.0064 243.209 42.8908C237.179 42.4541 157.75 39.8281 150.204 39.8281C146.434 39.8281 140.019 39.9374 133.983 40.2106C130.964 40.3472 128.045 40.5246 125.6 40.7493C123.142 40.9753 121.203 41.2459 120.122 41.5592C117.81 42.2289 115.559 42.5065 113.89 42.6174C113.055 42.673 112.362 42.6869 111.877 42.6869C111.712 42.6869 111.571 42.6853 111.457 42.6832Z" fill="#564E44" fill-opacity="0.22"/>
<path fill-rule="evenodd" clip-rule="evenodd" d="M65.1172 79.4087L65.6008 79.2819C66.0845 79.1551 66.0845 79.1552 66.0845 79.1553L66.0919 79.1834L66.1129 79.2644C66.1312 79.3354 66.1579 79.4395 66.1917 79.573C66.2593 79.84 66.3554 80.2244 66.4693 80.6946C66.6971 81.6349 66.9966 82.9203 67.2833 84.2993C67.5697 85.6772 67.8446 87.1547 68.0219 88.4775C68.1971 89.7845 68.2848 90.993 68.1706 91.8064C68.0761 92.4797 68.1216 93.1932 68.2136 93.9167C68.254 94.2339 68.3023 94.5461 68.3503 94.8564C68.3569 94.8995 68.3636 94.9425 68.3702 94.9855C68.424 95.3346 68.4761 95.6827 68.51 96.0135C68.5758 96.656 68.5856 97.3276 68.3351 97.8804C68.3104 97.9351 68.2835 97.9879 68.2544 98.0387C68.5667 98.0241 68.9045 98.0084 69.2612 97.9926C71.6327 97.8877 74.8413 97.7787 76.6544 97.9955C78.4153 98.1942 80.283 97.7943 81.752 96.9972C83.2314 96.1943 84.2227 95.0397 84.3998 93.7784L85.3901 93.9174C85.1523 95.6115 83.8615 96.9901 82.229 97.8761C80.5865 98.7674 78.5131 99.212 76.5402 98.989L76.537 98.9886C74.823 98.7834 71.705 98.8855 69.3054 98.9916C68.9064 99.0093 68.527 99.0271 68.1787 99.0434C67.4938 99.0754 66.9294 99.1019 66.5728 99.1107C66.4384 99.114 66.3227 99.1152 66.2373 99.1125C66.198 99.1112 66.1464 99.1086 66.0975 99.1011C66.0783 99.0981 66.0246 99.0896 65.9644 99.065C65.9365 99.0536 65.8694 99.024 65.8033 98.961C65.7286 98.8897 65.6315 98.7482 65.649 98.5515C65.6644 98.3798 65.7597 98.2737 65.8007 98.2339C65.8469 98.189 65.8917 98.1626 65.9137 98.1505C65.9596 98.1252 66.0018 98.1108 66.0217 98.1043C66.0674 98.0894 66.1181 98.0775 66.1628 98.068C66.257 98.0479 66.3905 98.0248 66.5608 97.9981C67.1075 97.9126 67.3173 97.7038 67.4242 97.4678C67.5563 97.1762 67.5791 96.7395 67.5152 96.1154C67.4842 95.8129 67.4359 95.4881 67.3819 95.1379C67.3754 95.0956 67.3688 95.053 67.3621 95.01C67.3143 94.7008 67.2638 94.3745 67.2216 94.0429C67.1257 93.2887 67.0674 92.4717 67.1803 91.6673C67.2736 91.003 67.2057 89.9158 67.0308 88.6104C66.858 87.3208 66.5883 85.8693 66.3042 84.5029C66.0204 83.1376 65.7235 81.8633 65.4974 80.9301C65.3844 80.4636 65.2892 80.0827 65.2223 79.8186C65.1889 79.6866 65.1625 79.5838 65.1445 79.5142L65.1241 79.4351L65.1172 79.4087Z" fill="#564E44" fill-opacity="0.22"/>
<path fill-rule="evenodd" clip-rule="evenodd" d="M45.1633 98.3493C48.0708 99.2087 51.6496 100.284 54.3228 101.145C58.6992 102.555 64.6841 103.087 69.0573 103.476C69.9481 103.555 70.7721 103.628 71.502 103.701L71.5046 103.702C73.6613 103.93 75.9378 105.175 78.2022 106.624C78.9783 107.12 79.7532 107.64 80.5284 108.161C82.0575 109.187 83.5884 110.215 85.1344 111.064L84.6531 111.94C83.0697 111.071 81.4708 109.998 79.9184 108.956C79.153 108.443 78.3988 107.937 77.6634 107.466C75.3943 106.015 73.2973 104.898 71.4005 104.696C70.6943 104.625 69.8891 104.554 69.0125 104.476C64.6479 104.089 58.5127 103.546 54.0162 102.097C51.3553 101.24 47.7864 100.167 44.8798 99.3083C43.4271 98.879 42.141 98.5033 41.2181 98.2349C40.7566 98.1008 40.386 97.9934 40.1308 97.9197L39.7363 97.8058L39.8742 97.3252C40.0124 96.8447 40.0124 96.8447 40.0125 96.8447L40.4085 96.959C40.6641 97.0329 41.0353 97.1404 41.4973 97.2747C42.4213 97.5434 43.7089 97.9195 45.1633 98.3493Z" fill="#564E44" fill-opacity="0.22"/>
<path fill-rule="evenodd" clip-rule="evenodd" d="M89.867 157.43C89.8671 157.43 89.8672 157.43 90.0384 157.899L90.2095 158.369L90.1747 158.382L90.0709 158.42C89.9796 158.454 89.8449 158.504 89.6722 158.569C89.3269 158.699 88.8298 158.888 88.2238 159.125C87.0115 159.6 85.3655 160.265 83.6286 161.029C81.8904 161.794 80.0683 162.654 78.5012 163.519C76.9195 164.391 75.6485 165.24 74.9698 165.972L74.2363 165.292C75.033 164.433 76.4291 163.519 78.0183 162.643C79.622 161.759 81.4741 160.885 83.226 160.114C84.9791 159.343 86.6385 158.672 87.8593 158.194C88.4699 157.955 88.9712 157.764 89.3201 157.633C89.4946 157.567 89.631 157.517 89.724 157.482L89.8302 157.443L89.867 157.43Z" fill="#564E44" fill-opacity="0.22"/>
<path fill-rule="evenodd" clip-rule="evenodd" d="M50.957 239.173C50.957 239.172 50.957 239.172 51.4508 239.094C51.9446 239.015 51.9446 239.016 51.9446 239.016L51.9987 239.354C52.0343 239.575 52.0869 239.902 52.155 240.32C52.2911 241.158 52.4889 242.364 52.7358 243.84C53.2296 246.791 53.9195 250.82 54.7041 255.129C56.2764 263.766 58.2195 273.476 59.7215 277.935C61.2115 282.357 64.8002 288.252 68.9 293.482C70.9459 296.093 73.1095 298.525 75.1872 300.514C77.2708 302.509 79.2448 304.036 80.9108 304.86C84.3033 306.539 88.8421 307.601 93.9408 308.295C99.0327 308.988 104.644 309.309 110.163 309.523C112.937 309.631 115.694 309.846 118.345 310.067C118.771 310.103 119.194 310.138 119.614 310.174C121.81 310.359 123.92 310.537 125.901 310.649C128.262 310.782 130.422 310.821 132.307 310.67C134.196 310.518 135.776 310.178 136.995 309.575C139.595 308.288 144.523 305.877 148.801 303.788C150.94 302.743 152.916 301.779 154.358 301.076L156.704 299.932L156.706 299.931C156.706 299.931 156.706 299.931 156.925 300.38C157.144 300.83 157.144 300.83 157.144 300.83L154.796 301.975C153.354 302.678 151.378 303.642 149.24 304.686C144.962 306.776 140.036 309.186 137.438 310.471C136.058 311.154 134.335 311.51 132.387 311.666C130.435 311.823 128.222 311.782 125.845 311.647C123.849 311.534 121.723 311.355 119.527 311.17C119.107 311.135 118.685 311.099 118.261 311.064C115.613 310.843 112.874 310.629 110.125 310.523C104.598 310.308 98.9475 309.986 93.806 309.286C88.6713 308.587 84.0054 307.507 80.4674 305.757C78.6681 304.867 76.6083 303.26 74.4956 301.237C72.3771 299.208 70.182 296.739 68.1129 294.099C63.9826 288.83 60.316 282.831 58.7738 278.254C57.2437 273.712 55.2884 263.922 53.7203 255.309C52.9346 250.993 52.2438 246.959 51.7495 244.005C51.5023 242.527 51.3042 241.319 51.1679 240.481C51.0998 240.061 51.047 239.734 51.0114 239.512L50.957 239.173Z" fill="#564E44" fill-opacity="0.22"/>
<path fill-rule="evenodd" clip-rule="evenodd" d="M91.3638 169.028C91.364 169.028 91.3641 169.028 91.5342 169.498L91.7043 169.968L91.6948 169.972L91.6646 169.983C91.6377 169.993 91.5974 170.008 91.5445 170.027C91.4387 170.066 91.2823 170.125 91.0813 170.202C90.6792 170.355 90.0986 170.582 89.3866 170.872C87.9622 171.452 86.0145 172.286 83.9201 173.303C81.8246 174.321 79.5893 175.518 77.5871 176.822C75.5807 178.129 73.8362 179.526 72.6959 180.939C70.3643 183.937 68.2255 188.302 66.5316 192.701C64.8389 197.098 63.6066 201.486 63.0732 204.502C62.8266 205.897 62.5259 207.342 62.2083 208.867C61.123 214.08 59.8398 220.243 59.8398 228.639C59.8398 230.71 59.7937 232.628 59.7494 234.471C59.5592 242.379 59.4019 248.922 63.0571 260.349C64.5054 264.877 65.501 268.66 66.3509 271.89C66.8306 273.713 67.2639 275.359 67.7061 276.864C68.9393 281.061 70.2656 284.262 72.9058 287.462C73.914 288.684 74.8719 289.931 75.8087 291.151C76.1327 291.573 76.4541 291.992 76.7742 292.405C78.0248 294.018 79.2605 295.556 80.5781 296.927C83.2075 299.663 86.1396 301.713 90.1005 302.345C94.1725 302.994 98.3987 303.209 102.187 302.886C105.986 302.561 109.296 301.7 111.574 300.235C113.937 298.717 115.871 297.306 117.212 296.277C117.883 295.762 118.405 295.342 118.759 295.052C118.937 294.907 119.071 294.794 119.162 294.718C119.207 294.68 119.241 294.651 119.263 294.632L119.288 294.61L119.294 294.605L119.296 294.604L119.623 294.982C119.951 295.36 119.951 295.36 119.95 295.36L119.941 295.369L119.913 295.392C119.889 295.413 119.853 295.443 119.806 295.483C119.713 295.562 119.574 295.677 119.393 295.826C119.032 296.122 118.501 296.548 117.821 297.07C116.462 298.113 114.506 299.54 112.115 301.077C109.64 302.667 106.144 303.552 102.272 303.882C98.3902 304.213 94.0816 303.992 89.943 303.332C85.6932 302.654 82.5754 300.449 79.8571 297.62C78.5008 296.208 77.2382 294.636 75.9837 293.017C75.6579 292.597 75.3329 292.174 75.0069 291.749C74.073 290.533 73.1306 289.306 72.1344 288.098C69.3728 284.751 67.9983 281.406 66.7467 277.146C66.2884 275.586 65.8497 273.918 65.3676 272.085C64.525 268.88 63.5497 265.171 62.1046 260.654C58.3953 249.057 58.5576 242.35 58.7495 234.417C58.7938 232.582 58.8398 230.681 58.8398 228.639C58.8398 220.129 60.1502 213.839 61.238 208.617C61.5525 207.107 61.8483 205.687 62.0885 204.328C62.6355 201.235 63.888 196.784 65.5984 192.342C67.3069 187.905 69.4885 183.433 71.9094 180.321L71.9148 180.314C73.1514 178.781 74.9979 177.315 77.0412 175.984C79.0903 174.649 81.3654 173.432 83.4833 172.404C85.6023 171.375 87.5708 170.532 89.0094 169.946C89.7289 169.653 90.3164 169.424 90.7245 169.268C90.9286 169.19 91.0879 169.13 91.1964 169.09C91.2507 169.07 91.2923 169.054 91.3205 169.044L91.3527 169.032L91.361 169.029L91.3638 169.028Z" fill="#564E44" fill-opacity="0.22"/>
<path fill-rule="evenodd" clip-rule="evenodd" d="M89.2959 211.637C89.5932 212.568 89.846 213.154 90.0315 213.4C90.6551 214.23 90.6485 215.286 90.313 216.301C89.9761 217.32 89.2867 218.379 88.4015 219.332C86.6428 221.226 83.9757 222.839 81.4049 222.839C80.0948 222.839 78.425 222.255 76.7115 221.441C74.9794 220.619 73.1327 219.526 71.4459 218.441C69.7574 217.354 68.22 216.268 67.1053 215.455C66.5477 215.048 66.0952 214.708 65.7819 214.47C65.6252 214.351 65.5032 214.258 65.4202 214.194L65.3255 214.121L65.301 214.102L65.293 214.095C65.2928 214.095 65.2923 214.095 65.6004 213.701L65.9085 213.307L65.9102 213.308L65.9159 213.313L65.939 213.331L66.0309 213.402C66.112 213.465 66.2319 213.557 66.3864 213.674C66.6955 213.908 67.1429 214.244 67.6948 214.647C68.7992 215.453 70.3199 216.527 71.9871 217.6C73.6561 218.674 75.4628 219.741 77.1406 220.538C78.8369 221.344 80.3335 221.839 81.4049 221.839C83.597 221.839 86.0177 220.43 87.6688 218.652C88.4886 217.769 89.0846 216.831 89.3635 215.987C89.6436 215.14 89.5829 214.468 89.2322 214.001C88.9306 213.6 88.6353 212.856 88.3432 211.94C88.0432 211 87.7244 209.804 87.3968 208.439C86.7411 205.707 86.0425 202.27 85.379 198.785C84.6068 194.729 83.8853 190.629 83.3305 187.475C82.9279 185.186 82.613 183.397 82.4301 182.485L83.4106 182.288C83.5921 183.193 83.9097 184.998 84.3152 187.301C84.8731 190.471 85.5971 194.584 86.3614 198.598C87.024 202.078 87.7191 205.497 88.3691 208.205C88.6943 209.56 89.0065 210.729 89.2959 211.637Z" fill="#564E44" fill-opacity="0.22"/>
<path fill-rule="evenodd" clip-rule="evenodd" d="M86.9688 182.44C86.9687 182.44 86.9687 182.44 87.4659 182.386C87.963 182.333 87.963 182.333 87.963 182.333L87.9691 182.389L87.9875 182.556C88.0038 182.703 88.028 182.918 88.0597 183.194C88.1232 183.745 88.2168 184.537 88.3371 185.497C88.5779 187.419 88.9255 190.015 89.3532 192.714C89.7811 195.416 90.2879 198.213 90.8462 200.54C91.1254 201.704 91.4156 202.742 91.7127 203.588C92.0137 204.445 92.3077 205.063 92.5794 205.418C93.8323 207.056 95.5144 208.605 96.8963 209.752C97.5848 210.323 98.1939 210.791 98.6304 211.115C98.8485 211.277 99.0233 211.403 99.1431 211.488C99.2029 211.531 99.249 211.563 99.2799 211.585L99.3146 211.609L99.323 211.615L99.3249 211.616L99.0423 212.029C98.7594 212.441 98.7593 212.441 98.7592 212.441L98.7554 212.438L98.7453 212.431L98.7072 212.405C98.674 212.382 98.6255 212.348 98.5631 212.303C98.4383 212.214 98.258 212.084 98.034 211.918C97.5862 211.585 96.9626 211.106 96.2577 210.522C94.8526 209.356 93.1046 207.751 91.785 206.026C91.4135 205.54 91.0778 204.798 90.7692 203.919C90.4566 203.029 90.1573 201.955 89.8738 200.773C89.3066 198.409 88.7951 195.583 88.3655 192.871C87.9356 190.157 87.5865 187.55 87.3449 185.622C87.2241 184.657 87.1301 183.862 87.0663 183.308C87.0344 183.031 87.01 182.814 86.9936 182.666L86.975 182.498L86.9688 182.44Z" fill="#564E44" fill-opacity="0.22"/>
<path fill-rule="evenodd" clip-rule="evenodd" d="M65.4004 224.086C65.4005 224.086 65.4005 224.087 65.6002 223.628C65.7998 223.17 65.7999 223.17 65.8001 223.17L65.8015 223.17L65.8051 223.172L65.8175 223.177L65.8637 223.198C65.9039 223.216 65.9627 223.243 66.0394 223.279C66.1928 223.352 66.4178 223.46 66.7083 223.608C67.2892 223.903 68.132 224.353 69.1884 224.981C71.3009 226.234 74.2676 228.193 77.6997 231.02L77.7055 231.025C80.1608 233.11 81.8502 234.281 83.0162 235.089C83.4142 235.365 83.7512 235.599 84.0368 235.812C84.5849 236.221 85.0051 236.598 85.2232 237.1C85.4448 237.61 85.4229 238.163 85.3166 238.83C85.2528 239.23 85.0739 239.679 84.8386 240.142C84.6001 240.612 84.2875 241.126 83.9311 241.661C83.2186 242.732 82.3102 243.92 81.4179 245.055C81.1082 245.449 80.8011 245.836 80.5042 246.21C79.9399 246.921 79.4122 247.586 78.9721 248.167C78.637 248.61 78.3615 248.992 78.1652 249.299C78.0671 249.453 77.9934 249.58 77.943 249.682C77.918 249.733 77.9007 249.773 77.8894 249.804C77.8777 249.836 77.8754 249.849 77.8756 249.848C77.8373 250.088 77.714 250.389 77.5692 250.691C77.4174 251.009 77.2158 251.381 76.985 251.781C76.5229 252.583 75.9293 253.523 75.3461 254.417C74.7621 255.313 74.185 256.166 73.7542 256.796C73.5388 257.111 73.3597 257.37 73.2344 257.551C73.1717 257.641 73.1225 257.712 73.0889 257.76L73.038 257.833L73.0374 257.834C73.0373 257.834 73.0371 257.834 72.6278 257.547L73.0374 257.834L73.0249 257.851L70.1175 261.325L69.3507 260.683L72.2306 257.242L72.2689 257.188C72.3021 257.14 72.3507 257.07 72.4128 256.981C72.537 256.802 72.7148 256.544 72.9289 256.232C73.3572 255.606 73.9298 254.758 74.5085 253.871C75.088 252.983 75.67 252.06 76.1186 251.282C76.3432 250.892 76.5308 250.545 76.6671 250.26C76.8106 249.96 76.8747 249.774 76.8881 249.691C76.9129 249.535 76.978 249.378 77.0468 249.239C77.1192 249.092 77.2137 248.931 77.3226 248.761C77.5405 248.42 77.8351 248.012 78.175 247.564C78.6216 246.974 79.1619 246.293 79.7313 245.576C80.0266 245.204 80.3297 244.822 80.6317 244.437C81.5222 243.304 82.4095 242.143 83.0986 241.107C83.4431 240.589 83.7328 240.111 83.9472 239.689C84.1649 239.261 84.2896 238.92 84.3291 238.672C84.4295 238.043 84.4076 237.732 84.3062 237.499C84.2014 237.258 83.9757 237.014 83.4386 236.613C83.1793 236.42 82.8611 236.199 82.4786 235.934C81.3156 235.128 79.5588 233.91 77.061 231.789C73.6734 229 70.7503 227.071 68.6779 225.84C67.6414 225.225 66.8178 224.785 66.2555 224.499C65.9743 224.356 65.7584 224.252 65.6139 224.184C65.5416 224.15 65.4872 224.125 65.4514 224.109L65.4117 224.091L65.4025 224.087L65.4004 224.086Z" fill="#564E44" fill-opacity="0.22"/>
<path fill-rule="evenodd" clip-rule="evenodd" d="M87.6543 254.259C87.0476 253.778 86.3468 253.665 85.3536 253.865C85.2107 253.894 84.9239 254.044 84.4805 254.394C84.0587 254.727 83.556 255.189 82.9927 255.75C81.867 256.871 80.5351 258.349 79.1797 259.879C78.8312 260.272 78.4812 260.669 78.133 261.063C77.1315 262.199 76.1456 263.316 75.2578 264.282C74.0756 265.569 73.0186 266.641 72.3096 267.117L71.752 266.287C72.3437 265.89 73.3191 264.914 74.5216 263.606C75.4018 262.648 76.3776 261.542 77.3769 260.409C77.7265 260.013 78.0789 259.613 78.4312 259.216C79.7856 257.687 81.1365 256.187 82.287 255.042C82.8619 254.469 83.3957 253.976 83.8613 253.609C84.3054 253.259 84.757 252.965 85.1561 252.885C86.3308 252.648 87.3642 252.753 88.2751 253.475C89.1464 254.165 89.8357 255.367 90.4928 257.133C90.8411 258.069 91.0898 259.502 91.273 261.13C91.4577 262.771 91.5803 264.654 91.6618 266.517C91.8249 270.242 91.8249 273.91 91.8249 275.44V285.491H90.8249V275.441C90.8249 273.912 90.8249 270.262 90.6628 266.56C90.5818 264.709 90.4604 262.851 90.2793 261.242C90.0968 259.62 89.8577 258.294 89.5556 257.482C88.9119 255.752 88.3006 254.77 87.6543 254.259Z" fill="#564E44" fill-opacity="0.22"/>
<path fill-rule="evenodd" clip-rule="evenodd" d="M99.1263 256.211C98.2742 257.73 97.4048 259.516 97.1787 260.771C97.0663 261.394 97.0046 262.959 96.9816 265.045C96.9589 267.11 96.9741 269.632 97.0044 272.129C97.0402 275.076 97.0975 277.997 97.1382 280.078C97.1663 281.512 97.1866 282.547 97.1866 282.914H96.1866C96.1866 282.549 96.1665 281.529 96.1387 280.109C96.098 278.037 96.0406 275.116 96.0045 272.141C95.9741 269.641 95.9589 267.11 95.9817 265.034C96.0043 262.98 96.064 261.317 96.1945 260.593C96.4541 259.153 97.4062 257.233 98.2541 255.721C98.6841 254.955 99.0983 254.274 99.405 253.785C99.5584 253.54 99.6851 253.343 99.7738 253.207C99.8181 253.138 99.8529 253.085 99.8767 253.049L99.9041 253.008L99.9113 252.997L99.914 252.993C99.914 252.993 99.914 252.993 100.33 253.271L100.745 253.549L100.743 253.552L100.737 253.562L100.711 253.6C100.689 253.635 100.655 253.686 100.612 253.752C100.526 253.884 100.402 254.076 100.252 254.316C99.9517 254.795 99.5463 255.462 99.1263 256.211Z" fill="#564E44" fill-opacity="0.22"/>
<path fill-rule="evenodd" clip-rule="evenodd" d="M108.148 138.066H147.118L147.208 138.103L147.02 138.566C147.208 138.103 147.207 138.103 147.208 138.103L147.791 138.339C148.173 138.494 148.734 138.722 149.454 139.015C150.892 139.602 152.962 140.448 155.489 141.49C160.543 143.573 167.425 146.436 174.735 149.554C189.339 155.783 205.703 163.052 212.592 167.158C219.394 171.168 222.322 174.838 223.528 177.57C224.132 178.937 224.299 180.058 224.31 180.852C224.316 181.249 224.282 181.562 224.245 181.781C224.227 181.891 224.208 181.977 224.192 182.039C224.184 182.07 224.178 182.095 224.172 182.113L224.165 182.136L224.163 182.143L224.162 182.146L224.162 182.148C224.161 182.148 224.161 182.148 224.023 182.103C223.952 182.079 223.846 182.044 223.687 181.991C223.924 182.431 223.924 182.432 223.924 182.432L223.922 182.433L223.917 182.435L223.897 182.446L223.821 182.486C223.754 182.522 223.656 182.574 223.528 182.641C223.273 182.775 222.901 182.967 222.433 183.203C221.499 183.676 220.181 184.324 218.648 185.026C215.589 186.426 211.647 188.054 208.175 188.925L208.168 188.927L208.161 188.929C204.63 189.704 198.49 189.363 188.278 187.833C178.038 186.299 163.625 183.556 143.495 179.472C133.429 177.429 127.2 176.112 123.446 175.25C121.57 174.82 120.303 174.501 119.483 174.262C119.073 174.143 118.763 174.04 118.54 173.949C118.428 173.903 118.327 173.857 118.242 173.807C118.167 173.764 118.059 173.693 117.977 173.584C117.933 173.525 117.882 173.434 117.865 173.316C117.847 173.19 117.874 173.069 117.93 172.969C118.025 172.799 118.18 172.725 118.241 172.698C118.387 172.633 118.574 172.599 118.723 172.576C118.88 172.551 119.061 172.531 119.235 172.511L119.259 172.508C119.328 172.5 119.397 172.493 119.464 172.485C118.823 172.149 118.192 171.466 117.582 170.617C116.907 169.676 116.205 168.454 115.499 167.058C114.085 164.263 112.625 160.717 111.298 157.204C108.982 151.074 107.051 145 106.457 143.131C106.371 142.857 106.312 142.674 106.285 142.594L106.225 142.41L108.148 138.066ZM223.687 181.991L223.924 182.432L224.099 182.337L224.161 182.149L223.687 181.991ZM223.252 181.656C223.255 181.643 223.257 181.63 223.259 181.616C223.287 181.452 223.315 181.199 223.311 180.866C223.301 180.203 223.161 179.215 222.614 177.974C221.518 175.493 218.771 171.962 212.083 168.019L212.081 168.017C205.263 163.954 188.97 156.713 174.343 150.474C167.037 147.358 160.16 144.497 155.108 142.415C152.583 141.374 150.514 140.527 149.076 139.941C148.357 139.648 147.797 139.421 147.415 139.266L146.923 139.066H108.799L107.294 142.464C107.325 142.56 107.365 142.685 107.413 142.836C108.015 144.73 109.931 150.757 112.234 156.851C113.556 160.351 115.001 163.859 116.391 166.606C117.087 167.981 117.762 169.152 118.395 170.034C119.041 170.935 119.593 171.459 120.021 171.643L120.031 171.647C120.336 171.787 120.579 171.922 120.745 172.061C120.828 172.13 120.922 172.225 120.985 172.352C121.055 172.494 121.085 172.677 121.011 172.863C120.946 173.029 120.826 173.129 120.742 173.184C120.654 173.242 120.559 173.281 120.478 173.309C120.365 173.347 120.238 173.377 120.111 173.401C120.904 173.62 122.052 173.904 123.669 174.275C127.41 175.134 133.628 176.449 143.693 178.492C163.824 182.576 178.214 185.315 188.426 186.844C198.658 188.377 204.616 188.681 207.939 187.954C211.318 187.105 215.19 185.509 218.232 184.116C219.751 183.421 221.056 182.779 221.982 182.311C222.445 182.077 222.813 181.887 223.064 181.755C223.137 181.717 223.199 181.684 223.252 181.656Z" fill="#564E44" fill-opacity="0.22"/>
<path fill-rule="evenodd" clip-rule="evenodd" d="M142.561 205.677C143.051 205.731 143.533 205.784 144.004 205.834C148.087 206.269 161.87 208.111 175.051 209.951C181.644 210.871 188.091 211.792 193.104 212.537C198.097 213.279 201.71 213.852 202.598 214.076L202.354 215.046C201.527 214.837 197.985 214.273 192.957 213.526C187.948 212.782 181.504 211.862 174.913 210.941C161.726 209.1 147.962 207.261 143.899 206.829C143.422 206.778 142.938 206.725 142.449 206.671C138.716 206.26 134.695 205.817 131.592 206.285C129.843 206.548 128.475 207.091 127.616 208.012C126.777 208.913 126.347 210.26 126.653 212.322C126.894 213.944 127.031 215.654 127.174 217.436C127.224 218.055 127.274 218.683 127.33 219.319C127.547 221.797 127.846 224.43 128.495 227.253C129.79 232.887 132.487 239.311 138.759 246.721C150.105 260.125 158.473 264.577 172.127 271.842C173.61 272.631 175.155 273.453 176.773 274.323L176.778 274.326C184.974 278.842 191.726 280.667 197.472 281.688C199.587 282.064 201.56 282.33 203.429 282.582C204.108 282.674 204.773 282.764 205.427 282.856C207.869 283.202 210.139 283.585 212.269 284.247C214.395 284.891 216.538 285.402 218.531 285.855C218.963 285.953 219.39 286.049 219.807 286.143C221.308 286.479 222.699 286.791 223.883 287.112C225.376 287.516 226.636 287.956 227.381 288.532C227.764 288.828 228.069 289.203 228.15 289.681C228.231 290.163 228.065 290.634 227.752 291.077C226.723 292.533 225.83 294.696 225.189 296.53C224.871 297.44 224.619 298.258 224.447 298.847C224.361 299.141 224.295 299.379 224.25 299.542C224.228 299.623 224.211 299.687 224.2 299.729L224.187 299.777L224.184 299.791L223.699 299.668C223.215 299.543 223.215 299.543 223.215 299.543L223.22 299.525L223.233 299.473C223.24 299.449 223.248 299.419 223.257 299.383C223.266 299.352 223.275 299.317 223.285 299.279C223.331 299.11 223.399 298.867 223.487 298.566C223.663 297.965 223.92 297.13 224.245 296.2C224.891 294.353 225.821 292.077 226.935 290.5C227.158 290.185 227.186 289.98 227.164 289.848C227.141 289.711 227.044 289.535 226.77 289.323C226.202 288.885 225.13 288.485 223.622 288.077C222.461 287.763 221.099 287.457 219.603 287.122C219.182 287.027 218.75 286.93 218.309 286.83C216.31 286.376 214.139 285.859 211.978 285.204L211.974 285.203C209.925 284.566 207.721 284.191 205.287 283.846C204.645 283.756 203.988 283.667 203.313 283.576C201.438 283.323 199.434 283.053 197.297 282.673C191.467 281.637 184.608 279.781 176.298 275.203C174.682 274.334 173.138 273.512 171.654 272.723C157.988 265.453 149.469 260.921 137.996 247.367C131.62 239.835 128.851 233.266 127.52 227.477C126.856 224.588 126.552 221.902 126.333 219.406C126.276 218.751 126.225 218.112 126.175 217.487C126.033 215.715 125.899 214.054 125.664 212.469C125.327 210.199 125.781 208.515 126.885 207.331C127.968 206.168 129.601 205.574 131.443 205.296C134.686 204.807 138.853 205.267 142.561 205.677Z" fill="#564E44" fill-opacity="0.22"/>
<path fill-rule="evenodd" clip-rule="evenodd" d="M523.12 201.219H527.604L527.633 201.688L527.633 201.689L527.633 201.692L527.634 201.703L527.637 201.749C527.639 201.789 527.643 201.849 527.647 201.927C527.656 202.083 527.668 202.313 527.683 202.609C527.711 203.202 527.749 204.061 527.783 205.128C527.85 207.261 527.905 210.224 527.85 213.547C527.742 220.179 527.202 228.3 525.449 234.106C524.601 236.916 524.306 239.83 524.107 242.746C524.068 243.321 524.032 243.898 523.996 244.474C523.853 246.797 523.71 249.11 523.326 251.305C522.845 254.056 521.978 256.67 520.226 258.973C518.472 261.279 515.86 263.236 511.95 264.724L511.944 264.726C504.251 267.543 499.036 269.48 495.902 271.034C494.327 271.815 493.341 272.469 492.825 273.049C492.573 273.331 492.456 273.571 492.418 273.774C492.381 273.969 492.409 274.177 492.53 274.419C493.182 275.723 494.374 278.216 495.402 280.379C495.916 281.462 496.389 282.463 496.734 283.193C496.842 283.421 496.937 283.622 497.016 283.792L497.265 284.319C497.294 284.352 497.335 284.398 497.385 284.457C497.491 284.579 497.639 284.753 497.811 284.963C498.155 285.382 498.599 285.951 498.99 286.538C499.373 287.112 499.739 287.752 499.883 288.305C499.954 288.579 499.991 288.902 499.88 289.203C499.754 289.542 499.478 289.755 499.128 289.843L498.885 288.873C498.918 288.865 498.935 288.856 498.943 288.852C498.951 288.827 498.963 288.74 498.915 288.558C498.816 288.177 498.532 287.654 498.158 287.092C497.792 286.543 497.371 286.003 497.038 285.597C496.872 285.395 496.73 285.227 496.629 285.111C496.579 285.053 496.539 285.007 496.512 284.977L496.481 284.942L496.474 284.934L496.472 284.932L496.422 284.877L496.391 284.81L496.39 284.809L496.388 284.805L496.24 284.489C496.142 284.283 496.002 283.985 495.83 283.62C495.485 282.89 495.012 281.89 494.498 280.808C493.47 278.643 492.282 276.16 491.636 274.867C491.433 274.46 491.352 274.032 491.435 273.59C491.516 273.156 491.746 272.756 492.078 272.383C492.732 271.65 493.869 270.926 495.458 270.138C498.653 268.554 503.931 266.596 511.597 263.788C515.366 262.354 517.811 260.497 519.43 258.368C521.053 256.235 521.876 253.791 522.341 251.132C522.715 248.998 522.853 246.757 522.996 244.439C523.033 243.857 523.069 243.269 523.109 242.678C523.309 239.75 523.609 236.741 524.492 233.817C526.201 228.154 526.742 220.154 526.851 213.531C526.904 210.227 526.851 207.281 526.783 205.16C526.749 204.099 526.712 203.246 526.684 202.658C526.675 202.489 526.668 202.342 526.661 202.219H523.36L523.329 202.235C523.239 202.281 523.106 202.348 522.938 202.435C522.602 202.608 522.121 202.856 521.543 203.156C520.389 203.757 518.85 204.567 517.312 205.404C515.772 206.241 514.24 207.102 513.095 207.805C512.521 208.157 512.056 208.464 511.738 208.703C511.577 208.825 511.469 208.918 511.405 208.984C511.402 208.987 511.4 208.99 511.397 208.992C511.386 209.089 511.365 209.205 511.343 209.319C511.306 209.514 511.252 209.77 511.182 210.079C511.043 210.698 510.841 211.539 510.587 212.546C510.078 214.56 509.36 217.243 508.52 220.143C506.844 225.929 504.67 232.624 502.699 236.565L502.694 236.575C501.631 238.591 499.626 240.987 497.074 243.523C494.514 246.066 491.375 248.777 488.011 251.422C481.286 256.711 473.631 261.762 467.861 264.702C464.923 266.199 459.542 267.588 452.936 268.875C446.309 270.166 438.387 271.365 430.324 272.461C422.914 273.468 415.392 274.388 408.638 275.214C400.675 276.188 393.778 277.031 389.389 277.733C385.293 278.389 376.725 278.822 365.941 279.079C355.144 279.336 342.09 279.417 328.997 279.363C302.822 279.255 276.455 278.606 267.665 277.737C251.55 276.146 236.168 270.909 221.908 266.055C220.598 265.609 219.297 265.166 218.006 264.73C202.536 259.5 192.3 250.346 183.641 242.335C179.248 238.27 176.076 232.792 173.294 227.794C173.102 227.45 172.912 227.108 172.724 226.769C171.541 224.636 170.421 222.619 169.289 220.844C167.978 218.787 166.674 217.098 165.278 215.958C163.853 214.84 161.283 213.887 158.104 213.084C154.945 212.286 151.259 211.653 147.669 211.14C144.394 210.672 141.209 210.305 138.584 210.003C138.332 209.974 138.086 209.945 137.845 209.918C136.47 209.759 135.273 209.618 134.338 209.489C133.421 209.364 132.705 209.243 132.328 209.118L132.644 208.169C132.916 208.26 133.532 208.369 134.474 208.499C135.396 208.626 136.583 208.765 137.959 208.924C138.201 208.952 138.447 208.981 138.699 209.01C141.323 209.312 144.521 209.68 147.811 210.15C151.414 210.665 155.14 211.303 158.349 212.114C161.537 212.92 164.294 213.913 165.899 215.175L165.906 215.18C167.429 216.421 168.802 218.22 170.133 220.306C171.282 222.109 172.418 224.157 173.6 226.287C173.788 226.625 173.977 226.966 174.168 227.307C176.957 232.318 180.06 237.659 184.32 241.601C192.97 249.603 203.073 258.626 218.327 263.783C219.615 264.218 220.912 264.66 222.218 265.104C236.495 269.964 251.769 275.162 267.763 276.742C276.498 277.605 302.815 278.254 329.001 278.363C342.088 278.417 355.133 278.336 365.918 278.079C376.716 277.822 385.214 277.389 389.231 276.746C393.629 276.042 400.562 275.194 408.551 274.217C415.307 273.39 422.818 272.472 430.19 271.47C438.246 270.375 446.146 269.179 452.745 267.894C459.364 266.604 464.611 265.235 467.407 263.811C473.104 260.908 480.703 255.897 487.393 250.636C490.736 248.007 493.844 245.322 496.369 242.813C498.899 240.3 500.815 237.991 501.807 236.113C503.731 232.263 505.883 225.653 507.56 219.865C508.396 216.976 509.112 214.304 509.617 212.301C509.87 211.299 510.07 210.467 510.207 209.86C510.275 209.556 510.327 209.311 510.361 209.131C510.394 208.96 510.404 208.881 510.406 208.863C510.407 208.86 510.407 208.859 510.407 208.86C510.407 208.695 510.475 208.566 510.518 208.498C510.567 208.42 510.628 208.35 510.686 208.289C510.803 208.168 510.959 208.038 511.136 207.905C511.492 207.636 511.99 207.31 512.572 206.953C513.74 206.236 515.291 205.365 516.834 204.525C518.379 203.685 519.924 202.872 521.082 202.269C521.661 201.968 522.143 201.719 522.481 201.545C522.65 201.459 522.783 201.391 522.873 201.344L523.004 201.278L523.01 201.274L523.012 201.273C523.012 201.273 523.013 201.273 523.24 201.719L523.012 201.273L523.12 201.219Z" fill="#564E44" fill-opacity="0.22"/>
<path fill-rule="evenodd" clip-rule="evenodd" d="M71.3572 131.079C71.4133 130.876 71.5054 130.649 71.6795 130.478L72.3817 131.19C72.3826 131.189 72.3831 131.188 72.3831 131.188C72.3835 131.188 72.3545 131.225 72.3212 131.346C72.2861 131.472 72.2581 131.648 72.238 131.879C72.1991 132.326 72.195 132.902 72.1901 133.595L72.1895 133.678C72.1791 135.116 72.1594 136.971 71.7759 138.82C71.3917 140.672 70.6353 142.558 69.1241 144.037C67.6066 145.523 65.3773 146.551 62.1412 146.775C51.4613 147.514 46.4109 145.597 39.3204 142.905C37.9813 142.397 36.5694 141.86 35.033 141.309C32.9456 140.561 31.2519 139.851 29.9142 139.291C29.6879 139.196 29.4718 139.106 29.2656 139.02C28.5497 138.722 27.9644 138.487 27.4876 138.327C26.9997 138.163 26.6786 138.099 26.4747 138.103C26.38 138.105 26.338 138.123 26.3239 138.13C26.3162 138.134 26.3059 138.14 26.2909 138.168C26.2457 138.254 26.1995 138.468 26.241 138.928C26.3223 139.829 26.6929 141.288 27.3041 143.535C28.3687 147.449 29.4294 155.073 30.5378 163.04C30.7034 164.232 30.8702 165.43 31.0382 166.625C31.686 171.234 32.3534 175.8 33.0511 179.702C33.751 183.616 34.4745 186.819 35.2259 188.724C36.7726 192.647 39.3663 199.723 41.5712 205.812C42.6741 208.858 43.6804 211.659 44.4111 213.698C44.7764 214.718 45.0728 215.547 45.2779 216.122L45.4783 216.684H48.6542V217.684H44.773L44.6547 217.351L45.1257 217.184C44.6547 217.351 44.6547 217.352 44.6547 217.351L44.3361 216.458C44.1311 215.884 43.8349 215.055 43.4697 214.035C42.7393 211.997 41.7333 209.197 40.6309 206.152C38.4251 200.061 35.8363 192.999 34.2956 189.091C33.5032 187.082 32.7658 183.787 32.0667 179.878C31.3654 175.956 30.6958 171.373 30.0479 166.765C29.8795 165.566 29.7126 164.367 29.547 163.177C28.4356 155.19 27.3854 147.644 26.3391 143.798C25.7374 141.586 25.3361 140.027 25.2451 139.018C25.2005 138.523 25.218 138.059 25.4063 137.702C25.508 137.509 25.6569 137.352 25.8532 137.248C26.0432 137.146 26.2502 137.108 26.4518 137.104C26.8405 137.095 27.3016 137.21 27.8053 137.379C28.32 137.551 28.9356 137.8 29.6497 138.097C29.8582 138.183 30.076 138.275 30.3033 138.37C31.641 138.93 33.3097 139.629 35.3706 140.368C36.928 140.927 38.352 141.467 39.6963 141.977C46.7558 144.656 51.6191 146.501 62.0722 145.778C65.1212 145.567 67.1096 144.61 68.4245 143.323C69.7458 142.029 70.4366 140.353 70.7967 138.617C71.1575 136.877 71.1791 135.115 71.1895 133.671L71.1903 133.563C71.1949 132.894 71.1992 132.281 71.2418 131.793C71.2642 131.535 71.2989 131.291 71.3572 131.079Z" fill="#564E44" fill-opacity="0.22"/>
</svg>
