<svg width="212" height="300" viewBox="0 0 212 300" fill="none" xmlns="http://www.w3.org/2000/svg">
<g clip-path="url(#clip0_53_345)">
<path d="M183.09 81.3809C178.518 81.3809 174.846 77.7107 174.846 73.1416C174.846 68.5726 178.518 64.9023 183.09 64.9023C187.661 64.9023 191.334 68.5726 191.334 73.1416C191.334 77.7107 187.586 81.3809 183.09 81.3809ZM183.09 66.4004C179.342 66.4004 176.345 69.3965 176.345 73.1416C176.345 76.8868 179.342 79.8829 183.09 79.8829C186.837 79.8829 189.835 76.8868 189.835 73.1416C189.835 69.3965 186.762 66.4004 183.09 66.4004Z" fill="#564E44" fill-opacity="0.22"/>
<path d="M123.135 81.3809C118.563 81.3809 114.891 77.7107 114.891 73.1416C114.891 68.5726 118.563 64.9023 123.135 64.9023C127.706 64.9023 131.379 68.5726 131.379 73.1416C131.379 77.7107 127.631 81.3809 123.135 81.3809ZM123.135 66.4004C119.387 66.4004 116.39 69.3965 116.39 73.1416C116.39 76.8868 119.387 79.8829 123.135 79.8829C126.882 79.8829 129.88 76.8868 129.88 73.1416C129.88 69.3965 126.807 66.4004 123.135 66.4004Z" fill="#564E44" fill-opacity="0.22"/>
<path d="M153.112 288.113C151.238 288.113 149.439 287.439 147.94 286.315C144.718 283.768 141.645 281.371 138.647 279.049C120.436 264.893 107.32 254.706 107.32 238.752C107.32 223.621 119.162 211.712 134.3 211.712C141.495 211.712 147.94 214.408 153.037 219.502C158.133 214.408 164.578 211.712 171.773 211.712C186.912 211.712 198.753 223.547 198.753 238.752C198.753 254.931 185.038 265.567 167.576 278.975C164.503 281.371 161.356 283.768 158.133 286.315C156.784 287.513 154.985 288.113 153.112 288.113ZM161.955 282.42C160.606 283.469 159.182 284.592 157.758 285.716C157.234 286.165 156.559 286.54 155.885 286.764C156.559 286.465 157.159 286.165 157.758 285.716C159.182 284.592 160.606 283.544 161.955 282.42ZM134.375 213.21C120.061 213.21 108.894 224.445 108.894 238.752C108.894 253.957 121.785 263.994 139.547 277.851L139.622 277.926C142.619 280.248 145.692 282.645 148.84 285.191C150.039 286.165 151.538 286.69 153.037 286.69C154.536 286.69 156.035 286.165 157.234 285.191C160.456 282.645 163.604 280.173 166.602 277.851L166.677 277.776C183.764 264.593 197.254 254.182 197.254 238.752C197.254 224.445 186.087 213.21 171.773 213.21C164.803 213.21 158.508 215.906 153.561 221.075L153.262 221.374C153.112 221.524 152.887 221.524 152.737 221.374L152.437 221.075C147.641 215.906 141.345 213.21 134.375 213.21ZM140.896 279.798C143.369 281.746 145.842 283.693 148.39 285.716C148.615 285.866 148.84 286.09 149.065 286.24C148.84 286.09 148.615 285.941 148.39 285.716C145.842 283.693 143.294 281.746 140.896 279.798ZM108.145 238.752C108.145 253.358 119.536 263.17 135.724 275.829C119.461 263.095 108.145 253.358 108.145 238.752ZM198.079 238.902C198.079 239.501 198.079 240.025 198.004 240.549C198.004 240.025 198.079 239.501 198.079 238.902ZM150.713 218.378C151.538 219.052 152.362 219.801 153.112 220.625C153.411 220.326 153.711 219.951 154.086 219.652C153.861 219.876 153.636 220.101 153.411 220.326C153.262 220.476 153.037 220.476 152.887 220.326C152.137 219.577 151.463 218.977 150.713 218.378Z" fill="#564E44" fill-opacity="0.22"/>
<path d="M75.7702 66.2508C75.3206 66.2508 74.8709 66.2508 74.4962 66.1759C63.3294 64.3783 54.9355 54.4911 54.9355 43.1808C54.9355 30.3724 65.3529 19.9609 78.1685 19.9609C88.2111 19.9609 95.2559 26.103 98.4785 31.8705C99.7526 34.1925 99.9025 36.889 98.7783 39.2858C98.7034 39.3607 98.6284 39.4356 98.5535 39.5105C98.4785 39.5105 98.3286 39.5105 98.2537 39.4356C98.0289 39.2858 97.879 39.136 97.6541 38.9862C97.5042 38.9113 97.5042 38.6866 97.5042 38.5368C98.3286 36.5893 98.1787 34.4921 97.2045 32.6195C94.2067 27.2265 87.6115 21.459 78.1685 21.459C66.1773 21.459 56.4344 31.1963 56.4344 43.1808C56.4344 53.7421 64.3037 62.9551 74.721 64.603C76.07 64.8277 77.494 64.603 78.768 64.0037C78.9179 63.9288 79.1427 64.0037 79.2926 64.1535C79.4425 64.3783 79.5175 64.603 79.6674 64.7528C79.7423 64.8277 79.7423 64.9775 79.7423 65.0524C79.7423 65.1273 79.6674 65.2771 79.5175 65.2771C78.3184 65.9512 76.9693 66.2508 75.7702 66.2508ZM74.8709 65.4269C75.6203 65.5018 76.2948 65.5018 77.0443 65.352C76.2948 65.5018 75.5454 65.5018 74.8709 65.4269ZM78.6931 64.8277C78.6181 64.8277 78.5432 64.9026 78.5432 64.9026C78.6181 64.9026 78.6931 64.9026 78.6931 64.8277ZM97.804 32.245C98.6284 33.6681 98.9282 35.316 98.7034 36.9639C98.9282 35.3909 98.6284 33.743 97.804 32.245ZM78.9179 20.71C78.9929 20.71 78.9929 20.71 79.0678 20.71C78.9929 20.71 78.9179 20.71 78.9179 20.71Z" fill="#564E44" fill-opacity="0.22"/>
<path d="M230.456 66.251C227.308 66.251 224.46 64.4533 223.036 61.607C222.961 61.5321 222.961 61.3823 223.036 61.3074C223.036 61.2325 223.111 61.1576 223.261 61.0827C223.486 61.0078 223.71 60.858 223.935 60.7831C224.01 60.7082 224.16 60.7082 224.235 60.7831C224.31 60.7831 224.385 60.858 224.46 61.0078C225.809 63.7043 228.657 65.2024 231.58 64.678C241.997 63.0302 249.866 53.8171 249.866 43.2559C249.866 31.2714 240.123 21.5341 228.132 21.5341C218.689 21.5341 212.169 27.3016 209.096 32.6946C208.197 34.2675 207.972 36.0652 208.497 37.788C208.871 39.2111 209.771 40.4845 210.97 41.3833C211.045 41.4582 211.12 41.5331 211.12 41.6829C211.12 41.7578 211.12 41.9076 210.97 41.9825C210.82 42.1323 210.595 42.357 210.52 42.5068C210.37 42.6566 210.145 42.6566 209.996 42.5817C206.698 40.1099 205.724 35.5409 207.747 31.9455C210.97 26.178 218.015 20.036 228.057 20.036C240.873 20.036 251.29 30.4475 251.29 43.2559C251.29 54.5662 242.896 64.4533 231.73 66.1761C231.28 66.1761 230.83 66.251 230.456 66.251ZM231.43 65.4271C231.13 65.502 230.755 65.502 230.456 65.502C230.83 65.502 231.13 65.4271 231.43 65.4271ZM209.696 30.1479C209.171 30.822 208.722 31.4961 208.347 32.2452C208.796 31.571 209.171 30.8969 209.696 30.1479Z" fill="#564E44" fill-opacity="0.22"/>
<path d="M160.232 170.965C160.157 170.965 160.082 170.965 160.007 170.891C159.933 170.816 159.858 170.741 159.858 170.591V139.057C159.858 138.907 159.933 138.757 160.082 138.682L160.307 138.607C169.001 135.536 174.772 127.297 174.772 118.159C174.772 106.175 165.029 96.4372 153.038 96.4372C141.046 96.4372 131.304 106.175 131.304 118.159C131.304 127.297 137.149 135.536 145.768 138.607L145.993 138.682C146.143 138.757 146.218 138.907 146.218 139.057V170.591C146.218 170.666 146.143 170.816 146.068 170.891C145.993 170.965 145.918 170.965 145.768 170.965L145.393 170.891C145.243 170.891 145.093 170.891 144.944 170.816L144.569 170.741C144.494 170.741 144.344 170.666 144.344 170.591C144.269 170.516 144.269 170.441 144.269 170.291C144.269 170.067 144.344 169.842 144.344 169.617C144.344 169.542 144.419 169.392 144.494 169.318C144.569 169.243 144.644 169.243 144.794 169.243V139.806C135.8 136.36 129.805 127.672 129.805 118.084C129.805 105.276 140.222 94.8643 153.038 94.8643C165.853 94.8643 176.271 105.276 176.271 118.084C176.271 127.672 170.275 136.36 161.282 139.806V169.318C161.356 169.318 161.506 169.318 161.581 169.243L161.956 169.168C162.031 169.168 162.181 169.168 162.256 169.243C162.331 169.318 162.406 169.392 162.406 169.542C162.406 169.767 162.406 169.992 162.406 170.216C162.406 170.441 162.256 170.591 162.106 170.591L161.656 170.666C161.282 170.741 160.982 170.741 160.607 170.816L160.232 170.965ZM145.243 170.141C145.393 170.141 145.468 170.142 145.618 170.216V139.356C145.543 139.356 145.468 139.282 145.393 139.282C145.543 139.356 145.618 139.506 145.618 139.656V169.767C145.618 169.842 145.543 169.992 145.468 170.067C145.393 170.067 145.318 170.067 145.243 170.141ZM160.607 169.767V170.216C160.757 170.216 160.832 170.216 160.982 170.141C160.907 170.141 160.832 170.141 160.757 170.067C160.607 169.917 160.607 169.842 160.607 169.767ZM160.607 139.282V139.581C160.607 139.431 160.682 139.282 160.832 139.207C160.757 139.207 160.682 139.282 160.607 139.282ZM153.113 95.6133C140.747 95.6133 130.629 105.725 130.629 118.084C130.629 105.725 140.672 95.6133 153.113 95.6133Z" fill="#564E44" fill-opacity="0.22"/>
<path d="M153.113 126.323C148.541 126.323 144.869 122.653 144.869 118.084C144.869 113.515 148.541 109.845 153.113 109.845C157.685 109.845 161.357 113.515 161.357 118.084C161.357 122.653 157.61 126.323 153.113 126.323ZM145.619 118.084C145.619 122.204 148.991 125.574 153.113 125.574C148.916 125.574 145.619 122.204 145.619 118.084ZM153.113 111.343C149.366 111.343 146.368 114.339 146.368 118.084C146.368 121.829 149.366 124.825 153.113 124.825C156.86 124.825 159.858 121.829 159.858 118.084C159.858 114.339 156.785 111.343 153.113 111.343Z" fill="#564E44" fill-opacity="0.22"/>
<path d="M235.103 375C220.863 375 207.523 369.457 197.481 359.42C192.909 354.851 189.237 349.458 186.539 343.541C176.121 346.537 164.88 348.035 153.113 348.035C141.347 348.035 130.105 346.537 119.688 343.541C117.065 349.458 113.392 354.776 108.746 359.42C98.7032 369.457 85.363 375 71.1235 375C56.884 375 43.5438 369.457 33.5012 359.42C23.1588 349.084 13.9405 331.482 9.89351 314.553C5.09704 294.48 7.87 278.076 17.6128 268.339C26.0067 259.949 39.0471 256.654 55.3101 258.976C54.6356 250.137 54.9354 241.299 56.2844 232.61L48.0405 236.73C43.244 239.126 37.848 240.4 32.5269 240.4C20.4607 240.4 9.59373 234.258 4.12276 224.371C-4.49591 208.941 0.975073 189.241 16.2638 180.553C17.2381 180.028 18.6621 179.204 20.4607 178.156C29.604 172.763 51.0383 160.329 81.6907 151.415C69.2499 135.536 62.4299 115.687 62.4299 95.6128C62.4299 95.0885 62.4299 94.5642 62.4299 93.965C51.6378 90.5944 42.3446 84.0778 35.5247 75.0146C28.5548 65.8016 24.9574 54.7909 24.9574 43.1809C24.9574 13.8191 48.8649 -10 78.1683 -10C94.7311 -10 110.544 -2.13521 120.512 10.9728C130.855 7.00292 141.797 4.98055 153.113 4.98055C164.355 4.98055 175.297 7.00292 185.714 10.9728C195.757 -2.21012 211.57 -10 228.058 -10C257.436 -10 281.269 13.894 281.269 43.1809C281.269 54.7909 277.597 65.8016 270.627 75.0146C263.807 84.0778 254.514 90.6693 243.722 93.965C243.722 94.4893 243.722 95.0136 243.722 95.6128C243.722 115.687 236.902 135.536 224.461 151.415C255.038 160.254 276.098 172.538 285.091 177.781C286.89 178.83 288.164 179.579 289.063 180.028C304.727 189.017 310.497 208.566 302.104 224.595C294.309 239.576 275.123 246.092 258.411 239.426L250.392 236.205C251.291 243.621 251.441 251.261 250.841 258.901C267.104 256.654 280.145 259.875 288.539 268.264C298.356 278.076 301.054 294.48 296.258 314.553C292.211 331.482 282.918 349.084 272.65 359.345C262.683 369.457 249.342 375 235.103 375ZM187.138 341.893C187.288 341.893 187.438 341.968 187.513 342.118L187.663 342.417C190.286 348.41 193.958 353.803 198.53 358.447C208.273 368.184 221.238 373.577 235.103 373.577C248.968 373.577 261.933 368.184 271.676 358.447C281.794 348.335 290.862 331.032 294.909 314.329C299.63 294.779 297.007 278.825 287.564 269.462C279.32 261.223 266.43 258.227 250.242 260.624L249.792 260.698C249.642 260.698 249.567 260.698 249.492 260.624C249.417 260.549 249.342 260.399 249.342 260.324L249.417 259.875C250.167 251.635 249.942 243.396 248.893 235.306L248.818 234.707C248.818 234.557 248.818 234.408 248.968 234.333C249.043 234.258 249.193 234.258 249.342 234.258L259.16 238.153C275.123 244.519 293.485 238.303 300.905 223.996C308.849 208.641 303.378 189.99 288.464 181.451C287.564 181.002 286.29 180.253 284.492 179.204C275.423 173.886 254.064 161.452 223.112 152.689L222.587 152.539C222.437 152.539 222.362 152.389 222.362 152.314C222.287 152.164 222.362 152.089 222.437 151.94L222.812 151.49C235.478 135.686 242.447 115.837 242.447 95.6878C242.447 94.9387 242.447 94.2646 242.447 93.5156V93.216C242.447 93.0662 242.522 92.9163 242.747 92.8414L243.047 92.7665C264.781 86.25 279.995 65.8765 279.995 43.1809C279.995 14.7179 256.762 -8.50195 228.283 -8.50195C212.02 -8.50195 196.506 -0.712062 186.763 12.321L186.614 12.5457C186.539 12.6955 186.314 12.6955 186.164 12.6955L185.864 12.6206C175.522 8.57588 164.58 6.4786 153.338 6.4786C142.096 6.4786 131.079 8.57588 120.737 12.6206L120.437 12.6955C120.287 12.7704 120.137 12.6955 119.988 12.5457L119.838 12.321C109.945 -0.712062 94.4313 -8.50195 78.1683 -8.50195C49.6893 -8.50195 26.4563 14.7179 26.4563 43.1809C26.4563 65.8765 41.6701 86.25 63.4042 92.7665L63.7039 92.8414C63.8538 92.9163 64.0037 93.0662 64.0037 93.216V93.5156C64.0037 94.2646 64.0037 94.9387 64.0037 95.6878C64.0037 115.837 70.9736 135.686 83.6393 151.49L84.014 151.94C84.0889 152.015 84.0889 152.164 84.0889 152.314C84.0889 152.464 83.9391 152.539 83.8641 152.539L83.3395 152.689C52.2374 161.527 30.5783 174.186 21.3601 179.579C19.4115 180.702 18.0625 181.526 17.0882 181.976C2.39902 190.215 -2.77217 208.941 5.39682 223.697C13.266 237.778 32.0772 243.096 47.366 235.456L57.5585 230.363C57.7084 230.288 57.8582 230.288 57.9332 230.363C58.0831 230.438 58.0831 230.588 58.0831 230.737L57.9332 231.486C56.3593 240.774 55.9846 250.362 56.809 259.875L56.884 260.324C56.884 260.474 56.884 260.549 56.7341 260.624C56.6591 260.698 56.5092 260.773 56.4343 260.698L55.9846 260.624C39.7965 258.152 26.8311 261.148 18.6621 269.387C9.29395 278.75 6.67088 294.704 11.3175 314.179C15.2895 330.882 24.4328 348.26 34.5504 358.372C44.2932 368.109 57.2587 373.502 71.1235 373.502C84.9883 373.502 97.9538 368.109 107.697 358.372C112.343 353.728 115.941 348.41 118.564 342.417L118.713 342.118C118.788 341.968 119.013 341.893 119.163 341.893L119.463 341.968C129.955 345.039 141.272 346.537 153.113 346.537C164.954 346.537 176.271 344.964 186.763 341.968L187.063 341.893H187.138ZM113.018 353.353C111.519 355.301 109.945 357.173 108.146 358.971C107.247 359.87 106.423 360.694 105.448 361.443C106.348 360.619 107.247 359.795 108.146 358.971C109.945 357.173 111.594 355.301 113.018 353.353ZM289.738 331.706C285.241 341.968 279.32 351.481 272.95 358.072C279.32 351.481 285.316 341.968 289.738 331.706ZM153.038 347.286C153.113 347.286 153.113 347.286 153.188 347.286C153.113 347.286 153.038 347.286 153.038 347.286ZM154.987 347.286C154.912 347.286 154.912 347.286 154.987 347.286V347.286ZM119.463 342.792H119.538C126.882 344.889 134.677 346.312 142.771 346.911C134.602 346.237 126.733 344.889 119.238 342.717C119.163 342.792 119.163 342.942 119.088 343.017C119.163 342.867 119.313 342.792 119.463 342.792ZM186.913 342.717C180.318 344.664 173.348 345.938 166.079 346.687C173.198 346.013 180.018 344.664 186.539 342.792C186.689 342.717 186.913 342.792 186.988 343.017C187.363 343.915 187.813 344.814 188.262 345.713C187.888 344.739 187.363 343.691 186.913 342.717ZM289.888 270.885C294.684 276.728 297.382 284.518 297.832 293.731C297.382 284.443 294.684 276.653 289.888 270.885ZM55.6099 259.8C55.7598 259.8 55.9097 259.875 56.0596 259.875C56.0596 259.725 56.0596 259.575 55.9846 259.425C55.9846 259.5 55.9097 259.65 55.8347 259.725C55.8347 259.8 55.7598 259.8 55.6099 259.8ZM250.467 252.309C250.392 254.856 250.242 257.328 250.092 259.875C250.242 259.875 250.392 259.8 250.542 259.8C250.392 259.8 250.317 259.8 250.242 259.725C250.167 259.65 250.092 259.5 250.092 259.425C250.317 257.028 250.467 254.631 250.467 252.309ZM270.102 241.299C280.22 241.823 290.112 238.078 296.708 230.962C290.038 238.078 280.22 241.898 270.102 241.299ZM14.5401 234.408C19.1867 237.404 24.6577 239.201 30.4284 239.576C24.7326 239.276 19.1867 237.479 14.5401 234.408ZM249.567 235.157C249.792 236.58 249.942 238.078 250.017 239.501C249.867 238.228 249.792 237.029 249.642 235.831C249.642 235.681 249.717 235.606 249.792 235.456C249.867 235.381 250.017 235.381 250.167 235.381L249.567 235.157ZM57.1837 231.337L47.6657 236.055L56.5092 231.636C56.6591 231.561 56.809 231.561 56.884 231.636C57.0338 231.711 57.0338 231.861 57.0338 232.011C56.9589 232.685 56.809 233.284 56.7341 233.958C56.9589 233.059 57.0339 232.161 57.1837 231.337ZM3.37331 221.375C3.74803 222.273 4.1977 223.172 4.72232 224.071C4.1977 223.172 3.82298 222.273 3.37331 221.375ZM223.187 151.865C226.11 152.689 228.957 153.588 231.655 154.411C229.107 153.588 226.409 152.764 223.711 152.015C223.561 152.015 223.486 151.865 223.486 151.79C223.486 151.64 223.486 151.565 223.561 151.415C223.411 151.565 223.337 151.715 223.187 151.865ZM81.1661 149.543C81.6158 150.142 82.1404 150.816 82.5901 151.415C82.665 151.49 82.665 151.64 82.665 151.79C82.5901 151.94 82.5151 152.015 82.4402 152.015C82.5901 151.94 82.8149 151.94 82.9648 151.865C82.3652 151.116 81.7657 150.292 81.1661 149.543ZM242.972 93.4407C242.972 94.1148 242.972 94.714 242.972 95.3881C242.972 94.8638 242.972 94.2646 242.972 93.7403C242.972 93.5905 243.047 93.4407 243.197 93.3658C243.197 93.3658 243.047 93.4407 242.972 93.4407ZM62.8796 93.3658C63.0294 93.4407 63.1044 93.5905 63.1044 93.7403C63.1044 93.6654 63.1044 93.5905 63.1044 93.4407C63.1044 93.4407 63.0294 93.3658 62.8796 93.3658ZM280.519 43.1809C280.519 66.0263 265.381 86.5496 243.572 93.2909C254.214 89.9951 263.357 83.5535 270.027 74.6401C276.847 65.427 280.519 54.5661 280.519 43.1809ZM25.7069 43.1809C25.7069 54.5661 29.3042 65.427 36.1992 74.5652C42.8693 83.4786 51.9376 89.8453 62.5048 93.216C40.7708 86.3998 25.7069 65.9514 25.7069 43.1809ZM118.788 9.99903C119.313 10.5982 119.763 11.2724 120.287 11.8716C122.011 11.1975 123.735 10.5982 125.533 9.99903C123.885 10.5233 122.236 11.1226 120.587 11.7967C120.437 11.8716 120.287 11.7967 120.137 11.6469C119.688 11.1226 119.238 10.5233 118.788 9.99903ZM180.918 10.1488C182.567 10.6732 184.29 11.2724 185.939 11.9465C186.014 11.8716 186.014 11.7967 186.089 11.7218C186.014 11.8716 185.789 11.8716 185.639 11.8716C184.065 11.1975 182.492 10.5982 180.918 10.1488Z" fill="#564E44" fill-opacity="0.22"/>
<path d="M125.009 329.534H124.934L124.41 329.384C123.96 329.234 123.436 329.159 122.986 329.009L122.686 328.934C122.536 328.86 122.386 328.71 122.386 328.56L122.461 328.26C124.335 312.531 118.864 296.577 107.697 285.416C99.3033 277.027 85.7383 269.162 71.3488 264.443L71.124 264.368C70.9741 264.293 70.8992 264.219 70.8992 264.069V263.844C68.8757 248.789 70.2247 233.508 74.7214 219.577C80.9418 200.626 92.933 184.222 108.596 173.436L108.821 173.287C108.971 173.212 109.121 173.212 109.196 173.287L109.421 173.436C122.686 180.927 137.825 184.897 153.114 184.897C168.402 184.897 183.541 180.927 196.807 173.436L197.031 173.287C197.181 173.212 197.331 173.212 197.406 173.287L197.631 173.436C214.643 185.196 227.534 203.997 233.08 224.895C236.378 237.478 237.202 250.586 235.403 263.844V264.069C235.403 264.219 235.253 264.293 235.178 264.368L234.954 264.443C220.639 269.162 206.999 277.027 198.605 285.416C187.438 296.577 181.968 312.606 183.841 328.26L183.916 328.56C183.916 328.71 183.841 328.934 183.616 328.934L183.317 329.009C183.092 329.084 182.942 329.084 182.717 329.159L182.342 329.234C182.117 329.309 181.968 329.159 181.893 329.009C181.818 328.785 181.743 328.56 181.668 328.335C181.593 328.26 181.593 328.111 181.668 328.036C181.743 327.961 181.818 327.886 181.893 327.811L182.192 327.736H182.267C180.544 311.782 186.239 295.603 197.556 284.292C206.025 275.828 219.665 267.964 234.054 263.095C235.778 250.212 234.954 237.403 231.731 225.194C226.335 204.821 213.744 186.47 197.256 174.86C183.841 182.35 168.627 186.245 153.189 186.245C137.825 186.245 122.536 182.275 109.121 174.86C93.9073 185.496 82.2158 201.525 76.2203 219.951C71.7985 233.508 70.4495 248.414 72.3981 263.095C86.7875 267.889 100.427 275.828 108.821 284.218C120.138 295.528 125.834 311.707 124.11 327.661C124.41 327.736 124.71 327.811 125.084 327.886L125.684 328.036C125.834 328.036 125.909 328.185 125.909 328.26C125.909 328.335 125.909 328.485 125.909 328.56C125.759 328.785 125.684 329.009 125.534 329.159C125.309 329.459 125.159 329.534 125.009 329.534ZM123.136 328.26C123.211 328.26 123.286 328.335 123.436 328.335C123.286 328.26 123.211 328.111 123.211 327.961C123.211 327.886 123.211 327.811 123.211 327.736C123.211 327.886 123.211 328.036 123.136 328.26ZM182.942 327.961C182.942 328.111 182.867 328.26 182.717 328.335C182.792 328.335 182.867 328.26 182.942 328.26C183.017 328.111 183.017 328.036 182.942 327.961ZM234.654 263.395C234.654 263.544 234.504 263.619 234.429 263.694C233.754 263.919 233.005 264.144 232.33 264.443C233.08 264.144 233.904 263.919 234.654 263.619C234.579 263.544 234.579 263.47 234.654 263.395ZM71.5737 263.619C72.0983 263.769 72.6229 263.994 73.1475 264.144C72.6978 263.994 72.2482 263.844 71.7985 263.694C71.6486 263.619 71.5737 263.544 71.5737 263.395C71.5737 263.47 71.5737 263.544 71.5737 263.619ZM72.9976 228.415C70.8992 237.928 70.1497 247.965 70.9741 257.927C70.2247 247.965 70.8992 237.928 72.9976 228.415ZM199.13 175.384C215.018 187.144 227.084 205.12 232.33 225.044C234.504 233.284 235.553 241.748 235.553 250.362C235.628 241.748 234.504 233.284 232.33 225.044C227.009 205.045 215.018 187.069 199.13 175.384ZM108.971 173.961C94.9565 183.623 83.8646 197.855 77.3444 214.408C83.8646 198.005 94.8815 183.848 108.821 174.111C108.971 174.036 109.121 174.036 109.196 174.111C109.121 174.036 109.046 174.036 108.971 173.961ZM153.039 185.496C153.114 185.496 153.114 185.496 153.189 185.496C153.114 185.496 153.039 185.496 153.039 185.496ZM197.181 174.036C197.106 174.036 197.106 174.036 197.031 174.111C197.031 174.036 197.106 174.036 197.181 174.036Z" fill="#564E44" fill-opacity="0.22"/>
<path d="M235.102 360.02C224.909 360.02 215.316 356.05 208.047 348.859C203.25 344.066 199.803 338.073 198.079 331.557C194.631 318.449 198.454 304.367 208.047 294.78C215.391 287.439 229.406 279.874 242.821 275.979C252.114 273.283 269.127 270.062 277.97 278.9C291.61 292.533 277.82 333.055 262.082 348.784C254.887 356.05 245.294 360.02 235.102 360.02ZM232.778 359.196C233.528 359.271 234.352 359.271 235.102 359.271C234.277 359.271 233.528 359.271 232.778 359.196ZM237.65 359.196C236.825 359.271 236.001 359.271 235.102 359.271C235.926 359.271 236.825 359.271 237.65 359.196ZM260.808 274.631C243.346 274.631 219.138 285.866 209.096 295.828C199.878 305.041 196.205 318.524 199.578 331.107C201.227 337.399 204.524 343.092 209.096 347.736C215.991 354.627 225.209 358.447 235.027 358.447C244.845 358.447 254.063 354.627 260.958 347.736C276.321 332.381 289.961 293.057 276.846 279.949C273.399 276.428 268.003 274.631 260.808 274.631ZM202.126 303.993C199.278 309.311 197.704 315.303 197.554 321.295C197.704 315.228 199.278 309.311 202.126 303.993ZM260.808 273.882C254.288 273.882 247.692 275.38 243.046 276.728C229.931 280.548 216.291 287.889 208.871 295.079C219.213 284.967 242.896 273.882 260.808 273.882C268.003 273.957 273.548 275.754 277.221 279.275C273.024 275.23 266.953 273.882 260.808 273.882Z" fill="#564E44" fill-opacity="0.22"/>
<path d="M71.123 360.02C60.9305 360.02 51.3376 356.05 44.0679 348.859C28.3295 333.13 14.5396 292.607 28.1796 278.9C37.3978 269.687 57.2582 274.256 63.1039 275.904C76.669 279.649 90.3839 287.064 98.1032 294.779C113.017 309.685 113.017 333.879 98.1032 348.784C90.9085 356.05 81.3155 360.02 71.123 360.02ZM97.1289 348.784C89.9342 355.75 80.5661 359.271 71.2729 359.271C81.0158 359.196 90.159 355.526 97.1289 348.784ZM45.1921 348.934C52.162 355.601 61.2303 359.271 70.8982 359.346C61.605 359.196 52.3868 355.75 45.1921 348.934ZM45.4169 274.78C39.3464 274.78 33.2009 275.979 29.2288 279.949C16.1135 293.057 29.7535 332.381 45.1172 347.736C59.4316 362.042 82.7395 362.042 97.054 347.736C111.368 333.429 111.368 310.135 97.054 295.828C89.5595 288.338 76.2193 281.147 63.029 277.402H62.954L62.6543 277.327C59.5815 276.503 52.6116 274.78 45.4169 274.78ZM25.1069 285.117C20.91 295.828 24.4324 313.056 31.1774 327.737C24.4324 313.131 20.91 295.828 25.1069 285.117ZM65.802 277.477C77.7182 281.222 89.4845 287.664 96.6792 294.405C89.4845 287.664 77.7182 281.297 65.802 277.477ZM63.1039 276.728C63.1039 276.728 63.029 276.728 62.954 276.653L63.1039 276.728Z" fill="#564E44" fill-opacity="0.22"/>
</g>
<defs>
<clipPath id="clip0_53_345">
<rect width="306" height="385" fill="white" transform="translate(0 -10)"/>
</clipPath>
</defs>
</svg>
