<svg width="212" height="300" viewBox="0 0 212 300" fill="none" xmlns="http://www.w3.org/2000/svg">
<g clip-path="url(#clip0_53_375)">
<path d="M204.033 119.395C203.949 119.395 203.865 119.395 203.781 119.311C203.697 119.227 203.613 119.143 203.613 118.974V115.939C203.613 115.77 203.781 115.601 203.949 115.517C204.202 115.433 204.454 115.348 204.706 115.264C204.874 115.18 204.958 115.264 205.126 115.264C205.21 115.348 205.294 115.433 205.294 115.601V117.456C211.344 116.107 215.63 110.711 215.63 104.472C215.63 98.2328 211.344 92.9211 205.294 91.5721V96.2093C205.294 96.4622 205.126 96.6309 204.874 96.6309C204.622 96.6309 204.37 96.6309 204.117 96.6309C204.033 96.6309 203.865 96.6309 203.781 96.5466C203.697 96.4623 203.613 96.3779 203.613 96.2093V90.0544C203.613 89.9701 203.697 89.8015 203.781 89.7172C203.865 89.6329 204.033 89.6329 204.117 89.6329L204.622 89.7172C212.017 90.8133 217.311 97.0524 217.311 104.472C217.311 111.807 211.849 118.215 204.538 119.227L204.033 119.395ZM204.454 117.962V118.468C204.622 118.468 204.79 118.384 204.958 118.384C204.874 118.384 204.706 118.384 204.622 118.299C204.538 118.215 204.454 118.131 204.454 117.962ZM204.958 90.6446C211.681 91.9093 216.554 97.727 216.554 104.472C216.554 97.474 211.512 91.5721 204.538 90.5603V91.0662C204.538 90.9819 204.622 90.8133 204.706 90.7289C204.79 90.6446 204.874 90.6446 204.958 90.6446Z" fill="#564E44" fill-opacity="0.22"/>
<path d="M1.59669 408C1.42862 408 1.26055 407.916 1.17652 407.747C0.336184 405.724 -0.0839844 403.616 -0.0839844 401.424V267.956C-0.0839844 230.183 32.1849 216.44 33.5295 215.934C83.1093 195.109 101.933 187.183 107.899 184.654V170.911C95.6303 161.468 87.311 147.303 85.1261 131.958C70.9244 130.778 59.832 118.805 59.832 104.472C59.832 97.9799 62.1009 91.6564 66.3026 86.6819V63.7487C66.4706 20.3273 101.681 -15 144.958 -15C188.235 -15 223.445 20.3273 223.529 63.7487V86.6819C227.731 91.6564 230 97.8956 230 104.472C230 112.819 226.303 120.66 219.748 125.972C215.378 129.513 210.252 131.537 204.706 131.958C202.521 147.219 194.202 161.383 181.933 170.827V184.654L256.387 215.934C257.815 216.524 289.916 230.183 289.916 267.956V320.146C289.916 322.759 288.487 325.12 286.303 326.385C286.135 326.469 286.05 326.469 285.882 326.385C285.714 326.3 285.63 326.216 285.63 326.047C285.63 325.71 285.546 325.457 285.546 325.204C285.546 325.036 285.63 324.867 285.714 324.783C287.311 323.771 288.235 322.085 288.235 320.146V267.956C288.235 231.279 257.059 218.042 255.714 217.452L180.42 185.834C180.252 185.75 180.168 185.581 180.168 185.413V170.152C180.168 169.983 180.252 169.899 180.336 169.815L180.504 169.646C192.773 160.287 201.008 146.207 203.025 130.946L203.109 130.609C203.109 130.44 203.277 130.272 203.529 130.272H203.866C209.244 129.935 214.37 127.995 218.656 124.539C224.79 119.564 228.235 112.229 228.235 104.388C228.235 98.1485 226.05 92.1622 222.017 87.525L221.933 87.4407C221.849 87.3564 221.849 87.2721 221.849 87.1878V63.7487C221.849 21.2547 187.395 -13.3137 145.042 -13.3137C102.689 -13.3137 68.2353 21.2547 68.2353 63.7487V87.1878C68.2353 87.2721 68.2353 87.3564 68.1513 87.4407L68.0673 87.525C64.0337 92.2466 61.8488 98.2328 61.8488 104.388C61.8488 118.131 72.5211 129.513 86.2185 130.272H86.5547C86.7227 130.272 86.8908 130.44 86.9748 130.609L87.0589 130.946C89.0757 146.207 97.311 160.372 109.58 169.646L109.748 169.815C109.832 169.899 109.916 169.983 109.916 170.152V185.413C109.916 185.581 109.832 185.75 109.664 185.834L109.076 186.087C103.277 188.532 84.5379 196.458 34.4538 217.452C32.9412 218.042 1.68072 231.364 1.68072 267.956V401.339C1.68072 403.363 2.10089 405.302 2.85719 407.157C2.94123 407.241 2.85719 407.41 2.85719 407.494C2.77316 407.578 2.68912 407.663 2.52106 407.663C2.26896 407.663 2.01686 407.747 1.76476 407.831C1.68072 408 1.68072 408 1.59669 408ZM256.975 217.115C262.101 219.475 288.656 233.387 289.16 266.944C288.656 233.303 262.101 219.475 256.975 217.115ZM107.143 169.14C107.647 169.562 108.151 169.983 108.656 170.321C108.74 170.405 108.824 170.489 108.824 170.658V184.907C108.824 185.076 108.74 185.244 108.571 185.328C102.773 187.774 84.1177 195.615 33.9496 216.693C83.9496 195.699 102.773 187.774 108.571 185.328L108.908 185.16V170.405C108.235 170.068 107.731 169.646 107.143 169.14ZM181.092 185.244L181.345 185.328C181.177 185.244 181.092 185.16 181.092 184.991V185.244ZM181.092 170.489V170.658C181.092 170.574 181.177 170.405 181.261 170.321C181.177 170.405 181.177 170.489 181.092 170.489ZM203.95 131.199C203.866 132.042 203.698 132.886 203.529 133.644C203.613 132.97 203.782 132.211 203.866 131.537C203.866 131.368 204.034 131.199 204.286 131.199C205.042 131.115 205.798 131.031 206.555 130.946C205.714 131.031 204.874 131.199 203.95 131.199ZM85.6303 131.199C85.7984 131.199 85.9664 131.368 85.9664 131.537C86.0505 131.958 86.0505 132.38 86.1345 132.801C86.0505 132.295 85.9664 131.79 85.8824 131.199C85.8824 131.199 85.7984 131.199 85.6303 131.199ZM220.336 124.37C220 124.707 219.58 125.044 219.16 125.382C219.58 124.96 219.916 124.707 220.336 124.37ZM67.311 63.7487V86.8505C67.311 86.9348 67.311 87.0191 67.2269 87.1034C66.8068 87.6093 66.3866 88.1995 65.9664 88.7054C66.3866 88.1152 66.8908 87.525 67.311 87.0191V63.7487ZM222.689 87.0191L222.773 87.1034C222.689 87.0191 222.689 86.9348 222.689 86.8505V87.0191Z" fill="#564E44" fill-opacity="0.22"/>
<path d="M79.4963 79.8524C79.4123 79.8524 79.3283 79.8524 79.2442 79.7681C79.1602 79.6838 79.0762 79.5995 79.0762 79.4308V73.1916C79.0762 73.023 79.1602 72.8544 79.4123 72.7701C79.6644 72.6858 79.9165 72.6015 80.1686 72.5171C80.3367 72.4328 80.4207 72.4328 80.5888 72.5171C80.6728 72.6015 80.7568 72.7701 80.7568 72.8544V77.7446C82.1854 77.4073 83.698 77.1544 85.2106 76.9857C86.8913 71.7583 92.0173 68.2172 97.5636 68.6387C121.933 70.4093 148.32 63.2427 170.001 49.078C174.874 45.8741 181.345 46.6329 185.379 50.9329C185.379 50.9329 185.547 51.1859 187.059 52.7878L202.185 69.1446C203.53 70.5779 204.454 71.4211 204.875 74.2877C205.043 75.0465 205.127 75.974 205.211 76.9857C205.715 77.0701 206.219 77.0701 206.723 77.1544C206.891 77.1544 207.059 77.323 207.059 77.5759C207.059 77.8289 207.059 77.9975 207.059 78.2504V78.4191C207.059 78.5034 206.975 78.672 206.891 78.7563C206.807 78.8406 206.639 78.8406 206.555 78.8406C205.715 78.672 204.959 78.5877 204.286 78.5877H203.95C203.698 78.5877 203.53 78.4191 203.53 78.1661V77.8289C203.446 76.4799 203.362 75.4681 203.194 74.5407C202.858 72.1799 202.269 71.5897 200.925 70.2407C200.925 70.2407 200.925 70.2407 192.522 61.1348L184.118 52.029C180.673 48.3192 175.127 47.6447 170.925 50.427C148.908 64.8446 122.185 72.0956 97.3955 70.2407C92.4375 69.9034 87.9837 73.1073 86.6392 77.9132L86.5552 78.1661C86.4711 78.3348 86.3871 78.5034 86.135 78.5034H85.7989C83.8661 78.5877 81.9333 78.925 80.0005 79.5151L79.4963 79.6838C79.5804 79.8524 79.4963 79.8524 79.4963 79.8524ZM79.9165 78.3348V78.925C80.0846 78.8406 80.2526 78.8406 80.4207 78.7563C80.3367 78.7563 80.1686 78.7563 80.0846 78.672C79.9165 78.5877 79.9165 78.4191 79.9165 78.3348ZM204.454 77.8289C205.043 77.9132 205.631 77.9132 206.303 77.9975C205.799 77.9132 205.295 77.8289 204.79 77.8289C204.622 77.8289 204.454 77.6602 204.37 77.4916C204.37 77.5759 204.454 77.6602 204.454 77.8289ZM85.9669 77.4916C85.8829 77.6602 85.7989 77.7446 85.6308 77.7446C85.7148 77.7446 85.7989 77.7446 85.8829 77.7446C85.8829 77.7446 85.8829 77.6602 85.9669 77.4916ZM202.606 70.9152C203.278 71.7583 203.698 72.6858 204.034 74.4563C203.782 72.6858 203.362 71.7583 202.606 70.9152ZM98.8241 69.6505C121.009 70.9995 144.79 65.0133 165.127 53.1251C144.79 65.0133 121.009 70.9152 98.8241 69.6505ZM183.698 50.5957C184.034 50.9329 184.37 51.1859 184.706 51.6074L193.11 60.7133C195.211 62.9897 196.807 64.676 197.984 66.025L193.11 60.7133C184.875 51.8604 184.706 51.6074 184.706 51.6074C184.454 51.1859 184.034 50.8486 183.698 50.5957Z" fill="#564E44" fill-opacity="0.22"/>
<path d="M85.8828 119.395L85.3786 119.311C78.0677 118.299 72.6055 111.891 72.6055 104.556C72.6055 97.2207 78.0677 90.8129 85.3786 89.8011L85.8828 89.7168C85.9668 89.7168 86.1349 89.7168 86.2189 89.8011C86.3029 89.8854 86.387 89.9697 86.387 90.1384V95.0285C86.387 95.1129 86.3029 95.2815 86.2189 95.3658C86.1349 95.4501 85.9668 95.4501 85.8828 95.4501C85.6307 95.4501 85.3786 95.4501 85.1265 95.4501C85.0424 95.4501 84.8744 95.3658 84.7903 95.3658C84.7063 95.2815 84.7063 95.1972 84.7063 95.0285V91.656C78.6559 93.005 74.3702 98.4011 74.3702 104.556C74.3702 110.795 78.6559 116.191 84.7063 117.54V110.627C84.7063 110.458 84.7903 110.374 84.8744 110.289C84.9584 110.205 85.1265 110.205 85.2945 110.205L86.1349 110.458C86.3029 110.542 86.387 110.711 86.387 110.879V118.974C86.387 119.058 86.3029 119.226 86.2189 119.311C86.0508 119.311 85.9668 119.395 85.8828 119.395ZM84.9584 118.383C85.1265 118.383 85.2945 118.468 85.4626 118.468V117.962C85.4626 118.046 85.3786 118.215 85.2945 118.299C85.2105 118.383 85.1265 118.383 84.9584 118.383ZM85.4626 94.5227V90.5599C85.2945 90.5599 85.1265 90.6442 84.9584 90.6442C85.0424 90.6442 85.2105 90.6442 85.2945 90.7286C85.3786 90.8129 85.4626 90.8972 85.4626 91.0658V94.5227Z" fill="#564E44" fill-opacity="0.22"/>
<path d="M139.075 317.363C138.907 317.363 138.823 317.279 138.739 317.194L100.84 265.342C100.755 265.257 100.755 265.089 100.755 265.004C101.008 264.161 101.176 263.318 101.344 262.559C101.344 262.475 101.344 262.475 101.428 262.391L106.722 255.646C108.991 252.695 108.487 248.395 105.629 246.034L95.7135 237.94C95.4614 237.771 95.2933 237.434 95.3773 237.097L97.058 203.287C97.058 203.118 97.142 202.95 97.3101 202.95L110.924 197.217C111.008 197.132 111.176 197.132 111.26 197.217C111.344 197.301 111.428 197.385 111.512 197.469L139.495 310.702V310.787V316.941C139.495 317.11 139.411 317.279 139.243 317.363C139.159 317.363 139.159 317.363 139.075 317.363ZM137.898 314.581L138.655 315.592V310.787V314.328C138.655 314.496 138.571 314.665 138.403 314.749C138.234 314.834 138.066 314.749 137.898 314.581ZM102.1 264.246L137.814 313.063V310.871L110.167 199.324L98.5706 204.215L96.974 236.844L106.638 244.769C110.251 247.72 110.84 253.032 107.982 256.657L102.1 264.246ZM108.15 247.805C108.823 249.069 109.075 250.587 108.991 252.02C109.075 250.587 108.823 249.154 108.15 247.805ZM97.4782 210.96L96.2177 237.181C96.2177 237.265 96.2177 237.265 96.3017 237.35L96.3857 237.434C96.3017 237.35 96.2177 237.265 96.2177 237.097L97.4782 210.96ZM97.8143 203.624V203.877C97.8143 203.709 97.8983 203.54 98.0664 203.54L106.638 199.915L97.8143 203.624ZM110.503 198.313C110.587 198.313 110.671 198.313 110.671 198.397C110.755 198.481 110.84 198.566 110.924 198.65L110.84 198.144L110.419 198.313C110.335 198.313 110.419 198.313 110.503 198.313Z" fill="#564E44" fill-opacity="0.22"/>
<path d="M150.84 317.363C150.756 317.363 150.756 317.363 150.672 317.363C150.504 317.279 150.42 317.11 150.42 316.942V313.148C150.42 313.063 150.42 312.979 150.504 312.895C150.84 312.389 151.092 311.798 151.26 311.208C151.344 311.04 151.512 310.871 151.68 310.871C151.933 310.871 152.017 311.04 152.017 311.293V313.063L187.731 264.246L181.764 256.658C178.907 253.032 179.496 247.636 183.109 244.769L192.773 236.844L191.176 204.13L179.664 199.24L152.101 310.365C152.017 310.534 151.848 310.702 151.68 310.702C151.428 310.702 151.344 310.534 151.344 310.281C151.344 310.112 151.344 309.944 151.344 309.691C151.26 309.353 151.26 309.016 151.176 308.679L151.092 307.92C151.092 307.836 151.092 307.836 151.092 307.751L178.487 197.47C178.487 197.385 178.571 197.217 178.739 197.217C178.823 197.132 178.991 197.132 179.075 197.217L192.689 202.95C192.857 203.034 192.941 203.119 192.941 203.287V203.54L194.622 237.097C194.622 237.434 194.538 237.771 194.285 237.94L184.369 246.034C181.512 248.395 181.008 252.695 183.277 255.646L189.496 263.571C189.832 263.993 189.832 264.499 189.496 264.92L151.176 317.195C151.092 317.279 151.008 317.363 150.84 317.363ZM151.26 314.412V315.593L188.823 264.33C188.907 264.246 188.907 264.077 188.823 263.993L182.605 256.067L188.739 263.909C188.823 264.077 188.823 264.246 188.739 264.414L152.017 314.497C151.933 314.665 151.68 314.665 151.512 314.665C151.428 314.665 151.26 314.581 151.26 314.412ZM152.017 307.92L179.075 198.566C179.075 198.481 179.159 198.313 179.327 198.313C179.412 198.228 179.58 198.228 179.664 198.313L179.243 198.144L152.017 307.92ZM182.437 199.493L191.848 203.456C192.017 203.54 192.101 203.624 192.101 203.793L193.697 236.928C193.697 237.097 193.613 237.181 193.529 237.266L193.613 237.181L193.697 237.097L192.017 203.54L182.437 199.493Z" fill="#564E44" fill-opacity="0.22"/>
</g>
<defs>
<clipPath id="clip0_53_375">
<rect width="290" height="423" fill="white" transform="translate(0 -15)"/>
</clipPath>
</defs>
</svg>
