<svg width="231" height="300" viewBox="0 0 231 300" fill="none" xmlns="http://www.w3.org/2000/svg">
<g clip-path="url(#clip0_65_69)">
<path d="M136.648 365C132.709 365 128.588 364.909 124.375 364.909C119.704 364.817 114.941 364.817 109.904 364.817C74.8265 364.817 44.0533 344.04 25.6444 307.886C14.654 286.286 9.15875 260.658 10.3494 235.671C11.54 208.853 20.1492 183.682 35.0778 162.906C21.065 131.328 9.5251 96.0899 0.641178 58.2887C-1.46532 49.5019 2.74767 40.3491 10.6241 36.5049C28.392 27.9928 64.4772 14.0805 106.149 16.1856C106.241 13.6228 106.241 11.0601 106.241 8.68031C106.516 -12.2797 106.699 -26.192 121.811 -29.3039C141.502 -33.4227 192.332 -41.3857 240.965 -26.6496C244.903 -35.9855 249.208 -45.4129 253.696 -54.4742C257.542 -62.3457 266.06 -66.3729 274.303 -64.1762C300.405 -57.5862 367.355 -35.8024 424.047 18.5654C430.366 24.6978 431.832 34.6744 427.344 42.3627C406.554 78.3334 361.035 176.269 386.68 307.703C388.328 316.307 384.207 324.911 376.697 328.663C333.284 349.989 306.541 358.044 275.035 364.634C262.213 366.648 221.457 352.918 203.048 344.681C180.609 362.712 161.834 365 136.648 365ZM97.54 17.1925C59.8062 17.1925 27.5677 29.7318 11.0821 37.6033C3.75513 41.0813 -0.091516 49.5935 1.83181 57.831C10.7157 95.7238 22.3473 130.962 36.36 162.631L36.5432 162.997L36.2684 163.272C7.14384 203.361 3.2972 261.115 26.7434 307.154C44.9692 342.85 75.1928 363.353 109.813 363.353C114.942 363.353 119.704 363.444 124.375 363.444C155.972 363.902 176.854 364.176 202.498 343.308L202.865 343.033L203.231 343.216C223.838 352.552 262.946 365.092 274.76 363.261C306.175 356.671 332.827 348.708 376.147 327.382C383.199 323.904 386.954 315.941 385.397 307.886C359.661 175.903 405.363 77.6927 426.245 41.539C430.366 34.3998 429.084 25.0639 423.131 19.3891C366.714 -34.5211 299.947 -56.3048 273.936 -63.0779C266.335 -65.0915 258.458 -61.3388 254.886 -54.1081C250.307 -44.7722 245.911 -35.2533 241.881 -25.7343L241.606 -25.1852L241.057 -25.3682C192.607 -40.2873 141.593 -32.3244 121.994 -28.2056C107.981 -25.2767 107.798 -11.822 107.523 8.49726C107.523 11.1516 107.431 13.8974 107.34 16.7348V17.467H106.607C103.585 17.284 100.562 17.1925 97.54 17.1925ZM148.188 361.064H109.813C56.8755 361.064 13.7381 308.161 13.7381 243.084C13.7381 213.155 23.5379 183.408 40.573 161.35C58.7072 138.01 83.2525 125.104 109.813 125.104H148.188C201.125 125.104 244.262 178.008 244.262 243.084C244.262 274.479 234.279 304.134 216.145 326.375C198.011 348.8 173.832 361.064 148.188 361.064ZM109.813 126.477C51.2887 126.477 15.1119 186.977 15.1119 243.084C15.1119 307.337 57.6082 359.691 109.813 359.691H148.188C173.374 359.691 197.186 347.61 215.046 325.551C232.997 303.493 242.888 274.204 242.888 243.084C242.888 178.831 200.392 126.477 148.188 126.477H109.813ZM274.944 360.973L274.669 360.698C271.28 356.488 253.329 333.514 236.935 295.622L236.844 295.347L236.935 295.072C257.267 243.542 244.72 181.12 207.078 146.705L206.895 146.522V146.247C207.261 80.9877 224.113 13.989 257.084 -53.1013C260.198 -59.4167 266.976 -62.6202 273.478 -60.8812C299.397 -54.1081 365.615 -32.5074 421.666 21.2197C426.795 26.1622 427.985 34.3082 424.322 40.6237C380.543 116.226 365.157 216.358 383.108 308.436C384.481 315.392 381.184 322.439 375.048 325.368C353.525 335.894 312.036 354.566 275.31 360.881L274.944 360.973ZM238.309 295.347C254.245 332.05 271.555 354.566 275.493 359.508C311.945 353.193 353.067 334.704 374.407 324.178C379.994 321.433 382.924 315.117 381.734 308.71C372.392 260.566 371.659 211.599 379.811 163.18C387.229 118.514 402.249 75.9536 423.039 39.8915C426.337 34.1252 425.329 26.7114 420.567 22.2265C364.79 -31.3176 298.756 -52.8267 272.929 -59.5083C267.067 -61.0643 260.931 -58.1354 258.092 -52.4606C225.304 14.2635 208.452 80.9877 208.085 145.973C246.002 180.662 258.641 243.45 238.309 295.347ZM271.921 360.881L270.273 360.698C261.114 359.6 236.477 355.664 205.704 341.935L204.697 341.477L205.521 340.745C208.36 338.274 210.1 336.352 211.291 334.979C214.68 331.226 215.137 331.409 219.992 335.162C222.739 337.267 226.769 340.47 233.913 344.864C234.188 345.047 234.462 345.047 234.737 345.047C235.012 344.955 235.287 344.772 235.47 344.498C236.019 343.674 236.111 343.582 232.081 340.928C229.15 339.006 224.296 335.803 216.969 329.945L216.42 329.487L216.878 328.938C224.113 320.334 230.158 310.449 234.92 299.557L235.561 298.093L236.202 299.557C250.215 331.135 265.144 351.911 270.914 359.417L271.921 360.881ZM207.261 341.111C235.744 353.742 258.824 357.861 268.807 359.142C262.579 350.813 248.75 330.952 235.561 301.754C230.982 311.914 225.12 321.25 218.343 329.487C225.304 334.979 229.975 338.091 232.814 339.921C236.66 342.393 237.943 343.216 236.569 345.321C236.202 345.871 235.653 346.328 235.012 346.42C234.371 346.603 233.638 346.42 233.088 346.054C225.945 341.569 221.823 338.365 219.076 336.26C216.969 334.613 215.779 333.697 215.046 333.606C214.405 333.606 213.764 334.247 212.298 335.894C211.199 337.175 209.642 338.914 207.261 341.111ZM38.1002 160.892L37.6422 159.885C23.9958 128.857 12.7306 94.3508 4.02989 57.3734C2.38133 50.2342 5.77004 42.8204 12.0895 39.7999C29.6742 31.3793 65.4846 17.5586 106.607 19.8468H107.248V20.4875C107.065 32.02 107.065 43.5526 107.34 54.6275V55.2682L106.699 55.3598C101.387 55.7259 92.9607 57.0073 83.1609 60.8515C79.0395 62.499 76.7498 67.0754 77.8488 71.4688C80.8712 83.5505 85.1758 112.931 60.081 125.104C53.0288 128.582 55.4101 135.539 57.1502 140.573L57.425 141.305L57.0586 141.579C50.3728 146.797 44.2365 152.929 38.7413 159.977L38.1002 160.892ZM5.40369 57.0073C13.9213 93.5271 25.0949 127.576 38.4665 158.238C43.687 151.648 49.5485 145.79 55.9596 140.847C54.2195 135.905 51.5634 127.759 59.7147 123.914C83.8936 112.199 79.6806 83.5505 76.7498 71.8349C75.4676 66.7093 78.1236 61.4006 82.8861 59.5701C92.5027 55.8174 100.746 54.4445 106.149 53.9868C105.874 43.278 105.874 32.2031 106.058 21.1282C65.4846 19.023 30.2237 32.6607 12.8222 40.9898C6.96067 43.6441 3.9383 50.4172 5.40369 57.0073ZM204.513 144.508L203.414 143.593C185.647 128.857 168.245 122.816 143.059 122.816H142.418L142.326 122.175C139.029 95.3576 139.762 74.4892 140.494 64.3295C140.677 61.4006 142.692 58.9294 145.531 58.2887C179.235 50.5088 179.51 23.2333 178.045 11.7923C177.77 9.77866 178.32 7.94809 179.51 6.48363C180.609 5.11071 182.166 4.28696 183.906 4.19543C201.674 3.00556 217.977 4.83612 228.509 6.57516L229.333 6.66669L229.059 7.39892C213.397 52.8885 205.063 98.4696 204.513 142.861V144.508ZM143.7 121.443C168.337 121.535 185.738 127.393 203.14 141.579C203.872 97.7374 212.115 52.797 227.502 7.85656C217.061 6.20905 201.308 4.56155 184.09 5.75141C182.716 5.84294 181.525 6.48363 180.609 7.49045C179.693 8.68031 179.235 10.1448 179.51 11.7923C180.976 23.5994 180.792 51.7902 145.989 59.8446C143.791 60.3938 142.143 62.3159 142.051 64.6041C141.227 74.4892 140.494 95.0831 143.7 121.443ZM59.4399 139.84L58.8904 138.193C57.7913 134.989 55.868 129.681 61.1801 127.118C87.7402 114.212 83.2525 83.459 80.1385 70.828C79.3142 67.4415 80.9628 64.0549 84.0768 62.8651C93.5102 59.1124 101.661 57.9226 106.699 57.5564L107.431 57.4649V58.1971C108.164 80.4385 109.904 101.948 112.652 122.084L112.743 122.908H111.919C92.228 122.908 75.8339 128.125 60.1726 139.383L59.4399 139.84ZM106.149 58.9294C101.112 59.387 93.5102 60.6684 84.6263 64.1465C82.245 65.0618 80.8712 67.8076 81.5123 70.4619C84.7179 83.3674 89.2972 114.945 61.8212 128.308C57.9745 130.138 58.7988 133.8 60.1726 137.644C75.6508 126.752 91.8616 121.626 111.186 121.443C108.53 101.765 106.882 80.7131 106.149 58.9294ZM140.128 122.816H115.033L114.941 122.267C109.355 81.7199 107.981 36.5965 110.729 -11.822C111.095 -18.7782 115.949 -24.5445 122.36 -25.9174C141.776 -29.9446 192.058 -37.9076 239.957 -23.2631L240.69 -23.08L240.415 -22.3478C236.752 -13.6526 233.363 -4.77435 230.249 4.1039L230.066 4.65307L229.517 4.56154C218.709 2.73097 202.041 0.808876 183.815 1.99875C181.434 2.1818 179.235 3.28014 177.77 5.11071C176.213 7.03281 175.48 9.5956 175.847 12.1584C177.587 25.5215 175.847 49.0443 145.165 56.1835C141.41 57.0988 138.662 60.3023 138.388 64.238C137.655 74.3061 136.922 95.2661 140.128 122.084V122.816ZM116.315 121.443H138.662C135.457 94.9 136.19 74.2146 137.014 64.1465C137.38 59.5701 140.494 55.8174 144.89 54.8106C174.565 48.0375 176.213 25.2469 174.565 12.3414C174.198 9.32101 175.022 6.48363 176.854 4.19543C178.594 2.09028 181.067 0.808876 183.906 0.625824C202.041 -0.564049 218.526 1.26653 229.333 3.09709C232.356 -5.41504 235.561 -13.8357 239.042 -22.1647C191.691 -36.3516 142.051 -28.5717 122.818 -24.5445C116.956 -23.3546 112.652 -18.046 112.285 -11.7305C109.446 36.3219 110.82 81.1707 116.315 121.443Z" fill="#564E44" fill-opacity="0.22"/>
<path d="M308.006 326.375C302.328 326.375 300.221 321.89 297.565 316.307C293.81 308.436 288.681 297.727 270.73 292.052C267.433 291.045 264.869 288.299 264.045 284.821C257.725 259.834 228.143 129.955 269.173 24.6978C271.463 18.84 276.317 18.3823 281.996 17.9247C290.605 17.1924 302.419 16.0941 313.868 -3.85906C316.341 -8.25242 321.469 -10.083 326.049 -8.25242C328.613 -7.5202 347.572 0.625825 359.478 8.58879C363.325 11.1516 365.065 16.0941 363.599 20.579C360.211 31.6539 357.555 52.0647 378.528 64.6956C383.107 67.4415 384.756 73.3908 382.375 78.3334C372.209 99.0188 339.97 173.523 352.517 264.044C353.616 272.19 349.495 274.662 344.733 277.407C338.047 281.252 329.804 286.103 332.277 310.175C333.467 321.707 316.982 325.368 309.838 326.467C309.105 326.375 308.556 326.375 308.006 326.375ZM322.294 -7.70326C319.363 -7.70326 316.524 -6.14727 314.875 -3.30989C303.152 17.284 290.971 18.3823 281.996 19.2061C276.409 19.7552 272.287 20.1214 270.364 25.1554C229.516 130.047 259.007 259.559 265.327 284.455C266.059 287.476 268.258 289.855 271.097 290.771C289.597 296.628 294.909 307.703 298.756 315.758C301.687 321.799 303.518 325.826 309.563 324.911C316.341 323.904 331.91 320.517 330.811 310.175C328.247 285.187 336.948 280.153 344 276.126C348.671 273.38 352.059 271.458 351.052 264.136C338.413 173.248 370.835 98.3781 381.092 77.6011C383.199 73.3908 381.734 68.1737 377.795 65.794C355.998 52.6139 358.745 31.5624 362.226 20.1214C363.416 16.1856 361.951 11.8838 358.654 9.68712C346.29 1.54111 327.239 -6.42186 325.591 -6.97103H325.499L325.408 -7.06256C324.4 -7.42867 323.301 -7.70326 322.294 -7.70326ZM309.197 322.622C308.006 322.622 306.999 322.439 305.991 322.073C304.251 321.433 302.969 320.151 302.419 318.229C299.672 309.9 291.979 294.889 271.829 288.482C269.723 287.842 268.074 286.011 267.525 283.814C237.576 165.743 256.626 46.2069 273.02 25.1554C274.76 22.8672 276.592 21.6773 278.241 21.6773C299.763 21.6773 308.098 9.87018 313.593 1.99874C317.165 -3.03531 319.913 -6.97103 324.492 -5.14046C331.91 -2.12003 346.106 4.01237 357.28 11.3346C359.753 12.9821 360.852 16.1856 359.936 19.2061C356.914 28.9081 352.517 53.0715 376.422 67.533C379.352 69.2721 380.451 73.2078 378.894 76.4113C368.637 97.3712 335.94 172.699 348.671 264.227C349.403 269.719 345.923 272.007 341.893 274.57C335.116 278.872 325.866 284.73 328.43 310.266C328.705 313.012 327.423 315.575 325.225 316.948C320.37 319.968 313.959 322.622 309.197 322.622ZM322.385 -4.04212C319.913 -4.04212 317.898 -1.3878 314.784 3.00556C309.105 11.0601 300.496 23.2333 278.332 23.2333C277.05 23.2333 275.676 24.2401 274.211 26.1622C257.908 47.0307 239.133 165.926 268.99 283.631C269.448 285.37 270.73 286.835 272.379 287.293C293.169 293.883 301.046 309.259 303.885 317.863C304.343 319.327 305.259 320.334 306.632 320.883C310.937 322.531 319.088 319.236 324.767 315.941C326.507 314.934 327.514 312.829 327.331 310.632C324.675 284.272 334.383 278.14 341.435 273.655C345.374 271.184 348.213 269.353 347.572 264.685C334.658 172.699 367.446 97.0051 377.795 75.9536C379.078 73.3908 378.162 70.2789 375.872 68.8144C351.052 53.8038 355.631 28.9081 358.745 18.9315C359.478 16.5517 358.654 13.989 356.639 12.616C345.557 5.29377 331.452 -0.747101 324.034 -3.76754C323.393 -3.95059 322.843 -4.04212 322.385 -4.04212Z" fill="#564E44" fill-opacity="0.22"/>
<path d="M181.25 326.375C180.334 326.375 179.418 325.826 178.96 325.003C178.502 324.179 178.594 323.172 179.235 322.348C213.397 277.042 212.847 206.656 177.861 162.082C176.854 160.801 177.312 159.336 178.319 158.604C179.327 157.872 180.792 157.689 181.891 159.062C200.758 183.134 210.008 211.507 209.459 243.542C208.909 275.852 198.468 300.564 193.981 309.717C189.126 319.877 184.089 326.375 181.25 326.375ZM179.968 159.428C179.693 159.428 179.418 159.519 179.235 159.702C178.777 160.068 178.502 160.618 179.052 161.258C214.313 206.199 214.954 277.316 180.426 323.172C180.151 323.538 180.151 323.996 180.334 324.362C180.517 324.728 180.884 325.003 181.342 325.003C182.807 325.003 187.203 320.701 192.882 309.077C197.003 300.656 231.714 224.504 180.884 159.794C180.609 159.519 180.243 159.428 179.968 159.428Z" fill="#564E44" fill-opacity="0.22"/>
<path d="M109.812 339.646C66.1253 339.646 30.498 296.353 30.498 243.084C30.498 189.814 66.0337 146.521 109.812 146.521C153.591 146.521 189.126 189.814 189.126 243.084C189.126 296.353 153.499 339.646 109.812 339.646ZM109.812 147.894C66.858 147.894 31.8718 190.547 31.8718 243.084C31.8718 295.53 66.858 338.273 109.812 338.273C152.766 338.273 187.753 295.621 187.753 243.084C187.753 190.638 152.766 147.894 109.812 147.894ZM109.812 335.985C68.1402 335.985 34.1615 294.34 34.1615 243.084C34.1615 191.828 68.0486 150.183 109.812 150.183C151.576 150.183 185.463 191.828 185.463 243.084C185.463 294.34 151.484 335.985 109.812 335.985ZM109.812 151.556C68.8729 151.556 35.5353 192.652 35.5353 243.084C35.5353 293.516 68.8729 334.612 109.812 334.612C150.752 334.612 184.089 293.516 184.089 243.084C184.089 192.652 150.752 151.556 109.812 151.556Z" fill="#564E44" fill-opacity="0.22"/>
<path d="M87.5566 310.998C86.9155 310.998 86.366 310.907 85.7249 310.815C82.3362 310.266 79.6802 308.435 77.6653 305.415C75.8335 302.669 74.8261 298.916 74.8261 294.34V284.272L63.9272 283.173C59.5311 282.716 56.0508 278.231 56.0508 273.014C56.0508 270.085 57.0582 267.522 58.9816 265.783C60.5385 264.319 62.4619 263.586 64.3852 263.769L74.9177 264.319V256.63L66.858 256.539C66.4917 256.539 66.0337 256.447 65.6674 256.264C65.3926 256.173 59.8974 253.061 59.3479 247.66C58.9816 243.999 60.9965 240.43 65.301 237.043C65.759 236.677 66.2169 236.494 66.7664 236.494L74.9177 236.219V204.734C74.9177 194.574 79.0391 189.265 88.1977 187.709C93.5098 186.886 98.4555 185.97 103.31 185.055C115.674 182.767 125.474 181.028 133.442 181.943C149.652 183.865 159.819 196.954 159.819 215.992C159.819 228.531 156.155 238.416 149.011 245.464C141.135 253.244 128.862 257.271 113.75 257.088L97.9975 256.905V265.508L136.464 267.522C142.692 267.888 147.729 273.288 147.729 279.604C147.729 282.807 146.447 285.645 144.249 287.658C142.051 289.672 139.12 290.587 136.098 290.313L97.9975 286.56V296.628C97.9975 303.676 95.6163 307.154 93.6014 308.801C91.8612 310.266 89.7547 310.998 87.5566 310.998ZM63.9272 265.142C62.4619 265.142 61.0881 265.692 59.8974 266.79C58.3405 268.254 57.4246 270.543 57.4246 273.014C57.4246 277.59 60.3554 281.434 64.1104 281.801L76.1999 282.99V294.34C76.1999 298.642 77.0242 302.12 78.7643 304.591C80.5045 307.245 82.9773 308.893 85.9081 309.351C88.4725 309.808 90.7622 309.259 92.5939 307.703C95.1583 305.598 96.4406 301.754 96.4406 296.628V285.004L136.006 288.94C138.662 289.214 141.135 288.391 143.058 286.652C144.982 284.912 146.081 282.35 146.081 279.604C146.081 274.021 141.593 269.17 136.098 268.895L96.349 266.79V255.532L113.476 255.806C128.313 255.99 140.127 252.145 147.729 244.549C154.598 237.775 158.078 228.165 158.078 216.083C158.078 197.686 148.462 185.147 132.984 183.316C125.199 182.309 115.491 184.14 103.218 186.336C98.4555 187.252 93.5098 188.167 88.1062 188.991C79.6802 190.455 76.0167 195.123 76.0167 204.642V237.409L66.5833 237.684C66.3085 237.684 66.1253 237.775 65.9422 237.958C62.0955 241.07 60.2638 244.182 60.5385 247.386C60.9965 252.054 65.9422 254.8 66.1253 254.891C66.3085 254.983 66.4917 254.983 66.6749 254.983L76.1083 255.074V265.508L64.1104 264.868C64.1104 265.142 64.0188 265.142 63.9272 265.142ZM87.6482 307.337C87.1903 307.337 86.8239 307.337 86.366 307.245C81.4203 306.33 78.4895 301.662 78.4895 294.431V282.075C78.4895 281.526 78.0316 280.977 77.4821 280.977L64.2936 279.695C61.7292 279.421 59.7142 276.492 59.7142 273.197C59.7142 271.366 60.3554 269.627 61.546 268.529C62.2787 267.797 63.1945 267.431 64.202 267.522L77.3905 268.254C77.6653 268.254 78.0316 268.163 78.2148 267.98C78.4895 267.797 78.5811 267.431 78.5811 267.156V254.342C78.5811 253.701 78.0316 253.244 77.4821 253.152L67.2244 252.969L67.0412 252.878C65.9422 252.145 63.2861 250.132 63.0114 247.386C62.8282 245.189 64.202 242.809 67.1328 240.338L67.316 240.155L77.4821 239.789C78.1232 239.789 78.5811 239.24 78.5811 238.691V204.825C78.5811 196.405 81.4203 192.652 88.7473 191.371C94.1509 190.547 99.1882 189.632 103.951 188.716C116.04 186.52 125.565 184.781 132.892 185.696C147.363 187.435 155.972 198.784 155.972 216.175C155.972 227.707 152.675 236.769 146.264 243.084C138.937 250.223 128.038 253.793 113.659 253.61L95.3415 253.335C95.0668 253.335 94.7004 253.427 94.5172 253.701C94.3341 253.884 94.1509 254.159 94.1509 254.525V267.98C94.1509 268.62 94.6088 269.078 95.2499 269.078L136.098 271.275C140.402 271.458 143.883 275.302 143.883 279.695C143.883 281.801 143.058 283.723 141.593 285.096C140.127 286.377 138.296 287.018 136.281 286.835L95.4331 282.807C95.0667 282.807 94.792 282.899 94.5172 283.082C94.2425 283.265 94.1509 283.631 94.1509 283.906V296.811C94.1509 299.374 93.7845 303.95 91.1285 306.147C90.1211 306.879 88.9304 307.337 87.6482 307.337ZM63.9272 268.804C63.3777 268.804 62.8282 268.987 62.3703 269.444C61.546 270.268 60.9965 271.641 60.9965 273.105C60.9965 275.668 62.5534 278.048 64.3852 278.231L77.5737 279.512C78.8559 279.604 79.8633 280.702 79.8633 281.984V294.34C79.8633 297.452 80.5045 304.774 86.5492 305.781C88.0146 306.056 89.2968 305.781 90.2127 304.957C91.8612 303.584 92.7771 300.564 92.7771 296.628V283.723C92.7771 282.99 93.0518 282.35 93.6014 281.892C94.1509 281.434 94.792 281.16 95.5247 281.251L136.372 285.279C137.929 285.462 139.486 285.004 140.677 283.906C141.868 282.807 142.509 281.251 142.509 279.512C142.509 275.851 139.578 272.648 136.006 272.465L95.1583 270.268C93.7845 270.176 92.7771 269.078 92.7771 267.797V254.434C92.7771 253.793 93.0518 253.152 93.5098 252.695C93.9677 252.237 94.6088 251.962 95.2499 251.962L113.567 252.237C127.488 252.42 138.204 249.033 145.165 242.077C151.393 235.945 154.507 227.25 154.507 216.083C154.507 199.517 146.355 188.625 132.617 186.977C125.474 186.062 116.04 187.801 104.042 189.998C99.2797 190.913 94.2425 191.828 88.8389 192.652C82.153 193.842 79.7718 196.954 79.7718 204.734V238.599C79.7718 239.972 78.6727 241.07 77.2989 241.07L67.7739 241.528C65.3926 243.633 64.202 245.464 64.3852 247.203C64.5684 249.308 66.6749 250.955 67.5907 251.596L77.4821 251.779C78.8559 251.779 79.9549 252.969 79.9549 254.342V267.156C79.9549 267.888 79.6802 268.529 79.1307 268.987C78.6727 269.444 77.94 269.719 77.2989 269.627L64.1104 268.804C64.0188 268.804 64.0188 268.804 63.9272 268.804ZM95.3415 240.613C93.9677 240.613 92.7771 239.514 92.7771 238.05V205.283C92.7771 204.001 93.693 202.903 94.9752 202.812L108.255 201.073C118.605 199.791 125.565 200.889 129.412 204.551C132.892 208.029 134.632 212.788 134.632 218.646C134.632 232.558 126.115 239.514 108.713 240.155H108.164C100.379 240.43 96.0742 240.613 95.3415 240.613ZM115.949 201.988C113.659 201.988 111.186 202.171 108.438 202.537L95.1583 204.276C94.6088 204.368 94.1509 204.825 94.1509 205.374V238.142C94.1509 238.782 94.7004 239.331 95.3415 239.331C95.7994 239.331 98.4555 239.24 108.072 238.874C108.347 238.874 108.438 238.874 108.622 238.874C125.199 238.325 133.167 231.735 133.167 218.738C133.167 213.246 131.518 208.761 128.404 205.649C125.932 203.178 121.81 201.988 115.949 201.988ZM96.4406 236.86V206.29L108.713 204.734C117.689 203.635 123.917 204.459 126.847 207.113C129.595 209.859 130.969 213.703 130.969 218.554C130.969 230.179 123.825 235.853 108.622 236.402L96.4406 236.86ZM97.8144 207.48V235.396L108.438 235.03C122.818 234.572 129.503 229.355 129.503 218.554C129.503 214.07 128.313 210.5 125.84 208.029C123.367 205.649 117.322 204.917 108.896 206.015L97.8144 207.48Z" fill="#564E44" fill-opacity="0.22"/>
</g>
<defs>
<clipPath id="clip0_65_69">
<rect width="430" height="430" fill="white" transform="translate(0 -65)"/>
</clipPath>
</defs>
</svg>
