<svg width="238" height="289" viewBox="0 0 238 289" fill="none" xmlns="http://www.w3.org/2000/svg">
<g clip-path="url(#clip0_65_57)">
<path d="M111.98 325C96.6148 325 84.1586 312.544 84.1586 297.179C84.1586 281.814 96.6148 269.358 111.98 269.358C120.579 269.358 128.546 273.215 133.857 279.981L175.272 252.349L116.026 212.768H100.978C81.7558 212.768 64.7471 200.564 58.677 182.354L25.0389 82.5778C25.0389 82.5146 24.9757 82.4514 24.9757 82.3249C24.2802 79.7957 21.9407 78.0885 19.3482 78.0885H5.37451C2.40272 78.0885 0 75.6858 0 72.714C0 69.7422 2.40272 67.3395 5.37451 67.3395H19.3482C26.6829 67.3395 33.1955 72.2714 35.2821 79.2899L46.3473 112.232H185.136V5.37451C185.136 2.40272 187.539 0 190.511 0H207.393C272.267 0 325 52.7335 325 117.607V117.67C325 117.733 325 117.733 325 117.797V117.86C325 117.986 325 118.113 325 118.176L318.045 173.628C315.263 195.948 296.231 212.768 273.721 212.768H253.93L194.621 252.349L236.036 279.981C241.347 273.215 249.314 269.295 257.913 269.295C273.278 269.295 285.734 281.751 285.734 297.116C285.734 312.481 273.278 324.937 257.913 324.937C242.549 324.937 230.092 312.481 230.092 297.116C230.092 294.587 230.409 292.057 231.104 289.591L184.947 258.735L138.789 289.528C139.484 291.994 139.864 294.523 139.864 297.053C139.801 312.544 127.344 325 111.98 325ZM111.98 270.623C97.3103 270.623 85.4232 282.51 85.4232 297.179C85.4232 311.848 97.3103 323.735 111.98 323.735C126.649 323.735 138.536 311.848 138.536 297.179C138.536 294.587 138.157 292.057 137.398 289.528C137.335 289.275 137.398 288.959 137.651 288.833L184.567 257.534C184.757 257.408 185.073 257.408 185.263 257.534L232.179 288.896C232.432 289.022 232.495 289.339 232.432 289.591C231.673 292.057 231.294 294.587 231.294 297.179C231.294 311.848 243.181 323.735 257.85 323.735C272.519 323.735 284.407 311.848 284.407 297.179C284.407 282.51 272.519 270.623 257.85 270.623C249.441 270.623 241.663 274.48 236.605 281.245C236.415 281.498 236.036 281.561 235.72 281.372L193.103 252.918C192.913 252.792 192.85 252.602 192.85 252.412C192.85 252.223 192.977 252.033 193.103 251.907L253.361 211.693C253.487 211.629 253.614 211.566 253.74 211.566H273.721C295.535 211.566 314.061 195.253 316.78 173.565L323.672 118.176C323.672 118.05 323.672 117.986 323.672 117.923V117.67C323.735 53.429 271.571 1.26459 207.393 1.26459H190.574C188.298 1.26459 186.464 3.09825 186.464 5.37451V112.865C186.464 113.244 186.211 113.497 185.832 113.497H45.9047C45.6518 113.497 45.3988 113.307 45.3356 113.054L34.0807 79.6693C32.1839 73.1566 26.1138 68.6041 19.3482 68.6041H5.37451C3.09825 68.6041 1.26459 70.4377 1.26459 72.714C1.26459 74.9903 3.09825 76.8239 5.37451 76.8239H19.3482C22.5097 76.8239 25.2918 78.9737 26.177 82.0088C26.177 82.072 26.2403 82.1352 26.2403 82.1984L59.8152 181.975C65.7588 199.679 82.2617 211.503 100.914 211.503H116.153C116.279 211.503 116.406 211.566 116.532 211.629L176.727 251.843C176.916 251.97 176.98 252.16 176.98 252.349C176.98 252.539 176.853 252.729 176.727 252.855L134.047 281.372C133.794 281.561 133.414 281.498 133.161 281.245C128.103 274.48 120.389 270.623 111.98 270.623ZM257.913 315.516C247.797 315.516 239.577 307.296 239.577 297.179C239.577 287.062 247.797 278.842 257.913 278.842C268.03 278.842 276.25 287.062 276.25 297.179C276.25 307.296 268.03 315.516 257.913 315.516ZM257.913 280.107C248.492 280.107 240.841 287.758 240.841 297.179C240.841 306.6 248.492 314.251 257.913 314.251C267.335 314.251 274.985 306.6 274.985 297.179C274.985 287.758 267.335 280.107 257.913 280.107ZM111.98 315.516C101.863 315.516 93.643 307.296 93.643 297.179C93.643 287.062 101.863 278.842 111.98 278.842C122.096 278.842 130.316 287.062 130.316 297.179C130.316 307.296 122.096 315.516 111.98 315.516ZM111.98 280.107C102.558 280.107 94.9076 287.758 94.9076 297.179C94.9076 306.6 102.558 314.251 111.98 314.251C121.401 314.251 129.052 306.6 129.052 297.179C129.052 287.758 121.401 280.107 111.98 280.107ZM184.947 247.291C184.82 247.291 184.694 247.228 184.567 247.164L132.909 212.641C132.656 212.515 132.592 212.198 132.656 211.946C132.719 211.693 132.972 211.503 133.288 211.503H236.668C236.921 211.503 237.174 211.693 237.301 211.946C237.427 212.198 237.301 212.515 237.048 212.641L185.263 247.164C185.199 247.291 185.073 247.291 184.947 247.291ZM135.311 212.768L184.883 245.9L234.518 212.768H135.311ZM273.721 203.283H100.914C85.8025 203.283 72.3979 193.672 67.5924 179.319L56.0214 144.985C55.9582 144.796 55.9582 144.606 56.0846 144.416C56.2111 144.227 56.4008 144.163 56.5905 144.163H269.042C271.318 144.163 273.152 142.33 273.152 140.053C273.152 137.777 271.318 135.944 269.042 135.944H53.4922C53.2393 135.944 52.9864 135.754 52.9231 135.501L48.5603 122.539C48.4971 122.349 48.4971 122.16 48.6235 121.97C48.75 121.78 48.9397 121.717 49.1294 121.717H314.251C314.441 121.717 314.63 121.78 314.757 121.907C314.883 122.033 314.947 122.223 314.883 122.412L313.239 135.375C313.176 135.691 312.923 135.944 312.607 135.944H291.552C289.275 135.944 287.442 137.777 287.442 140.053C287.442 142.33 289.275 144.163 291.552 144.163H311.406C311.595 144.163 311.785 144.227 311.911 144.353C312.038 144.48 312.101 144.669 312.038 144.859L308.56 172.427C306.411 190.068 291.425 203.283 273.721 203.283ZM57.5389 145.428L68.7938 178.94C73.4095 192.724 86.3716 202.018 100.914 202.018H273.721C290.793 202.018 305.272 189.246 307.359 172.301L310.71 145.428H291.552C288.58 145.428 286.177 143.025 286.177 140.053C286.177 137.082 288.58 134.679 291.552 134.679H312.038L313.492 122.982H50.0146L53.9348 134.679H269.105C272.077 134.679 274.48 137.082 274.48 140.053C274.48 143.025 272.077 145.428 269.105 145.428H57.5389ZM314.757 113.497H224.465C224.212 113.497 223.959 113.371 223.896 113.118C223.769 112.865 223.833 112.612 224.022 112.422L255.195 81.25C255.953 80.4912 256.396 79.4163 256.396 78.3414C256.396 77.2665 255.953 76.1916 255.195 75.4329C254.436 74.6741 253.361 74.2315 252.286 74.2315C251.211 74.2315 250.136 74.6741 249.377 75.4329L218.205 106.605C218.016 106.795 217.763 106.858 217.51 106.732C217.257 106.605 217.13 106.415 217.13 106.162V27.821C217.13 25.5447 215.297 23.7111 213.02 23.7111C210.744 23.7111 208.911 25.5447 208.911 27.821V112.865C208.911 113.244 208.658 113.497 208.278 113.497H195.316C194.937 113.497 194.684 113.244 194.684 112.865V10.1167C194.684 9.73735 194.937 9.48444 195.316 9.48444H207.393C235.404 9.48444 261.96 20.1702 282.194 39.6449C302.364 59.0564 314.188 85.0438 315.389 112.865C315.389 113.054 315.326 113.181 315.199 113.307C315.136 113.434 314.947 113.497 314.757 113.497ZM225.982 112.232H314.125C311.279 55.2626 264.553 10.749 207.393 10.749H195.948V112.232H207.646V27.821C207.646 24.8492 210.049 22.4465 213.02 22.4465C215.992 22.4465 218.395 24.8492 218.395 27.821V104.645L248.492 74.5477C249.504 73.536 250.832 72.9669 252.286 72.9669C253.74 72.9669 255.068 73.536 256.08 74.5477C257.091 75.5593 257.661 76.8872 257.661 78.3414C257.661 79.7957 257.091 81.1235 256.08 82.1352L225.982 112.232Z" fill="#564E44" fill-opacity="0.22"/>
</g>
<defs>
<clipPath id="clip0_65_57">
<rect width="325" height="325" fill="white"/>
</clipPath>
</defs>
</svg>
