<svg width="212" height="300" viewBox="0 0 212 300" fill="none" xmlns="http://www.w3.org/2000/svg">
<g clip-path="url(#clip0_67_123)">
<path d="M204.964 15.5186C205.103 16.0077 205.312 16.427 205.59 16.8463C203.154 19.2921 201.623 22.7162 201.623 26.4198V147.802H205.451C205.52 148.291 205.66 148.78 205.799 149.199H200.231V26.4198C200.231 22.0873 202.041 18.2439 204.964 15.5186Z" fill="#564E44" fill-opacity="0.22"/>
<path d="M34.3117 -3H215.264C231.411 -3 244.564 10.2073 244.564 26.4195V155.698C244.564 160.03 241.015 163.594 236.7 163.594H201.623V292.173C201.623 295.108 200.092 297.694 197.447 299.092C196.264 299.72 195.011 300.07 193.759 300.07C192.227 300.07 190.766 299.651 189.444 298.742L173.367 287.981L163.623 297.764C160.561 300.839 155.619 300.839 152.557 297.764L143.788 288.959L135.019 297.764C131.956 300.839 127.015 300.839 123.953 297.764L115.184 288.959L106.414 297.764C103.352 300.839 98.341 300.839 95.3483 297.764L86.5791 288.959L77.8099 297.764C74.7476 300.839 69.8062 300.839 66.7439 297.764L57.9747 288.959L49.2055 297.764C46.1432 300.839 41.1322 300.839 38.1395 297.764L28.396 287.981L12.319 298.742C9.88312 300.349 6.89044 300.489 4.24576 299.161C1.67065 297.764 0.069931 295.178 0.069931 292.243V31.5906C0.000335693 12.4435 15.3813 -3 34.3117 -3ZM1.39227 292.104C1.39227 294.549 2.64503 296.646 4.80254 297.834C6.96005 298.952 9.39595 298.882 11.4143 297.484L28.4655 286.094L39.0443 296.716C41.5498 299.231 45.656 299.231 48.1615 296.716L57.9051 286.932L67.6487 296.716C70.1542 299.231 74.2604 299.231 76.7659 296.716L86.5095 286.932L96.2531 296.716C98.7586 299.231 102.865 299.231 105.37 296.716L115.114 286.932L124.857 296.716C127.363 299.231 131.469 299.231 133.975 296.716L143.718 286.932L153.462 296.716C155.967 299.231 160.074 299.231 162.579 296.716L173.158 286.094L190.209 297.484C192.227 298.812 194.663 298.952 196.821 297.834C198.978 296.716 200.231 294.549 200.231 292.104V162.127H236.7C240.249 162.127 243.173 159.192 243.173 155.628V26.3496C243.173 10.976 230.645 -1.6024 215.264 -1.6024H34.3117C16.1469 -1.6024 1.39227 13.2122 1.39227 31.4509V292.104Z" fill="#564E44" fill-opacity="0.22"/>
<path d="M36.4688 149.199H165.223C169.538 149.199 173.088 145.635 173.088 141.303C173.088 136.97 169.538 133.406 165.223 133.406H36.4688C32.1538 133.406 28.6044 136.97 28.6044 141.303C28.6044 145.635 32.1538 149.199 36.4688 149.199ZM165.154 134.804C168.703 134.804 171.626 137.739 171.626 141.303C171.626 144.867 168.703 147.802 165.154 147.802H36.3992C32.8498 147.802 29.9267 144.867 29.9267 141.303C29.9267 137.739 32.8498 134.804 36.3992 134.804H165.154Z" fill="#564E44" fill-opacity="0.22"/>
<path d="M36.4688 170.722H165.223C169.538 170.722 173.088 167.158 173.088 162.825C173.088 158.493 169.538 154.929 165.223 154.929H36.4688C34.3809 154.929 32.4322 155.767 30.9011 157.235C29.3699 158.702 28.6044 160.729 28.6044 162.825C28.6044 167.228 32.1538 170.722 36.4688 170.722ZM165.154 156.396C168.703 156.396 171.626 159.331 171.626 162.895C171.626 166.459 168.703 169.394 165.154 169.394H36.3992C32.8498 169.394 29.9267 166.459 29.9267 162.895C29.9267 161.148 30.6227 159.541 31.8058 158.283C32.989 157.025 34.6593 156.396 36.3992 156.396H165.154Z" fill="#564E44" fill-opacity="0.22"/>
<path d="M36.469 192.245H136.55C140.865 192.245 144.414 188.681 144.414 184.348C144.414 180.016 140.865 176.452 136.55 176.452H36.3994C34.3115 176.452 32.3628 177.291 30.8317 178.758C29.3701 180.226 28.5349 182.252 28.5349 184.348C28.6045 188.751 32.154 192.245 36.469 192.245ZM136.55 177.92C140.099 177.92 143.022 180.854 143.022 184.418C143.022 187.982 140.099 190.917 136.55 190.917H36.3994C32.85 190.917 29.9269 187.982 29.9269 184.418C29.9269 182.671 30.6229 181.064 31.806 179.806C32.9892 178.548 34.6595 177.92 36.3994 177.92H136.55Z" fill="#564E44" fill-opacity="0.22"/>
<path d="M72.243 213.838H165.155C169.47 213.838 173.02 210.274 173.02 205.941C173.02 201.609 169.47 198.045 165.155 198.045H72.1734C67.8584 198.045 64.3089 201.609 64.3089 205.941C64.3089 210.274 67.8584 213.838 72.243 213.838ZM165.155 199.443C168.705 199.443 171.628 202.377 171.628 205.941C171.628 209.505 168.705 212.44 165.155 212.44H72.1734C68.6239 212.44 65.7009 209.505 65.7009 205.941C65.7009 202.377 68.6239 199.443 72.1734 199.443H165.155Z" fill="#564E44" fill-opacity="0.22"/>
<path d="M36.4688 235.361H165.223C169.538 235.361 173.088 231.797 173.088 227.465C173.088 223.132 169.538 219.568 165.223 219.568H36.4688C32.1538 219.568 28.6044 223.132 28.6044 227.465C28.6044 231.797 32.1538 235.361 36.4688 235.361ZM165.154 220.966C168.703 220.966 171.626 223.901 171.626 227.465C171.626 231.029 168.703 233.964 165.154 233.964H36.3992C32.8498 233.964 29.9267 231.029 29.9267 227.465C29.9267 223.901 32.8498 220.966 36.3992 220.966H165.154Z" fill="#564E44" fill-opacity="0.22"/>
<path d="M107.946 256.884H165.155C169.47 256.884 173.02 253.32 173.02 248.987C173.02 244.655 169.47 241.091 165.155 241.091H107.946C105.858 241.091 103.91 241.929 102.379 243.397C100.847 244.864 100.082 246.891 100.082 248.987C100.151 253.39 103.631 256.884 107.946 256.884ZM165.155 242.558C168.705 242.558 171.628 245.493 171.628 249.057C171.628 252.621 168.705 255.556 165.155 255.556H107.946C104.397 255.556 101.474 252.621 101.474 249.057C101.474 247.31 102.17 245.703 103.353 244.445C104.606 243.187 106.206 242.558 107.946 242.558H165.155Z" fill="#564E44" fill-opacity="0.22"/>
<path d="M86.5105 256.884C90.8256 256.884 94.375 253.32 94.375 248.987C94.375 244.655 90.8256 241.091 86.5105 241.091C82.1955 241.091 78.6461 244.655 78.6461 248.987C78.6461 253.32 82.1955 256.884 86.5105 256.884ZM86.5105 242.558C90.06 242.558 92.9831 245.493 92.9831 249.057C92.9831 252.621 90.06 255.556 86.5105 255.556C82.9611 255.556 80.038 252.621 80.038 249.057C80.038 245.493 82.9611 242.558 86.5105 242.558Z" fill="#564E44" fill-opacity="0.22"/>
<path d="M158.053 192.245C162.369 192.245 165.918 188.681 165.918 184.349C165.918 180.016 162.369 176.452 158.053 176.452C153.738 176.452 150.189 180.016 150.189 184.349C150.189 188.681 153.738 192.245 158.053 192.245ZM158.053 177.92C161.603 177.92 164.526 180.855 164.526 184.418C164.526 187.982 161.603 190.917 158.053 190.917C154.504 190.917 151.581 187.982 151.581 184.418C151.581 180.855 154.504 177.92 158.053 177.92Z" fill="#564E44" fill-opacity="0.22"/>
<path d="M66.1169 120.478H138.985C143.3 120.478 146.85 116.914 146.85 112.581V74.5665L148.033 75.4051C149.773 76.5931 151.861 77.0822 153.879 76.6629C155.967 76.3135 157.707 75.1256 158.959 73.3786C160.143 71.6316 160.63 69.5352 160.212 67.5087C159.864 65.4123 158.681 63.6653 156.941 62.4773L106.066 27.1879C103.421 25.371 99.8019 25.371 97.1572 27.1879L46.2818 62.4773C44.5418 63.6653 43.4283 65.4821 43.0107 67.5087C42.5931 69.5352 43.0803 71.7015 44.2634 73.3786C45.4466 75.1256 47.2561 76.2437 49.2744 76.6629C51.3624 77.0123 53.4503 76.5931 55.1206 75.4051L58.1829 73.3087V112.651C58.2524 116.914 61.8019 120.478 66.1169 120.478ZM145.458 71.8412V112.581C145.458 116.145 142.534 119.08 138.985 119.08H66.1169C62.5675 119.08 59.6444 116.145 59.6444 112.581V70.5834L54.4246 74.2171C53.0327 75.1955 51.2928 75.5449 49.6224 75.2653C47.9521 74.9858 46.421 74.0075 45.4466 72.54C44.4722 71.1424 44.1243 69.3954 44.4026 67.7183C44.681 66.0412 45.6554 64.5038 47.1169 63.5255L97.9924 28.2361C100.219 26.6987 103.143 26.6987 105.3 28.2361L156.176 63.5255C157.567 64.5038 158.542 65.9713 158.89 67.7183C159.168 69.3954 158.82 71.1424 157.846 72.54C156.871 73.9376 155.41 74.9159 153.67 75.2653C152 75.5449 150.26 75.1955 148.868 74.2171L145.458 71.8412ZM72.5895 106.082H132.582V62.8966L101.681 41.4434L72.5895 61.6387V106.082ZM131.19 104.685H73.9814V62.4074L101.681 43.1904L131.19 63.6653V104.685Z" fill="#564E44" fill-opacity="0.22"/>
<path d="M93.6779 96.1601H111.286C115.601 96.1601 119.15 92.5962 119.15 88.2636C119.15 83.9311 115.601 80.3672 111.286 80.3672H93.6779C89.3628 80.3672 85.8134 83.9311 85.8134 88.2636C85.8134 92.5962 89.3628 96.1601 93.6779 96.1601ZM111.286 81.8347C114.835 81.8347 117.758 84.7696 117.758 88.3335C117.758 91.8974 114.835 94.8324 111.286 94.8324H93.6779C90.1284 94.8324 87.2053 91.8974 87.2053 88.3335C87.2053 84.7696 90.1284 81.8347 93.6779 81.8347H111.286Z" fill="#564E44" fill-opacity="0.22"/>
</g>
<defs>
<clipPath id="clip0_67_123">
<rect width="266" height="303" fill="white" transform="matrix(-1 0 0 1 266 -3)"/>
</clipPath>
</defs>
</svg>
