<svg width="318" height="52" viewBox="0 0 318 52" fill="none" xmlns="http://www.w3.org/2000/svg">
<path fill-rule="evenodd" clip-rule="evenodd" d="M0.888916 26C0.888916 12.1316 12.1316 0.888916 26 0.888916C39.8685 0.888916 51.1111 12.1316 51.1111 26C51.1111 39.8685 39.8685 51.1111 26 51.1111C12.1316 51.1111 0.888916 39.8685 0.888916 26ZM26 3.11114C13.3589 3.11114 3.11114 13.3589 3.11114 26C3.11114 38.6412 13.3589 48.8889 26 48.8889C38.6412 48.8889 48.8889 38.6412 48.8889 26C48.8889 13.3589 38.6412 3.11114 26 3.11114Z" fill="white"/>
<path d="M8.02249 15.7253C8.02249 16.0922 7.72501 16.3897 7.35804 16.3897C6.99108 16.3897 6.6936 16.0922 6.6936 15.7253C6.6936 15.3583 6.99108 15.0608 7.35804 15.0608C7.72501 15.0608 8.02249 15.3583 8.02249 15.7253Z" fill="white"/>
<path fill-rule="evenodd" clip-rule="evenodd" d="M7.35807 15.063C6.99234 15.063 6.69585 15.3595 6.69585 15.7253C6.69585 16.091 6.99234 16.3875 7.35807 16.3875C7.72381 16.3875 8.0203 16.091 8.0203 15.7253C8.0203 15.3595 7.72381 15.063 7.35807 15.063ZM6.69141 15.7253C6.69141 15.3571 6.98988 15.0586 7.35807 15.0586C7.72627 15.0586 8.02474 15.3571 8.02474 15.7253C8.02474 16.0934 7.72627 16.3919 7.35807 16.3919C6.98988 16.3919 6.69141 16.0934 6.69141 15.7253Z" fill="white"/>
<path d="M8.99515 14.1314C8.99515 14.4984 8.69767 14.7959 8.33071 14.7959C7.96375 14.7959 7.66626 14.4984 7.66626 14.1314C7.66626 13.7644 7.96375 13.467 8.33071 13.467C8.69767 13.467 8.99515 13.7644 8.99515 14.1314Z" fill="white"/>
<path fill-rule="evenodd" clip-rule="evenodd" d="M8.33074 13.4693C7.965 13.4693 7.66851 13.7657 7.66851 14.1315C7.66851 14.4972 7.965 14.7937 8.33074 14.7937C8.69647 14.7937 8.99295 14.4972 8.99295 14.1315C8.99295 13.7657 8.69647 13.4693 8.33074 13.4693ZM7.66406 14.1315C7.66406 13.7632 7.96255 13.4648 8.33074 13.4648C8.69892 13.4648 8.9974 13.7632 8.9974 14.1315C8.9974 14.4997 8.69892 14.7982 8.33074 14.7982C7.96255 14.7982 7.66406 14.4997 7.66406 14.1315Z" fill="white"/>
<path d="M10.1475 12.5768C10.1475 12.9438 9.85001 13.2413 9.48304 13.2413C9.11608 13.2413 8.8186 12.9438 8.8186 12.5768C8.8186 12.2099 9.11608 11.9124 9.48304 11.9124C9.85001 11.9124 10.1475 12.2099 10.1475 12.5768Z" fill="white"/>
<path fill-rule="evenodd" clip-rule="evenodd" d="M9.48307 11.9146C9.11734 11.9146 8.82085 12.2111 8.82085 12.5768C8.82085 12.9426 9.11734 13.2391 9.48307 13.2391C9.84881 13.2391 10.1453 12.9426 10.1453 12.5768C10.1453 12.2111 9.84881 11.9146 9.48307 11.9146ZM8.81641 12.5768C8.81641 12.2087 9.11488 11.9102 9.48307 11.9102C9.85127 11.9102 10.1497 12.2087 10.1497 12.5768C10.1497 12.945 9.85127 13.2435 9.48307 13.2435C9.11488 13.2435 8.81641 12.945 8.81641 12.5768Z" fill="white"/>
<path d="M11.3038 11.2682C11.3038 11.6352 11.0063 11.9327 10.6393 11.9327C10.2724 11.9327 9.97485 11.6352 9.97485 11.2682C9.97485 10.9013 10.2724 10.6038 10.6393 10.6038C11.0063 10.6038 11.3038 10.9013 11.3038 11.2682Z" fill="white"/>
<path fill-rule="evenodd" clip-rule="evenodd" d="M10.6393 10.606C10.2736 10.606 9.9771 10.9025 9.9771 11.2682C9.9771 11.634 10.2736 11.9305 10.6393 11.9305C11.0051 11.9305 11.3016 11.634 11.3016 11.2682C11.3016 10.9025 11.0051 10.606 10.6393 10.606ZM9.97266 11.2682C9.97266 10.9001 10.2712 10.6016 10.6393 10.6016C11.0075 10.6016 11.306 10.9001 11.306 11.2682C11.306 11.6364 11.0075 11.9349 10.6393 11.9349C10.2712 11.9349 9.97266 11.6364 9.97266 11.2682Z" fill="white"/>
<path d="M12.6905 9.9479C12.6905 10.3149 12.393 10.6124 12.026 10.6124C11.6591 10.6124 11.3616 10.3149 11.3616 9.9479C11.3616 9.58093 11.6591 9.28345 12.026 9.28345C12.393 9.28345 12.6905 9.58093 12.6905 9.9479Z" fill="white"/>
<path fill-rule="evenodd" clip-rule="evenodd" d="M12.026 9.28569C11.6603 9.28569 11.3638 9.58218 11.3638 9.94792C11.3638 10.3137 11.6603 10.6102 12.026 10.6102C12.3918 10.6102 12.6883 10.3137 12.6883 9.94792C12.6883 9.58218 12.3918 9.28569 12.026 9.28569ZM11.3594 9.94792C11.3594 9.57972 11.6579 9.28125 12.026 9.28125C12.3942 9.28125 12.6927 9.57972 12.6927 9.94792C12.6927 10.3161 12.3942 10.6146 12.026 10.6146C11.6579 10.6146 11.3594 10.3161 11.3594 9.94792Z" fill="white"/>
<path d="M14.1592 8.77601C14.1592 9.14297 13.8618 9.44046 13.4948 9.44046C13.1278 9.44046 12.8303 9.14297 12.8303 8.77601C12.8303 8.40905 13.1278 8.11157 13.4948 8.11157C13.8618 8.11157 14.1592 8.40905 14.1592 8.77601Z" fill="white"/>
<path fill-rule="evenodd" clip-rule="evenodd" d="M13.4948 8.11382C13.1291 8.11382 12.8326 8.4103 12.8326 8.77604C12.8326 9.14177 13.1291 9.43826 13.4948 9.43826C13.8606 9.43826 14.157 9.14177 14.157 8.77604C14.157 8.4103 13.8606 8.11382 13.4948 8.11382ZM12.8281 8.77604C12.8281 8.40785 13.1266 8.10938 13.4948 8.10938C13.8631 8.10938 14.1615 8.40785 14.1615 8.77604C14.1615 9.14422 13.8631 9.44271 13.4948 9.44271C13.1266 9.44271 12.8281 9.14422 12.8281 8.77604Z" fill="white"/>
<path d="M15.7296 7.73696C15.7296 8.10392 15.4322 8.4014 15.0652 8.4014C14.6982 8.4014 14.4008 8.10392 14.4008 7.73696C14.4008 7.37 14.6982 7.07251 15.0652 7.07251C15.4322 7.07251 15.7296 7.37 15.7296 7.73696Z" fill="white"/>
<path fill-rule="evenodd" clip-rule="evenodd" d="M15.0651 7.07476C14.6993 7.07476 14.4029 7.37125 14.4029 7.73698C14.4029 8.10272 14.6993 8.3992 15.0651 8.3992C15.4308 8.3992 15.7272 8.10272 15.7272 7.73698C15.7272 7.37125 15.4308 7.07476 15.0651 7.07476ZM14.3984 7.73698C14.3984 7.3688 14.6968 7.07031 15.0651 7.07031C15.4333 7.07031 15.7317 7.3688 15.7317 7.73698C15.7317 8.10517 15.4333 8.40365 15.0651 8.40365C14.6968 8.40365 14.3984 8.10517 14.3984 7.73698Z" fill="white"/>
<path d="M17.4873 6.79165C17.4873 7.15861 17.1898 7.45609 16.8228 7.45609C16.4559 7.45609 16.1584 7.15861 16.1584 6.79165C16.1584 6.42468 16.4559 6.1272 16.8228 6.1272C17.1898 6.1272 17.4873 6.42468 17.4873 6.79165Z" fill="white"/>
<path fill-rule="evenodd" clip-rule="evenodd" d="M16.8229 6.12944C16.4572 6.12944 16.1607 6.42593 16.1607 6.79167C16.1607 7.1574 16.4572 7.45389 16.8229 7.45389C17.1886 7.45389 17.4851 7.1574 17.4851 6.79167C17.4851 6.42593 17.1886 6.12944 16.8229 6.12944ZM16.1562 6.79167C16.1562 6.42347 16.4547 6.125 16.8229 6.125C17.1911 6.125 17.4896 6.42347 17.4896 6.79167C17.4896 7.15986 17.1911 7.45833 16.8229 7.45833C16.4547 7.45833 16.1562 7.15986 16.1562 6.79167Z" fill="white"/>
<path d="M19.1905 6.06507C19.1905 6.43204 18.893 6.72952 18.526 6.72952C18.1591 6.72952 17.8616 6.43204 17.8616 6.06507C17.8616 5.69811 18.1591 5.40063 18.526 5.40063C18.893 5.40063 19.1905 5.69811 19.1905 6.06507Z" fill="white"/>
<path fill-rule="evenodd" clip-rule="evenodd" d="M18.526 5.40288C18.1603 5.40288 17.8638 5.69937 17.8638 6.0651C17.8638 6.43084 18.1603 6.72733 18.526 6.72733C18.8918 6.72733 19.1883 6.43084 19.1883 6.0651C19.1883 5.69937 18.8918 5.40288 18.526 5.40288ZM17.8594 6.0651C17.8594 5.69691 18.1579 5.39844 18.526 5.39844C18.8942 5.39844 19.1927 5.69691 19.1927 6.0651C19.1927 6.4333 18.8942 6.73177 18.526 6.73177C18.1579 6.73177 17.8594 6.4333 17.8594 6.0651Z" fill="white"/>
<path d="M20.9717 5.48696C20.9717 5.85392 20.6743 6.1514 20.3073 6.1514C19.9403 6.1514 19.6428 5.85392 19.6428 5.48696C19.6428 5.12 19.9403 4.82251 20.3073 4.82251C20.6743 4.82251 20.9717 5.12 20.9717 5.48696Z" fill="white"/>
<path fill-rule="evenodd" clip-rule="evenodd" d="M20.3073 4.82476C19.9416 4.82476 19.6451 5.12125 19.6451 5.48698C19.6451 5.85272 19.9416 6.1492 20.3073 6.1492C20.6731 6.1492 20.9695 5.85272 20.9695 5.48698C20.9695 5.12125 20.6731 4.82476 20.3073 4.82476ZM19.6406 5.48698C19.6406 5.1188 19.9391 4.82031 20.3073 4.82031C20.6756 4.82031 20.974 5.1188 20.974 5.48698C20.974 5.85517 20.6756 6.15365 20.3073 6.15365C19.9391 6.15365 19.6406 5.85517 19.6406 5.48698Z" fill="white"/>
<path d="M22.9424 5.04165C22.9424 5.40861 22.645 5.70609 22.278 5.70609C21.911 5.70609 21.6136 5.40861 21.6136 5.04165C21.6136 4.67468 21.911 4.3772 22.278 4.3772C22.645 4.3772 22.9424 4.67468 22.9424 5.04165Z" fill="white"/>
<path fill-rule="evenodd" clip-rule="evenodd" d="M22.278 4.37944C21.9122 4.37944 21.6158 4.67593 21.6158 5.04167C21.6158 5.4074 21.9122 5.70389 22.278 5.70389C22.6437 5.70389 22.9401 5.4074 22.9401 5.04167C22.9401 4.67593 22.6437 4.37944 22.278 4.37944ZM21.6113 5.04167C21.6113 4.67347 21.9097 4.375 22.278 4.375C22.6462 4.375 22.9446 4.67347 22.9446 5.04167C22.9446 5.40986 22.6462 5.70833 22.278 5.70833C21.9097 5.70833 21.6113 5.40986 21.6113 5.04167Z" fill="white"/>
<path d="M24.8623 4.79165C24.8623 5.15861 24.5648 5.45609 24.1978 5.45609C23.8309 5.45609 23.5334 5.15861 23.5334 4.79165C23.5334 4.42468 23.8309 4.1272 24.1978 4.1272C24.5648 4.1272 24.8623 4.42468 24.8623 4.79165Z" fill="white"/>
<path fill-rule="evenodd" clip-rule="evenodd" d="M24.1979 4.12944C23.8322 4.12944 23.5357 4.42593 23.5357 4.79167C23.5357 5.1574 23.8322 5.45389 24.1979 5.45389C24.5636 5.45389 24.8601 5.1574 24.8601 4.79167C24.8601 4.42593 24.5636 4.12944 24.1979 4.12944ZM23.5312 4.79167C23.5312 4.42347 23.8297 4.125 24.1979 4.125C24.5661 4.125 24.8646 4.42347 24.8646 4.79167C24.8646 5.15986 24.5661 5.45833 24.1979 5.45833C23.8297 5.45833 23.5312 5.15986 23.5312 4.79167Z" fill="white"/>
<path d="M26.7921 4.71743C26.7921 5.08439 26.4947 5.38187 26.1277 5.38187C25.7607 5.38187 25.4633 5.08439 25.4633 4.71743C25.4633 4.35047 25.7607 4.05298 26.1277 4.05298C26.4947 4.05298 26.7921 4.35047 26.7921 4.71743Z" fill="white"/>
<path fill-rule="evenodd" clip-rule="evenodd" d="M26.1276 4.05523C25.7618 4.05523 25.4654 4.35172 25.4654 4.71745C25.4654 5.08319 25.7618 5.37967 26.1276 5.37967C26.4933 5.37967 26.7897 5.08319 26.7897 4.71745C26.7897 4.35172 26.4933 4.05523 26.1276 4.05523ZM25.4609 4.71745C25.4609 4.34927 25.7593 4.05078 26.1276 4.05078C26.4958 4.05078 26.7942 4.34927 26.7942 4.71745C26.7942 5.08564 26.4958 5.38412 26.1276 5.38412C25.7593 5.38412 25.4609 5.08564 25.4609 4.71745Z" fill="white"/>
<path d="M28.7139 4.81507C28.7139 5.18204 28.4164 5.47952 28.0495 5.47952C27.6825 5.47952 27.385 5.18204 27.385 4.81507C27.385 4.44811 27.6825 4.15063 28.0495 4.15063C28.4164 4.15063 28.7139 4.44811 28.7139 4.81507Z" fill="white"/>
<path fill-rule="evenodd" clip-rule="evenodd" d="M28.0495 4.15288C27.6838 4.15288 27.3873 4.44937 27.3873 4.8151C27.3873 5.18084 27.6838 5.47733 28.0495 5.47733C28.4152 5.47733 28.7117 5.18084 28.7117 4.8151C28.7117 4.44937 28.4152 4.15288 28.0495 4.15288ZM27.3828 4.8151C27.3828 4.44691 27.6813 4.14844 28.0495 4.14844C28.4177 4.14844 28.7162 4.44691 28.7162 4.8151C28.7162 5.1833 28.4177 5.48177 28.0495 5.48177C27.6813 5.48177 27.3828 5.1833 27.3828 4.8151Z" fill="white"/>
<path d="M30.6123 5.08071C30.6123 5.44767 30.3148 5.74515 29.9478 5.74515C29.5809 5.74515 29.2834 5.44767 29.2834 5.08071C29.2834 4.71375 29.5809 4.41626 29.9478 4.41626C30.3148 4.41626 30.6123 4.71375 30.6123 5.08071Z" fill="white"/>
<path fill-rule="evenodd" clip-rule="evenodd" d="M29.9479 4.41851C29.5822 4.41851 29.2857 4.715 29.2857 5.08073C29.2857 5.44647 29.5822 5.74295 29.9479 5.74295C30.3136 5.74295 30.6101 5.44647 30.6101 5.08073C30.6101 4.715 30.3136 4.41851 29.9479 4.41851ZM29.2812 5.08073C29.2812 4.71255 29.5797 4.41406 29.9479 4.41406C30.3161 4.41406 30.6146 4.71255 30.6146 5.08073C30.6146 5.44892 30.3161 5.7474 29.9479 5.7474C29.5797 5.7474 29.2812 5.44892 29.2812 5.08073Z" fill="white"/>
<path d="M32.4561 5.51821C32.4561 5.88517 32.1586 6.18265 31.7917 6.18265C31.4247 6.18265 31.1272 5.88517 31.1272 5.51821C31.1272 5.15125 31.4247 4.85376 31.7917 4.85376C32.1586 4.85376 32.4561 5.15125 32.4561 5.51821Z" fill="white"/>
<path fill-rule="evenodd" clip-rule="evenodd" d="M31.7917 4.85601C31.426 4.85601 31.1294 5.1525 31.1294 5.51823C31.1294 5.88397 31.426 6.18045 31.7917 6.18045C32.1574 6.18045 32.4539 5.88397 32.4539 5.51823C32.4539 5.1525 32.1574 4.85601 31.7917 4.85601ZM31.125 5.51823C31.125 5.15005 31.4235 4.85156 31.7917 4.85156C32.1599 4.85156 32.4583 5.15005 32.4583 5.51823C32.4583 5.88642 32.1599 6.1849 31.7917 6.1849C31.4235 6.1849 31.125 5.88642 31.125 5.51823Z" fill="white"/>
<path d="M34.1748 6.08071C34.1748 6.44767 33.8773 6.74515 33.5103 6.74515C33.1434 6.74515 32.8459 6.44767 32.8459 6.08071C32.8459 5.71375 33.1434 5.41626 33.5103 5.41626C33.8773 5.41626 34.1748 5.71375 34.1748 6.08071Z" fill="white"/>
<path fill-rule="evenodd" clip-rule="evenodd" d="M33.5104 5.41851C33.1447 5.41851 32.8482 5.715 32.8482 6.08073C32.8482 6.44647 33.1447 6.74295 33.5104 6.74295C33.8761 6.74295 34.1726 6.44647 34.1726 6.08073C34.1726 5.715 33.8761 5.41851 33.5104 5.41851ZM32.8438 6.08073C32.8438 5.71255 33.1422 5.41406 33.5104 5.41406C33.8786 5.41406 34.1771 5.71255 34.1771 6.08073C34.1771 6.44892 33.8786 6.7474 33.5104 6.7474C33.1422 6.7474 32.8438 6.44892 32.8438 6.08073Z" fill="white"/>
<path d="M35.8819 6.81118C35.8819 7.17814 35.5844 7.47562 35.2175 7.47562C34.8505 7.47562 34.553 7.17814 34.553 6.81118C34.553 6.44422 34.8505 6.14673 35.2175 6.14673C35.5844 6.14673 35.8819 6.44422 35.8819 6.81118Z" fill="white"/>
<path fill-rule="evenodd" clip-rule="evenodd" d="M35.2175 6.14898C34.8517 6.14898 34.5552 6.44547 34.5552 6.8112C34.5552 7.17694 34.8517 7.47342 35.2175 7.47342C35.5832 7.47342 35.8797 7.17694 35.8797 6.8112C35.8797 6.44547 35.5832 6.14898 35.2175 6.14898ZM34.5508 6.8112C34.5508 6.44302 34.8493 6.14453 35.2175 6.14453C35.5856 6.14453 35.8841 6.44302 35.8841 6.8112C35.8841 7.17939 35.5856 7.47787 35.2175 7.47787C34.8493 7.47787 34.5508 7.17939 34.5508 6.8112Z" fill="white"/>
<path d="M37.4717 7.66273C37.4717 8.02969 37.1743 8.32717 36.8073 8.32717C36.4403 8.32717 36.1428 8.02969 36.1428 7.66273C36.1428 7.29577 36.4403 6.99829 36.8073 6.99829C37.1743 6.99829 37.4717 7.29577 37.4717 7.66273Z" fill="white"/>
<path fill-rule="evenodd" clip-rule="evenodd" d="M36.8073 7.00054C36.4416 7.00054 36.1451 7.29702 36.1451 7.66276C36.1451 8.02849 36.4416 8.32497 36.8073 8.32497C37.1731 8.32497 37.4695 8.02849 37.4695 7.66276C37.4695 7.29702 37.1731 7.00054 36.8073 7.00054ZM36.1406 7.66276C36.1406 7.29457 36.4391 6.99609 36.8073 6.99609C37.1756 6.99609 37.474 7.29457 37.474 7.66276C37.474 8.03094 37.1756 8.32942 36.8073 8.32942C36.4391 8.32942 36.1406 8.03094 36.1406 7.66276Z" fill="white"/>
<path d="M38.9834 8.64321C38.9834 9.01017 38.6859 9.30765 38.3189 9.30765C37.9519 9.30765 37.6545 9.01017 37.6545 8.64321C37.6545 8.27625 37.9519 7.97876 38.3189 7.97876C38.6859 7.97876 38.9834 8.27625 38.9834 8.64321Z" fill="white"/>
<path fill-rule="evenodd" clip-rule="evenodd" d="M38.319 7.98101C37.9532 7.98101 37.6568 8.2775 37.6568 8.64324C37.6568 9.00897 37.9532 9.30545 38.319 9.30545C38.6847 9.30545 38.9812 9.00897 38.9812 8.64324C38.9812 8.2775 38.6847 7.98101 38.319 7.98101ZM37.6523 8.64324C37.6523 8.27505 37.9507 7.97656 38.319 7.97656C38.6872 7.97656 38.9857 8.27505 38.9857 8.64324C38.9857 9.01142 38.6872 9.3099 38.319 9.3099C37.9507 9.3099 37.6523 9.01142 37.6523 8.64324Z" fill="white"/>
<path d="M40.4815 9.81507C40.4815 10.1821 40.184 10.4795 39.8171 10.4795C39.4501 10.4795 39.1526 10.1821 39.1526 9.81507C39.1526 9.44811 39.4501 9.15063 39.8171 9.15063C40.184 9.15063 40.4815 9.44811 40.4815 9.81507Z" fill="white"/>
<path fill-rule="evenodd" clip-rule="evenodd" d="M39.8171 9.15288C39.4513 9.15288 39.1548 9.44937 39.1548 9.8151C39.1548 10.1809 39.4513 10.4773 39.8171 10.4773C40.1828 10.4773 40.4793 10.1809 40.4793 9.8151C40.4793 9.44937 40.1828 9.15288 39.8171 9.15288ZM39.1504 9.8151C39.1504 9.44691 39.4489 9.14844 39.8171 9.14844C40.1852 9.14844 40.4837 9.44691 40.4837 9.8151C40.4837 10.1833 40.1852 10.4817 39.8171 10.4817C39.4489 10.4817 39.1504 10.1833 39.1504 9.8151Z" fill="white"/>
<path d="M43.1788 12.5728C43.1788 12.9398 42.8813 13.2373 42.5143 13.2373C42.1474 13.2373 41.8499 12.9398 41.8499 12.5728C41.8499 12.2059 42.1474 11.9084 42.5143 11.9084C42.8813 11.9084 43.1788 12.2059 43.1788 12.5728Z" fill="white"/>
<path fill-rule="evenodd" clip-rule="evenodd" d="M42.5143 11.9107C42.1486 11.9107 41.8521 12.2072 41.8521 12.5729C41.8521 12.9386 42.1486 13.2352 42.5143 13.2352C42.8801 13.2352 43.1766 12.9386 43.1766 12.5729C43.1766 12.2072 42.8801 11.9107 42.5143 11.9107ZM41.8477 12.5729C41.8477 12.2047 42.1462 11.9062 42.5143 11.9062C42.8825 11.9062 43.181 12.2047 43.181 12.5729C43.181 12.9411 42.8825 13.2396 42.5143 13.2396C42.1462 13.2396 41.8477 12.9411 41.8477 12.5729Z" fill="white"/>
<path d="M44.3038 14.0885C44.3038 14.4555 44.0063 14.753 43.6393 14.753C43.2724 14.753 42.9749 14.4555 42.9749 14.0885C42.9749 13.7216 43.2724 13.4241 43.6393 13.4241C44.0063 13.4241 44.3038 13.7216 44.3038 14.0885Z" fill="white"/>
<path fill-rule="evenodd" clip-rule="evenodd" d="M43.6393 13.4263C43.2736 13.4263 42.9771 13.7228 42.9771 14.0885C42.9771 14.4543 43.2736 14.7508 43.6393 14.7508C44.0051 14.7508 44.3016 14.4543 44.3016 14.0885C44.3016 13.7228 44.0051 13.4263 43.6393 13.4263ZM42.9727 14.0885C42.9727 13.7204 43.2712 13.4219 43.6393 13.4219C44.0075 13.4219 44.306 13.7204 44.306 14.0885C44.306 14.4567 44.0075 14.7552 43.6393 14.7552C43.2712 14.7552 42.9727 14.4567 42.9727 14.0885Z" fill="white"/>
<path d="M45.2608 15.6432C45.2608 16.0102 44.9633 16.3077 44.5964 16.3077C44.2294 16.3077 43.9319 16.0102 43.9319 15.6432C43.9319 15.2763 44.2294 14.9788 44.5964 14.9788C44.9633 14.9788 45.2608 15.2763 45.2608 15.6432Z" fill="white"/>
<path fill-rule="evenodd" clip-rule="evenodd" d="M44.5964 14.981C44.2306 14.981 43.9341 15.2775 43.9341 15.6432C43.9341 16.009 44.2306 16.3055 44.5964 16.3055C44.9621 16.3055 45.2586 16.009 45.2586 15.6432C45.2586 15.2775 44.9621 14.981 44.5964 14.981ZM43.9297 15.6432C43.9297 15.2751 44.2282 14.9766 44.5964 14.9766C44.9645 14.9766 45.263 15.2751 45.263 15.6432C45.263 16.0114 44.9645 16.3099 44.5964 16.3099C44.2282 16.3099 43.9297 16.0114 43.9297 15.6432Z" fill="white"/>
<path d="M41.837 11.0728C41.837 11.4398 41.5395 11.7373 41.1725 11.7373C40.8056 11.7373 40.5081 11.4398 40.5081 11.0728C40.5081 10.7059 40.8056 10.4084 41.1725 10.4084C41.5395 10.4084 41.837 10.7059 41.837 11.0728Z" fill="white"/>
<path fill-rule="evenodd" clip-rule="evenodd" d="M41.1725 10.4107C40.8068 10.4107 40.5103 10.7072 40.5103 11.0729C40.5103 11.4386 40.8068 11.7352 41.1725 11.7352C41.5383 11.7352 41.8348 11.4386 41.8348 11.0729C41.8348 10.7072 41.5383 10.4107 41.1725 10.4107ZM40.5059 11.0729C40.5059 10.7047 40.8044 10.4062 41.1725 10.4062C41.5407 10.4062 41.8392 10.7047 41.8392 11.0729C41.8392 11.4411 41.5407 11.7396 41.1725 11.7396C40.8044 11.7396 40.5059 11.4411 40.5059 11.0729Z" fill="white"/>
<path d="M46.0889 17.2917C46.0889 17.6586 45.7914 17.9561 45.4245 17.9561C45.0575 17.9561 44.76 17.6586 44.76 17.2917C44.76 16.9247 45.0575 16.6272 45.4245 16.6272C45.7914 16.6272 46.0889 16.9247 46.0889 17.2917Z" fill="white"/>
<path fill-rule="evenodd" clip-rule="evenodd" d="M45.4245 16.6294C45.0588 16.6294 44.7623 16.926 44.7623 17.2917C44.7623 17.6574 45.0588 17.9539 45.4245 17.9539C45.7902 17.9539 46.0867 17.6574 46.0867 17.2917C46.0867 16.926 45.7902 16.6294 45.4245 16.6294ZM44.7578 17.2917C44.7578 16.9235 45.0563 16.625 45.4245 16.625C45.7927 16.625 46.0912 16.9235 46.0912 17.2917C46.0912 17.6599 45.7927 17.9583 45.4245 17.9583C45.0563 17.9583 44.7578 17.6599 44.7578 17.2917Z" fill="white"/>
<path d="M46.794 19.0728C46.794 19.4398 46.4965 19.7373 46.1296 19.7373C45.7626 19.7373 45.4651 19.4398 45.4651 19.0728C45.4651 18.7059 45.7626 18.4084 46.1296 18.4084C46.4965 18.4084 46.794 18.7059 46.794 19.0728Z" fill="white"/>
<path fill-rule="evenodd" clip-rule="evenodd" d="M46.1296 18.4107C45.7638 18.4107 45.4673 18.7072 45.4673 19.0729C45.4673 19.4386 45.7638 19.7351 46.1296 19.7351C46.4953 19.7351 46.7918 19.4386 46.7918 19.0729C46.7918 18.7072 46.4953 18.4107 46.1296 18.4107ZM45.4629 19.0729C45.4629 18.7047 45.7614 18.4062 46.1296 18.4062C46.4977 18.4062 46.7962 18.7047 46.7962 19.0729C46.7962 19.4411 46.4977 19.7396 46.1296 19.7396C45.7614 19.7396 45.4629 19.4411 45.4629 19.0729Z" fill="white"/>
<path d="M47.3194 20.8464C47.3194 21.2133 47.0219 21.5108 46.6549 21.5108C46.288 21.5108 45.9905 21.2133 45.9905 20.8464C45.9905 20.4794 46.288 20.1819 46.6549 20.1819C47.0219 20.1819 47.3194 20.4794 47.3194 20.8464Z" fill="white"/>
<path fill-rule="evenodd" clip-rule="evenodd" d="M46.6549 20.1841C46.2892 20.1841 45.9927 20.4806 45.9927 20.8464C45.9927 21.2121 46.2892 21.5086 46.6549 21.5086C47.0207 21.5086 47.3172 21.2121 47.3172 20.8464C47.3172 20.4806 47.0207 20.1841 46.6549 20.1841ZM45.9883 20.8464C45.9883 20.4782 46.2868 20.1797 46.6549 20.1797C47.0231 20.1797 47.3216 20.4782 47.3216 20.8464C47.3216 21.2145 47.0231 21.513 46.6549 21.513C46.2868 21.513 45.9883 21.2145 45.9883 20.8464Z" fill="white"/>
<path d="M47.6827 22.6432C47.6827 23.0102 47.3852 23.3077 47.0182 23.3077C46.6513 23.3077 46.3538 23.0102 46.3538 22.6432C46.3538 22.2763 46.6513 21.9788 47.0182 21.9788C47.3852 21.9788 47.6827 22.2763 47.6827 22.6432Z" fill="white"/>
<path fill-rule="evenodd" clip-rule="evenodd" d="M47.0182 21.981C46.6525 21.981 46.356 22.2775 46.356 22.6432C46.356 23.009 46.6525 23.3055 47.0182 23.3055C47.384 23.3055 47.6805 23.009 47.6805 22.6432C47.6805 22.2775 47.384 21.981 47.0182 21.981ZM46.3516 22.6432C46.3516 22.2751 46.6501 21.9766 47.0182 21.9766C47.3864 21.9766 47.6849 22.2751 47.6849 22.6432C47.6849 23.0114 47.3864 23.3099 47.0182 23.3099C46.6501 23.3099 46.3516 23.0114 46.3516 22.6432Z" fill="white"/>
<path d="M47.8936 24.4674C47.8936 24.8344 47.5961 25.1319 47.2292 25.1319C46.8622 25.1319 46.5647 24.8344 46.5647 24.4674C46.5647 24.1005 46.8622 23.803 47.2292 23.803C47.5961 23.803 47.8936 24.1005 47.8936 24.4674Z" fill="white"/>
<path fill-rule="evenodd" clip-rule="evenodd" d="M47.2292 23.8052C46.8634 23.8052 46.5669 24.1017 46.5669 24.4674C46.5669 24.8332 46.8634 25.1297 47.2292 25.1297C47.5949 25.1297 47.8914 24.8332 47.8914 24.4674C47.8914 24.1017 47.5949 23.8052 47.2292 23.8052ZM46.5625 24.4674C46.5625 24.0993 46.861 23.8008 47.2292 23.8008C47.5973 23.8008 47.8958 24.0993 47.8958 24.4674C47.8958 24.8356 47.5973 25.1341 47.2292 25.1341C46.861 25.1341 46.5625 24.8356 46.5625 24.4674Z" fill="white"/>
<path d="M47.9424 26.3971C47.9424 26.7641 47.645 27.0616 47.278 27.0616C46.911 27.0616 46.6136 26.7641 46.6136 26.3971C46.6136 26.0302 46.911 25.7327 47.278 25.7327C47.645 25.7327 47.9424 26.0302 47.9424 26.3971Z" fill="white"/>
<path fill-rule="evenodd" clip-rule="evenodd" d="M47.2779 25.7349C46.9122 25.7349 46.6158 26.0314 46.6158 26.3971C46.6158 26.7629 46.9122 27.0594 47.2779 27.0594C47.6437 27.0594 47.9401 26.7629 47.9401 26.3971C47.9401 26.0314 47.6437 25.7349 47.2779 25.7349ZM46.6113 26.3971C46.6113 26.029 46.9097 25.7305 47.2779 25.7305C47.6462 25.7305 47.9446 26.029 47.9446 26.3971C47.9446 26.7653 47.6462 27.0638 47.2779 27.0638C46.9097 27.0638 46.6113 26.7653 46.6113 26.3971Z" fill="white"/>
<path d="M47.8233 28.3073C47.8233 28.6743 47.5258 28.9717 47.1589 28.9717C46.7919 28.9717 46.4944 28.6743 46.4944 28.3073C46.4944 27.9403 46.7919 27.6428 47.1589 27.6428C47.5258 27.6428 47.8233 27.9403 47.8233 28.3073Z" fill="white"/>
<path fill-rule="evenodd" clip-rule="evenodd" d="M47.1589 27.6451C46.7931 27.6451 46.4966 27.9416 46.4966 28.3073C46.4966 28.6731 46.7931 28.9695 47.1589 28.9695C47.5246 28.9695 47.8211 28.6731 47.8211 28.3073C47.8211 27.9416 47.5246 27.6451 47.1589 27.6451ZM46.4922 28.3073C46.4922 27.9391 46.7907 27.6406 47.1589 27.6406C47.527 27.6406 47.8255 27.9391 47.8255 28.3073C47.8255 28.6756 47.527 28.974 47.1589 28.974C46.7907 28.974 46.4922 28.6756 46.4922 28.3073Z" fill="white"/>
<path d="M47.5616 30.0495C47.5616 30.4164 47.2641 30.7139 46.8971 30.7139C46.5302 30.7139 46.2327 30.4164 46.2327 30.0495C46.2327 29.6825 46.5302 29.385 46.8971 29.385C47.2641 29.385 47.5616 29.6825 47.5616 30.0495Z" fill="white"/>
<path fill-rule="evenodd" clip-rule="evenodd" d="M46.8971 29.3873C46.5314 29.3873 46.2349 29.6838 46.2349 30.0495C46.2349 30.4152 46.5314 30.7117 46.8971 30.7117C47.2629 30.7117 47.5594 30.4152 47.5594 30.0495C47.5594 29.6838 47.2629 29.3873 46.8971 29.3873ZM46.2305 30.0495C46.2305 29.6813 46.529 29.3828 46.8971 29.3828C47.2653 29.3828 47.5638 29.6813 47.5638 30.0495C47.5638 30.4177 47.2653 30.7162 46.8971 30.7162C46.529 30.7162 46.2305 30.4177 46.2305 30.0495Z" fill="white"/>
<path d="M47.1671 31.7214C47.1671 32.0883 46.8697 32.3858 46.5027 32.3858C46.1357 32.3858 45.8383 32.0883 45.8383 31.7214C45.8383 31.3544 46.1357 31.0569 46.5027 31.0569C46.8697 31.0569 47.1671 31.3544 47.1671 31.7214Z" fill="white"/>
<path fill-rule="evenodd" clip-rule="evenodd" d="M46.5026 31.0591C46.1368 31.0591 45.8404 31.3556 45.8404 31.7214C45.8404 32.0871 46.1368 32.3836 46.5026 32.3836C46.8683 32.3836 47.1647 32.0871 47.1647 31.7214C47.1647 31.3556 46.8683 31.0591 46.5026 31.0591ZM45.8359 31.7214C45.8359 31.3532 46.1343 31.0547 46.5026 31.0547C46.8708 31.0547 47.1692 31.3532 47.1692 31.7214C47.1692 32.0895 46.8708 32.388 46.5026 32.388C46.1343 32.388 45.8359 32.0895 45.8359 31.7214Z" fill="white"/>
<path d="M46.6397 33.362C46.6397 33.7289 46.3422 34.0264 45.9753 34.0264C45.6083 34.0264 45.3108 33.7289 45.3108 33.362C45.3108 32.995 45.6083 32.6975 45.9753 32.6975C46.3422 32.6975 46.6397 32.995 46.6397 33.362Z" fill="white"/>
<path fill-rule="evenodd" clip-rule="evenodd" d="M45.9753 32.6998C45.6095 32.6998 45.313 32.9963 45.313 33.362C45.313 33.7277 45.6095 34.0242 45.9753 34.0242C46.341 34.0242 46.6375 33.7277 46.6375 33.362C46.6375 32.9963 46.341 32.6998 45.9753 32.6998ZM45.3086 33.362C45.3086 32.9938 45.6071 32.6953 45.9753 32.6953C46.3434 32.6953 46.6419 32.9938 46.6419 33.362C46.6419 33.7302 46.3434 34.0287 45.9753 34.0287C45.6071 34.0287 45.3086 33.7302 45.3086 33.362Z" fill="white"/>
<path d="M45.96 34.9909C45.96 35.3578 45.6625 35.6553 45.2956 35.6553C44.9286 35.6553 44.6311 35.3578 44.6311 34.9909C44.6311 34.6239 44.9286 34.3264 45.2956 34.3264C45.6625 34.3264 45.96 34.6239 45.96 34.9909Z" fill="white"/>
<path fill-rule="evenodd" clip-rule="evenodd" d="M45.2956 34.3287C44.9299 34.3287 44.6334 34.6252 44.6334 34.9909C44.6334 35.3566 44.9299 35.6531 45.2956 35.6531C45.6613 35.6531 45.9578 35.3566 45.9578 34.9909C45.9578 34.6252 45.6613 34.3287 45.2956 34.3287ZM44.6289 34.9909C44.6289 34.6227 44.9274 34.3242 45.2956 34.3242C45.6638 34.3242 45.9622 34.6227 45.9622 34.9909C45.9622 35.3591 45.6638 35.6576 45.2956 35.6576C44.9274 35.6576 44.6289 35.3591 44.6289 34.9909Z" fill="white"/>
<path d="M45.1397 36.5689C45.1397 36.9359 44.8422 37.2334 44.4753 37.2334C44.1083 37.2334 43.8108 36.9359 43.8108 36.5689C43.8108 36.2019 44.1083 35.9045 44.4753 35.9045C44.8422 35.9045 45.1397 36.2019 45.1397 36.5689Z" fill="white"/>
<path fill-rule="evenodd" clip-rule="evenodd" d="M44.4753 35.9068C44.1095 35.9068 43.813 36.2032 43.813 36.569C43.813 36.9347 44.1095 37.2312 44.4753 37.2312C44.841 37.2312 45.1375 36.9347 45.1375 36.569C45.1375 36.2032 44.841 35.9068 44.4753 35.9068ZM43.8086 36.569C43.8086 36.2007 44.1071 35.9023 44.4753 35.9023C44.8434 35.9023 45.1419 36.2007 45.1419 36.569C45.1419 36.9372 44.8434 37.2357 44.4753 37.2357C44.1071 37.2357 43.8086 36.9372 43.8086 36.569Z" fill="white"/>
<path d="M44.1397 38.151C44.1397 38.518 43.8422 38.8155 43.4753 38.8155C43.1083 38.8155 42.8108 38.518 42.8108 38.151C42.8108 37.7841 43.1083 37.4866 43.4753 37.4866C43.8422 37.4866 44.1397 37.7841 44.1397 38.151Z" fill="white"/>
<path fill-rule="evenodd" clip-rule="evenodd" d="M43.4753 37.4888C43.1095 37.4888 42.813 37.7853 42.813 38.151C42.813 38.5168 43.1095 38.8133 43.4753 38.8133C43.841 38.8133 44.1375 38.5168 44.1375 38.151C44.1375 37.7853 43.841 37.4888 43.4753 37.4888ZM42.8086 38.151C42.8086 37.7829 43.1071 37.4844 43.4753 37.4844C43.8434 37.4844 44.1419 37.7829 44.1419 38.151C44.1419 38.5192 43.8434 38.8177 43.4753 38.8177C43.1071 38.8177 42.8086 38.5192 42.8086 38.151Z" fill="white"/>
<path d="M43.0147 39.6237C43.0147 39.9907 42.7172 40.2882 42.3503 40.2882C41.9833 40.2882 41.6858 39.9907 41.6858 39.6237C41.6858 39.2567 41.9833 38.9594 42.3503 38.9594C42.7172 38.9594 43.0147 39.2567 43.0147 39.6237Z" fill="white"/>
<path fill-rule="evenodd" clip-rule="evenodd" d="M42.3503 38.9615C41.9845 38.9615 41.688 39.2579 41.688 39.6237C41.688 39.9894 41.9845 40.2858 42.3503 40.2858C42.716 40.2858 43.0125 39.9894 43.0125 39.6237C43.0125 39.2579 42.716 38.9615 42.3503 38.9615ZM41.6836 39.6237C41.6836 39.2554 41.9821 38.957 42.3503 38.957C42.7184 38.957 43.0169 39.2554 43.0169 39.6237C43.0169 39.9919 42.7184 40.2903 42.3503 40.2903C41.9821 40.2903 41.6836 39.9919 41.6836 39.6237Z" fill="white"/>
<path d="M41.708 41.0534C41.708 41.4203 41.4105 41.7178 41.0435 41.7178C40.6766 41.7178 40.3792 41.4203 40.3792 41.0534C40.3792 40.6864 40.6766 40.3889 41.0435 40.3889C41.4105 40.3889 41.708 40.6864 41.708 41.0534Z" fill="white"/>
<path fill-rule="evenodd" clip-rule="evenodd" d="M41.0436 40.3912C40.6779 40.3912 40.3814 40.6877 40.3814 41.0534C40.3814 41.4191 40.6779 41.7156 41.0436 41.7156C41.4093 41.7156 41.7059 41.4191 41.7059 41.0534C41.7059 40.6877 41.4093 40.3912 41.0436 40.3912ZM40.377 41.0534C40.377 40.6852 40.6754 40.3867 41.0436 40.3867C41.4118 40.3867 41.7103 40.6852 41.7103 41.0534C41.7103 41.4216 41.4118 41.7201 41.0436 41.7201C40.6754 41.7201 40.377 41.4216 40.377 41.0534Z" fill="white"/>
<path d="M40.2921 42.3464C40.2921 42.7133 39.9947 43.0108 39.6277 43.0108C39.2607 43.0108 38.9633 42.7133 38.9633 42.3464C38.9633 41.9794 39.2607 41.6819 39.6277 41.6819C39.9947 41.6819 40.2921 41.9794 40.2921 42.3464Z" fill="white"/>
<path fill-rule="evenodd" clip-rule="evenodd" d="M39.6276 41.6841C39.2618 41.6841 38.9654 41.9806 38.9654 42.3464C38.9654 42.7121 39.2618 43.0086 39.6276 43.0086C39.9933 43.0086 40.2897 42.7121 40.2897 42.3464C40.2897 41.9806 39.9933 41.6841 39.6276 41.6841ZM38.9609 42.3464C38.9609 41.9782 39.2593 41.6797 39.6276 41.6797C39.9958 41.6797 40.2942 41.9782 40.2942 42.3464C40.2942 42.7145 39.9958 43.013 39.6276 43.013C39.2593 43.013 38.9609 42.7145 38.9609 42.3464Z" fill="white"/>
<path d="M38.7471 43.5221C38.7471 43.8891 38.4496 44.1866 38.0827 44.1866C37.7157 44.1866 37.4182 43.8891 37.4182 43.5221C37.4182 43.1552 37.7157 42.8577 38.0827 42.8577C38.4496 42.8577 38.7471 43.1552 38.7471 43.5221Z" fill="white"/>
<path fill-rule="evenodd" clip-rule="evenodd" d="M38.0827 42.8599C37.717 42.8599 37.4205 43.1564 37.4205 43.5221C37.4205 43.8879 37.717 44.1844 38.0827 44.1844C38.4484 44.1844 38.7449 43.8879 38.7449 43.5221C38.7449 43.1564 38.4484 42.8599 38.0827 42.8599ZM37.416 43.5221C37.416 43.154 37.7145 42.8555 38.0827 42.8555C38.4509 42.8555 38.7494 43.154 38.7494 43.5221C38.7494 43.8903 38.4509 44.1888 38.0827 44.1888C37.7145 44.1888 37.416 43.8903 37.416 43.5221Z" fill="white"/>
<path d="M37.2803 44.4518C37.2803 44.8188 36.9828 45.1163 36.6159 45.1163C36.2489 45.1163 35.9514 44.8188 35.9514 44.4518C35.9514 44.0849 36.2489 43.7874 36.6159 43.7874C36.9828 43.7874 37.2803 44.0849 37.2803 44.4518Z" fill="white"/>
<path fill-rule="evenodd" clip-rule="evenodd" d="M36.6159 43.7896C36.2502 43.7896 35.9537 44.0861 35.9537 44.4518C35.9537 44.8176 36.2502 45.1141 36.6159 45.1141C36.9816 45.1141 37.2781 44.8176 37.2781 44.4518C37.2781 44.0861 36.9816 43.7896 36.6159 43.7896ZM35.9492 44.4518C35.9492 44.0837 36.2477 43.7852 36.6159 43.7852C36.9841 43.7852 37.2826 44.0837 37.2826 44.4518C37.2826 44.82 36.9841 45.1185 36.6159 45.1185C36.2477 45.1185 35.9492 44.82 35.9492 44.4518Z" fill="white"/>
<path d="M35.7257 45.2603C35.7257 45.6273 35.4282 45.9248 35.0612 45.9248C34.6942 45.9248 34.3969 45.6273 34.3969 45.2603C34.3969 44.8934 34.6942 44.5959 35.0612 44.5959C35.4282 44.5959 35.7257 44.8934 35.7257 45.2603Z" fill="white"/>
<path fill-rule="evenodd" clip-rule="evenodd" d="M35.0612 44.5982C34.6954 44.5982 34.399 44.8947 34.399 45.2604C34.399 45.6261 34.6954 45.9226 35.0612 45.9226C35.4269 45.9226 35.7233 45.6261 35.7233 45.2604C35.7233 44.8947 35.4269 44.5982 35.0612 44.5982ZM34.3945 45.2604C34.3945 44.8922 34.6929 44.5938 35.0612 44.5938C35.4294 44.5938 35.7278 44.8922 35.7278 45.2604C35.7278 45.6286 35.4294 45.9271 35.0612 45.9271C34.6929 45.9271 34.3945 45.6286 34.3945 45.2604Z" fill="white"/>
<path d="M34.0987 45.9478C34.0987 46.3148 33.8012 46.6123 33.4342 46.6123C33.0673 46.6123 32.7698 46.3148 32.7698 45.9478C32.7698 45.5809 33.0673 45.2834 33.4342 45.2834C33.8012 45.2834 34.0987 45.5809 34.0987 45.9478Z" fill="white"/>
<path fill-rule="evenodd" clip-rule="evenodd" d="M33.4342 45.2857C33.0685 45.2857 32.772 45.5822 32.772 45.9479C32.772 46.3136 33.0685 46.6101 33.4342 46.6101C33.8 46.6101 34.0965 46.3136 34.0965 45.9479C34.0965 45.5822 33.8 45.2857 33.4342 45.2857ZM32.7676 45.9479C32.7676 45.5797 33.0661 45.2812 33.4342 45.2812C33.8024 45.2812 34.1009 45.5797 34.1009 45.9479C34.1009 46.3161 33.8024 46.6146 33.4342 46.6146C33.0661 46.6146 32.7676 46.3161 32.7676 45.9479Z" fill="white"/>
<path d="M32.3702 46.5103C32.3702 46.8773 32.0727 47.1748 31.7057 47.1748C31.3388 47.1748 31.0413 46.8773 31.0413 46.5103C31.0413 46.1434 31.3388 45.8459 31.7057 45.8459C32.0727 45.8459 32.3702 46.1434 32.3702 46.5103Z" fill="white"/>
<path fill-rule="evenodd" clip-rule="evenodd" d="M31.7057 45.8482C31.34 45.8482 31.0435 46.1447 31.0435 46.5104C31.0435 46.8761 31.34 47.1726 31.7057 47.1726C32.0715 47.1726 32.368 46.8761 32.368 46.5104C32.368 46.1447 32.0715 45.8482 31.7057 45.8482ZM31.0391 46.5104C31.0391 46.1422 31.3376 45.8438 31.7057 45.8438C32.0739 45.8438 32.3724 46.1422 32.3724 46.5104C32.3724 46.8786 32.0739 47.1771 31.7057 47.1771C31.3376 47.1771 31.0391 46.8786 31.0391 46.5104Z" fill="white"/>
<path d="M30.503 46.9362C30.503 47.3032 30.2055 47.6007 29.8385 47.6007C29.4716 47.6007 29.1741 47.3032 29.1741 46.9362C29.1741 46.5692 29.4716 46.2719 29.8385 46.2719C30.2055 46.2719 30.503 46.5692 30.503 46.9362Z" fill="white"/>
<path fill-rule="evenodd" clip-rule="evenodd" d="M29.8385 46.274C29.4728 46.274 29.1763 46.5704 29.1763 46.9362C29.1763 47.3019 29.4728 47.5983 29.8385 47.5983C30.2043 47.5983 30.5008 47.3019 30.5008 46.9362C30.5008 46.5704 30.2043 46.274 29.8385 46.274ZM29.1719 46.9362C29.1719 46.5679 29.4704 46.2695 29.8385 46.2695C30.2067 46.2695 30.5052 46.5679 30.5052 46.9362C30.5052 47.3044 30.2067 47.6028 29.8385 47.6028C29.4704 47.6028 29.1719 47.3044 29.1719 46.9362Z" fill="white"/>
<path d="M28.5791 47.1978C28.5791 47.5648 28.2816 47.8623 27.9146 47.8623C27.5477 47.8623 27.2502 47.5648 27.2502 47.1978C27.2502 46.8309 27.5477 46.5334 27.9146 46.5334C28.2816 46.5334 28.5791 46.8309 28.5791 47.1978Z" fill="white"/>
<path fill-rule="evenodd" clip-rule="evenodd" d="M27.9147 46.5357C27.549 46.5357 27.2525 46.8322 27.2525 47.1979C27.2525 47.5636 27.549 47.8601 27.9147 47.8601C28.2804 47.8601 28.5769 47.5636 28.5769 47.1979C28.5769 46.8322 28.2804 46.5357 27.9147 46.5357ZM27.248 47.1979C27.248 46.8297 27.5465 46.5312 27.9147 46.5312C28.2829 46.5312 28.5814 46.8297 28.5814 47.1979C28.5814 47.5661 28.2829 47.8646 27.9147 47.8646C27.5465 47.8646 27.248 47.5661 27.248 47.1979Z" fill="white"/>
<path d="M26.6632 47.2839C26.6632 47.6508 26.3658 47.9483 25.9988 47.9483C25.6318 47.9483 25.3344 47.6508 25.3344 47.2839C25.3344 46.9169 25.6318 46.6194 25.9988 46.6194C26.3658 46.6194 26.6632 46.9169 26.6632 47.2839Z" fill="white"/>
<path fill-rule="evenodd" clip-rule="evenodd" d="M25.9987 46.6216C25.6329 46.6216 25.3365 46.9181 25.3365 47.2839C25.3365 47.6496 25.6329 47.9461 25.9987 47.9461C26.3644 47.9461 26.6608 47.6496 26.6608 47.2839C26.6608 46.9181 26.3644 46.6216 25.9987 46.6216ZM25.332 47.2839C25.332 46.9157 25.6304 46.6172 25.9987 46.6172C26.3669 46.6172 26.6653 46.9157 26.6653 47.2839C26.6653 47.652 26.3669 47.9505 25.9987 47.9505C25.6304 47.9505 25.332 47.652 25.332 47.2839Z" fill="white"/>
<path d="M24.7178 47.1939C24.7178 47.5609 24.4203 47.8584 24.0534 47.8584C23.6864 47.8584 23.3889 47.5609 23.3889 47.1939C23.3889 46.8269 23.6864 46.5295 24.0534 46.5295C24.4203 46.5295 24.7178 46.8269 24.7178 47.1939Z" fill="white"/>
<path fill-rule="evenodd" clip-rule="evenodd" d="M24.0534 46.5318C23.6877 46.5318 23.3912 46.8282 23.3912 47.194C23.3912 47.5597 23.6877 47.8562 24.0534 47.8562C24.4191 47.8562 24.7156 47.5597 24.7156 47.194C24.7156 46.8282 24.4191 46.5318 24.0534 46.5318ZM23.3867 47.194C23.3867 46.8257 23.6852 46.5273 24.0534 46.5273C24.4216 46.5273 24.7201 46.8257 24.7201 47.194C24.7201 47.5622 24.4216 47.8607 24.0534 47.8607C23.6852 47.8607 23.3867 47.5622 23.3867 47.194Z" fill="white"/>
<path d="M22.7823 46.9284C22.7823 47.2953 22.4848 47.5928 22.1178 47.5928C21.7509 47.5928 21.4534 47.2953 21.4534 46.9284C21.4534 46.5614 21.7509 46.2639 22.1178 46.2639C22.4848 46.2639 22.7823 46.5614 22.7823 46.9284Z" fill="white"/>
<path fill-rule="evenodd" clip-rule="evenodd" d="M22.1178 46.2662C21.7521 46.2662 21.4556 46.5627 21.4556 46.9284C21.4556 47.2941 21.7521 47.5906 22.1178 47.5906C22.4836 47.5906 22.7801 47.2941 22.7801 46.9284C22.7801 46.5627 22.4836 46.2662 22.1178 46.2662ZM21.4512 46.9284C21.4512 46.5602 21.7497 46.2617 22.1178 46.2617C22.486 46.2617 22.7845 46.5602 22.7845 46.9284C22.7845 47.2966 22.486 47.5951 22.1178 47.5951C21.7497 47.5951 21.4512 47.2966 21.4512 46.9284Z" fill="white"/>
<path d="M20.8448 46.4792C20.8448 46.8461 20.5473 47.1436 20.1803 47.1436C19.8134 47.1436 19.5159 46.8461 19.5159 46.4792C19.5159 46.1122 19.8134 45.8147 20.1803 45.8147C20.5473 45.8147 20.8448 46.1122 20.8448 46.4792Z" fill="white"/>
<path fill-rule="evenodd" clip-rule="evenodd" d="M20.1803 45.8169C19.8146 45.8169 19.5181 46.1134 19.5181 46.4792C19.5181 46.8449 19.8146 47.1414 20.1803 47.1414C20.5461 47.1414 20.8426 46.8449 20.8426 46.4792C20.8426 46.1134 20.5461 45.8169 20.1803 45.8169ZM19.5137 46.4792C19.5137 46.111 19.8122 45.8125 20.1803 45.8125C20.5485 45.8125 20.847 46.111 20.847 46.4792C20.847 46.8473 20.5485 47.1458 20.1803 47.1458C19.8122 47.1458 19.5137 46.8473 19.5137 46.4792Z" fill="white"/>
<path d="M18.9913 45.8542C18.9913 46.2211 18.6938 46.5186 18.3268 46.5186C17.9599 46.5186 17.6624 46.2211 17.6624 45.8542C17.6624 45.4872 17.9599 45.1897 18.3268 45.1897C18.6938 45.1897 18.9913 45.4872 18.9913 45.8542Z" fill="white"/>
<path fill-rule="evenodd" clip-rule="evenodd" d="M18.3268 45.1919C17.9611 45.1919 17.6646 45.4884 17.6646 45.8542C17.6646 46.2199 17.9611 46.5164 18.3268 46.5164C18.6926 46.5164 18.9891 46.2199 18.9891 45.8542C18.9891 45.4884 18.6926 45.1919 18.3268 45.1919ZM17.6602 45.8542C17.6602 45.486 17.9587 45.1875 18.3268 45.1875C18.695 45.1875 18.9935 45.486 18.9935 45.8542C18.9935 46.2223 18.695 46.5208 18.3268 46.5208C17.9587 46.5208 17.6602 46.2223 17.6602 45.8542Z" fill="white"/>
<path d="M17.4053 45.1667C17.4053 45.5336 17.1078 45.8311 16.7409 45.8311C16.3739 45.8311 16.0764 45.5336 16.0764 45.1667C16.0764 44.7997 16.3739 44.5022 16.7409 44.5022C17.1078 44.5022 17.4053 44.7997 17.4053 45.1667Z" fill="white"/>
<path fill-rule="evenodd" clip-rule="evenodd" d="M16.7409 44.5044C16.3752 44.5044 16.0787 44.8009 16.0787 45.1667C16.0787 45.5324 16.3752 45.8289 16.7409 45.8289C17.1066 45.8289 17.4031 45.5324 17.4031 45.1667C17.4031 44.8009 17.1066 44.5044 16.7409 44.5044ZM16.0742 45.1667C16.0742 44.7985 16.3727 44.5 16.7409 44.5C17.1091 44.5 17.4076 44.7985 17.4076 45.1667C17.4076 45.5348 17.1091 45.8333 16.7409 45.8333C16.3727 45.8333 16.0742 45.5348 16.0742 45.1667Z" fill="white"/>
<path d="M15.9268 44.4518C15.9268 44.8188 15.6293 45.1163 15.2624 45.1163C14.8954 45.1163 14.5979 44.8188 14.5979 44.4518C14.5979 44.0849 14.8954 43.7874 15.2624 43.7874C15.6293 43.7874 15.9268 44.0849 15.9268 44.4518Z" fill="white"/>
<path fill-rule="evenodd" clip-rule="evenodd" d="M15.2624 43.7896C14.8967 43.7896 14.6001 44.0861 14.6001 44.4518C14.6001 44.8176 14.8967 45.1141 15.2624 45.1141C15.6281 45.1141 15.9246 44.8176 15.9246 44.4518C15.9246 44.0861 15.6281 43.7896 15.2624 43.7896ZM14.5957 44.4518C14.5957 44.0837 14.8942 43.7852 15.2624 43.7852C15.6306 43.7852 15.929 44.0837 15.929 44.4518C15.929 44.82 15.6306 45.1185 15.2624 45.1185C14.8942 45.1185 14.5957 44.82 14.5957 44.4518Z" fill="white"/>
<path d="M14.4678 43.4402C14.4678 43.8072 14.1703 44.1046 13.8034 44.1046C13.4364 44.1046 13.1389 43.8072 13.1389 43.4402C13.1389 43.0732 13.4364 42.7758 13.8034 42.7758C14.1703 42.7758 14.4678 43.0732 14.4678 43.4402Z" fill="white"/>
<path fill-rule="evenodd" clip-rule="evenodd" d="M13.8034 42.7779C13.4377 42.7779 13.1412 43.0743 13.1412 43.4401C13.1412 43.8058 13.4377 44.1022 13.8034 44.1022C14.1691 44.1022 14.4656 43.8058 14.4656 43.4401C14.4656 43.0743 14.1691 42.7779 13.8034 42.7779ZM13.1367 43.4401C13.1367 43.0718 13.4352 42.7734 13.8034 42.7734C14.1716 42.7734 14.4701 43.0718 14.4701 43.4401C14.4701 43.8083 14.1716 44.1067 13.8034 44.1067C13.4352 44.1067 13.1367 43.8083 13.1367 43.4401Z" fill="white"/>
<path d="M13.0791 42.3853C13.0791 42.7523 12.7816 43.0498 12.4146 43.0498C12.0477 43.0498 11.7502 42.7523 11.7502 42.3853C11.7502 42.0184 12.0477 41.7209 12.4146 41.7209C12.7816 41.7209 13.0791 42.0184 13.0791 42.3853Z" fill="white"/>
<path fill-rule="evenodd" clip-rule="evenodd" d="M12.4147 41.7232C12.049 41.7232 11.7525 42.0197 11.7525 42.3854C11.7525 42.7511 12.049 43.0476 12.4147 43.0476C12.7804 43.0476 13.0769 42.7511 13.0769 42.3854C13.0769 42.0197 12.7804 41.7232 12.4147 41.7232ZM11.748 42.3854C11.748 42.0172 12.0465 41.7188 12.4147 41.7188C12.7829 41.7188 13.0814 42.0172 13.0814 42.3854C13.0814 42.7536 12.7829 43.0521 12.4147 43.0521C12.0465 43.0521 11.748 42.7536 11.748 42.3854Z" fill="white"/>
<path d="M11.6866 41.1198C11.6866 41.4868 11.3891 41.7842 11.0221 41.7842C10.6552 41.7842 10.3577 41.4868 10.3577 41.1198C10.3577 40.7528 10.6552 40.4553 11.0221 40.4553C11.3891 40.4553 11.6866 40.7528 11.6866 41.1198Z" fill="white"/>
<path fill-rule="evenodd" clip-rule="evenodd" d="M11.0221 40.4576C10.6564 40.4576 10.3599 40.7541 10.3599 41.1198C10.3599 41.4856 10.6564 41.782 11.0221 41.782C11.3879 41.782 11.6844 41.4856 11.6844 41.1198C11.6844 40.7541 11.3879 40.4576 11.0221 40.4576ZM10.3555 41.1198C10.3555 40.7516 10.654 40.4531 11.0221 40.4531C11.3903 40.4531 11.6888 40.7516 11.6888 41.1198C11.6888 41.4881 11.3903 41.7865 11.0221 41.7865C10.654 41.7865 10.3555 41.4881 10.3555 41.1198Z" fill="white"/>
<path d="M10.417 39.7448C10.417 40.1118 10.1196 40.4092 9.75257 40.4092C9.38561 40.4092 9.08813 40.1118 9.08813 39.7448C9.08813 39.3778 9.38561 39.0803 9.75257 39.0803C10.1196 39.0803 10.417 39.3778 10.417 39.7448Z" fill="white"/>
<path fill-rule="evenodd" clip-rule="evenodd" d="M9.7526 39.0826C9.38687 39.0826 9.09038 39.3791 9.09038 39.7448C9.09038 40.1106 9.38687 40.407 9.7526 40.407C10.1184 40.407 10.4148 40.1106 10.4148 39.7448C10.4148 39.3791 10.1184 39.0826 9.7526 39.0826ZM9.08594 39.7448C9.08594 39.3766 9.38441 39.0781 9.7526 39.0781C10.1208 39.0781 10.4192 39.3766 10.4192 39.7448C10.4192 40.1131 10.1208 40.4115 9.7526 40.4115C9.38441 40.4115 9.08594 40.1131 9.08594 39.7448Z" fill="white"/>
<path d="M9.29203 38.2956C9.29203 38.6625 8.99454 38.96 8.62757 38.96C8.26061 38.96 7.96313 38.6625 7.96313 38.2956C7.96313 37.9286 8.26061 37.6311 8.62757 37.6311C8.99454 37.6311 9.29203 37.9286 9.29203 38.2956Z" fill="white"/>
<path fill-rule="evenodd" clip-rule="evenodd" d="M8.6276 37.6334C8.26187 37.6334 7.96538 37.9299 7.96538 38.2956C7.96538 38.6613 8.26187 38.9578 8.6276 38.9578C8.99334 38.9578 9.28983 38.6613 9.28983 38.2956C9.28983 37.9299 8.99334 37.6334 8.6276 37.6334ZM7.96094 38.2956C7.96094 37.9274 8.25941 37.6289 8.6276 37.6289C8.9958 37.6289 9.29427 37.9274 9.29427 38.2956C9.29427 38.6638 8.9958 38.9622 8.6276 38.9622C8.25941 38.9622 7.96094 38.6638 7.96094 38.2956Z" fill="white"/>
<path d="M8.29984 36.7643C8.29984 37.1313 8.00236 37.4288 7.6354 37.4288C7.26843 37.4288 6.97095 37.1313 6.97095 36.7643C6.97095 36.3974 7.26843 36.0999 7.6354 36.0999C8.00236 36.0999 8.29984 36.3974 8.29984 36.7643Z" fill="white"/>
<path fill-rule="evenodd" clip-rule="evenodd" d="M7.63542 36.1021C7.26968 36.1021 6.97319 36.3986 6.97319 36.7643C6.97319 37.1301 7.26968 37.4266 7.63542 37.4266C8.00115 37.4266 8.29764 37.1301 8.29764 36.7643C8.29764 36.3986 8.00115 36.1021 7.63542 36.1021ZM6.96875 36.7643C6.96875 36.3962 7.26722 36.0977 7.63542 36.0977C8.00361 36.0977 8.30208 36.3962 8.30208 36.7643C8.30208 37.1325 8.00361 37.431 7.63542 37.431C7.26722 37.431 6.96875 37.1325 6.96875 36.7643Z" fill="white"/>
<path d="M7.41312 35.0846C7.41312 35.4516 7.11564 35.7491 6.74868 35.7491C6.38172 35.7491 6.08423 35.4516 6.08423 35.0846C6.08423 34.7177 6.38172 34.4202 6.74868 34.4202C7.11564 34.4202 7.41312 34.7177 7.41312 35.0846Z" fill="white"/>
<path fill-rule="evenodd" clip-rule="evenodd" d="M6.7487 34.4224C6.38297 34.4224 6.08648 34.7189 6.08648 35.0846C6.08648 35.4504 6.38297 35.7469 6.7487 35.7469C7.11444 35.7469 7.41092 35.4504 7.41092 35.0846C7.41092 34.7189 7.11444 34.4224 6.7487 34.4224ZM6.08203 35.0846C6.08203 34.7165 6.38052 34.418 6.7487 34.418C7.11689 34.418 7.41537 34.7165 7.41537 35.0846C7.41537 35.4528 7.11689 35.7513 6.7487 35.7513C6.38052 35.7513 6.08203 35.4528 6.08203 35.0846Z" fill="white"/>
<path d="M6.73928 33.4948C6.73928 33.8618 6.4418 34.1592 6.07484 34.1592C5.70788 34.1592 5.4104 33.8618 5.4104 33.4948C5.4104 33.1278 5.70788 32.8303 6.07484 32.8303C6.4418 32.8303 6.73928 33.1278 6.73928 33.4948Z" fill="white"/>
<path fill-rule="evenodd" clip-rule="evenodd" d="M6.07487 32.8326C5.70913 32.8326 5.41265 33.1291 5.41265 33.4948C5.41265 33.8606 5.70913 34.157 6.07487 34.157C6.4406 34.157 6.73708 33.8606 6.73708 33.4948C6.73708 33.1291 6.4406 32.8326 6.07487 32.8326ZM5.4082 33.4948C5.4082 33.1266 5.70668 32.8281 6.07487 32.8281C6.44305 32.8281 6.74153 33.1266 6.74153 33.4948C6.74153 33.8631 6.44305 34.1615 6.07487 34.1615C5.70668 34.1615 5.4082 33.8631 5.4082 33.4948Z" fill="white"/>
<path d="M6.16312 31.737C6.16312 32.1039 5.86564 32.4014 5.49868 32.4014C5.13172 32.4014 4.83423 32.1039 4.83423 31.737C4.83423 31.37 5.13172 31.0725 5.49868 31.0725C5.86564 31.0725 6.16312 31.37 6.16312 31.737Z" fill="white"/>
<path fill-rule="evenodd" clip-rule="evenodd" d="M5.4987 31.0748C5.13297 31.0748 4.83648 31.3713 4.83648 31.737C4.83648 32.1027 5.13297 32.3992 5.4987 32.3992C5.86444 32.3992 6.16092 32.1027 6.16092 31.737C6.16092 31.3713 5.86444 31.0748 5.4987 31.0748ZM4.83203 31.737C4.83203 31.3688 5.13052 31.0703 5.4987 31.0703C5.86689 31.0703 6.16537 31.3688 6.16537 31.737C6.16537 32.1052 5.86689 32.4037 5.4987 32.4037C5.13052 32.4037 4.83203 32.1052 4.83203 31.737Z" fill="white"/>
<path d="M5.75296 29.9714C5.75296 30.3383 5.45547 30.6358 5.08851 30.6358C4.72155 30.6358 4.42407 30.3383 4.42407 29.9714C4.42407 29.6044 4.72155 29.3069 5.08851 29.3069C5.45547 29.3069 5.75296 29.6044 5.75296 29.9714Z" fill="white"/>
<path fill-rule="evenodd" clip-rule="evenodd" d="M5.08854 29.3091C4.7228 29.3091 4.42632 29.6056 4.42632 29.9714C4.42632 30.3371 4.7228 30.6336 5.08854 30.6336C5.45427 30.6336 5.75076 30.3371 5.75076 29.9714C5.75076 29.6056 5.45427 29.3091 5.08854 29.3091ZM4.42188 29.9714C4.42188 29.6032 4.72035 29.3047 5.08854 29.3047C5.45672 29.3047 5.75521 29.6032 5.75521 29.9714C5.75521 30.3395 5.45672 30.638 5.08854 30.638C4.72035 30.638 4.42188 30.3395 4.42188 29.9714Z" fill="white"/>
<path d="M7.24515 17.2839C7.24515 17.6508 6.94767 17.9483 6.58071 17.9483C6.21375 17.9483 5.91626 17.6508 5.91626 17.2839C5.91626 16.9169 6.21375 16.6194 6.58071 16.6194C6.94767 16.6194 7.24515 16.9169 7.24515 17.2839Z" fill="white"/>
<path fill-rule="evenodd" clip-rule="evenodd" d="M6.58073 16.6216C6.215 16.6216 5.91851 16.9181 5.91851 17.2839C5.91851 17.6496 6.215 17.9461 6.58073 17.9461C6.94647 17.9461 7.24295 17.6496 7.24295 17.2839C7.24295 16.9181 6.94647 16.6216 6.58073 16.6216ZM5.91406 17.2839C5.91406 16.9157 6.21255 16.6172 6.58073 16.6172C6.94892 16.6172 7.2474 16.9157 7.2474 17.2839C7.2474 17.652 6.94892 17.9505 6.58073 17.9505C6.21255 17.9505 5.91406 17.652 5.91406 17.2839Z" fill="white"/>
<path d="M6.52835 19.0924C6.52835 19.4594 6.23086 19.7569 5.8639 19.7569C5.49694 19.7569 5.19946 19.4594 5.19946 19.0924C5.19946 18.7255 5.49694 18.428 5.8639 18.428C6.23086 18.428 6.52835 18.7255 6.52835 19.0924Z" fill="white"/>
<path fill-rule="evenodd" clip-rule="evenodd" d="M5.86393 18.4302C5.4982 18.4302 5.20171 18.7267 5.20171 19.0924C5.20171 19.4582 5.4982 19.7547 5.86393 19.7547C6.22966 19.7547 6.52616 19.4582 6.52616 19.0924C6.52616 18.7267 6.22966 18.4302 5.86393 18.4302ZM5.19727 19.0924C5.19727 18.7243 5.49574 18.4258 5.86393 18.4258C6.23212 18.4258 6.5306 18.7243 6.5306 19.0924C6.5306 19.4606 6.23212 19.7591 5.86393 19.7591C5.49574 19.7591 5.19727 19.4606 5.19727 19.0924Z" fill="white"/>
<path d="M6.01467 20.8228C6.01467 21.1898 5.71719 21.4873 5.35023 21.4873C4.98327 21.4873 4.68579 21.1898 4.68579 20.8228C4.68579 20.4559 4.98327 20.1584 5.35023 20.1584C5.71719 20.1584 6.01467 20.4559 6.01467 20.8228Z" fill="white"/>
<path fill-rule="evenodd" clip-rule="evenodd" d="M5.35026 20.1607C4.98452 20.1607 4.68804 20.4572 4.68804 20.8229C4.68804 21.1886 4.98452 21.4851 5.35026 21.4851C5.71599 21.4851 6.01247 21.1886 6.01247 20.8229C6.01247 20.4572 5.71599 20.1607 5.35026 20.1607ZM4.68359 20.8229C4.68359 20.4547 4.98207 20.1562 5.35026 20.1562C5.71844 20.1562 6.01692 20.4547 6.01692 20.8229C6.01692 21.1911 5.71844 21.4896 5.35026 21.4896C4.98207 21.4896 4.68359 21.1911 4.68359 20.8229Z" fill="white"/>
<path d="M5.63187 22.737C5.63187 23.1039 5.33439 23.4014 4.96743 23.4014C4.60047 23.4014 4.30298 23.1039 4.30298 22.737C4.30298 22.37 4.60047 22.0725 4.96743 22.0725C5.33439 22.0725 5.63187 22.37 5.63187 22.737Z" fill="white"/>
<path fill-rule="evenodd" clip-rule="evenodd" d="M4.96745 22.0748C4.60172 22.0748 4.30523 22.3713 4.30523 22.737C4.30523 23.1027 4.60172 23.3992 4.96745 23.3992C5.33319 23.3992 5.62967 23.1027 5.62967 22.737C5.62967 22.3713 5.33319 22.0748 4.96745 22.0748ZM4.30078 22.737C4.30078 22.3688 4.59927 22.0703 4.96745 22.0703C5.33564 22.0703 5.63412 22.3688 5.63412 22.737C5.63412 23.1052 5.33564 23.4037 4.96745 23.4037C4.59927 23.4037 4.30078 23.1052 4.30078 22.737Z" fill="white"/>
<path d="M5.43851 24.4402C5.43851 24.8072 5.14103 25.1046 4.77407 25.1046C4.40711 25.1046 4.10962 24.8072 4.10962 24.4402C4.10962 24.0732 4.40711 23.7758 4.77407 23.7758C5.14103 23.7758 5.43851 24.0732 5.43851 24.4402Z" fill="white"/>
<path fill-rule="evenodd" clip-rule="evenodd" d="M4.77409 23.7779C4.40836 23.7779 4.11187 24.0743 4.11187 24.4401C4.11187 24.8058 4.40836 25.1022 4.77409 25.1022C5.13983 25.1022 5.43631 24.8058 5.43631 24.4401C5.43631 24.0743 5.13983 23.7779 4.77409 23.7779ZM4.10742 24.4401C4.10742 24.0718 4.40591 23.7734 4.77409 23.7734C5.14228 23.7734 5.44076 24.0718 5.44076 24.4401C5.44076 24.8083 5.14228 25.1067 4.77409 25.1067C4.40591 25.1067 4.10742 24.8083 4.10742 24.4401Z" fill="white"/>
<path d="M5.38382 26.2682C5.38382 26.6352 5.08633 26.9327 4.71937 26.9327C4.35241 26.9327 4.05493 26.6352 4.05493 26.2682C4.05493 25.9013 4.35241 25.6038 4.71937 25.6038C5.08633 25.6038 5.38382 25.9013 5.38382 26.2682Z" fill="white"/>
<path fill-rule="evenodd" clip-rule="evenodd" d="M4.7194 25.606C4.35366 25.606 4.05718 25.9025 4.05718 26.2682C4.05718 26.634 4.35366 26.9305 4.7194 26.9305C5.08513 26.9305 5.38162 26.634 5.38162 26.2682C5.38162 25.9025 5.08513 25.606 4.7194 25.606ZM4.05273 26.2682C4.05273 25.9001 4.35121 25.6016 4.7194 25.6016C5.08758 25.6016 5.38607 25.9001 5.38607 26.2682C5.38607 26.6364 5.08758 26.9349 4.7194 26.9349C4.35121 26.9349 4.05273 26.6364 4.05273 26.2682Z" fill="white"/>
<path d="M5.47952 28.0495C5.47952 28.4164 5.18204 28.7139 4.81507 28.7139C4.44811 28.7139 4.15063 28.4164 4.15063 28.0495C4.15063 27.6825 4.44811 27.385 4.81507 27.385C5.18204 27.385 5.47952 27.6825 5.47952 28.0495Z" fill="white"/>
<path fill-rule="evenodd" clip-rule="evenodd" d="M4.8151 27.3873C4.44937 27.3873 4.15288 27.6838 4.15288 28.0495C4.15288 28.4152 4.44937 28.7117 4.8151 28.7117C5.18084 28.7117 5.47733 28.4152 5.47733 28.0495C5.47733 27.6838 5.18084 27.3873 4.8151 27.3873ZM4.14844 28.0495C4.14844 27.6813 4.44691 27.3828 4.8151 27.3828C5.1833 27.3828 5.48177 27.6813 5.48177 28.0495C5.48177 28.4177 5.1833 28.7162 4.8151 28.7162C4.44691 28.7162 4.14844 28.4177 4.14844 28.0495Z" fill="white"/>
<path fill-rule="evenodd" clip-rule="evenodd" d="M28.4799 13.7891V14.8698H30.209C30.209 14.8698 32.3622 15.0686 32.5303 16.7303C32.6211 17.6281 32.6138 20.9924 32.5879 23.8956V25.5105H19.3753V23.8956C19.3494 20.9922 19.3034 18.01 19.4329 16.7303C19.5623 15.4505 21.7542 14.8698 21.7542 14.8698H23.4833V13.7891H18.8483H16.1428H11.5078V14.8698H13.2369C13.2369 14.8698 15.3901 15.0686 15.5582 16.7303C15.6491 17.6281 15.6417 20.9924 15.6158 23.8956V28.5048C15.6417 31.408 15.6877 34.3904 15.5582 35.6701C15.4287 36.9499 13.2369 37.5306 13.2369 37.5306H11.5078V38.6113H16.1428H18.8483H23.4833V37.5306H21.7542C21.7542 37.5306 19.4463 37.3402 19.4329 35.6701L19.3753 28.5048V26.2002H32.5879V28.5048C32.6138 31.408 32.6598 34.3904 32.5303 35.6701C32.4008 36.9499 30.209 37.5306 30.209 37.5306H28.4799V38.6113H33.1149H35.8204H40.4554V37.5306H38.7263C38.7263 37.5306 36.4183 37.3402 36.405 35.6701L36.3474 28.5048V23.8956C36.3215 20.9922 36.2755 18.01 36.405 16.7303C36.5344 15.4505 38.7263 14.8698 38.7263 14.8698H40.4554V13.7891H35.8204H33.1149H28.4799Z" fill="white"/>
<path d="M310.368 20.52H308.108L310.888 16.66L308.108 12.78H310.368L313.208 16.66L310.368 20.52ZM314.528 20.52H312.268L315.048 16.66L312.268 12.78H314.528L317.368 16.66L314.528 20.52Z" fill="white"/>
<path d="M293.042 22V8.00003H295.602V17.94L303.122 8.00003H305.542V22H302.982V12.08L295.462 22H293.042ZM299.262 7.06003C298.062 7.06003 297.156 6.8067 296.542 6.30003C295.942 5.79337 295.636 5.08003 295.622 4.16003H297.442C297.456 4.65337 297.616 5.03337 297.922 5.30003C298.242 5.5667 298.689 5.70003 299.262 5.70003C299.836 5.70003 300.282 5.5667 300.602 5.30003C300.936 5.03337 301.109 4.65337 301.122 4.16003H302.922C302.909 5.08003 302.596 5.79337 301.982 6.30003C301.369 6.8067 300.462 7.06003 299.262 7.06003Z" fill="white"/>
<path d="M276.597 22V8H279.157V17.94L286.677 8H289.097V22H286.537V12.08L279.017 22H276.597Z" fill="white"/>
<path d="M271.872 22L267.132 15.18L269.232 13.88L274.812 22H271.872ZM262.612 22V8H265.172V22H262.612ZM264.392 16.1V13.86H269.112V16.1H264.392ZM269.472 15.3L267.092 14.98L271.872 8H274.632L269.472 15.3Z" fill="white"/>
<path d="M254.638 22.2001C253.572 22.2001 252.578 22.0267 251.658 21.68C250.752 21.3201 249.958 20.8201 249.278 20.18C248.612 19.5267 248.092 18.76 247.718 17.88C247.345 17 247.158 16.04 247.158 15C247.158 13.96 247.345 13 247.718 12.12C248.092 11.24 248.618 10.48 249.298 9.84005C249.978 9.18672 250.772 8.68672 251.678 8.34005C252.585 7.98005 253.578 7.80005 254.658 7.80005C255.805 7.80005 256.852 8.00005 257.798 8.40005C258.745 8.78672 259.545 9.36672 260.198 10.14L258.518 11.72C258.012 11.1734 257.445 10.7667 256.818 10.5C256.192 10.22 255.512 10.08 254.778 10.08C254.045 10.08 253.372 10.2 252.758 10.44C252.158 10.68 251.632 11.02 251.178 11.46C250.738 11.9 250.392 12.42 250.138 13.02C249.898 13.62 249.778 14.28 249.778 15C249.778 15.72 249.898 16.38 250.138 16.98C250.392 17.58 250.738 18.1 251.178 18.54C251.632 18.98 252.158 19.32 252.758 19.56C253.372 19.8 254.045 19.92 254.778 19.92C255.512 19.92 256.192 19.7867 256.818 19.5201C257.445 19.2401 258.012 18.82 258.518 18.26L260.198 19.8601C259.545 20.6201 258.745 21.2001 257.798 21.6C256.852 22 255.798 22.2001 254.638 22.2001Z" fill="white"/>
<path d="M233.296 22V8H239.556C241.13 8 242.356 8.31333 243.236 8.94C244.116 9.55333 244.556 10.44 244.556 11.6C244.556 12.7467 244.136 13.6333 243.296 14.26C242.456 14.8733 241.35 15.18 239.976 15.18L240.336 14.46C241.896 14.46 243.103 14.7733 243.956 15.4C244.81 16.0267 245.236 16.9333 245.236 18.12C245.236 19.3333 244.79 20.2867 243.896 20.98C243.003 21.66 241.683 22 239.936 22H233.296ZM235.856 20H239.856C240.763 20 241.45 19.8333 241.916 19.5C242.383 19.1533 242.616 18.6267 242.616 17.92C242.616 17.2133 242.383 16.7 241.916 16.38C241.45 16.0467 240.763 15.88 239.856 15.88H235.856V20ZM235.856 13.98H239.336C240.176 13.98 240.816 13.8133 241.256 13.48C241.696 13.1333 241.916 12.64 241.916 12C241.916 11.3333 241.696 10.8333 241.256 10.5C240.816 10.1667 240.176 10 239.336 10H235.856V13.98Z" fill="white"/>
<path d="M222.278 13.82H229.238V15.96H222.278V13.82ZM222.478 19.82H230.378V22H219.878V8H230.098V10.18H222.478V19.82Z" fill="white"/>
<path d="M202.551 22L208.851 8H211.411L217.731 22H215.011L209.591 9.38H210.631L205.231 22H202.551ZM205.451 18.76L206.151 16.72H213.711L214.411 18.76H205.451Z" fill="white"/>
<path d="M188.173 22.2C187.946 22.2 187.719 22.18 187.493 22.14C187.266 22.1 187.019 22.0533 186.753 22L186.933 19.74C187.119 19.7933 187.319 19.82 187.533 19.82C188.093 19.82 188.539 19.5933 188.873 19.14C189.206 18.6733 189.446 17.9933 189.593 17.1C189.739 16.2067 189.839 15.1067 189.893 13.8L190.093 8H200.393V22H197.833V9.56L198.433 10.2H191.773L192.333 9.54L192.193 13.7C192.153 15.0867 192.059 16.3067 191.913 17.36C191.766 18.4133 191.539 19.3 191.233 20.02C190.939 20.7267 190.546 21.2667 190.053 21.64C189.559 22.0133 188.933 22.2 188.173 22.2Z" fill="white"/>
<path d="M178.429 22.2001C177.335 22.2001 176.329 22.02 175.409 21.66C174.489 21.3 173.689 20.8 173.009 20.16C172.329 19.5067 171.802 18.7467 171.429 17.88C171.055 17 170.869 16.04 170.869 15C170.869 13.96 171.055 13.0067 171.429 12.14C171.802 11.26 172.329 10.5 173.009 9.86005C173.689 9.20672 174.489 8.70005 175.409 8.34005C176.329 7.98005 177.329 7.80005 178.409 7.80005C179.502 7.80005 180.502 7.98005 181.409 8.34005C182.329 8.70005 183.129 9.20672 183.809 9.86005C184.489 10.5 185.015 11.26 185.389 12.14C185.762 13.0067 185.949 13.96 185.949 15C185.949 16.04 185.762 17 185.389 17.88C185.015 18.76 184.489 19.52 183.809 20.16C183.129 20.8 182.329 21.3 181.409 21.66C180.502 22.02 179.509 22.2001 178.429 22.2001ZM178.409 19.92C179.115 19.92 179.769 19.8 180.369 19.56C180.969 19.32 181.489 18.98 181.929 18.54C182.369 18.0867 182.709 17.5667 182.949 16.98C183.202 16.38 183.329 15.72 183.329 15C183.329 14.28 183.202 13.6267 182.949 13.04C182.709 12.44 182.369 11.92 181.929 11.48C181.489 11.0267 180.969 10.68 180.369 10.44C179.769 10.2 179.115 10.08 178.409 10.08C177.702 10.08 177.049 10.2 176.449 10.44C175.862 10.68 175.342 11.0267 174.889 11.48C174.449 11.92 174.102 12.44 173.849 13.04C173.609 13.6267 173.489 14.28 173.489 15C173.489 15.7067 173.609 16.36 173.849 16.96C174.102 17.56 174.449 18.0867 174.889 18.54C175.329 18.98 175.849 19.32 176.449 19.56C177.049 19.8 177.702 19.92 178.409 19.92Z" fill="white"/>
<path d="M167.263 22L162.523 15.18L164.623 13.88L170.203 22H167.263ZM158.003 22V8H160.563V22H158.003ZM159.783 16.1V13.86H164.503V16.1H159.783ZM164.863 15.3L162.483 14.98L167.263 8H170.023L164.863 15.3Z" fill="white"/>
<path d="M141.578 22V8H144.138V17.94L151.658 8H154.078V22H151.518V12.08L143.998 22H141.578Z" fill="white"/>
<path d="M135.03 8H137.63V22H135.03V8ZM127.79 22H125.19V8H127.79V22ZM135.23 16H127.57V13.78H135.23V16Z" fill="white"/>
<path d="M116.207 20.52L113.367 16.66L116.207 12.78H118.467L115.687 16.66L118.467 20.52H116.207ZM120.367 20.52L117.527 16.66L120.367 12.78H122.627L119.847 16.66L122.627 20.52H120.367Z" fill="white"/>
<path d="M103.786 22L99.0464 15.18L101.146 13.88L106.726 22H103.786ZM94.5264 22V8H97.0864V22H94.5264ZM96.3064 16.1V13.86H101.026V16.1H96.3064ZM101.386 15.3L99.0064 14.98L103.786 8H106.546L101.386 15.3Z" fill="white"/>
<path d="M89.7199 22L85.6399 15.18L87.8399 13.88L92.7199 22H89.7199ZM83.0399 16.1V13.86H87.2599V16.1H83.0399ZM87.9799 15.3L85.5599 14.98L89.6599 8H92.4199L87.9799 15.3ZM75.3199 22H72.3199L77.1999 13.88L79.4199 15.18L75.3199 22ZM83.7999 22H81.2599V8H83.7999V22ZM82.0199 16.1H77.7799V13.86H82.0199V16.1ZM77.0799 15.3L72.6199 8H75.3799L79.4599 14.98L77.0799 15.3Z" fill="white"/>
<path d="M162.615 48V36.8H164.663V44.752L170.679 36.8H172.615V48H170.567V40.064L164.551 48H162.615Z" fill="white"/>
<path d="M158.835 48L155.043 42.544L156.723 41.504L161.187 48H158.835ZM151.427 48V36.8H153.475V48H151.427ZM152.851 43.28V41.488H156.627V43.28H152.851ZM156.915 42.64L155.011 42.384L158.835 36.8H161.043L156.915 42.64Z" fill="white"/>
<path d="M140.525 46.24C141.112 46.4427 141.629 46.496 142.077 46.4C142.525 46.304 142.925 45.9787 143.277 45.424L143.821 44.576L144.029 44.352L147.933 36.8H149.981L145.117 45.84C144.722 46.5974 144.253 47.1734 143.709 47.5681C143.165 47.9627 142.578 48.1814 141.949 48.2241C141.33 48.2774 140.685 48.16 140.013 47.872L140.525 46.24ZM143.981 46.144L138.989 36.8H141.213L145.117 44.544L143.981 46.144Z" fill="white"/>
<path d="M133.279 48V38.048L133.775 38.56H129.583V36.8H139.055V38.56H134.863L135.343 38.048V48H133.279Z" fill="white"/>
<path d="M125.706 36.8H127.786V48H125.706V36.8ZM119.914 48H117.834V36.8H119.914V48ZM125.866 43.2H119.738V41.424H125.866V43.2Z" fill="white"/>
<path d="M109.035 41.456H114.603V43.168H109.035V41.456ZM109.195 46.2561H115.515V48H107.115V36.8H115.291V38.544H109.195V46.2561Z" fill="white"/>
<path d="M100.736 48.16C99.8823 48.16 99.0876 48.0213 98.3516 47.744C97.6263 47.456 96.9916 47.056 96.4476 46.544C95.9143 46.0213 95.4983 45.408 95.1996 44.704C94.9009 44 94.7516 43.232 94.7516 42.4C94.7516 41.568 94.9009 40.8 95.1996 40.096C95.4983 39.392 95.9196 38.784 96.4636 38.272C97.0076 37.7493 97.6423 37.3493 98.3676 37.072C99.0929 36.784 99.8876 36.64 100.752 36.64C101.669 36.64 102.506 36.8 103.264 37.12C104.021 37.4293 104.661 37.8933 105.184 38.512L103.84 39.776C103.434 39.3387 102.981 39.0133 102.48 38.8C101.978 38.576 101.434 38.464 100.848 38.464C100.261 38.464 99.7223 38.56 99.2316 38.752C98.7516 38.944 98.3303 39.216 97.9676 39.568C97.6156 39.92 97.3383 40.336 97.1356 40.816C96.9436 41.296 96.8476 41.824 96.8476 42.4C96.8476 42.976 96.9436 43.504 97.1356 43.984C97.3383 44.464 97.6156 44.88 97.9676 45.232C98.3303 45.584 98.7516 45.856 99.2316 46.048C99.7223 46.24 100.261 46.336 100.848 46.336C101.434 46.336 101.978 46.2293 102.48 46.016C102.981 45.792 103.434 45.456 103.84 45.008L105.184 46.288C104.661 46.896 104.021 47.36 103.264 47.68C102.506 48 101.664 48.16 100.736 48.16Z" fill="white"/>
<path d="M89.4387 48.16C88.5854 48.16 87.7907 48.0213 87.0547 47.744C86.3294 47.456 85.6947 47.056 85.1507 46.544C84.6174 46.0213 84.2014 45.408 83.9027 44.704C83.604 44 83.4547 43.232 83.4547 42.4C83.4547 41.568 83.604 40.8 83.9027 40.096C84.2014 39.392 84.6227 38.784 85.1667 38.272C85.7107 37.7493 86.3454 37.3493 87.0707 37.072C87.796 36.784 88.5907 36.64 89.4547 36.64C90.372 36.64 91.2094 36.8 91.9667 37.12C92.724 37.4293 93.364 37.8933 93.8867 38.512L92.5427 39.776C92.1374 39.3387 91.684 39.0133 91.1827 38.8C90.6814 38.576 90.1374 38.464 89.5507 38.464C88.964 38.464 88.4254 38.56 87.9347 38.752C87.4547 38.944 87.0334 39.216 86.6707 39.568C86.3187 39.92 86.0414 40.336 85.8387 40.816C85.6467 41.296 85.5507 41.824 85.5507 42.4C85.5507 42.976 85.6467 43.504 85.8387 43.984C86.0414 44.464 86.3187 44.88 86.6707 45.232C87.0334 45.584 87.4547 45.856 87.9347 46.048C88.4254 46.24 88.964 46.336 89.5507 46.336C90.1374 46.336 90.6814 46.2293 91.1827 46.016C91.684 45.792 92.1374 45.456 92.5427 45.008L93.8867 46.288C93.364 46.896 92.724 47.36 91.9667 47.68C91.2094 48 90.3667 48.16 89.4387 48.16Z" fill="white"/>
<path d="M75.488 41.456H81.056V43.168H75.488V41.456ZM75.648 46.2561H81.968V48H73.568V36.8H81.744V38.544H75.648V46.2561Z" fill="white"/>
</svg>
